<?xml version="1.0" encoding="UTF-8"?>
<svg xmlns="http://www.w3.org/2000/svg" width="1200" height="760" viewBox="0 0 1200 760">
<rect width="100%" height="100%" fill="#f8fafc" />
<text x="40" y="36" font-size="24" font-weight="700" fill="#111827">股票价格曲线</text>
<text x="40" y="58" font-size="13" fill="#6b7280">区间 2025-01-02 -&gt; 2026-04-13 | 股票价格曲线与买卖点（下一根K线生效）</text>
<g transform="translate(930,18)">
<rect x="0" y="0" width="220" height="56" rx="10" fill="#ffffff" stroke="#e2e8f0" />
<circle cx="18" cy="20" r="5" fill="#16a34a" />
<text x="30" y="24" font-size="12" fill="#334155">BUY: 开仓</text>
<circle cx="18" cy="40" r="5" fill="#dc2626" />
<text x="30" y="44" font-size="12" fill="#334155">SELL: 平仓</text>
</g>
<text x="40" y="84" font-size="16" font-weight="700" fill="#111827">价格</text>
<line x1="90" y1="418" x2="1160" y2="418" stroke="#94a3b8" stroke-width="1.5" />
<line x1="90" y1="98" x2="90" y2="418" stroke="#cbd5e1" stroke-width="1" />
<line x1="90" y1="418" x2="1160" y2="418" stroke="#cbd5e1" stroke-width="1" />
<path d="M 90.0,418.0 L 90.0,309.2 L 90.9,313.9 L 91.7,318.5 L 92.6,320.5 L 93.5,317.0 L 94.4,314.5 L 95.2,316.3 L 96.1,319.7 L 97.0,322.0 L 97.8,326.8 L 98.7,328.3 L 99.6,328.0 L 100.5,317.1 L 101.3,319.7 L 102.2,316.4 L 103.1,313.4 L 104.0,317.7 L 104.8,326.7 L 105.7,319.3 L 106.6,319.2 L 107.4,316.3 L 108.3,315.2 L 109.2,319.0 L 110.1,319.0 L 110.9,323.5 L 111.8,323.6 L 112.7,319.2 L 113.5,324.2 L 114.4,330.9 L 115.3,334.8 L 116.2,334.3 L 117.0,335.5 L 117.9,328.5 L 118.8,325.7 L 119.6,318.4 L 120.5,315.1 L 121.4,320.5 L 122.3,322.8 L 123.1,321.6 L 124.0,322.0 L 124.9,319.3 L 125.8,322.2 L 126.6,325.3 L 127.5,322.9 L 128.4,324.5 L 129.2,320.3 L 130.1,321.2 L 131.0,322.0 L 131.9,314.9 L 132.7,315.9 L 133.6,316.9 L 134.5,318.4 L 135.3,304.2 L 136.2,282.5 L 137.1,291.1 L 138.0,288.2 L 138.8,290.1 L 139.7,287.1 L 140.6,288.1 L 141.5,286.6 L 142.3,293.2 L 143.2,295.5 L 144.1,300.8 L 144.9,299.1 L 145.8,298.5 L 146.7,289.2 L 147.6,278.4 L 148.4,274.7 L 149.3,280.7 L 150.2,279.1 L 151.0,279.0 L 151.9,280.3 L 152.8,277.1 L 153.7,274.3 L 154.5,279.1 L 155.4,280.0 L 156.3,263.7 L 157.1,260.0 L 158.0,251.9 L 158.9,256.2 L 159.8,254.3 L 160.6,249.2 L 161.5,256.3 L 162.4,256.5 L 163.3,262.8 L 164.1,264.6 L 165.0,260.6 L 165.9,258.8 L 166.7,259.5 L 167.6,260.5 L 168.5,260.9 L 169.4,261.2 L 170.2,260.1 L 171.1,255.7 L 172.0,254.6 L 172.8,254.1 L 173.7,269.8 L 174.6,273.2 L 175.5,271.1 L 176.3,276.2 L 177.2,275.1 L 178.1,274.8 L 178.9,278.7 L 179.8,277.3 L 180.7,277.2 L 181.6,272.5 L 182.4,278.7 L 183.3,275.1 L 184.2,274.4 L 185.1,273.9 L 185.9,280.0 L 186.8,281.2 L 187.7,276.7 L 188.5,276.9 L 189.4,276.3 L 190.3,269.2 L 191.2,253.3 L 192.0,255.6 L 192.9,255.0 L 193.8,254.1 L 194.6,255.1 L 195.5,251.8 L 196.4,252.2 L 197.3,249.1 L 198.1,253.9 L 199.0,254.6 L 199.9,254.9 L 200.7,253.9 L 201.6,252.5 L 202.5,245.8 L 203.4,246.5 L 204.2,248.8 L 205.1,253.6 L 206.0,256.4 L 206.9,254.3 L 207.7,255.0 L 208.6,247.2 L 209.5,253.7 L 210.3,249.9 L 211.2,244.0 L 212.1,261.9 L 213.0,262.1 L 213.8,268.8 L 214.7,271.0 L 215.6,269.0 L 216.4,272.3 L 217.3,275.5 L 218.2,276.8 L 219.1,280.9 L 219.9,276.9 L 220.8,276.2 L 221.7,275.2 L 222.6,277.2 L 223.4,280.2 L 224.3,277.7 L 225.2,276.1 L 226.0,268.3 L 226.9,266.2 L 227.8,268.2 L 228.7,268.3 L 229.5,269.8 L 230.4,270.1 L 231.3,273.0 L 232.1,275.5 L 233.0,277.4 L 233.9,280.8 L 234.8,280.1 L 235.6,275.8 L 236.5,279.0 L 237.4,282.4 L 238.2,281.8 L 239.1,278.8 L 240.0,280.4 L 240.9,278.1 L 241.7,276.1 L 242.6,278.4 L 243.5,288.6 L 244.4,291.9 L 245.2,297.3 L 246.1,296.2 L 247.0,289.1 L 247.8,288.0 L 248.7,288.5 L 249.6,288.4 L 250.5,286.9 L 251.3,286.7 L 252.2,288.7 L 253.1,287.9 L 253.9,278.4 L 254.8,276.0 L 255.7,278.0 L 256.6,277.8 L 257.4,280.1 L 258.3,278.3 L 259.2,278.0 L 260.0,276.8 L 260.9,276.6 L 261.8,276.7 L 262.7,279.7 L 263.5,281.2 L 264.4,284.7 L 265.3,288.3 L 266.2,290.8 L 267.0,291.3 L 267.9,279.8 L 268.8,284.7 L 269.6,289.2 L 270.5,283.0 L 271.4,294.2 L 272.3,295.0 L 273.1,294.3 L 274.0,294.3 L 274.9,289.6 L 275.7,290.3 L 276.6,291.9 L 277.5,291.9 L 278.4,296.3 L 279.2,293.2 L 280.1,294.6 L 281.0,295.2 L 281.9,296.2 L 282.7,295.0 L 283.6,294.5 L 284.5,295.6 L 285.3,307.7 L 286.2,308.4 L 287.1,307.1 L 288.0,303.4 L 288.8,302.4 L 289.7,302.6 L 290.6,305.1 L 291.4,305.4 L 292.3,307.1 L 293.2,307.1 L 294.1,307.1 L 294.9,305.6 L 295.8,339.3 L 296.7,342.7 L 297.5,342.7 L 298.4,342.7 L 299.3,376.1 L 300.2,376.1 L 301.0,376.1 L 301.9,376.1 L 302.8,406.1 L 303.7,406.1 L 304.5,406.1 L 305.4,406.1 L 306.3,410.6 L 307.1,418.0 L 308.0,409.9 L 308.9,407.0 L 309.8,383.9 L 310.6,389.1 L 311.5,384.0 L 312.4,381.0 L 313.2,390.5 L 314.1,379.5 L 315.0,373.2 L 315.9,375.7 L 316.7,367.9 L 317.6,368.2 L 318.5,372.5 L 319.3,372.0 L 320.2,379.0 L 321.1,380.1 L 322.0,380.8 L 322.8,378.5 L 323.7,385.8 L 324.6,391.7 L 325.5,390.4 L 326.3,388.5 L 327.2,384.4 L 328.1,385.2 L 328.9,387.4 L 329.8,388.9 L 330.7,385.7 L 331.6,385.7 L 332.4,382.6 L 333.3,382.0 L 334.2,380.3 L 335.0,377.2 L 335.9,372.0 L 336.8,371.9 L 337.7,376.0 L 338.5,378.7 L 339.4,378.1 L 340.3,379.3 L 341.1,372.7 L 342.0,369.3 L 342.9,370.7 L 343.8,371.0 L 344.6,375.5 L 345.5,378.8 L 346.4,378.5 L 347.3,378.4 L 348.1,373.9 L 349.0,373.2 L 349.9,375.7 L 350.7,376.2 L 351.6,382.7 L 352.5,382.6 L 353.4,383.4 L 354.2,383.2 L 355.1,381.1 L 356.0,380.1 L 356.8,379.8 L 357.7,379.0 L 358.6,375.3 L 359.5,373.1 L 360.3,373.3 L 361.2,374.2 L 362.1,367.9 L 363.0,366.8 L 363.8,366.6 L 364.7,361.5 L 365.6,365.7 L 366.4,366.5 L 367.3,368.0 L 368.2,366.5 L 369.1,358.2 L 369.9,358.9 L 370.8,358.5 L 371.7,358.6 L 372.5,362.8 L 373.4,364.8 L 374.3,361.7 L 375.2,363.5 L 376.0,351.0 L 376.9,350.5 L 377.8,349.6 L 378.6,346.0 L 379.5,347.9 L 380.4,348.4 L 381.3,348.5 L 382.1,350.1 L 383.0,355.1 L 383.9,356.1 L 384.8,353.4 L 385.6,352.7 L 386.5,359.2 L 387.4,359.9 L 388.2,361.5 L 389.1,361.9 L 390.0,363.4 L 390.9,361.1 L 391.7,361.6 L 392.6,362.5 L 393.5,369.4 L 394.3,369.4 L 395.2,367.8 L 396.1,365.1 L 397.0,367.4 L 397.8,362.2 L 398.7,363.4 L 399.6,363.4 L 400.4,367.3 L 401.3,366.3 L 402.2,366.7 L 403.1,366.8 L 403.9,369.0 L 404.8,368.0 L 405.7,368.4 L 406.6,370.3 L 407.4,368.1 L 408.3,368.1 L 409.2,369.5 L 410.0,374.1 L 410.9,373.1 L 411.8,376.2 L 412.7,373.2 L 413.5,373.2 L 414.4,374.1 L 415.3,375.4 L 416.1,376.5 L 417.0,377.7 L 417.9,377.7 L 418.8,377.4 L 419.6,377.0 L 420.5,377.4 L 421.4,368.6 L 422.2,367.0 L 423.1,368.9 L 424.0,368.9 L 424.9,377.3 L 425.7,377.4 L 426.6,378.0 L 427.5,378.1 L 428.4,377.8 L 429.2,377.1 L 430.1,377.0 L 431.0,377.7 L 431.8,374.5 L 432.7,373.6 L 433.6,372.8 L 434.5,373.2 L 435.3,367.4 L 436.2,364.6 L 437.1,358.5 L 437.9,357.0 L 438.8,360.3 L 439.7,359.6 L 440.6,360.9 L 441.4,361.6 L 442.3,357.0 L 443.2,356.4 L 444.1,357.6 L 444.9,357.6 L 445.8,356.0 L 446.7,355.6 L 447.5,360.9 L 448.4,359.2 L 449.3,355.1 L 450.2,356.3 L 451.0,355.9 L 451.9,356.1 L 452.8,350.4 L 453.6,353.0 L 454.5,354.1 L 455.4,354.1 L 456.3,357.3 L 457.1,360.0 L 458.0,358.5 L 458.9,360.2 L 459.7,353.6 L 460.6,356.6 L 461.5,355.9 L 462.4,355.7 L 463.2,343.4 L 464.1,343.9 L 465.0,347.8 L 465.9,346.5 L 466.7,342.1 L 467.6,339.8 L 468.5,336.4 L 469.3,336.9 L 470.2,339.7 L 471.1,342.3 L 472.0,342.1 L 472.8,342.9 L 473.7,348.2 L 474.6,349.1 L 475.4,348.9 L 476.3,349.1 L 477.2,349.1 L 478.1,350.8 L 478.9,348.5 L 479.8,347.0 L 480.7,340.8 L 481.5,344.1 L 482.4,342.3 L 483.3,340.4 L 484.2,340.9 L 485.0,340.5 L 485.9,337.9 L 486.8,335.6 L 487.7,338.4 L 488.5,338.5 L 489.4,340.5 L 490.3,340.3 L 491.1,338.2 L 492.0,339.1 L 492.9,340.3 L 493.8,340.3 L 494.6,341.3 L 495.5,341.7 L 496.4,342.7 L 497.2,341.4 L 498.1,344.7 L 499.0,346.3 L 499.9,342.1 L 500.7,343.1 L 501.6,347.8 L 502.5,347.8 L 503.3,350.5 L 504.2,350.8 L 505.1,340.1 L 506.0,339.1 L 506.8,334.2 L 507.7,335.9 L 508.6,343.6 L 509.5,341.6 L 510.3,342.4 L 511.2,344.0 L 512.1,355.4 L 512.9,357.6 L 513.8,356.7 L 514.7,357.6 L 515.6,353.2 L 516.4,352.1 L 517.3,350.8 L 518.2,351.1 L 519.0,346.8 L 519.9,349.9 L 520.8,349.8 L 521.7,351.8 L 522.5,352.5 L 523.4,352.5 L 524.3,350.4 L 525.2,350.5 L 526.0,349.5 L 526.9,349.1 L 527.8,349.4 L 528.6,350.5 L 529.5,352.4 L 530.4,353.0 L 531.3,352.8 L 532.1,354.0 L 533.0,353.7 L 533.9,356.8 L 534.7,354.7 L 535.6,353.0 L 536.5,352.6 L 537.4,352.7 L 538.2,355.6 L 539.1,356.6 L 540.0,344.4 L 540.8,342.6 L 541.7,341.8 L 542.6,341.8 L 543.5,347.1 L 544.3,348.6 L 545.2,350.7 L 546.1,350.1 L 547.0,350.2 L 547.8,349.8 L 548.7,346.5 L 549.6,345.5 L 550.4,345.7 L 551.3,326.3 L 552.2,333.9 L 553.1,334.3 L 553.9,337.5 L 554.8,333.9 L 555.7,335.6 L 556.5,338.2 L 557.4,334.8 L 558.3,335.9 L 559.2,335.3 L 560.0,334.0 L 560.9,333.9 L 561.8,335.6 L 562.6,333.5 L 563.5,334.6 L 564.4,336.8 L 565.3,338.8 L 566.1,337.9 L 567.0,337.4 L 567.9,340.2 L 568.8,340.5 L 569.6,339.2 L 570.5,337.8 L 571.4,339.7 L 572.2,338.7 L 573.1,341.8 L 574.0,341.1 L 574.9,340.1 L 575.7,340.4 L 576.6,342.0 L 577.5,345.6 L 578.3,342.9 L 579.2,345.3 L 580.1,347.9 L 581.0,347.6 L 581.8,350.4 L 582.7,351.5 L 583.6,350.5 L 584.4,348.3 L 585.3,347.3 L 586.2,347.2 L 587.1,344.6 L 587.9,344.9 L 588.8,347.6 L 589.7,346.7 L 590.6,346.0 L 591.4,345.5 L 592.3,340.1 L 593.2,339.0 L 594.0,340.0 L 594.9,341.4 L 595.8,346.2 L 596.7,346.3 L 597.5,348.5 L 598.4,347.9 L 599.3,335.5 L 600.1,334.0 L 601.0,332.6 L 601.9,331.7 L 602.8,334.0 L 603.6,334.6 L 604.5,334.8 L 605.4,333.5 L 606.3,331.1 L 607.1,329.0 L 608.0,329.6 L 608.9,329.3 L 609.7,324.1 L 610.6,325.3 L 611.5,316.4 L 612.4,307.5 L 613.2,300.7 L 614.1,300.7 L 615.0,301.0 L 615.8,301.0 L 616.7,266.0 L 617.6,267.7 L 618.5,268.0 L 619.3,269.6 L 620.2,272.8 L 621.1,267.2 L 621.9,270.6 L 622.8,271.2 L 623.7,261.5 L 624.6,260.5 L 625.4,260.5 L 626.3,259.6 L 627.2,249.4 L 628.1,243.6 L 628.9,248.9 L 629.8,249.9 L 630.7,245.5 L 631.5,246.9 L 632.4,248.2 L 633.3,247.2 L 634.2,222.1 L 635.0,232.6 L 635.9,233.3 L 636.8,231.5 L 637.6,219.0 L 638.5,204.6 L 639.4,187.0 L 640.3,187.0 L 641.1,178.9 L 642.0,176.3 L 642.9,173.6 L 643.7,182.2 L 644.6,183.9 L 645.5,190.3 L 646.4,188.6 L 647.2,174.4 L 648.1,151.1 L 649.0,154.7 L 649.9,152.0 L 650.7,148.7 L 651.6,174.8 L 652.5,171.5 L 653.3,170.0 L 654.2,163.7 L 655.1,189.6 L 656.0,197.1 L 656.8,197.1 L 657.7,198.8 L 658.6,201.2 L 659.4,204.5 L 660.3,211.5 L 661.2,209.2 L 662.1,211.6 L 662.9,215.9 L 663.8,215.1 L 664.7,218.3 L 665.6,211.8 L 666.4,215.2 L 667.3,210.2 L 668.2,205.0 L 669.0,209.2 L 669.9,208.5 L 670.8,209.1 L 671.7,208.8 L 672.5,222.5 L 673.4,224.8 L 674.3,229.6 L 675.1,228.4 L 676.0,231.4 L 676.9,230.3 L 677.8,229.1 L 678.6,229.7 L 679.5,230.2 L 680.4,217.1 L 681.2,211.1 L 682.1,213.5 L 683.0,205.3 L 683.9,210.9 L 684.7,210.1 L 685.6,211.7 L 686.5,188.4 L 687.4,191.8 L 688.2,194.1 L 689.1,186.2 L 690.0,194.2 L 690.8,196.2 L 691.7,196.2 L 692.6,195.9 L 693.5,205.4 L 694.3,197.5 L 695.2,197.5 L 696.1,199.4 L 696.9,201.6 L 697.8,190.1 L 698.7,200.8 L 699.6,204.7 L 700.4,195.1 L 701.3,203.7 L 702.2,206.9 L 703.0,207.6 L 703.9,170.9 L 704.8,171.1 L 705.7,173.5 L 706.5,171.3 L 707.4,193.7 L 708.3,199.2 L 709.2,188.1 L 710.0,185.7 L 710.9,189.2 L 711.8,187.8 L 712.6,182.9 L 713.5,176.3 L 714.4,172.3 L 715.3,157.9 L 716.1,159.8 L 717.0,162.4 L 717.9,182.1 L 718.7,179.0 L 719.6,171.8 L 720.5,174.0 L 721.4,159.3 L 722.2,164.1 L 723.1,166.0 L 724.0,168.5 L 724.8,164.9 L 725.7,170.6 L 726.6,157.1 L 727.5,137.5 L 728.3,101.0 L 729.2,98.0 L 730.1,104.2 L 731.0,107.5 L 731.8,139.2 L 732.7,150.0 L 733.6,150.0 L 734.4,160.9 L 735.3,197.4 L 736.2,200.4 L 737.1,198.2 L 737.9,196.1 L 738.8,192.3 L 739.7,192.9 L 740.5,206.2 L 741.4,216.3 L 742.3,213.6 L 743.2,215.0 L 744.0,197.8 L 744.9,196.3 L 745.8,190.5 L 746.7,194.9 L 747.5,202.1 L 748.4,204.0 L 749.3,220.8 L 750.1,220.7 L 751.0,223.1 L 751.9,228.1 L 752.8,232.1 L 753.6,232.8 L 754.5,236.7 L 755.4,239.4 L 756.2,211.8 L 757.1,212.0 L 758.0,215.1 L 758.9,212.8 L 759.7,207.5 L 760.6,210.9 L 761.5,210.2 L 762.3,210.8 L 763.2,223.5 L 764.1,220.7 L 765.0,219.4 L 765.8,214.7 L 766.7,201.2 L 767.6,198.5 L 768.5,198.7 L 769.3,198.2 L 770.2,191.1 L 771.1,190.8 L 771.9,190.7 L 772.8,188.3 L 773.7,193.3 L 774.6,192.5 L 775.4,193.7 L 776.3,193.7 L 777.2,196.3 L 778.0,193.0 L 778.9,189.4 L 779.8,186.4 L 780.7,195.5 L 781.5,195.1 L 782.4,196.1 L 783.3,200.1 L 784.1,201.0 L 785.0,207.0 L 785.9,204.7 L 786.8,204.3 L 787.6,215.4 L 788.5,213.1 L 789.4,206.6 L 790.3,203.0 L 791.1,214.1 L 792.0,216.4 L 792.9,218.7 L 793.7,219.3 L 794.6,224.8 L 795.5,223.9 L 796.4,222.1 L 797.2,222.1 L 798.1,220.0 L 799.0,219.0 L 799.8,214.3 L 800.7,213.0 L 801.6,221.7 L 802.5,222.4 L 803.3,226.7 L 804.2,227.4 L 805.1,240.6 L 805.9,246.3 L 806.8,242.6 L 807.7,239.5 L 808.6,248.1 L 809.4,247.4 L 810.3,252.6 L 811.2,252.6 L 812.1,250.2 L 812.9,255.2 L 813.8,254.4 L 814.7,254.0 L 815.5,255.3 L 816.4,251.4 L 817.3,254.9 L 818.2,252.6 L 819.0,253.3 L 819.9,256.9 L 820.8,256.2 L 821.6,260.5 L 822.5,263.8 L 823.4,266.4 L 824.3,268.6 L 825.1,266.0 L 826.0,263.8 L 826.9,264.4 L 827.8,266.4 L 828.6,266.3 L 829.5,268.3 L 830.4,268.9 L 831.2,267.9 L 832.1,268.6 L 833.0,265.0 L 833.9,266.1 L 834.7,266.1 L 835.6,267.7 L 836.5,275.8 L 837.3,278.7 L 838.2,276.2 L 839.1,280.4 L 840.0,283.3 L 840.8,283.5 L 841.7,278.6 L 842.6,278.3 L 843.4,257.5 L 844.3,260.6 L 845.2,265.1 L 846.1,264.8 L 846.9,255.0 L 847.8,250.2 L 848.7,253.6 L 849.6,252.7 L 850.4,249.8 L 851.3,252.0 L 852.2,252.1 L 853.0,255.2 L 853.9,241.4 L 854.8,237.2 L 855.7,244.3 L 856.5,242.7 L 857.4,241.1 L 858.3,233.2 L 859.1,234.2 L 860.0,232.2 L 860.9,220.2 L 861.8,223.5 L 862.6,224.8 L 863.5,224.1 L 864.4,230.7 L 865.2,233.3 L 866.1,236.9 L 867.0,236.9 L 867.9,241.9 L 868.7,239.3 L 869.6,240.4 L 870.5,239.4 L 871.4,247.8 L 872.2,238.8 L 873.1,237.5 L 874.0,237.8 L 874.8,245.5 L 875.7,242.6 L 876.6,242.7 L 877.5,241.1 L 878.3,240.7 L 879.2,235.8 L 880.1,242.7 L 880.9,237.1 L 881.8,249.5 L 882.7,250.7 L 883.6,250.2 L 884.4,246.2 L 885.3,246.8 L 886.2,249.9 L 887.0,248.5 L 887.9,253.3 L 888.8,253.6 L 889.7,248.4 L 890.5,248.5 L 891.4,249.7 L 892.3,259.1 L 893.2,259.9 L 894.0,260.5 L 894.9,262.2 L 895.8,267.4 L 896.6,270.2 L 897.5,268.0 L 898.4,267.7 L 899.3,268.7 L 900.1,271.6 L 901.0,268.2 L 901.9,265.8 L 902.7,271.8 L 903.6,274.2 L 904.5,275.5 L 905.4,277.0 L 906.2,266.9 L 907.1,269.5 L 908.0,272.9 L 908.9,272.3 L 909.7,268.0 L 910.6,267.3 L 911.5,268.7 L 912.3,269.2 L 913.2,273.5 L 914.1,272.6 L 915.0,273.4 L 915.8,274.2 L 916.7,263.2 L 917.6,264.0 L 918.4,260.1 L 919.3,257.8 L 920.2,262.1 L 921.1,263.1 L 921.9,262.2 L 922.8,261.5 L 923.7,268.4 L 924.5,270.9 L 925.4,268.6 L 926.3,268.6 L 927.2,266.0 L 928.0,265.4 L 928.9,268.4 L 929.8,268.3 L 930.7,264.0 L 931.5,264.1 L 932.4,259.3 L 933.3,259.1 L 934.1,260.1 L 935.0,263.8 L 935.9,264.3 L 936.8,261.5 L 937.6,248.6 L 938.5,250.5 L 939.4,252.6 L 940.2,252.3 L 941.1,249.2 L 942.0,246.5 L 942.9,243.3 L 943.7,243.2 L 944.6,246.9 L 945.5,247.3 L 946.3,253.3 L 947.2,250.2 L 948.1,250.8 L 949.0,248.9 L 949.8,252.6 L 950.7,253.6 L 951.6,244.5 L 952.5,246.9 L 953.3,247.5 L 954.2,244.3 L 955.1,239.8 L 955.9,234.8 L 956.8,235.5 L 957.7,235.1 L 958.6,248.9 L 959.4,249.4 L 960.3,249.7 L 961.2,254.9 L 962.0,234.2 L 962.9,236.5 L 963.8,246.6 L 964.7,245.9 L 965.5,229.7 L 966.4,231.6 L 967.3,232.8 L 968.1,231.0 L 969.0,236.5 L 969.9,234.3 L 970.8,231.5 L 971.6,233.0 L 972.5,236.9 L 973.4,239.3 L 974.3,240.8 L 975.1,241.3 L 976.0,252.7 L 976.9,251.7 L 977.7,250.5 L 978.6,249.7 L 979.5,248.6 L 980.4,251.2 L 981.2,251.0 L 982.1,253.3 L 983.0,254.3 L 983.8,257.6 L 984.7,257.9 L 985.6,257.6 L 986.5,254.1 L 987.3,252.1 L 988.2,252.8 L 989.1,253.0 L 990.0,265.3 L 990.8,268.6 L 991.7,269.2 L 992.6,268.9 L 993.4,274.4 L 994.3,273.5 L 995.2,269.5 L 996.1,272.1 L 996.9,282.9 L 997.8,284.5 L 998.7,287.7 L 999.5,286.9 L 1000.4,294.0 L 1001.3,297.9 L 1002.2,300.1 L 1003.0,298.9 L 1003.9,304.6 L 1004.8,300.5 L 1005.6,300.8 L 1006.5,301.0 L 1007.4,297.3 L 1008.3,299.7 L 1009.1,298.8 L 1010.0,300.1 L 1010.9,302.0 L 1011.8,298.9 L 1012.6,296.6 L 1013.5,295.8 L 1014.4,294.6 L 1015.2,295.0 L 1016.1,294.6 L 1017.0,291.4 L 1017.9,294.5 L 1018.7,296.2 L 1019.6,294.3 L 1020.5,294.6 L 1021.3,295.2 L 1022.2,295.2 L 1023.1,296.0 L 1024.0,298.4 L 1024.8,295.5 L 1025.7,293.9 L 1026.6,295.0 L 1027.4,294.3 L 1028.3,293.9 L 1029.2,292.3 L 1030.1,291.6 L 1030.9,292.0 L 1031.8,294.3 L 1032.7,294.9 L 1033.6,295.6 L 1034.4,296.5 L 1035.3,297.5 L 1036.2,296.5 L 1037.0,295.8 L 1037.9,295.9 L 1038.8,296.9 L 1039.7,297.8 L 1040.5,297.1 L 1041.4,298.6 L 1042.3,288.7 L 1043.1,289.8 L 1044.0,291.1 L 1044.9,290.8 L 1045.8,291.6 L 1046.6,290.3 L 1047.5,290.8 L 1048.4,291.1 L 1049.3,285.1 L 1050.1,284.0 L 1051.0,286.1 L 1051.9,285.3 L 1052.7,287.7 L 1053.6,287.5 L 1054.5,287.7 L 1055.4,283.9 L 1056.2,296.3 L 1057.1,294.5 L 1058.0,295.3 L 1058.8,294.6 L 1059.7,302.4 L 1060.6,302.4 L 1061.5,309.6 L 1062.3,311.9 L 1063.2,314.8 L 1064.1,318.9 L 1064.9,318.6 L 1065.8,319.3 L 1066.7,309.9 L 1067.6,310.9 L 1068.4,313.2 L 1069.3,313.5 L 1070.2,311.5 L 1071.1,309.8 L 1071.9,310.2 L 1072.8,310.2 L 1073.7,325.7 L 1074.5,325.5 L 1075.4,321.0 L 1076.3,321.2 L 1077.2,312.7 L 1078.0,313.4 L 1078.9,310.8 L 1079.8,310.3 L 1080.6,306.0 L 1081.5,308.0 L 1082.4,310.1 L 1083.3,309.6 L 1084.1,310.2 L 1085.0,312.4 L 1085.9,311.8 L 1086.7,310.3 L 1087.6,309.2 L 1088.5,311.5 L 1089.4,309.8 L 1090.2,312.7 L 1091.1,317.1 L 1092.0,315.7 L 1092.9,314.4 L 1093.7,312.5 L 1094.6,309.9 L 1095.5,310.9 L 1096.3,313.7 L 1097.2,317.4 L 1098.1,319.6 L 1099.0,320.3 L 1099.8,320.3 L 1100.7,316.8 L 1101.6,323.9 L 1102.4,325.1 L 1103.3,326.2 L 1104.2,327.7 L 1105.1,328.3 L 1105.9,327.5 L 1106.8,332.7 L 1107.7,338.1 L 1108.5,345.3 L 1109.4,348.5 L 1110.3,350.8 L 1111.2,354.0 L 1112.0,354.1 L 1112.9,355.1 L 1113.8,356.7 L 1114.7,351.5 L 1115.5,341.6 L 1116.4,341.6 L 1117.3,339.8 L 1118.1,339.5 L 1119.0,343.6 L 1119.9,344.2 L 1120.8,347.8 L 1121.6,348.5 L 1122.5,349.4 L 1123.4,348.3 L 1124.2,348.9 L 1125.1,349.2 L 1126.0,358.2 L 1126.9,354.0 L 1127.7,355.0 L 1128.6,352.7 L 1129.5,347.0 L 1130.4,351.8 L 1131.2,351.1 L 1132.1,353.5 L 1133.0,349.2 L 1133.8,348.6 L 1134.7,349.1 L 1135.6,347.2 L 1136.5,347.5 L 1137.3,347.3 L 1138.2,351.2 L 1139.1,350.7 L 1139.9,353.3 L 1140.8,355.0 L 1141.7,354.0 L 1142.6,355.7 L 1143.4,353.7 L 1144.3,356.9 L 1145.2,354.7 L 1146.0,355.0 L 1146.9,341.7 L 1147.8,340.1 L 1148.7,339.0 L 1149.5,336.5 L 1150.4,332.5 L 1151.3,335.1 L 1152.2,333.6 L 1153.0,334.3 L 1153.9,326.5 L 1154.8,321.9 L 1155.6,323.3 L 1156.5,323.9 L 1157.4,324.8 L 1158.3,326.4 L 1159.1,325.2 L 1160.0,325.5 L 1160.0,418.0 Z" fill="#14b8a6" opacity="0.22" />
<polyline fill="none" stroke="#0f766e" stroke-width="3" stroke-linecap="round" stroke-linejoin="round" points="90.0,309.2 90.9,313.9 91.7,318.5 92.6,320.5 93.5,317.0 94.4,314.5 95.2,316.3 96.1,319.7 97.0,322.0 97.8,326.8 98.7,328.3 99.6,328.0 100.5,317.1 101.3,319.7 102.2,316.4 103.1,313.4 104.0,317.7 104.8,326.7 105.7,319.3 106.6,319.2 107.4,316.3 108.3,315.2 109.2,319.0 110.1,319.0 110.9,323.5 111.8,323.6 112.7,319.2 113.5,324.2 114.4,330.9 115.3,334.8 116.2,334.3 117.0,335.5 117.9,328.5 118.8,325.7 119.6,318.4 120.5,315.1 121.4,320.5 122.3,322.8 123.1,321.6 124.0,322.0 124.9,319.3 125.8,322.2 126.6,325.3 127.5,322.9 128.4,324.5 129.2,320.3 130.1,321.2 131.0,322.0 131.9,314.9 132.7,315.9 133.6,316.9 134.5,318.4 135.3,304.2 136.2,282.5 137.1,291.1 138.0,288.2 138.8,290.1 139.7,287.1 140.6,288.1 141.5,286.6 142.3,293.2 143.2,295.5 144.1,300.8 144.9,299.1 145.8,298.5 146.7,289.2 147.6,278.4 148.4,274.7 149.3,280.7 150.2,279.1 151.0,279.0 151.9,280.3 152.8,277.1 153.7,274.3 154.5,279.1 155.4,280.0 156.3,263.7 157.1,260.0 158.0,251.9 158.9,256.2 159.8,254.3 160.6,249.2 161.5,256.3 162.4,256.5 163.3,262.8 164.1,264.6 165.0,260.6 165.9,258.8 166.7,259.5 167.6,260.5 168.5,260.9 169.4,261.2 170.2,260.1 171.1,255.7 172.0,254.6 172.8,254.1 173.7,269.8 174.6,273.2 175.5,271.1 176.3,276.2 177.2,275.1 178.1,274.8 178.9,278.7 179.8,277.3 180.7,277.2 181.6,272.5 182.4,278.7 183.3,275.1 184.2,274.4 185.1,273.9 185.9,280.0 186.8,281.2 187.7,276.7 188.5,276.9 189.4,276.3 190.3,269.2 191.2,253.3 192.0,255.6 192.9,255.0 193.8,254.1 194.6,255.1 195.5,251.8 196.4,252.2 197.3,249.1 198.1,253.9 199.0,254.6 199.9,254.9 200.7,253.9 201.6,252.5 202.5,245.8 203.4,246.5 204.2,248.8 205.1,253.6 206.0,256.4 206.9,254.3 207.7,255.0 208.6,247.2 209.5,253.7 210.3,249.9 211.2,244.0 212.1,261.9 213.0,262.1 213.8,268.8 214.7,271.0 215.6,269.0 216.4,272.3 217.3,275.5 218.2,276.8 219.1,280.9 219.9,276.9 220.8,276.2 221.7,275.2 222.6,277.2 223.4,280.2 224.3,277.7 225.2,276.1 226.0,268.3 226.9,266.2 227.8,268.2 228.7,268.3 229.5,269.8 230.4,270.1 231.3,273.0 232.1,275.5 233.0,277.4 233.9,280.8 234.8,280.1 235.6,275.8 236.5,279.0 237.4,282.4 238.2,281.8 239.1,278.8 240.0,280.4 240.9,278.1 241.7,276.1 242.6,278.4 243.5,288.6 244.4,291.9 245.2,297.3 246.1,296.2 247.0,289.1 247.8,288.0 248.7,288.5 249.6,288.4 250.5,286.9 251.3,286.7 252.2,288.7 253.1,287.9 253.9,278.4 254.8,276.0 255.7,278.0 256.6,277.8 257.4,280.1 258.3,278.3 259.2,278.0 260.0,276.8 260.9,276.6 261.8,276.7 262.7,279.7 263.5,281.2 264.4,284.7 265.3,288.3 266.2,290.8 267.0,291.3 267.9,279.8 268.8,284.7 269.6,289.2 270.5,283.0 271.4,294.2 272.3,295.0 273.1,294.3 274.0,294.3 274.9,289.6 275.7,290.3 276.6,291.9 277.5,291.9 278.4,296.3 279.2,293.2 280.1,294.6 281.0,295.2 281.9,296.2 282.7,295.0 283.6,294.5 284.5,295.6 285.3,307.7 286.2,308.4 287.1,307.1 288.0,303.4 288.8,302.4 289.7,302.6 290.6,305.1 291.4,305.4 292.3,307.1 293.2,307.1 294.1,307.1 294.9,305.6 295.8,339.3 296.7,342.7 297.5,342.7 298.4,342.7 299.3,376.1 300.2,376.1 301.0,376.1 301.9,376.1 302.8,406.1 303.7,406.1 304.5,406.1 305.4,406.1 306.3,410.6 307.1,418.0 308.0,409.9 308.9,407.0 309.8,383.9 310.6,389.1 311.5,384.0 312.4,381.0 313.2,390.5 314.1,379.5 315.0,373.2 315.9,375.7 316.7,367.9 317.6,368.2 318.5,372.5 319.3,372.0 320.2,379.0 321.1,380.1 322.0,380.8 322.8,378.5 323.7,385.8 324.6,391.7 325.5,390.4 326.3,388.5 327.2,384.4 328.1,385.2 328.9,387.4 329.8,388.9 330.7,385.7 331.6,385.7 332.4,382.6 333.3,382.0 334.2,380.3 335.0,377.2 335.9,372.0 336.8,371.9 337.7,376.0 338.5,378.7 339.4,378.1 340.3,379.3 341.1,372.7 342.0,369.3 342.9,370.7 343.8,371.0 344.6,375.5 345.5,378.8 346.4,378.5 347.3,378.4 348.1,373.9 349.0,373.2 349.9,375.7 350.7,376.2 351.6,382.7 352.5,382.6 353.4,383.4 354.2,383.2 355.1,381.1 356.0,380.1 356.8,379.8 357.7,379.0 358.6,375.3 359.5,373.1 360.3,373.3 361.2,374.2 362.1,367.9 363.0,366.8 363.8,366.6 364.7,361.5 365.6,365.7 366.4,366.5 367.3,368.0 368.2,366.5 369.1,358.2 369.9,358.9 370.8,358.5 371.7,358.6 372.5,362.8 373.4,364.8 374.3,361.7 375.2,363.5 376.0,351.0 376.9,350.5 377.8,349.6 378.6,346.0 379.5,347.9 380.4,348.4 381.3,348.5 382.1,350.1 383.0,355.1 383.9,356.1 384.8,353.4 385.6,352.7 386.5,359.2 387.4,359.9 388.2,361.5 389.1,361.9 390.0,363.4 390.9,361.1 391.7,361.6 392.6,362.5 393.5,369.4 394.3,369.4 395.2,367.8 396.1,365.1 397.0,367.4 397.8,362.2 398.7,363.4 399.6,363.4 400.4,367.3 401.3,366.3 402.2,366.7 403.1,366.8 403.9,369.0 404.8,368.0 405.7,368.4 406.6,370.3 407.4,368.1 408.3,368.1 409.2,369.5 410.0,374.1 410.9,373.1 411.8,376.2 412.7,373.2 413.5,373.2 414.4,374.1 415.3,375.4 416.1,376.5 417.0,377.7 417.9,377.7 418.8,377.4 419.6,377.0 420.5,377.4 421.4,368.6 422.2,367.0 423.1,368.9 424.0,368.9 424.9,377.3 425.7,377.4 426.6,378.0 427.5,378.1 428.4,377.8 429.2,377.1 430.1,377.0 431.0,377.7 431.8,374.5 432.7,373.6 433.6,372.8 434.5,373.2 435.3,367.4 436.2,364.6 437.1,358.5 437.9,357.0 438.8,360.3 439.7,359.6 440.6,360.9 441.4,361.6 442.3,357.0 443.2,356.4 444.1,357.6 444.9,357.6 445.8,356.0 446.7,355.6 447.5,360.9 448.4,359.2 449.3,355.1 450.2,356.3 451.0,355.9 451.9,356.1 452.8,350.4 453.6,353.0 454.5,354.1 455.4,354.1 456.3,357.3 457.1,360.0 458.0,358.5 458.9,360.2 459.7,353.6 460.6,356.6 461.5,355.9 462.4,355.7 463.2,343.4 464.1,343.9 465.0,347.8 465.9,346.5 466.7,342.1 467.6,339.8 468.5,336.4 469.3,336.9 470.2,339.7 471.1,342.3 472.0,342.1 472.8,342.9 473.7,348.2 474.6,349.1 475.4,348.9 476.3,349.1 477.2,349.1 478.1,350.8 478.9,348.5 479.8,347.0 480.7,340.8 481.5,344.1 482.4,342.3 483.3,340.4 484.2,340.9 485.0,340.5 485.9,337.9 486.8,335.6 487.7,338.4 488.5,338.5 489.4,340.5 490.3,340.3 491.1,338.2 492.0,339.1 492.9,340.3 493.8,340.3 494.6,341.3 495.5,341.7 496.4,342.7 497.2,341.4 498.1,344.7 499.0,346.3 499.9,342.1 500.7,343.1 501.6,347.8 502.5,347.8 503.3,350.5 504.2,350.8 505.1,340.1 506.0,339.1 506.8,334.2 507.7,335.9 508.6,343.6 509.5,341.6 510.3,342.4 511.2,344.0 512.1,355.4 512.9,357.6 513.8,356.7 514.7,357.6 515.6,353.2 516.4,352.1 517.3,350.8 518.2,351.1 519.0,346.8 519.9,349.9 520.8,349.8 521.7,351.8 522.5,352.5 523.4,352.5 524.3,350.4 525.2,350.5 526.0,349.5 526.9,349.1 527.8,349.4 528.6,350.5 529.5,352.4 530.4,353.0 531.3,352.8 532.1,354.0 533.0,353.7 533.9,356.8 534.7,354.7 535.6,353.0 536.5,352.6 537.4,352.7 538.2,355.6 539.1,356.6 540.0,344.4 540.8,342.6 541.7,341.8 542.6,341.8 543.5,347.1 544.3,348.6 545.2,350.7 546.1,350.1 547.0,350.2 547.8,349.8 548.7,346.5 549.6,345.5 550.4,345.7 551.3,326.3 552.2,333.9 553.1,334.3 553.9,337.5 554.8,333.9 555.7,335.6 556.5,338.2 557.4,334.8 558.3,335.9 559.2,335.3 560.0,334.0 560.9,333.9 561.8,335.6 562.6,333.5 563.5,334.6 564.4,336.8 565.3,338.8 566.1,337.9 567.0,337.4 567.9,340.2 568.8,340.5 569.6,339.2 570.5,337.8 571.4,339.7 572.2,338.7 573.1,341.8 574.0,341.1 574.9,340.1 575.7,340.4 576.6,342.0 577.5,345.6 578.3,342.9 579.2,345.3 580.1,347.9 581.0,347.6 581.8,350.4 582.7,351.5 583.6,350.5 584.4,348.3 585.3,347.3 586.2,347.2 587.1,344.6 587.9,344.9 588.8,347.6 589.7,346.7 590.6,346.0 591.4,345.5 592.3,340.1 593.2,339.0 594.0,340.0 594.9,341.4 595.8,346.2 596.7,346.3 597.5,348.5 598.4,347.9 599.3,335.5 600.1,334.0 601.0,332.6 601.9,331.7 602.8,334.0 603.6,334.6 604.5,334.8 605.4,333.5 606.3,331.1 607.1,329.0 608.0,329.6 608.9,329.3 609.7,324.1 610.6,325.3 611.5,316.4 612.4,307.5 613.2,300.7 614.1,300.7 615.0,301.0 615.8,301.0 616.7,266.0 617.6,267.7 618.5,268.0 619.3,269.6 620.2,272.8 621.1,267.2 621.9,270.6 622.8,271.2 623.7,261.5 624.6,260.5 625.4,260.5 626.3,259.6 627.2,249.4 628.1,243.6 628.9,248.9 629.8,249.9 630.7,245.5 631.5,246.9 632.4,248.2 633.3,247.2 634.2,222.1 635.0,232.6 635.9,233.3 636.8,231.5 637.6,219.0 638.5,204.6 639.4,187.0 640.3,187.0 641.1,178.9 642.0,176.3 642.9,173.6 643.7,182.2 644.6,183.9 645.5,190.3 646.4,188.6 647.2,174.4 648.1,151.1 649.0,154.7 649.9,152.0 650.7,148.7 651.6,174.8 652.5,171.5 653.3,170.0 654.2,163.7 655.1,189.6 656.0,197.1 656.8,197.1 657.7,198.8 658.6,201.2 659.4,204.5 660.3,211.5 661.2,209.2 662.1,211.6 662.9,215.9 663.8,215.1 664.7,218.3 665.6,211.8 666.4,215.2 667.3,210.2 668.2,205.0 669.0,209.2 669.9,208.5 670.8,209.1 671.7,208.8 672.5,222.5 673.4,224.8 674.3,229.6 675.1,228.4 676.0,231.4 676.9,230.3 677.8,229.1 678.6,229.7 679.5,230.2 680.4,217.1 681.2,211.1 682.1,213.5 683.0,205.3 683.9,210.9 684.7,210.1 685.6,211.7 686.5,188.4 687.4,191.8 688.2,194.1 689.1,186.2 690.0,194.2 690.8,196.2 691.7,196.2 692.6,195.9 693.5,205.4 694.3,197.5 695.2,197.5 696.1,199.4 696.9,201.6 697.8,190.1 698.7,200.8 699.6,204.7 700.4,195.1 701.3,203.7 702.2,206.9 703.0,207.6 703.9,170.9 704.8,171.1 705.7,173.5 706.5,171.3 707.4,193.7 708.3,199.2 709.2,188.1 710.0,185.7 710.9,189.2 711.8,187.8 712.6,182.9 713.5,176.3 714.4,172.3 715.3,157.9 716.1,159.8 717.0,162.4 717.9,182.1 718.7,179.0 719.6,171.8 720.5,174.0 721.4,159.3 722.2,164.1 723.1,166.0 724.0,168.5 724.8,164.9 725.7,170.6 726.6,157.1 727.5,137.5 728.3,101.0 729.2,98.0 730.1,104.2 731.0,107.5 731.8,139.2 732.7,150.0 733.6,150.0 734.4,160.9 735.3,197.4 736.2,200.4 737.1,198.2 737.9,196.1 738.8,192.3 739.7,192.9 740.5,206.2 741.4,216.3 742.3,213.6 743.2,215.0 744.0,197.8 744.9,196.3 745.8,190.5 746.7,194.9 747.5,202.1 748.4,204.0 749.3,220.8 750.1,220.7 751.0,223.1 751.9,228.1 752.8,232.1 753.6,232.8 754.5,236.7 755.4,239.4 756.2,211.8 757.1,212.0 758.0,215.1 758.9,212.8 759.7,207.5 760.6,210.9 761.5,210.2 762.3,210.8 763.2,223.5 764.1,220.7 765.0,219.4 765.8,214.7 766.7,201.2 767.6,198.5 768.5,198.7 769.3,198.2 770.2,191.1 771.1,190.8 771.9,190.7 772.8,188.3 773.7,193.3 774.6,192.5 775.4,193.7 776.3,193.7 777.2,196.3 778.0,193.0 778.9,189.4 779.8,186.4 780.7,195.5 781.5,195.1 782.4,196.1 783.3,200.1 784.1,201.0 785.0,207.0 785.9,204.7 786.8,204.3 787.6,215.4 788.5,213.1 789.4,206.6 790.3,203.0 791.1,214.1 792.0,216.4 792.9,218.7 793.7,219.3 794.6,224.8 795.5,223.9 796.4,222.1 797.2,222.1 798.1,220.0 799.0,219.0 799.8,214.3 800.7,213.0 801.6,221.7 802.5,222.4 803.3,226.7 804.2,227.4 805.1,240.6 805.9,246.3 806.8,242.6 807.7,239.5 808.6,248.1 809.4,247.4 810.3,252.6 811.2,252.6 812.1,250.2 812.9,255.2 813.8,254.4 814.7,254.0 815.5,255.3 816.4,251.4 817.3,254.9 818.2,252.6 819.0,253.3 819.9,256.9 820.8,256.2 821.6,260.5 822.5,263.8 823.4,266.4 824.3,268.6 825.1,266.0 826.0,263.8 826.9,264.4 827.8,266.4 828.6,266.3 829.5,268.3 830.4,268.9 831.2,267.9 832.1,268.6 833.0,265.0 833.9,266.1 834.7,266.1 835.6,267.7 836.5,275.8 837.3,278.7 838.2,276.2 839.1,280.4 840.0,283.3 840.8,283.5 841.7,278.6 842.6,278.3 843.4,257.5 844.3,260.6 845.2,265.1 846.1,264.8 846.9,255.0 847.8,250.2 848.7,253.6 849.6,252.7 850.4,249.8 851.3,252.0 852.2,252.1 853.0,255.2 853.9,241.4 854.8,237.2 855.7,244.3 856.5,242.7 857.4,241.1 858.3,233.2 859.1,234.2 860.0,232.2 860.9,220.2 861.8,223.5 862.6,224.8 863.5,224.1 864.4,230.7 865.2,233.3 866.1,236.9 867.0,236.9 867.9,241.9 868.7,239.3 869.6,240.4 870.5,239.4 871.4,247.8 872.2,238.8 873.1,237.5 874.0,237.8 874.8,245.5 875.7,242.6 876.6,242.7 877.5,241.1 878.3,240.7 879.2,235.8 880.1,242.7 880.9,237.1 881.8,249.5 882.7,250.7 883.6,250.2 884.4,246.2 885.3,246.8 886.2,249.9 887.0,248.5 887.9,253.3 888.8,253.6 889.7,248.4 890.5,248.5 891.4,249.7 892.3,259.1 893.2,259.9 894.0,260.5 894.9,262.2 895.8,267.4 896.6,270.2 897.5,268.0 898.4,267.7 899.3,268.7 900.1,271.6 901.0,268.2 901.9,265.8 902.7,271.8 903.6,274.2 904.5,275.5 905.4,277.0 906.2,266.9 907.1,269.5 908.0,272.9 908.9,272.3 909.7,268.0 910.6,267.3 911.5,268.7 912.3,269.2 913.2,273.5 914.1,272.6 915.0,273.4 915.8,274.2 916.7,263.2 917.6,264.0 918.4,260.1 919.3,257.8 920.2,262.1 921.1,263.1 921.9,262.2 922.8,261.5 923.7,268.4 924.5,270.9 925.4,268.6 926.3,268.6 927.2,266.0 928.0,265.4 928.9,268.4 929.8,268.3 930.7,264.0 931.5,264.1 932.4,259.3 933.3,259.1 934.1,260.1 935.0,263.8 935.9,264.3 936.8,261.5 937.6,248.6 938.5,250.5 939.4,252.6 940.2,252.3 941.1,249.2 942.0,246.5 942.9,243.3 943.7,243.2 944.6,246.9 945.5,247.3 946.3,253.3 947.2,250.2 948.1,250.8 949.0,248.9 949.8,252.6 950.7,253.6 951.6,244.5 952.5,246.9 953.3,247.5 954.2,244.3 955.1,239.8 955.9,234.8 956.8,235.5 957.7,235.1 958.6,248.9 959.4,249.4 960.3,249.7 961.2,254.9 962.0,234.2 962.9,236.5 963.8,246.6 964.7,245.9 965.5,229.7 966.4,231.6 967.3,232.8 968.1,231.0 969.0,236.5 969.9,234.3 970.8,231.5 971.6,233.0 972.5,236.9 973.4,239.3 974.3,240.8 975.1,241.3 976.0,252.7 976.9,251.7 977.7,250.5 978.6,249.7 979.5,248.6 980.4,251.2 981.2,251.0 982.1,253.3 983.0,254.3 983.8,257.6 984.7,257.9 985.6,257.6 986.5,254.1 987.3,252.1 988.2,252.8 989.1,253.0 990.0,265.3 990.8,268.6 991.7,269.2 992.6,268.9 993.4,274.4 994.3,273.5 995.2,269.5 996.1,272.1 996.9,282.9 997.8,284.5 998.7,287.7 999.5,286.9 1000.4,294.0 1001.3,297.9 1002.2,300.1 1003.0,298.9 1003.9,304.6 1004.8,300.5 1005.6,300.8 1006.5,301.0 1007.4,297.3 1008.3,299.7 1009.1,298.8 1010.0,300.1 1010.9,302.0 1011.8,298.9 1012.6,296.6 1013.5,295.8 1014.4,294.6 1015.2,295.0 1016.1,294.6 1017.0,291.4 1017.9,294.5 1018.7,296.2 1019.6,294.3 1020.5,294.6 1021.3,295.2 1022.2,295.2 1023.1,296.0 1024.0,298.4 1024.8,295.5 1025.7,293.9 1026.6,295.0 1027.4,294.3 1028.3,293.9 1029.2,292.3 1030.1,291.6 1030.9,292.0 1031.8,294.3 1032.7,294.9 1033.6,295.6 1034.4,296.5 1035.3,297.5 1036.2,296.5 1037.0,295.8 1037.9,295.9 1038.8,296.9 1039.7,297.8 1040.5,297.1 1041.4,298.6 1042.3,288.7 1043.1,289.8 1044.0,291.1 1044.9,290.8 1045.8,291.6 1046.6,290.3 1047.5,290.8 1048.4,291.1 1049.3,285.1 1050.1,284.0 1051.0,286.1 1051.9,285.3 1052.7,287.7 1053.6,287.5 1054.5,287.7 1055.4,283.9 1056.2,296.3 1057.1,294.5 1058.0,295.3 1058.8,294.6 1059.7,302.4 1060.6,302.4 1061.5,309.6 1062.3,311.9 1063.2,314.8 1064.1,318.9 1064.9,318.6 1065.8,319.3 1066.7,309.9 1067.6,310.9 1068.4,313.2 1069.3,313.5 1070.2,311.5 1071.1,309.8 1071.9,310.2 1072.8,310.2 1073.7,325.7 1074.5,325.5 1075.4,321.0 1076.3,321.2 1077.2,312.7 1078.0,313.4 1078.9,310.8 1079.8,310.3 1080.6,306.0 1081.5,308.0 1082.4,310.1 1083.3,309.6 1084.1,310.2 1085.0,312.4 1085.9,311.8 1086.7,310.3 1087.6,309.2 1088.5,311.5 1089.4,309.8 1090.2,312.7 1091.1,317.1 1092.0,315.7 1092.9,314.4 1093.7,312.5 1094.6,309.9 1095.5,310.9 1096.3,313.7 1097.2,317.4 1098.1,319.6 1099.0,320.3 1099.8,320.3 1100.7,316.8 1101.6,323.9 1102.4,325.1 1103.3,326.2 1104.2,327.7 1105.1,328.3 1105.9,327.5 1106.8,332.7 1107.7,338.1 1108.5,345.3 1109.4,348.5 1110.3,350.8 1111.2,354.0 1112.0,354.1 1112.9,355.1 1113.8,356.7 1114.7,351.5 1115.5,341.6 1116.4,341.6 1117.3,339.8 1118.1,339.5 1119.0,343.6 1119.9,344.2 1120.8,347.8 1121.6,348.5 1122.5,349.4 1123.4,348.3 1124.2,348.9 1125.1,349.2 1126.0,358.2 1126.9,354.0 1127.7,355.0 1128.6,352.7 1129.5,347.0 1130.4,351.8 1131.2,351.1 1132.1,353.5 1133.0,349.2 1133.8,348.6 1134.7,349.1 1135.6,347.2 1136.5,347.5 1137.3,347.3 1138.2,351.2 1139.1,350.7 1139.9,353.3 1140.8,355.0 1141.7,354.0 1142.6,355.7 1143.4,353.7 1144.3,356.9 1145.2,354.7 1146.0,355.0 1146.9,341.7 1147.8,340.1 1148.7,339.0 1149.5,336.5 1150.4,332.5 1151.3,335.1 1152.2,333.6 1153.0,334.3 1153.9,326.5 1154.8,321.9 1155.6,323.3 1156.5,323.9 1157.4,324.8 1158.3,326.4 1159.1,325.2 1160.0,325.5" />
<text x="90" y="442" font-size="12" fill="#64748b">2025-01-02</text>
<text x="583.0" y="442" font-size="12" fill="#64748b">2025-08-20</text>
<text x="1088" y="442" font-size="12" fill="#64748b">2026-04-13</text>
<text x="8" y="112" font-size="12" fill="#64748b">40.05</text>
<text x="8" y="418" font-size="12" fill="#64748b">17.90</text>
<g><circle cx="123.1" cy="322.8" r="6" fill="#16a34a" stroke="#ffffff" stroke-width="2" /><text x="131.1" y="312.8" font-size="11" font-weight="700" fill="#16a34a">BUY</text></g>
<g><circle cx="175.5" cy="273.2" r="6" fill="#dc2626" stroke="#ffffff" stroke-width="2" /><text x="183.5" y="291.2" font-size="11" font-weight="700" fill="#dc2626">SELL</text></g>
<g><circle cx="192.9" cy="255.6" r="6" fill="#16a34a" stroke="#ffffff" stroke-width="2" /><text x="200.9" y="245.6" font-size="11" font-weight="700" fill="#16a34a">BUY</text></g>
<g><circle cx="214.7" cy="268.8" r="6" fill="#dc2626" stroke="#ffffff" stroke-width="2" /><text x="222.7" y="286.8" font-size="11" font-weight="700" fill="#dc2626">SELL</text></g>
<g><circle cx="256.6" cy="277.8" r="6" fill="#16a34a" stroke="#ffffff" stroke-width="2" /><text x="264.6" y="267.8" font-size="11" font-weight="700" fill="#16a34a">BUY</text></g>
<g><circle cx="267.0" cy="290.8" r="6" fill="#dc2626" stroke="#ffffff" stroke-width="2" /><text x="275.0" y="308.8" font-size="11" font-weight="700" fill="#dc2626">SELL</text></g>
<g><circle cx="318.5" cy="368.0" r="6" fill="#16a34a" stroke="#ffffff" stroke-width="2" /><text x="326.5" y="358.0" font-size="11" font-weight="700" fill="#16a34a">BUY</text></g>
<g><circle cx="326.3" cy="390.5" r="6" fill="#dc2626" stroke="#ffffff" stroke-width="2" /><text x="334.3" y="408.5" font-size="11" font-weight="700" fill="#dc2626">SELL</text></g>
<g><circle cx="336.8" cy="371.9" r="6" fill="#16a34a" stroke="#ffffff" stroke-width="2" /><text x="344.8" y="361.9" font-size="11" font-weight="700" fill="#16a34a">BUY</text></g>
<g><circle cx="353.4" cy="382.6" r="6" fill="#dc2626" stroke="#ffffff" stroke-width="2" /><text x="361.4" y="400.6" font-size="11" font-weight="700" fill="#dc2626">SELL</text></g>
<g><circle cx="361.2" cy="373.3" r="6" fill="#16a34a" stroke="#ffffff" stroke-width="2" /><text x="369.2" y="363.3" font-size="11" font-weight="700" fill="#16a34a">BUY</text></g>
<g><circle cx="388.2" cy="359.9" r="6" fill="#dc2626" stroke="#ffffff" stroke-width="2" /><text x="396.2" y="377.9" font-size="11" font-weight="700" fill="#dc2626">SELL</text></g>
<g><circle cx="424.9" cy="372.5" r="6" fill="#16a34a" stroke="#ffffff" stroke-width="2" /><text x="432.9" y="362.5" font-size="11" font-weight="700" fill="#16a34a">BUY</text></g>
<g><circle cx="429.2" cy="377.8" r="6" fill="#dc2626" stroke="#ffffff" stroke-width="2" /><text x="437.2" y="395.8" font-size="11" font-weight="700" fill="#dc2626">SELL</text></g>
<g><circle cx="436.2" cy="367.2" r="6" fill="#16a34a" stroke="#ffffff" stroke-width="2" /><text x="444.2" y="357.2" font-size="11" font-weight="700" fill="#16a34a">BUY</text></g>
<g><circle cx="460.6" cy="353.6" r="6" fill="#dc2626" stroke="#ffffff" stroke-width="2" /><text x="468.6" y="371.6" font-size="11" font-weight="700" fill="#dc2626">SELL</text></g>
<g><circle cx="465.0" cy="344.0" r="6" fill="#16a34a" stroke="#ffffff" stroke-width="2" /><text x="473.0" y="334.0" font-size="11" font-weight="700" fill="#16a34a">BUY</text></g>
<g><circle cx="479.8" cy="348.5" r="6" fill="#dc2626" stroke="#ffffff" stroke-width="2" /><text x="487.8" y="366.5" font-size="11" font-weight="700" fill="#dc2626">SELL</text></g>
<g><circle cx="485.0" cy="341.2" r="6" fill="#16a34a" stroke="#ffffff" stroke-width="2" /><text x="493.0" y="331.2" font-size="11" font-weight="700" fill="#16a34a">BUY</text></g>
<g><circle cx="499.9" cy="346.2" r="6" fill="#dc2626" stroke="#ffffff" stroke-width="2" /><text x="507.9" y="364.2" font-size="11" font-weight="700" fill="#dc2626">SELL</text></g>
<g><circle cx="509.5" cy="343.6" r="6" fill="#16a34a" stroke="#ffffff" stroke-width="2" /><text x="517.5" y="333.6" font-size="11" font-weight="700" fill="#16a34a">BUY</text></g>
<g><circle cx="513.8" cy="357.4" r="6" fill="#dc2626" stroke="#ffffff" stroke-width="2" /><text x="521.8" y="375.4" font-size="11" font-weight="700" fill="#dc2626">SELL</text></g>
<g><circle cx="542.6" cy="342.0" r="6" fill="#16a34a" stroke="#ffffff" stroke-width="2" /><text x="550.6" y="332.0" font-size="11" font-weight="700" fill="#16a34a">BUY</text></g>
<g><circle cx="569.6" cy="340.5" r="6" fill="#dc2626" stroke="#ffffff" stroke-width="2" /><text x="577.6" y="358.5" font-size="11" font-weight="700" fill="#dc2626">SELL</text></g>
<g><circle cx="594.0" cy="339.0" r="6" fill="#16a34a" stroke="#ffffff" stroke-width="2" /><text x="602.0" y="329.0" font-size="11" font-weight="700" fill="#16a34a">BUY</text></g>
<g><circle cx="600.1" cy="335.6" r="6" fill="#dc2626" stroke="#ffffff" stroke-width="2" /><text x="608.1" y="353.6" font-size="11" font-weight="700" fill="#dc2626">SELL</text></g>
<g><circle cx="601.0" cy="334.0" r="6" fill="#16a34a" stroke="#ffffff" stroke-width="2" /><text x="609.0" y="324.0" font-size="11" font-weight="700" fill="#16a34a">BUY</text></g>
<g><circle cx="657.7" cy="197.2" r="6" fill="#dc2626" stroke="#ffffff" stroke-width="2" /><text x="665.7" y="215.2" font-size="11" font-weight="700" fill="#dc2626">SELL</text></g>
<g><circle cx="684.7" cy="210.9" r="6" fill="#16a34a" stroke="#ffffff" stroke-width="2" /><text x="692.7" y="200.9" font-size="11" font-weight="700" fill="#16a34a">BUY</text></g>
<g><circle cx="703.9" cy="187.9" r="6" fill="#dc2626" stroke="#ffffff" stroke-width="2" /><text x="711.9" y="205.9" font-size="11" font-weight="700" fill="#dc2626">SELL</text></g>
<g><circle cx="706.5" cy="173.4" r="6" fill="#16a34a" stroke="#ffffff" stroke-width="2" /><text x="714.5" y="163.4" font-size="11" font-weight="700" fill="#16a34a">BUY</text></g>
<g><circle cx="737.1" cy="200.4" r="6" fill="#dc2626" stroke="#ffffff" stroke-width="2" /><text x="745.1" y="218.4" font-size="11" font-weight="700" fill="#dc2626">SELL</text></g>
<g><circle cx="761.5" cy="210.9" r="6" fill="#16a34a" stroke="#ffffff" stroke-width="2" /><text x="769.5" y="200.9" font-size="11" font-weight="700" fill="#16a34a">BUY</text></g>
<g><circle cx="785.9" cy="207.0" r="6" fill="#dc2626" stroke="#ffffff" stroke-width="2" /><text x="793.9" y="225.0" font-size="11" font-weight="700" fill="#dc2626">SELL</text></g>
<g><circle cx="846.9" cy="265.0" r="6" fill="#16a34a" stroke="#ffffff" stroke-width="2" /><text x="854.9" y="255.0" font-size="11" font-weight="700" fill="#16a34a">BUY</text></g>
<g><circle cx="873.1" cy="238.5" r="6" fill="#dc2626" stroke="#ffffff" stroke-width="2" /><text x="881.1" y="256.5" font-size="11" font-weight="700" fill="#dc2626">SELL</text></g>
<g><circle cx="919.3" cy="259.9" r="6" fill="#16a34a" stroke="#ffffff" stroke-width="2" /><text x="927.3" y="249.9" font-size="11" font-weight="700" fill="#16a34a">BUY</text></g>
<g><circle cx="928.0" cy="266.1" r="6" fill="#dc2626" stroke="#ffffff" stroke-width="2" /><text x="936.0" y="284.1" font-size="11" font-weight="700" fill="#dc2626">SELL</text></g>
<g><circle cx="934.1" cy="249.9" r="6" fill="#16a34a" stroke="#ffffff" stroke-width="2" /><text x="942.1" y="239.9" font-size="11" font-weight="700" fill="#16a34a">BUY</text></g>
<g><circle cx="962.9" cy="234.3" r="6" fill="#dc2626" stroke="#ffffff" stroke-width="2" /><text x="970.9" y="252.3" font-size="11" font-weight="700" fill="#dc2626">SELL</text></g>
<g><circle cx="964.7" cy="246.8" r="6" fill="#16a34a" stroke="#ffffff" stroke-width="2" /><text x="972.7" y="236.8" font-size="11" font-weight="700" fill="#16a34a">BUY</text></g>
<g><circle cx="977.7" cy="251.7" r="6" fill="#dc2626" stroke="#ffffff" stroke-width="2" /><text x="985.7" y="269.7" font-size="11" font-weight="700" fill="#dc2626">SELL</text></g>
<g><circle cx="1024.0" cy="296.0" r="6" fill="#16a34a" stroke="#ffffff" stroke-width="2" /><text x="1032.0" y="286.0" font-size="11" font-weight="700" fill="#16a34a">BUY</text></g>
<g><circle cx="1037.0" cy="296.6" r="6" fill="#dc2626" stroke="#ffffff" stroke-width="2" /><text x="1045.0" y="314.6" font-size="11" font-weight="700" fill="#dc2626">SELL</text></g>
<g><circle cx="1044.9" cy="291.1" r="6" fill="#16a34a" stroke="#ffffff" stroke-width="2" /><text x="1052.9" y="281.1" font-size="11" font-weight="700" fill="#16a34a">BUY</text></g>
<g><circle cx="1058.8" cy="295.3" r="6" fill="#dc2626" stroke="#ffffff" stroke-width="2" /><text x="1066.8" y="313.3" font-size="11" font-weight="700" fill="#dc2626">SELL</text></g>
<g><circle cx="1082.4" cy="308.0" r="6" fill="#16a34a" stroke="#ffffff" stroke-width="2" /><text x="1090.4" y="298.0" font-size="11" font-weight="700" fill="#16a34a">BUY</text></g>
<g><circle cx="1093.7" cy="314.4" r="6" fill="#dc2626" stroke="#ffffff" stroke-width="2" /><text x="1101.7" y="332.4" font-size="11" font-weight="700" fill="#dc2626">SELL</text></g>
<g><circle cx="1137.3" cy="347.5" r="6" fill="#16a34a" stroke="#ffffff" stroke-width="2" /><text x="1145.3" y="337.5" font-size="11" font-weight="700" fill="#16a34a">BUY</text></g>
<g><circle cx="1142.6" cy="354.0" r="6" fill="#dc2626" stroke="#ffffff" stroke-width="2" /><text x="1150.6" y="372.0" font-size="11" font-weight="700" fill="#dc2626">SELL</text></g>
<g><circle cx="1149.5" cy="338.8" r="6" fill="#16a34a" stroke="#ffffff" stroke-width="2" /><text x="1157.5" y="328.8" font-size="11" font-weight="700" fill="#16a34a">BUY</text></g>
<text x="40" y="732" font-size="13" fill="#334155">初始资金 1,000,000.00 | 结束资金 1,211,572.06 | 总盈亏 +211,572.06</text>
</svg>