<?xml version="1.0" encoding="UTF-8"?>
<svg xmlns="http://www.w3.org/2000/svg" width="1200" height="760" viewBox="0 0 1200 760">
<rect width="100%" height="100%" fill="#f8fafc" />
<text x="40" y="36" font-size="24" font-weight="700" fill="#111827">收益曲线</text>
<text x="40" y="58" font-size="13" fill="#6b7280">区间 2025-01-02 -&gt; 2026-04-13 | 累计收益曲线（下一根K线生效）</text>
<g transform="translate(930,18)">
<rect x="0" y="0" width="220" height="56" rx="10" fill="#ffffff" stroke="#e2e8f0" />
<circle cx="18" cy="20" r="5" fill="#16a34a" />
<text x="30" y="24" font-size="12" fill="#334155">BUY: 开仓</text>
<circle cx="18" cy="40" r="5" fill="#dc2626" />
<text x="30" y="44" font-size="12" fill="#334155">SELL: 平仓</text>
</g>
<text x="40" y="84" font-size="16" font-weight="700" fill="#111827">累计收益</text>
<line x1="90" y1="418" x2="1160" y2="418" stroke="#94a3b8" stroke-width="1.5" />
<line x1="90" y1="98" x2="90" y2="418" stroke="#cbd5e1" stroke-width="1" />
<line x1="90" y1="418" x2="1160" y2="418" stroke="#cbd5e1" stroke-width="1" />
<path d="M 90.0,418.0 L 90.0,388.7 L 90.9,388.7 L 91.7,388.7 L 92.6,388.7 L 93.5,388.7 L 94.4,388.7 L 95.2,388.7 L 96.1,388.7 L 97.0,388.7 L 97.8,388.7 L 98.7,388.7 L 99.6,388.7 L 100.5,388.7 L 101.3,388.7 L 102.2,388.7 L 103.1,388.7 L 104.0,388.7 L 104.8,388.7 L 105.7,388.7 L 106.6,388.7 L 107.4,388.7 L 108.3,388.7 L 109.2,388.7 L 110.1,388.7 L 110.9,388.7 L 111.8,388.7 L 112.7,388.7 L 113.5,388.7 L 114.4,388.7 L 115.3,388.7 L 116.2,388.7 L 117.0,388.7 L 117.9,388.7 L 118.8,388.7 L 119.6,388.7 L 120.5,388.7 L 121.4,388.7 L 122.3,391.9 L 123.1,390.3 L 124.0,390.9 L 124.9,387.2 L 125.8,391.2 L 126.6,395.5 L 127.5,392.1 L 128.4,394.3 L 129.2,388.6 L 130.1,389.8 L 131.0,390.9 L 131.9,381.0 L 132.7,382.4 L 133.6,383.8 L 134.5,385.9 L 135.3,366.3 L 136.2,336.2 L 137.1,348.1 L 138.0,344.1 L 138.8,346.6 L 139.7,342.5 L 140.6,343.9 L 141.5,341.9 L 142.3,351.0 L 143.2,354.2 L 144.1,361.5 L 144.9,359.1 L 145.8,358.3 L 146.7,345.5 L 147.6,330.4 L 148.4,325.3 L 149.3,333.7 L 150.2,331.5 L 151.0,331.3 L 151.9,333.1 L 152.8,328.7 L 153.7,324.8 L 154.5,331.5 L 155.4,332.7 L 156.3,310.1 L 157.1,305.0 L 158.0,293.7 L 158.9,299.7 L 159.8,297.1 L 160.6,290.0 L 161.5,299.9 L 162.4,300.1 L 163.3,308.8 L 164.1,311.4 L 165.0,305.8 L 165.9,303.3 L 166.7,304.3 L 167.6,305.7 L 168.5,306.3 L 169.4,306.7 L 170.2,305.2 L 171.1,299.0 L 172.0,297.5 L 172.8,296.9 L 173.7,318.6 L 174.6,318.7 L 175.5,318.7 L 176.3,318.7 L 177.2,318.7 L 178.1,318.7 L 178.9,318.7 L 179.8,318.7 L 180.7,318.7 L 181.6,318.7 L 182.4,318.7 L 183.3,318.7 L 184.2,318.7 L 185.1,318.7 L 185.9,318.7 L 186.8,318.7 L 187.7,318.7 L 188.5,318.7 L 189.4,318.7 L 190.3,318.7 L 191.2,318.7 L 192.0,321.9 L 192.9,321.1 L 193.8,320.0 L 194.6,321.2 L 195.5,316.8 L 196.4,317.4 L 197.3,313.2 L 198.1,319.6 L 199.0,320.5 L 199.9,320.9 L 200.7,319.6 L 201.6,317.8 L 202.5,308.8 L 203.4,309.8 L 204.2,312.8 L 205.1,319.2 L 206.0,323.0 L 206.9,320.2 L 207.7,321.1 L 208.6,310.7 L 209.5,319.4 L 210.3,314.3 L 211.2,306.5 L 212.1,330.3 L 213.0,330.5 L 213.8,330.6 L 214.7,330.6 L 215.6,330.6 L 216.4,330.6 L 217.3,330.6 L 218.2,330.6 L 219.1,330.6 L 219.9,330.6 L 220.8,330.6 L 221.7,330.6 L 222.6,330.6 L 223.4,330.6 L 224.3,330.6 L 225.2,330.6 L 226.0,330.6 L 226.9,330.6 L 227.8,330.6 L 228.7,330.6 L 229.5,330.6 L 230.4,330.6 L 231.3,330.6 L 232.1,330.6 L 233.0,330.6 L 233.9,330.6 L 234.8,330.6 L 235.6,330.6 L 236.5,330.6 L 237.4,330.6 L 238.2,330.6 L 239.1,330.6 L 240.0,330.6 L 240.9,330.6 L 241.7,330.6 L 242.6,330.6 L 243.5,330.6 L 244.4,330.6 L 245.2,330.6 L 246.1,330.6 L 247.0,330.6 L 247.8,330.6 L 248.7,330.6 L 249.6,330.6 L 250.5,330.6 L 251.3,330.6 L 252.2,330.6 L 253.1,330.6 L 253.9,330.6 L 254.8,330.6 L 255.7,330.6 L 256.6,330.6 L 257.4,330.6 L 258.3,328.1 L 259.2,327.7 L 260.0,326.1 L 260.9,325.8 L 261.8,326.0 L 262.7,330.2 L 263.5,332.2 L 264.4,337.1 L 265.3,342.1 L 266.2,342.2 L 267.0,342.2 L 267.9,342.2 L 268.8,342.2 L 269.6,342.2 L 270.5,342.2 L 271.4,342.2 L 272.3,342.2 L 273.1,342.2 L 274.0,342.2 L 274.9,342.2 L 275.7,342.2 L 276.6,342.2 L 277.5,342.2 L 278.4,342.2 L 279.2,342.2 L 280.1,342.2 L 281.0,342.2 L 281.9,342.2 L 282.7,342.2 L 283.6,342.2 L 284.5,342.2 L 285.3,342.2 L 286.2,342.2 L 287.1,342.2 L 288.0,342.2 L 288.8,342.2 L 289.7,342.2 L 290.6,342.2 L 291.4,342.2 L 292.3,342.2 L 293.2,342.2 L 294.1,342.2 L 294.9,342.2 L 295.8,342.2 L 296.7,342.2 L 297.5,342.2 L 298.4,342.2 L 299.3,342.2 L 300.2,342.2 L 301.0,342.2 L 301.9,342.2 L 302.8,342.2 L 303.7,342.2 L 304.5,342.2 L 305.4,342.2 L 306.3,342.2 L 307.1,342.2 L 308.0,342.2 L 308.9,342.2 L 309.8,342.2 L 310.6,342.2 L 311.5,342.2 L 312.4,342.2 L 313.2,342.2 L 314.1,342.2 L 315.0,342.2 L 315.9,342.2 L 316.7,342.2 L 317.6,342.8 L 318.5,350.3 L 319.3,349.5 L 320.2,361.6 L 321.1,363.6 L 322.0,364.9 L 322.8,360.9 L 323.7,373.6 L 324.6,383.8 L 325.5,383.9 L 326.3,383.9 L 327.2,383.9 L 328.1,383.9 L 328.9,383.9 L 329.8,383.9 L 330.7,383.9 L 331.6,383.9 L 332.4,383.9 L 333.3,383.9 L 334.2,383.9 L 335.0,383.9 L 335.9,375.5 L 336.8,375.2 L 337.7,382.0 L 338.5,386.5 L 339.4,385.6 L 340.3,387.5 L 341.1,376.6 L 342.0,370.9 L 342.9,373.3 L 343.8,373.8 L 344.6,381.3 L 345.5,386.7 L 346.4,386.3 L 347.3,386.0 L 348.1,378.6 L 349.0,377.4 L 349.9,381.5 L 350.7,382.4 L 351.6,393.3 L 352.5,393.4 L 353.4,393.4 L 354.2,393.4 L 355.1,393.4 L 356.0,393.4 L 356.8,393.4 L 357.7,393.4 L 358.6,393.4 L 359.5,393.4 L 360.3,393.9 L 361.2,395.3 L 362.1,385.2 L 363.0,383.3 L 363.8,383.1 L 364.7,374.8 L 365.6,381.6 L 366.4,383.0 L 367.3,385.3 L 368.2,383.0 L 369.1,369.5 L 369.9,370.6 L 370.8,369.9 L 371.7,370.2 L 372.5,376.9 L 373.4,380.1 L 374.3,375.1 L 375.2,378.1 L 376.0,358.0 L 376.9,357.1 L 377.8,355.7 L 378.6,349.9 L 379.5,353.0 L 380.4,353.7 L 381.3,353.9 L 382.1,356.4 L 383.0,364.5 L 383.9,366.1 L 384.8,361.8 L 385.6,360.6 L 386.5,371.2 L 387.4,371.3 L 388.2,371.3 L 389.1,371.3 L 390.0,371.3 L 390.9,371.3 L 391.7,371.3 L 392.6,371.3 L 393.5,371.3 L 394.3,371.3 L 395.2,371.3 L 396.1,371.3 L 397.0,371.3 L 397.8,371.3 L 398.7,371.3 L 399.6,371.3 L 400.4,371.3 L 401.3,371.3 L 402.2,371.3 L 403.1,371.3 L 403.9,371.3 L 404.8,371.3 L 405.7,371.3 L 406.6,371.3 L 407.4,371.3 L 408.3,371.3 L 409.2,371.3 L 410.0,371.3 L 410.9,371.3 L 411.8,371.3 L 412.7,371.3 L 413.5,371.3 L 414.4,371.3 L 415.3,371.3 L 416.1,371.3 L 417.0,371.3 L 417.9,371.3 L 418.8,371.3 L 419.6,371.3 L 420.5,371.3 L 421.4,371.3 L 422.2,371.3 L 423.1,371.3 L 424.0,371.3 L 424.9,371.3 L 425.7,371.3 L 426.6,371.3 L 427.5,371.3 L 428.4,371.3 L 429.2,371.3 L 430.1,371.3 L 431.0,371.3 L 431.8,371.3 L 432.7,371.3 L 433.6,371.3 L 434.5,371.3 L 435.3,371.3 L 436.2,366.8 L 437.1,356.6 L 437.9,354.3 L 438.8,359.8 L 439.7,358.6 L 440.6,360.7 L 441.4,361.9 L 442.3,354.3 L 443.2,353.3 L 444.1,355.2 L 444.9,355.2 L 445.8,352.6 L 446.7,351.9 L 447.5,360.7 L 448.4,357.8 L 449.3,351.2 L 450.2,353.1 L 451.0,352.3 L 451.9,352.8 L 452.8,343.3 L 453.6,347.6 L 454.5,349.5 L 455.4,349.5 L 456.3,354.8 L 457.1,359.3 L 458.0,356.7 L 458.9,359.5 L 459.7,359.6 L 460.6,359.6 L 461.5,359.6 L 462.4,359.6 L 463.2,359.6 L 464.1,360.4 L 465.0,366.5 L 465.9,364.5 L 466.7,357.6 L 467.6,354.0 L 468.5,348.6 L 469.3,349.5 L 470.2,353.8 L 471.1,357.9 L 472.0,357.7 L 472.8,358.8 L 473.7,367.2 L 474.6,368.5 L 475.4,368.3 L 476.3,368.5 L 477.2,368.5 L 478.1,371.2 L 478.9,371.3 L 479.8,371.3 L 480.7,371.3 L 481.5,371.3 L 482.4,371.3 L 483.3,371.3 L 484.2,371.3 L 485.0,370.8 L 485.9,366.8 L 486.8,363.3 L 487.7,367.5 L 488.5,367.7 L 489.4,370.8 L 490.3,370.4 L 491.1,367.3 L 492.0,368.6 L 492.9,370.4 L 493.8,370.4 L 494.6,371.9 L 495.5,372.6 L 496.4,374.1 L 497.2,372.1 L 498.1,377.2 L 499.0,377.3 L 499.9,377.3 L 500.7,377.3 L 501.6,377.3 L 502.5,377.3 L 503.3,377.3 L 504.2,377.3 L 505.1,377.3 L 506.0,377.3 L 506.8,377.3 L 507.7,377.3 L 508.6,388.7 L 509.5,385.7 L 510.3,387.0 L 511.2,389.4 L 512.1,406.3 L 512.9,406.4 L 513.8,406.4 L 514.7,406.4 L 515.6,406.4 L 516.4,406.4 L 517.3,406.4 L 518.2,406.4 L 519.0,406.4 L 519.9,406.4 L 520.8,406.4 L 521.7,406.4 L 522.5,406.4 L 523.4,406.4 L 524.3,406.4 L 525.2,406.4 L 526.0,406.4 L 526.9,406.4 L 527.8,406.4 L 528.6,406.4 L 529.5,406.4 L 530.4,406.4 L 531.3,406.4 L 532.1,406.4 L 533.0,406.4 L 533.9,406.4 L 534.7,406.4 L 535.6,406.4 L 536.5,406.4 L 537.4,406.4 L 538.2,406.4 L 539.1,406.4 L 540.0,406.4 L 540.8,406.4 L 541.7,405.5 L 542.6,405.5 L 543.5,412.9 L 544.3,415.1 L 545.2,418.0 L 546.1,417.2 L 547.0,417.4 L 547.8,416.7 L 548.7,412.0 L 549.6,410.6 L 550.4,410.9 L 551.3,383.3 L 552.2,394.1 L 553.1,394.8 L 553.9,399.3 L 554.8,394.2 L 555.7,396.6 L 556.5,400.3 L 557.4,395.4 L 558.3,397.0 L 559.2,396.2 L 560.0,394.3 L 560.9,394.1 L 561.8,396.6 L 562.6,393.5 L 563.5,395.2 L 564.4,398.3 L 565.3,401.1 L 566.1,399.9 L 567.0,399.1 L 567.9,403.2 L 568.8,403.3 L 569.6,403.3 L 570.5,403.3 L 571.4,403.3 L 572.2,403.3 L 573.1,403.3 L 574.0,403.3 L 574.9,403.3 L 575.7,403.3 L 576.6,403.3 L 577.5,403.3 L 578.3,403.3 L 579.2,403.3 L 580.1,403.3 L 581.0,403.3 L 581.8,403.3 L 582.7,403.3 L 583.6,403.3 L 584.4,403.3 L 585.3,403.3 L 586.2,403.3 L 587.1,403.3 L 587.9,403.3 L 588.8,403.3 L 589.7,403.3 L 590.6,403.3 L 591.4,403.3 L 592.3,403.3 L 593.2,401.7 L 594.0,403.2 L 594.9,405.2 L 595.8,412.0 L 596.7,412.2 L 597.5,415.3 L 598.4,414.5 L 599.3,414.5 L 600.1,412.7 L 601.0,410.7 L 601.9,409.5 L 602.8,412.7 L 603.6,413.5 L 604.5,413.7 L 605.4,411.9 L 606.3,408.7 L 607.1,405.8 L 608.0,406.5 L 608.9,406.2 L 609.7,399.1 L 610.6,400.7 L 611.5,388.5 L 612.4,376.3 L 613.2,367.0 L 614.1,367.0 L 615.0,367.3 L 615.8,367.3 L 616.7,319.5 L 617.6,321.8 L 618.5,322.2 L 619.3,324.4 L 620.2,328.7 L 621.1,321.0 L 621.9,325.8 L 622.8,326.6 L 623.7,313.3 L 624.6,311.9 L 625.4,311.9 L 626.3,310.7 L 627.2,296.7 L 628.1,288.8 L 628.9,296.1 L 629.8,297.5 L 630.7,291.3 L 631.5,293.3 L 632.4,295.1 L 633.3,293.7 L 634.2,259.3 L 635.0,273.7 L 635.9,274.7 L 636.8,272.1 L 637.6,255.1 L 638.5,235.4 L 639.4,211.1 L 640.3,211.1 L 641.1,200.1 L 642.0,196.5 L 642.9,192.8 L 643.7,204.6 L 644.6,206.9 L 645.5,215.8 L 646.4,213.4 L 647.2,193.9 L 648.1,162.0 L 649.0,166.9 L 649.9,163.2 L 650.7,158.7 L 651.6,194.4 L 652.5,189.9 L 653.3,187.9 L 654.2,179.2 L 655.1,214.8 L 656.0,225.0 L 656.8,225.1 L 657.7,225.1 L 658.6,225.1 L 659.4,225.1 L 660.3,225.1 L 661.2,225.1 L 662.1,225.1 L 662.9,225.1 L 663.8,225.1 L 664.7,225.1 L 665.6,225.1 L 666.4,225.1 L 667.3,225.1 L 668.2,225.1 L 669.0,225.1 L 669.9,225.1 L 670.8,225.1 L 671.7,225.1 L 672.5,225.1 L 673.4,225.1 L 674.3,225.1 L 675.1,225.1 L 676.0,225.1 L 676.9,225.1 L 677.8,225.1 L 678.6,225.1 L 679.5,225.1 L 680.4,225.1 L 681.2,225.1 L 682.1,225.1 L 683.0,225.1 L 683.9,233.1 L 684.7,231.9 L 685.6,234.1 L 686.5,201.6 L 687.4,206.4 L 688.2,209.7 L 689.1,198.6 L 690.0,209.7 L 690.8,212.5 L 691.7,212.5 L 692.6,212.1 L 693.5,225.4 L 694.3,214.4 L 695.2,214.4 L 696.1,217.0 L 696.9,220.0 L 697.8,204.0 L 698.7,219.0 L 699.6,224.4 L 700.4,211.0 L 701.3,223.0 L 702.2,227.4 L 703.0,227.6 L 703.9,227.6 L 704.8,227.6 L 705.7,227.6 L 706.5,227.6 L 707.4,227.6 L 708.3,235.1 L 709.2,220.1 L 710.0,216.8 L 710.9,221.6 L 711.8,219.7 L 712.6,213.0 L 713.5,204.1 L 714.4,198.7 L 715.3,179.2 L 716.1,181.8 L 717.0,185.3 L 717.9,212.0 L 718.7,207.7 L 719.6,198.0 L 720.5,200.9 L 721.4,181.0 L 722.2,187.6 L 723.1,190.2 L 724.0,193.5 L 724.8,188.6 L 725.7,196.4 L 726.6,178.1 L 727.5,151.6 L 728.3,102.1 L 729.2,98.0 L 730.1,106.4 L 731.0,110.9 L 731.8,153.9 L 732.7,168.5 L 733.6,168.5 L 734.4,183.3 L 735.3,232.6 L 736.2,232.8 L 737.1,232.8 L 737.9,232.8 L 738.8,232.8 L 739.7,232.8 L 740.5,232.8 L 741.4,232.8 L 742.3,232.8 L 743.2,232.8 L 744.0,232.8 L 744.9,232.8 L 745.8,232.8 L 746.7,232.8 L 747.5,232.8 L 748.4,232.8 L 749.3,232.8 L 750.1,232.8 L 751.0,232.8 L 751.9,232.8 L 752.8,232.8 L 753.6,232.8 L 754.5,232.8 L 755.4,232.8 L 756.2,232.8 L 757.1,232.8 L 758.0,232.8 L 758.9,232.8 L 759.7,232.8 L 760.6,232.8 L 761.5,232.8 L 762.3,232.8 L 763.2,232.8 L 764.1,232.8 L 765.0,232.8 L 765.8,232.8 L 766.7,232.8 L 767.6,229.2 L 768.5,229.4 L 769.3,228.8 L 770.2,219.1 L 771.1,218.7 L 771.9,218.5 L 772.8,215.2 L 773.7,222.1 L 774.6,220.9 L 775.4,222.7 L 776.3,222.7 L 777.2,226.1 L 778.0,221.6 L 778.9,216.7 L 779.8,212.6 L 780.7,225.1 L 781.5,224.5 L 782.4,225.8 L 783.3,231.3 L 784.1,232.5 L 785.0,232.7 L 785.9,232.7 L 786.8,232.7 L 787.6,232.7 L 788.5,232.7 L 789.4,232.7 L 790.3,232.7 L 791.1,232.7 L 792.0,232.7 L 792.9,232.7 L 793.7,232.7 L 794.6,232.7 L 795.5,232.7 L 796.4,232.7 L 797.2,232.7 L 798.1,232.7 L 799.0,232.7 L 799.8,232.7 L 800.7,232.7 L 801.6,232.7 L 802.5,232.7 L 803.3,232.7 L 804.2,232.7 L 805.1,232.7 L 805.9,232.7 L 806.8,232.7 L 807.7,232.7 L 808.6,232.7 L 809.4,232.7 L 810.3,232.7 L 811.2,232.7 L 812.1,232.7 L 812.9,232.7 L 813.8,232.7 L 814.7,232.7 L 815.5,232.7 L 816.4,232.7 L 817.3,232.7 L 818.2,232.7 L 819.0,232.7 L 819.9,232.7 L 820.8,232.7 L 821.6,232.7 L 822.5,232.7 L 823.4,232.7 L 824.3,232.7 L 825.1,232.7 L 826.0,232.7 L 826.9,232.7 L 827.8,232.7 L 828.6,232.7 L 829.5,232.7 L 830.4,232.7 L 831.2,232.7 L 832.1,232.7 L 833.0,232.7 L 833.9,232.7 L 834.7,232.7 L 835.6,232.7 L 836.5,232.7 L 837.3,232.7 L 838.2,232.7 L 839.1,232.7 L 840.0,232.7 L 840.8,232.7 L 841.7,232.7 L 842.6,232.7 L 843.4,232.7 L 844.3,232.7 L 845.2,232.7 L 846.1,232.7 L 846.9,232.7 L 847.8,225.5 L 848.7,230.6 L 849.6,229.2 L 850.4,224.8 L 851.3,228.1 L 852.2,228.4 L 853.0,233.0 L 853.9,211.9 L 854.8,205.4 L 855.7,216.3 L 856.5,213.9 L 857.4,211.4 L 858.3,199.2 L 859.1,200.8 L 860.0,197.6 L 860.9,179.2 L 861.8,184.3 L 862.6,186.3 L 863.5,185.2 L 864.4,195.4 L 865.2,199.4 L 866.1,205.0 L 867.0,205.0 L 867.9,212.6 L 868.7,208.6 L 869.6,210.3 L 870.5,208.8 L 871.4,221.7 L 872.2,221.8 L 873.1,221.8 L 874.0,221.8 L 874.8,221.8 L 875.7,221.8 L 876.6,221.8 L 877.5,221.8 L 878.3,221.8 L 879.2,221.8 L 880.1,221.8 L 880.9,221.8 L 881.8,221.8 L 882.7,221.8 L 883.6,221.8 L 884.4,221.8 L 885.3,221.8 L 886.2,221.8 L 887.0,221.8 L 887.9,221.8 L 888.8,221.8 L 889.7,221.8 L 890.5,221.8 L 891.4,221.8 L 892.3,221.8 L 893.2,221.8 L 894.0,221.8 L 894.9,221.8 L 895.8,221.8 L 896.6,221.8 L 897.5,221.8 L 898.4,221.8 L 899.3,221.8 L 900.1,221.8 L 901.0,221.8 L 901.9,221.8 L 902.7,221.8 L 903.6,221.8 L 904.5,221.8 L 905.4,221.8 L 906.2,221.8 L 907.1,221.8 L 908.0,221.8 L 908.9,221.8 L 909.7,221.8 L 910.6,221.8 L 911.5,221.8 L 912.3,221.8 L 913.2,221.8 L 914.1,221.8 L 915.0,221.8 L 915.8,221.8 L 916.7,221.8 L 917.6,221.8 L 918.4,221.8 L 919.3,218.3 L 920.2,225.2 L 921.1,226.8 L 921.9,225.4 L 922.8,224.2 L 923.7,235.2 L 924.5,239.1 L 925.4,235.5 L 926.3,235.5 L 927.2,235.6 L 928.0,235.6 L 928.9,235.6 L 929.8,235.6 L 930.7,235.6 L 931.5,235.6 L 932.4,235.6 L 933.3,235.6 L 934.1,237.3 L 935.0,243.1 L 935.9,243.8 L 936.8,239.5 L 937.6,219.6 L 938.5,222.5 L 939.4,225.6 L 940.2,225.2 L 941.1,220.5 L 942.0,216.3 L 942.9,211.3 L 943.7,211.1 L 944.6,216.9 L 945.5,217.6 L 946.3,226.8 L 947.2,222.1 L 948.1,223.0 L 949.0,220.1 L 949.8,225.6 L 950.7,227.2 L 951.6,213.1 L 952.5,216.9 L 953.3,217.8 L 954.2,212.9 L 955.1,206.0 L 955.9,198.1 L 956.8,199.3 L 957.7,198.6 L 958.6,220.1 L 959.4,220.7 L 960.3,221.2 L 961.2,229.2 L 962.0,229.4 L 962.9,229.4 L 963.8,229.4 L 964.7,229.4 L 965.5,229.4 L 966.4,232.2 L 967.3,233.9 L 968.1,231.4 L 969.0,239.4 L 969.9,236.2 L 970.8,232.0 L 971.6,234.3 L 972.5,240.0 L 973.4,243.4 L 974.3,245.7 L 975.1,246.4 L 976.0,263.0 L 976.9,263.2 L 977.7,263.2 L 978.6,263.2 L 979.5,263.2 L 980.4,263.2 L 981.2,263.2 L 982.1,263.2 L 983.0,263.2 L 983.8,263.2 L 984.7,263.2 L 985.6,263.2 L 986.5,263.2 L 987.3,263.2 L 988.2,263.2 L 989.1,263.2 L 990.0,263.2 L 990.8,263.2 L 991.7,263.2 L 992.6,263.2 L 993.4,263.2 L 994.3,263.2 L 995.2,263.2 L 996.1,263.2 L 996.9,263.2 L 997.8,263.2 L 998.7,263.2 L 999.5,263.2 L 1000.4,263.2 L 1001.3,263.2 L 1002.2,263.2 L 1003.0,263.2 L 1003.9,263.2 L 1004.8,263.2 L 1005.6,263.2 L 1006.5,263.2 L 1007.4,263.2 L 1008.3,263.2 L 1009.1,263.2 L 1010.0,263.2 L 1010.9,263.2 L 1011.8,263.2 L 1012.6,263.2 L 1013.5,263.2 L 1014.4,263.2 L 1015.2,263.2 L 1016.1,263.2 L 1017.0,263.2 L 1017.9,263.2 L 1018.7,263.2 L 1019.6,263.2 L 1020.5,263.2 L 1021.3,263.2 L 1022.2,263.2 L 1023.1,263.2 L 1024.0,263.2 L 1024.8,263.2 L 1025.7,260.7 L 1026.6,262.6 L 1027.4,261.4 L 1028.3,260.7 L 1029.2,258.1 L 1030.1,257.0 L 1030.9,257.7 L 1031.8,261.4 L 1032.7,262.3 L 1033.6,263.5 L 1034.4,264.9 L 1035.3,266.6 L 1036.2,266.7 L 1037.0,266.7 L 1037.9,266.7 L 1038.8,266.7 L 1039.7,266.7 L 1040.5,266.7 L 1041.4,266.7 L 1042.3,266.7 L 1043.1,266.7 L 1044.0,268.9 L 1044.9,268.4 L 1045.8,269.6 L 1046.6,267.5 L 1047.5,268.4 L 1048.4,268.9 L 1049.3,259.2 L 1050.1,257.6 L 1051.0,260.8 L 1051.9,259.7 L 1052.7,263.4 L 1053.6,263.1 L 1054.5,263.4 L 1055.4,257.4 L 1056.2,277.2 L 1057.1,274.2 L 1058.0,274.3 L 1058.8,274.3 L 1059.7,274.3 L 1060.6,274.3 L 1061.5,274.3 L 1062.3,274.3 L 1063.2,274.3 L 1064.1,274.3 L 1064.9,274.3 L 1065.8,274.3 L 1066.7,274.3 L 1067.6,274.3 L 1068.4,274.3 L 1069.3,274.3 L 1070.2,274.3 L 1071.1,274.3 L 1071.9,274.3 L 1072.8,274.3 L 1073.7,274.3 L 1074.5,274.3 L 1075.4,274.3 L 1076.3,274.3 L 1077.2,274.3 L 1078.0,274.3 L 1078.9,274.3 L 1079.8,274.3 L 1080.6,274.3 L 1081.5,277.7 L 1082.4,281.1 L 1083.3,280.3 L 1084.1,281.3 L 1085.0,284.8 L 1085.9,283.9 L 1086.7,281.5 L 1087.6,279.6 L 1088.5,283.4 L 1089.4,280.6 L 1090.2,285.3 L 1091.1,292.7 L 1092.0,290.3 L 1092.9,290.4 L 1093.7,290.4 L 1094.6,290.4 L 1095.5,290.4 L 1096.3,290.4 L 1097.2,290.4 L 1098.1,290.4 L 1099.0,290.4 L 1099.8,290.4 L 1100.7,290.4 L 1101.6,290.4 L 1102.4,290.4 L 1103.3,290.4 L 1104.2,290.4 L 1105.1,290.4 L 1105.9,290.4 L 1106.8,290.4 L 1107.7,290.4 L 1108.5,290.4 L 1109.4,290.4 L 1110.3,290.4 L 1111.2,290.4 L 1112.0,290.4 L 1112.9,290.4 L 1113.8,290.4 L 1114.7,290.4 L 1115.5,290.4 L 1116.4,290.4 L 1117.3,290.4 L 1118.1,290.4 L 1119.0,290.4 L 1119.9,290.4 L 1120.8,290.4 L 1121.6,290.4 L 1122.5,290.4 L 1123.4,290.4 L 1124.2,290.4 L 1125.1,290.4 L 1126.0,290.4 L 1126.9,290.4 L 1127.7,290.4 L 1128.6,290.4 L 1129.5,290.4 L 1130.4,290.4 L 1131.2,290.4 L 1132.1,290.4 L 1133.0,290.4 L 1133.8,290.4 L 1134.7,290.4 L 1135.6,290.4 L 1136.5,290.4 L 1137.3,290.3 L 1138.2,297.3 L 1139.1,296.2 L 1139.9,300.9 L 1140.8,304.0 L 1141.7,304.1 L 1142.6,304.1 L 1143.4,304.1 L 1144.3,304.1 L 1145.2,304.1 L 1146.0,304.1 L 1146.9,304.1 L 1147.8,304.1 L 1148.7,302.3 L 1149.5,298.1 L 1150.4,291.1 L 1151.3,295.6 L 1152.2,293.1 L 1153.0,294.3 L 1153.9,280.9 L 1154.8,273.0 L 1155.6,275.5 L 1156.5,276.5 L 1157.4,278.0 L 1158.3,280.7 L 1159.1,278.7 L 1160.0,279.2 L 1160.0,418.0 Z" fill="#60a5fa" opacity="0.22" />
<polyline fill="none" stroke="#2563eb" stroke-width="3" stroke-linecap="round" stroke-linejoin="round" points="90.0,388.7 90.9,388.7 91.7,388.7 92.6,388.7 93.5,388.7 94.4,388.7 95.2,388.7 96.1,388.7 97.0,388.7 97.8,388.7 98.7,388.7 99.6,388.7 100.5,388.7 101.3,388.7 102.2,388.7 103.1,388.7 104.0,388.7 104.8,388.7 105.7,388.7 106.6,388.7 107.4,388.7 108.3,388.7 109.2,388.7 110.1,388.7 110.9,388.7 111.8,388.7 112.7,388.7 113.5,388.7 114.4,388.7 115.3,388.7 116.2,388.7 117.0,388.7 117.9,388.7 118.8,388.7 119.6,388.7 120.5,388.7 121.4,388.7 122.3,391.9 123.1,390.3 124.0,390.9 124.9,387.2 125.8,391.2 126.6,395.5 127.5,392.1 128.4,394.3 129.2,388.6 130.1,389.8 131.0,390.9 131.9,381.0 132.7,382.4 133.6,383.8 134.5,385.9 135.3,366.3 136.2,336.2 137.1,348.1 138.0,344.1 138.8,346.6 139.7,342.5 140.6,343.9 141.5,341.9 142.3,351.0 143.2,354.2 144.1,361.5 144.9,359.1 145.8,358.3 146.7,345.5 147.6,330.4 148.4,325.3 149.3,333.7 150.2,331.5 151.0,331.3 151.9,333.1 152.8,328.7 153.7,324.8 154.5,331.5 155.4,332.7 156.3,310.1 157.1,305.0 158.0,293.7 158.9,299.7 159.8,297.1 160.6,290.0 161.5,299.9 162.4,300.1 163.3,308.8 164.1,311.4 165.0,305.8 165.9,303.3 166.7,304.3 167.6,305.7 168.5,306.3 169.4,306.7 170.2,305.2 171.1,299.0 172.0,297.5 172.8,296.9 173.7,318.6 174.6,318.7 175.5,318.7 176.3,318.7 177.2,318.7 178.1,318.7 178.9,318.7 179.8,318.7 180.7,318.7 181.6,318.7 182.4,318.7 183.3,318.7 184.2,318.7 185.1,318.7 185.9,318.7 186.8,318.7 187.7,318.7 188.5,318.7 189.4,318.7 190.3,318.7 191.2,318.7 192.0,321.9 192.9,321.1 193.8,320.0 194.6,321.2 195.5,316.8 196.4,317.4 197.3,313.2 198.1,319.6 199.0,320.5 199.9,320.9 200.7,319.6 201.6,317.8 202.5,308.8 203.4,309.8 204.2,312.8 205.1,319.2 206.0,323.0 206.9,320.2 207.7,321.1 208.6,310.7 209.5,319.4 210.3,314.3 211.2,306.5 212.1,330.3 213.0,330.5 213.8,330.6 214.7,330.6 215.6,330.6 216.4,330.6 217.3,330.6 218.2,330.6 219.1,330.6 219.9,330.6 220.8,330.6 221.7,330.6 222.6,330.6 223.4,330.6 224.3,330.6 225.2,330.6 226.0,330.6 226.9,330.6 227.8,330.6 228.7,330.6 229.5,330.6 230.4,330.6 231.3,330.6 232.1,330.6 233.0,330.6 233.9,330.6 234.8,330.6 235.6,330.6 236.5,330.6 237.4,330.6 238.2,330.6 239.1,330.6 240.0,330.6 240.9,330.6 241.7,330.6 242.6,330.6 243.5,330.6 244.4,330.6 245.2,330.6 246.1,330.6 247.0,330.6 247.8,330.6 248.7,330.6 249.6,330.6 250.5,330.6 251.3,330.6 252.2,330.6 253.1,330.6 253.9,330.6 254.8,330.6 255.7,330.6 256.6,330.6 257.4,330.6 258.3,328.1 259.2,327.7 260.0,326.1 260.9,325.8 261.8,326.0 262.7,330.2 263.5,332.2 264.4,337.1 265.3,342.1 266.2,342.2 267.0,342.2 267.9,342.2 268.8,342.2 269.6,342.2 270.5,342.2 271.4,342.2 272.3,342.2 273.1,342.2 274.0,342.2 274.9,342.2 275.7,342.2 276.6,342.2 277.5,342.2 278.4,342.2 279.2,342.2 280.1,342.2 281.0,342.2 281.9,342.2 282.7,342.2 283.6,342.2 284.5,342.2 285.3,342.2 286.2,342.2 287.1,342.2 288.0,342.2 288.8,342.2 289.7,342.2 290.6,342.2 291.4,342.2 292.3,342.2 293.2,342.2 294.1,342.2 294.9,342.2 295.8,342.2 296.7,342.2 297.5,342.2 298.4,342.2 299.3,342.2 300.2,342.2 301.0,342.2 301.9,342.2 302.8,342.2 303.7,342.2 304.5,342.2 305.4,342.2 306.3,342.2 307.1,342.2 308.0,342.2 308.9,342.2 309.8,342.2 310.6,342.2 311.5,342.2 312.4,342.2 313.2,342.2 314.1,342.2 315.0,342.2 315.9,342.2 316.7,342.2 317.6,342.8 318.5,350.3 319.3,349.5 320.2,361.6 321.1,363.6 322.0,364.9 322.8,360.9 323.7,373.6 324.6,383.8 325.5,383.9 326.3,383.9 327.2,383.9 328.1,383.9 328.9,383.9 329.8,383.9 330.7,383.9 331.6,383.9 332.4,383.9 333.3,383.9 334.2,383.9 335.0,383.9 335.9,375.5 336.8,375.2 337.7,382.0 338.5,386.5 339.4,385.6 340.3,387.5 341.1,376.6 342.0,370.9 342.9,373.3 343.8,373.8 344.6,381.3 345.5,386.7 346.4,386.3 347.3,386.0 348.1,378.6 349.0,377.4 349.9,381.5 350.7,382.4 351.6,393.3 352.5,393.4 353.4,393.4 354.2,393.4 355.1,393.4 356.0,393.4 356.8,393.4 357.7,393.4 358.6,393.4 359.5,393.4 360.3,393.9 361.2,395.3 362.1,385.2 363.0,383.3 363.8,383.1 364.7,374.8 365.6,381.6 366.4,383.0 367.3,385.3 368.2,383.0 369.1,369.5 369.9,370.6 370.8,369.9 371.7,370.2 372.5,376.9 373.4,380.1 374.3,375.1 375.2,378.1 376.0,358.0 376.9,357.1 377.8,355.7 378.6,349.9 379.5,353.0 380.4,353.7 381.3,353.9 382.1,356.4 383.0,364.5 383.9,366.1 384.8,361.8 385.6,360.6 386.5,371.2 387.4,371.3 388.2,371.3 389.1,371.3 390.0,371.3 390.9,371.3 391.7,371.3 392.6,371.3 393.5,371.3 394.3,371.3 395.2,371.3 396.1,371.3 397.0,371.3 397.8,371.3 398.7,371.3 399.6,371.3 400.4,371.3 401.3,371.3 402.2,371.3 403.1,371.3 403.9,371.3 404.8,371.3 405.7,371.3 406.6,371.3 407.4,371.3 408.3,371.3 409.2,371.3 410.0,371.3 410.9,371.3 411.8,371.3 412.7,371.3 413.5,371.3 414.4,371.3 415.3,371.3 416.1,371.3 417.0,371.3 417.9,371.3 418.8,371.3 419.6,371.3 420.5,371.3 421.4,371.3 422.2,371.3 423.1,371.3 424.0,371.3 424.9,371.3 425.7,371.3 426.6,371.3 427.5,371.3 428.4,371.3 429.2,371.3 430.1,371.3 431.0,371.3 431.8,371.3 432.7,371.3 433.6,371.3 434.5,371.3 435.3,371.3 436.2,366.8 437.1,356.6 437.9,354.3 438.8,359.8 439.7,358.6 440.6,360.7 441.4,361.9 442.3,354.3 443.2,353.3 444.1,355.2 444.9,355.2 445.8,352.6 446.7,351.9 447.5,360.7 448.4,357.8 449.3,351.2 450.2,353.1 451.0,352.3 451.9,352.8 452.8,343.3 453.6,347.6 454.5,349.5 455.4,349.5 456.3,354.8 457.1,359.3 458.0,356.7 458.9,359.5 459.7,359.6 460.6,359.6 461.5,359.6 462.4,359.6 463.2,359.6 464.1,360.4 465.0,366.5 465.9,364.5 466.7,357.6 467.6,354.0 468.5,348.6 469.3,349.5 470.2,353.8 471.1,357.9 472.0,357.7 472.8,358.8 473.7,367.2 474.6,368.5 475.4,368.3 476.3,368.5 477.2,368.5 478.1,371.2 478.9,371.3 479.8,371.3 480.7,371.3 481.5,371.3 482.4,371.3 483.3,371.3 484.2,371.3 485.0,370.8 485.9,366.8 486.8,363.3 487.7,367.5 488.5,367.7 489.4,370.8 490.3,370.4 491.1,367.3 492.0,368.6 492.9,370.4 493.8,370.4 494.6,371.9 495.5,372.6 496.4,374.1 497.2,372.1 498.1,377.2 499.0,377.3 499.9,377.3 500.7,377.3 501.6,377.3 502.5,377.3 503.3,377.3 504.2,377.3 505.1,377.3 506.0,377.3 506.8,377.3 507.7,377.3 508.6,388.7 509.5,385.7 510.3,387.0 511.2,389.4 512.1,406.3 512.9,406.4 513.8,406.4 514.7,406.4 515.6,406.4 516.4,406.4 517.3,406.4 518.2,406.4 519.0,406.4 519.9,406.4 520.8,406.4 521.7,406.4 522.5,406.4 523.4,406.4 524.3,406.4 525.2,406.4 526.0,406.4 526.9,406.4 527.8,406.4 528.6,406.4 529.5,406.4 530.4,406.4 531.3,406.4 532.1,406.4 533.0,406.4 533.9,406.4 534.7,406.4 535.6,406.4 536.5,406.4 537.4,406.4 538.2,406.4 539.1,406.4 540.0,406.4 540.8,406.4 541.7,405.5 542.6,405.5 543.5,412.9 544.3,415.1 545.2,418.0 546.1,417.2 547.0,417.4 547.8,416.7 548.7,412.0 549.6,410.6 550.4,410.9 551.3,383.3 552.2,394.1 553.1,394.8 553.9,399.3 554.8,394.2 555.7,396.6 556.5,400.3 557.4,395.4 558.3,397.0 559.2,396.2 560.0,394.3 560.9,394.1 561.8,396.6 562.6,393.5 563.5,395.2 564.4,398.3 565.3,401.1 566.1,399.9 567.0,399.1 567.9,403.2 568.8,403.3 569.6,403.3 570.5,403.3 571.4,403.3 572.2,403.3 573.1,403.3 574.0,403.3 574.9,403.3 575.7,403.3 576.6,403.3 577.5,403.3 578.3,403.3 579.2,403.3 580.1,403.3 581.0,403.3 581.8,403.3 582.7,403.3 583.6,403.3 584.4,403.3 585.3,403.3 586.2,403.3 587.1,403.3 587.9,403.3 588.8,403.3 589.7,403.3 590.6,403.3 591.4,403.3 592.3,403.3 593.2,401.7 594.0,403.2 594.9,405.2 595.8,412.0 596.7,412.2 597.5,415.3 598.4,414.5 599.3,414.5 600.1,412.7 601.0,410.7 601.9,409.5 602.8,412.7 603.6,413.5 604.5,413.7 605.4,411.9 606.3,408.7 607.1,405.8 608.0,406.5 608.9,406.2 609.7,399.1 610.6,400.7 611.5,388.5 612.4,376.3 613.2,367.0 614.1,367.0 615.0,367.3 615.8,367.3 616.7,319.5 617.6,321.8 618.5,322.2 619.3,324.4 620.2,328.7 621.1,321.0 621.9,325.8 622.8,326.6 623.7,313.3 624.6,311.9 625.4,311.9 626.3,310.7 627.2,296.7 628.1,288.8 628.9,296.1 629.8,297.5 630.7,291.3 631.5,293.3 632.4,295.1 633.3,293.7 634.2,259.3 635.0,273.7 635.9,274.7 636.8,272.1 637.6,255.1 638.5,235.4 639.4,211.1 640.3,211.1 641.1,200.1 642.0,196.5 642.9,192.8 643.7,204.6 644.6,206.9 645.5,215.8 646.4,213.4 647.2,193.9 648.1,162.0 649.0,166.9 649.9,163.2 650.7,158.7 651.6,194.4 652.5,189.9 653.3,187.9 654.2,179.2 655.1,214.8 656.0,225.0 656.8,225.1 657.7,225.1 658.6,225.1 659.4,225.1 660.3,225.1 661.2,225.1 662.1,225.1 662.9,225.1 663.8,225.1 664.7,225.1 665.6,225.1 666.4,225.1 667.3,225.1 668.2,225.1 669.0,225.1 669.9,225.1 670.8,225.1 671.7,225.1 672.5,225.1 673.4,225.1 674.3,225.1 675.1,225.1 676.0,225.1 676.9,225.1 677.8,225.1 678.6,225.1 679.5,225.1 680.4,225.1 681.2,225.1 682.1,225.1 683.0,225.1 683.9,233.1 684.7,231.9 685.6,234.1 686.5,201.6 687.4,206.4 688.2,209.7 689.1,198.6 690.0,209.7 690.8,212.5 691.7,212.5 692.6,212.1 693.5,225.4 694.3,214.4 695.2,214.4 696.1,217.0 696.9,220.0 697.8,204.0 698.7,219.0 699.6,224.4 700.4,211.0 701.3,223.0 702.2,227.4 703.0,227.6 703.9,227.6 704.8,227.6 705.7,227.6 706.5,227.6 707.4,227.6 708.3,235.1 709.2,220.1 710.0,216.8 710.9,221.6 711.8,219.7 712.6,213.0 713.5,204.1 714.4,198.7 715.3,179.2 716.1,181.8 717.0,185.3 717.9,212.0 718.7,207.7 719.6,198.0 720.5,200.9 721.4,181.0 722.2,187.6 723.1,190.2 724.0,193.5 724.8,188.6 725.7,196.4 726.6,178.1 727.5,151.6 728.3,102.1 729.2,98.0 730.1,106.4 731.0,110.9 731.8,153.9 732.7,168.5 733.6,168.5 734.4,183.3 735.3,232.6 736.2,232.8 737.1,232.8 737.9,232.8 738.8,232.8 739.7,232.8 740.5,232.8 741.4,232.8 742.3,232.8 743.2,232.8 744.0,232.8 744.9,232.8 745.8,232.8 746.7,232.8 747.5,232.8 748.4,232.8 749.3,232.8 750.1,232.8 751.0,232.8 751.9,232.8 752.8,232.8 753.6,232.8 754.5,232.8 755.4,232.8 756.2,232.8 757.1,232.8 758.0,232.8 758.9,232.8 759.7,232.8 760.6,232.8 761.5,232.8 762.3,232.8 763.2,232.8 764.1,232.8 765.0,232.8 765.8,232.8 766.7,232.8 767.6,229.2 768.5,229.4 769.3,228.8 770.2,219.1 771.1,218.7 771.9,218.5 772.8,215.2 773.7,222.1 774.6,220.9 775.4,222.7 776.3,222.7 777.2,226.1 778.0,221.6 778.9,216.7 779.8,212.6 780.7,225.1 781.5,224.5 782.4,225.8 783.3,231.3 784.1,232.5 785.0,232.7 785.9,232.7 786.8,232.7 787.6,232.7 788.5,232.7 789.4,232.7 790.3,232.7 791.1,232.7 792.0,232.7 792.9,232.7 793.7,232.7 794.6,232.7 795.5,232.7 796.4,232.7 797.2,232.7 798.1,232.7 799.0,232.7 799.8,232.7 800.7,232.7 801.6,232.7 802.5,232.7 803.3,232.7 804.2,232.7 805.1,232.7 805.9,232.7 806.8,232.7 807.7,232.7 808.6,232.7 809.4,232.7 810.3,232.7 811.2,232.7 812.1,232.7 812.9,232.7 813.8,232.7 814.7,232.7 815.5,232.7 816.4,232.7 817.3,232.7 818.2,232.7 819.0,232.7 819.9,232.7 820.8,232.7 821.6,232.7 822.5,232.7 823.4,232.7 824.3,232.7 825.1,232.7 826.0,232.7 826.9,232.7 827.8,232.7 828.6,232.7 829.5,232.7 830.4,232.7 831.2,232.7 832.1,232.7 833.0,232.7 833.9,232.7 834.7,232.7 835.6,232.7 836.5,232.7 837.3,232.7 838.2,232.7 839.1,232.7 840.0,232.7 840.8,232.7 841.7,232.7 842.6,232.7 843.4,232.7 844.3,232.7 845.2,232.7 846.1,232.7 846.9,232.7 847.8,225.5 848.7,230.6 849.6,229.2 850.4,224.8 851.3,228.1 852.2,228.4 853.0,233.0 853.9,211.9 854.8,205.4 855.7,216.3 856.5,213.9 857.4,211.4 858.3,199.2 859.1,200.8 860.0,197.6 860.9,179.2 861.8,184.3 862.6,186.3 863.5,185.2 864.4,195.4 865.2,199.4 866.1,205.0 867.0,205.0 867.9,212.6 868.7,208.6 869.6,210.3 870.5,208.8 871.4,221.7 872.2,221.8 873.1,221.8 874.0,221.8 874.8,221.8 875.7,221.8 876.6,221.8 877.5,221.8 878.3,221.8 879.2,221.8 880.1,221.8 880.9,221.8 881.8,221.8 882.7,221.8 883.6,221.8 884.4,221.8 885.3,221.8 886.2,221.8 887.0,221.8 887.9,221.8 888.8,221.8 889.7,221.8 890.5,221.8 891.4,221.8 892.3,221.8 893.2,221.8 894.0,221.8 894.9,221.8 895.8,221.8 896.6,221.8 897.5,221.8 898.4,221.8 899.3,221.8 900.1,221.8 901.0,221.8 901.9,221.8 902.7,221.8 903.6,221.8 904.5,221.8 905.4,221.8 906.2,221.8 907.1,221.8 908.0,221.8 908.9,221.8 909.7,221.8 910.6,221.8 911.5,221.8 912.3,221.8 913.2,221.8 914.1,221.8 915.0,221.8 915.8,221.8 916.7,221.8 917.6,221.8 918.4,221.8 919.3,218.3 920.2,225.2 921.1,226.8 921.9,225.4 922.8,224.2 923.7,235.2 924.5,239.1 925.4,235.5 926.3,235.5 927.2,235.6 928.0,235.6 928.9,235.6 929.8,235.6 930.7,235.6 931.5,235.6 932.4,235.6 933.3,235.6 934.1,237.3 935.0,243.1 935.9,243.8 936.8,239.5 937.6,219.6 938.5,222.5 939.4,225.6 940.2,225.2 941.1,220.5 942.0,216.3 942.9,211.3 943.7,211.1 944.6,216.9 945.5,217.6 946.3,226.8 947.2,222.1 948.1,223.0 949.0,220.1 949.8,225.6 950.7,227.2 951.6,213.1 952.5,216.9 953.3,217.8 954.2,212.9 955.1,206.0 955.9,198.1 956.8,199.3 957.7,198.6 958.6,220.1 959.4,220.7 960.3,221.2 961.2,229.2 962.0,229.4 962.9,229.4 963.8,229.4 964.7,229.4 965.5,229.4 966.4,232.2 967.3,233.9 968.1,231.4 969.0,239.4 969.9,236.2 970.8,232.0 971.6,234.3 972.5,240.0 973.4,243.4 974.3,245.7 975.1,246.4 976.0,263.0 976.9,263.2 977.7,263.2 978.6,263.2 979.5,263.2 980.4,263.2 981.2,263.2 982.1,263.2 983.0,263.2 983.8,263.2 984.7,263.2 985.6,263.2 986.5,263.2 987.3,263.2 988.2,263.2 989.1,263.2 990.0,263.2 990.8,263.2 991.7,263.2 992.6,263.2 993.4,263.2 994.3,263.2 995.2,263.2 996.1,263.2 996.9,263.2 997.8,263.2 998.7,263.2 999.5,263.2 1000.4,263.2 1001.3,263.2 1002.2,263.2 1003.0,263.2 1003.9,263.2 1004.8,263.2 1005.6,263.2 1006.5,263.2 1007.4,263.2 1008.3,263.2 1009.1,263.2 1010.0,263.2 1010.9,263.2 1011.8,263.2 1012.6,263.2 1013.5,263.2 1014.4,263.2 1015.2,263.2 1016.1,263.2 1017.0,263.2 1017.9,263.2 1018.7,263.2 1019.6,263.2 1020.5,263.2 1021.3,263.2 1022.2,263.2 1023.1,263.2 1024.0,263.2 1024.8,263.2 1025.7,260.7 1026.6,262.6 1027.4,261.4 1028.3,260.7 1029.2,258.1 1030.1,257.0 1030.9,257.7 1031.8,261.4 1032.7,262.3 1033.6,263.5 1034.4,264.9 1035.3,266.6 1036.2,266.7 1037.0,266.7 1037.9,266.7 1038.8,266.7 1039.7,266.7 1040.5,266.7 1041.4,266.7 1042.3,266.7 1043.1,266.7 1044.0,268.9 1044.9,268.4 1045.8,269.6 1046.6,267.5 1047.5,268.4 1048.4,268.9 1049.3,259.2 1050.1,257.6 1051.0,260.8 1051.9,259.7 1052.7,263.4 1053.6,263.1 1054.5,263.4 1055.4,257.4 1056.2,277.2 1057.1,274.2 1058.0,274.3 1058.8,274.3 1059.7,274.3 1060.6,274.3 1061.5,274.3 1062.3,274.3 1063.2,274.3 1064.1,274.3 1064.9,274.3 1065.8,274.3 1066.7,274.3 1067.6,274.3 1068.4,274.3 1069.3,274.3 1070.2,274.3 1071.1,274.3 1071.9,274.3 1072.8,274.3 1073.7,274.3 1074.5,274.3 1075.4,274.3 1076.3,274.3 1077.2,274.3 1078.0,274.3 1078.9,274.3 1079.8,274.3 1080.6,274.3 1081.5,277.7 1082.4,281.1 1083.3,280.3 1084.1,281.3 1085.0,284.8 1085.9,283.9 1086.7,281.5 1087.6,279.6 1088.5,283.4 1089.4,280.6 1090.2,285.3 1091.1,292.7 1092.0,290.3 1092.9,290.4 1093.7,290.4 1094.6,290.4 1095.5,290.4 1096.3,290.4 1097.2,290.4 1098.1,290.4 1099.0,290.4 1099.8,290.4 1100.7,290.4 1101.6,290.4 1102.4,290.4 1103.3,290.4 1104.2,290.4 1105.1,290.4 1105.9,290.4 1106.8,290.4 1107.7,290.4 1108.5,290.4 1109.4,290.4 1110.3,290.4 1111.2,290.4 1112.0,290.4 1112.9,290.4 1113.8,290.4 1114.7,290.4 1115.5,290.4 1116.4,290.4 1117.3,290.4 1118.1,290.4 1119.0,290.4 1119.9,290.4 1120.8,290.4 1121.6,290.4 1122.5,290.4 1123.4,290.4 1124.2,290.4 1125.1,290.4 1126.0,290.4 1126.9,290.4 1127.7,290.4 1128.6,290.4 1129.5,290.4 1130.4,290.4 1131.2,290.4 1132.1,290.4 1133.0,290.4 1133.8,290.4 1134.7,290.4 1135.6,290.4 1136.5,290.4 1137.3,290.3 1138.2,297.3 1139.1,296.2 1139.9,300.9 1140.8,304.0 1141.7,304.1 1142.6,304.1 1143.4,304.1 1144.3,304.1 1145.2,304.1 1146.0,304.1 1146.9,304.1 1147.8,304.1 1148.7,302.3 1149.5,298.1 1150.4,291.1 1151.3,295.6 1152.2,293.1 1153.0,294.3 1153.9,280.9 1154.8,273.0 1155.6,275.5 1156.5,276.5 1157.4,278.0 1158.3,280.7 1159.1,278.7 1160.0,279.2" />
<text x="90" y="442" font-size="12" fill="#64748b">2025-01-02</text>
<text x="583.0" y="442" font-size="12" fill="#64748b">2025-08-20</text>
<text x="1088" y="442" font-size="12" fill="#64748b">2026-04-13</text>
<text x="8" y="112" font-size="12" fill="#64748b">58.90%</text>
<text x="8" y="418" font-size="12" fill="#64748b">-5.94%</text>
<g><circle cx="123.1" cy="-11697.0" r="6" fill="#16a34a" stroke="#ffffff" stroke-width="2" /><text x="131.1" y="-11707.0" font-size="11" font-weight="700" fill="#16a34a">BUY</text></g>
<g><circle cx="175.5" cy="-13388.1" r="6" fill="#dc2626" stroke="#ffffff" stroke-width="2" /><text x="183.5" y="-13370.1" font-size="11" font-weight="700" fill="#dc2626">SELL</text></g>
<g><circle cx="192.9" cy="-13992.0" r="6" fill="#16a34a" stroke="#ffffff" stroke-width="2" /><text x="200.9" y="-14002.0" font-size="11" font-weight="700" fill="#16a34a">BUY</text></g>
<g><circle cx="214.7" cy="-13541.4" r="6" fill="#dc2626" stroke="#ffffff" stroke-width="2" /><text x="222.7" y="-13523.4" font-size="11" font-weight="700" fill="#dc2626">SELL</text></g>
<g><circle cx="259.2" cy="-13222.1" r="6" fill="#16a34a" stroke="#ffffff" stroke-width="2" /><text x="267.2" y="-13232.1" font-size="11" font-weight="700" fill="#16a34a">BUY</text></g>
<g><circle cx="267.0" cy="-12787.1" r="6" fill="#dc2626" stroke="#ffffff" stroke-width="2" /><text x="275.0" y="-12769.1" font-size="11" font-weight="700" fill="#dc2626">SELL</text></g>
<g><circle cx="318.5" cy="-10150.5" r="6" fill="#16a34a" stroke="#ffffff" stroke-width="2" /><text x="326.5" y="-10160.5" font-size="11" font-weight="700" fill="#16a34a">BUY</text></g>
<g><circle cx="326.3" cy="-9383.1" r="6" fill="#dc2626" stroke="#ffffff" stroke-width="2" /><text x="334.3" y="-9365.1" font-size="11" font-weight="700" fill="#dc2626">SELL</text></g>
<g><circle cx="336.8" cy="-10018.9" r="6" fill="#16a34a" stroke="#ffffff" stroke-width="2" /><text x="344.8" y="-10028.9" font-size="11" font-weight="700" fill="#16a34a">BUY</text></g>
<g><circle cx="353.4" cy="-9653.5" r="6" fill="#dc2626" stroke="#ffffff" stroke-width="2" /><text x="361.4" y="-9635.5" font-size="11" font-weight="700" fill="#dc2626">SELL</text></g>
<g><circle cx="361.2" cy="-9969.2" r="6" fill="#16a34a" stroke="#ffffff" stroke-width="2" /><text x="369.2" y="-9979.2" font-size="11" font-weight="700" fill="#16a34a">BUY</text></g>
<g><circle cx="388.2" cy="-10427.6" r="6" fill="#dc2626" stroke="#ffffff" stroke-width="2" /><text x="396.2" y="-10409.6" font-size="11" font-weight="700" fill="#dc2626">SELL</text></g>
<g><circle cx="437.1" cy="-10262.0" r="6" fill="#16a34a" stroke="#ffffff" stroke-width="2" /><text x="445.1" y="-10272.0" font-size="11" font-weight="700" fill="#16a34a">BUY</text></g>
<g><circle cx="460.6" cy="-10645.2" r="6" fill="#dc2626" stroke="#ffffff" stroke-width="2" /><text x="468.6" y="-10627.2" font-size="11" font-weight="700" fill="#dc2626">SELL</text></g>
<g><circle cx="465.0" cy="-10970.9" r="6" fill="#16a34a" stroke="#ffffff" stroke-width="2" /><text x="473.0" y="-10980.9" font-size="11" font-weight="700" fill="#16a34a">BUY</text></g>
<g><circle cx="479.8" cy="-10818.5" r="6" fill="#dc2626" stroke="#ffffff" stroke-width="2" /><text x="487.8" y="-10800.5" font-size="11" font-weight="700" fill="#dc2626">SELL</text></g>
<g><circle cx="485.9" cy="-11090.6" r="6" fill="#16a34a" stroke="#ffffff" stroke-width="2" /><text x="493.9" y="-11100.6" font-size="11" font-weight="700" fill="#16a34a">BUY</text></g>
<g><circle cx="499.9" cy="-10897.8" r="6" fill="#dc2626" stroke="#ffffff" stroke-width="2" /><text x="507.9" y="-10879.8" font-size="11" font-weight="700" fill="#dc2626">SELL</text></g>
<g><circle cx="509.5" cy="-10986.0" r="6" fill="#16a34a" stroke="#ffffff" stroke-width="2" /><text x="517.5" y="-10996.0" font-size="11" font-weight="700" fill="#16a34a">BUY</text></g>
<g><circle cx="513.8" cy="-10512.3" r="6" fill="#dc2626" stroke="#ffffff" stroke-width="2" /><text x="521.8" y="-10494.3" font-size="11" font-weight="700" fill="#dc2626">SELL</text></g>
<g><circle cx="542.6" cy="-11040.4" r="6" fill="#16a34a" stroke="#ffffff" stroke-width="2" /><text x="550.6" y="-11050.4" font-size="11" font-weight="700" fill="#16a34a">BUY</text></g>
<g><circle cx="569.6" cy="-11090.2" r="6" fill="#dc2626" stroke="#ffffff" stroke-width="2" /><text x="577.6" y="-11072.2" font-size="11" font-weight="700" fill="#dc2626">SELL</text></g>
<g><circle cx="594.0" cy="-11143.6" r="6" fill="#16a34a" stroke="#ffffff" stroke-width="2" /><text x="602.0" y="-11153.6" font-size="11" font-weight="700" fill="#16a34a">BUY</text></g>
<g><circle cx="600.1" cy="-11258.2" r="6" fill="#dc2626" stroke="#ffffff" stroke-width="2" /><text x="608.1" y="-11240.2" font-size="11" font-weight="700" fill="#dc2626">SELL</text></g>
<g><circle cx="601.0" cy="-11312.2" r="6" fill="#16a34a" stroke="#ffffff" stroke-width="2" /><text x="609.0" y="-11322.2" font-size="11" font-weight="700" fill="#16a34a">BUY</text></g>
<g><circle cx="657.7" cy="-15984.8" r="6" fill="#dc2626" stroke="#ffffff" stroke-width="2" /><text x="665.7" y="-15966.8" font-size="11" font-weight="700" fill="#dc2626">SELL</text></g>
<g><circle cx="684.7" cy="-15516.1" r="6" fill="#16a34a" stroke="#ffffff" stroke-width="2" /><text x="692.7" y="-15526.1" font-size="11" font-weight="700" fill="#16a34a">BUY</text></g>
<g><circle cx="703.9" cy="-16303.6" r="6" fill="#dc2626" stroke="#ffffff" stroke-width="2" /><text x="711.9" y="-16285.6" font-size="11" font-weight="700" fill="#dc2626">SELL</text></g>
<g><circle cx="709.2" cy="-15918.3" r="6" fill="#16a34a" stroke="#ffffff" stroke-width="2" /><text x="717.2" y="-15928.3" font-size="11" font-weight="700" fill="#16a34a">BUY</text></g>
<g><circle cx="737.1" cy="-15877.2" r="6" fill="#dc2626" stroke="#ffffff" stroke-width="2" /><text x="745.1" y="-15859.2" font-size="11" font-weight="700" fill="#dc2626">SELL</text></g>
<g><circle cx="768.5" cy="-15935.8" r="6" fill="#16a34a" stroke="#ffffff" stroke-width="2" /><text x="776.5" y="-15945.8" font-size="11" font-weight="700" fill="#16a34a">BUY</text></g>
<g><circle cx="785.9" cy="-15649.9" r="6" fill="#dc2626" stroke="#ffffff" stroke-width="2" /><text x="793.9" y="-15631.9" font-size="11" font-weight="700" fill="#dc2626">SELL</text></g>
<g><circle cx="848.7" cy="-14174.0" r="6" fill="#16a34a" stroke="#ffffff" stroke-width="2" /><text x="856.7" y="-14184.0" font-size="11" font-weight="700" fill="#16a34a">BUY</text></g>
<g><circle cx="873.1" cy="-14573.7" r="6" fill="#dc2626" stroke="#ffffff" stroke-width="2" /><text x="881.1" y="-14555.7" font-size="11" font-weight="700" fill="#dc2626">SELL</text></g>
<g><circle cx="920.2" cy="-13882.8" r="6" fill="#16a34a" stroke="#ffffff" stroke-width="2" /><text x="928.2" y="-13892.8" font-size="11" font-weight="700" fill="#16a34a">BUY</text></g>
<g><circle cx="928.0" cy="-13631.1" r="6" fill="#dc2626" stroke="#ffffff" stroke-width="2" /><text x="936.0" y="-13613.1" font-size="11" font-weight="700" fill="#dc2626">SELL</text></g>
<g><circle cx="935.0" cy="-13843.3" r="6" fill="#16a34a" stroke="#ffffff" stroke-width="2" /><text x="943.0" y="-13853.3" font-size="11" font-weight="700" fill="#16a34a">BUY</text></g>
<g><circle cx="962.9" cy="-14716.8" r="6" fill="#dc2626" stroke="#ffffff" stroke-width="2" /><text x="970.9" y="-14698.8" font-size="11" font-weight="700" fill="#dc2626">SELL</text></g>
<g><circle cx="967.3" cy="-14815.5" r="6" fill="#16a34a" stroke="#ffffff" stroke-width="2" /><text x="975.3" y="-14825.5" font-size="11" font-weight="700" fill="#16a34a">BUY</text></g>
<g><circle cx="977.7" cy="-14124.6" r="6" fill="#dc2626" stroke="#ffffff" stroke-width="2" /><text x="985.7" y="-14106.6" font-size="11" font-weight="700" fill="#dc2626">SELL</text></g>
<g><circle cx="1026.6" cy="-12683.7" r="6" fill="#16a34a" stroke="#ffffff" stroke-width="2" /><text x="1034.6" y="-12693.7" font-size="11" font-weight="700" fill="#16a34a">BUY</text></g>
<g><circle cx="1037.0" cy="-12589.9" r="6" fill="#dc2626" stroke="#ffffff" stroke-width="2" /><text x="1045.0" y="-12571.9" font-size="11" font-weight="700" fill="#dc2626">SELL</text></g>
<g><circle cx="1044.9" cy="-12777.4" r="6" fill="#16a34a" stroke="#ffffff" stroke-width="2" /><text x="1052.9" y="-12787.4" font-size="11" font-weight="700" fill="#16a34a">BUY</text></g>
<g><circle cx="1058.8" cy="-12634.3" r="6" fill="#dc2626" stroke="#ffffff" stroke-width="2" /><text x="1066.8" y="-12616.3" font-size="11" font-weight="700" fill="#dc2626">SELL</text></g>
<g><circle cx="1082.4" cy="-12200.0" r="6" fill="#16a34a" stroke="#ffffff" stroke-width="2" /><text x="1090.4" y="-12210.0" font-size="11" font-weight="700" fill="#16a34a">BUY</text></g>
<g><circle cx="1093.7" cy="-11982.9" r="6" fill="#dc2626" stroke="#ffffff" stroke-width="2" /><text x="1101.7" y="-11964.9" font-size="11" font-weight="700" fill="#dc2626">SELL</text></g>
<g><circle cx="1138.2" cy="-10852.8" r="6" fill="#16a34a" stroke="#ffffff" stroke-width="2" /><text x="1146.2" y="-10862.8" font-size="11" font-weight="700" fill="#16a34a">BUY</text></g>
<g><circle cx="1142.6" cy="-10630.8" r="6" fill="#dc2626" stroke="#ffffff" stroke-width="2" /><text x="1150.6" y="-10612.8" font-size="11" font-weight="700" fill="#dc2626">SELL</text></g>
<g><circle cx="1149.5" cy="-11148.9" r="6" fill="#16a34a" stroke="#ffffff" stroke-width="2" /><text x="1157.5" y="-11158.9" font-size="11" font-weight="700" fill="#16a34a">BUY</text></g>
<text x="40" y="732" font-size="13" fill="#334155">初始资金 1,000,000.00 | 结束资金 1,221,813.38 | 总盈亏 +221,813.38</text>
</svg>