<?xml version="1.0" encoding="UTF-8"?>
<svg xmlns="http://www.w3.org/2000/svg" width="1200" height="760" viewBox="0 0 1200 760">
<rect width="100%" height="100%" fill="#f8fafc" />
<text x="40" y="36" font-size="24" font-weight="700" fill="#111827">收益曲线</text>
<text x="40" y="58" font-size="13" fill="#6b7280">区间 2025-01-02 -&gt; 2026-04-13 | 累计收益曲线（按开盘到开盘收益计算）</text>
<g transform="translate(930,18)">
<rect x="0" y="0" width="220" height="56" rx="10" fill="#ffffff" stroke="#e2e8f0" />
<circle cx="18" cy="20" r="5" fill="#16a34a" />
<text x="30" y="24" font-size="12" fill="#334155">BUY: 开仓</text>
<circle cx="18" cy="40" r="5" fill="#dc2626" />
<text x="30" y="44" font-size="12" fill="#334155">SELL: 平仓</text>
</g>
<text x="40" y="84" font-size="16" font-weight="700" fill="#111827">累计收益</text>
<line x1="90" y1="418" x2="1160" y2="418" stroke="#94a3b8" stroke-width="1.5" />
<line x1="90" y1="98" x2="90" y2="418" stroke="#cbd5e1" stroke-width="1" />
<line x1="90" y1="418" x2="1160" y2="418" stroke="#cbd5e1" stroke-width="1" />
<path d="M 90.0,418.0 L 90.0,390.7 L 90.9,390.7 L 91.7,390.7 L 92.6,390.7 L 93.5,390.7 L 94.4,390.7 L 95.2,390.7 L 96.1,390.7 L 97.0,390.7 L 97.8,390.7 L 98.7,390.7 L 99.6,390.7 L 100.5,390.7 L 101.3,390.7 L 102.2,390.7 L 103.1,390.7 L 104.0,390.7 L 104.8,390.7 L 105.7,390.7 L 106.6,390.7 L 107.4,390.7 L 108.3,390.7 L 109.2,390.7 L 110.1,390.7 L 110.9,390.7 L 111.8,390.7 L 112.7,390.7 L 113.5,390.7 L 114.4,390.7 L 115.3,390.7 L 116.2,390.7 L 117.0,390.7 L 117.9,390.7 L 118.8,390.7 L 119.6,390.7 L 120.5,390.7 L 121.4,390.7 L 122.3,393.7 L 123.1,392.0 L 124.0,387.9 L 124.9,388.9 L 125.8,393.0 L 126.6,397.2 L 127.5,399.2 L 128.4,396.1 L 129.2,390.4 L 130.1,391.6 L 131.0,387.7 L 131.9,383.0 L 132.7,384.6 L 133.6,385.5 L 134.5,382.1 L 135.3,368.6 L 136.2,339.1 L 137.1,350.7 L 138.0,344.9 L 138.8,349.4 L 139.7,345.3 L 140.6,346.6 L 141.5,342.8 L 142.3,353.8 L 143.2,356.5 L 144.1,363.7 L 144.9,360.8 L 145.8,360.8 L 146.7,348.0 L 147.6,333.5 L 148.4,335.3 L 149.3,336.5 L 150.2,334.7 L 151.0,334.5 L 151.9,325.8 L 152.8,331.8 L 153.7,327.9 L 154.5,334.5 L 155.4,338.2 L 156.3,313.6 L 157.1,308.7 L 158.0,297.7 L 158.9,299.4 L 159.8,300.8 L 160.6,294.0 L 161.5,303.7 L 162.4,303.5 L 163.3,312.5 L 164.1,314.8 L 165.0,309.4 L 165.9,305.7 L 166.7,308.0 L 167.6,309.2 L 168.5,309.8 L 169.4,308.1 L 170.2,308.9 L 171.1,302.3 L 172.0,301.1 L 172.8,309.6 L 173.7,321.8 L 174.6,322.0 L 175.5,322.0 L 176.3,322.0 L 177.2,322.0 L 178.1,322.0 L 178.9,322.0 L 179.8,322.0 L 180.7,322.0 L 181.6,322.0 L 182.4,322.0 L 183.3,322.0 L 184.2,322.0 L 185.1,322.0 L 185.9,322.0 L 186.8,322.0 L 187.7,322.0 L 188.5,322.0 L 189.4,322.0 L 190.3,322.0 L 191.2,322.0 L 192.0,325.0 L 192.9,324.3 L 193.8,321.4 L 194.6,324.2 L 195.5,320.1 L 196.4,320.9 L 197.3,315.5 L 198.1,322.8 L 199.0,323.7 L 199.9,324.1 L 200.7,334.8 L 201.6,321.2 L 202.5,312.3 L 203.4,313.4 L 204.2,317.8 L 205.1,322.3 L 206.0,326.2 L 206.9,323.6 L 207.7,306.6 L 208.6,314.3 L 209.5,322.7 L 210.3,317.6 L 211.2,323.4 L 212.1,332.9 L 213.0,333.5 L 213.8,333.6 L 214.7,333.6 L 215.6,333.6 L 216.4,333.6 L 217.3,333.6 L 218.2,333.6 L 219.1,333.6 L 219.9,333.6 L 220.8,333.6 L 221.7,333.6 L 222.6,333.6 L 223.4,333.6 L 224.3,333.6 L 225.2,333.6 L 226.0,333.6 L 226.9,333.6 L 227.8,333.6 L 228.7,333.6 L 229.5,333.6 L 230.4,333.6 L 231.3,333.6 L 232.1,333.6 L 233.0,333.6 L 233.9,333.6 L 234.8,333.6 L 235.6,333.6 L 236.5,333.6 L 237.4,333.6 L 238.2,333.6 L 239.1,333.6 L 240.0,333.6 L 240.9,333.6 L 241.7,333.6 L 242.6,333.6 L 243.5,333.6 L 244.4,333.6 L 245.2,333.6 L 246.1,333.6 L 247.0,333.6 L 247.8,333.6 L 248.7,333.6 L 249.6,333.6 L 250.5,333.6 L 251.3,333.6 L 252.2,333.6 L 253.1,333.6 L 253.9,333.6 L 254.8,333.6 L 255.7,333.6 L 256.6,333.6 L 257.4,333.6 L 258.3,331.0 L 259.2,331.0 L 260.0,327.4 L 260.9,328.9 L 261.8,328.9 L 262.7,333.0 L 263.5,337.3 L 264.4,339.8 L 265.3,344.7 L 266.2,344.8 L 267.0,344.8 L 267.9,344.8 L 268.8,344.8 L 269.6,344.8 L 270.5,344.8 L 271.4,344.8 L 272.3,344.8 L 273.1,344.8 L 274.0,344.8 L 274.9,344.8 L 275.7,344.8 L 276.6,344.8 L 277.5,344.8 L 278.4,344.8 L 279.2,344.8 L 280.1,344.8 L 281.0,344.8 L 281.9,344.8 L 282.7,344.8 L 283.6,344.8 L 284.5,344.8 L 285.3,344.8 L 286.2,344.8 L 287.1,344.8 L 288.0,344.8 L 288.8,344.8 L 289.7,344.8 L 290.6,344.8 L 291.4,344.8 L 292.3,344.8 L 293.2,344.8 L 294.1,344.8 L 294.9,344.8 L 295.8,344.8 L 296.7,344.8 L 297.5,344.8 L 298.4,344.8 L 299.3,344.8 L 300.2,344.8 L 301.0,344.8 L 301.9,344.8 L 302.8,344.8 L 303.7,344.8 L 304.5,344.8 L 305.4,344.8 L 306.3,344.8 L 307.1,344.8 L 308.0,344.8 L 308.9,344.8 L 309.8,344.8 L 310.6,344.8 L 311.5,344.8 L 312.4,344.8 L 313.2,344.8 L 314.1,344.8 L 315.0,344.8 L 315.9,344.8 L 316.7,344.8 L 317.6,345.1 L 318.5,352.7 L 319.3,357.7 L 320.2,364.1 L 321.1,365.6 L 322.0,367.0 L 322.8,369.4 L 323.7,375.6 L 324.6,385.6 L 325.5,385.7 L 326.3,385.7 L 327.2,385.7 L 328.1,385.7 L 328.9,385.7 L 329.8,385.7 L 330.7,385.7 L 331.6,385.7 L 332.4,385.7 L 333.3,385.7 L 334.2,385.7 L 335.0,385.7 L 335.9,376.9 L 336.8,375.2 L 337.7,383.6 L 338.5,388.3 L 339.4,387.1 L 340.3,370.9 L 341.1,378.3 L 342.0,372.7 L 342.9,375.1 L 343.8,375.4 L 344.6,383.1 L 345.5,388.5 L 346.4,388.0 L 347.3,387.5 L 348.1,380.5 L 349.0,379.1 L 349.9,383.3 L 350.7,388.1 L 351.6,394.6 L 352.5,394.7 L 353.4,394.7 L 354.2,394.7 L 355.1,394.7 L 356.0,394.7 L 356.8,394.7 L 357.7,394.7 L 358.6,394.7 L 359.5,394.7 L 360.3,395.1 L 361.2,391.9 L 362.1,386.5 L 363.0,384.7 L 363.8,384.4 L 364.7,365.4 L 365.6,383.0 L 366.4,384.1 L 367.3,386.6 L 368.2,384.2 L 369.1,371.1 L 369.9,372.2 L 370.8,371.8 L 371.7,374.8 L 372.5,378.4 L 373.4,381.3 L 374.3,376.4 L 375.2,362.3 L 376.0,359.8 L 376.9,358.7 L 377.8,357.8 L 378.6,333.5 L 379.5,354.9 L 380.4,355.6 L 381.3,355.8 L 382.1,359.0 L 383.0,366.0 L 383.9,367.8 L 384.8,363.3 L 385.6,362.8 L 386.5,372.5 L 387.4,372.6 L 388.2,372.6 L 389.1,372.6 L 390.0,372.6 L 390.9,372.6 L 391.7,372.6 L 392.6,372.6 L 393.5,372.6 L 394.3,372.6 L 395.2,372.6 L 396.1,372.6 L 397.0,372.6 L 397.8,372.6 L 398.7,372.6 L 399.6,372.6 L 400.4,372.6 L 401.3,372.6 L 402.2,372.6 L 403.1,372.6 L 403.9,372.6 L 404.8,372.6 L 405.7,372.6 L 406.6,372.6 L 407.4,372.6 L 408.3,372.6 L 409.2,372.6 L 410.0,372.6 L 410.9,372.6 L 411.8,372.6 L 412.7,372.6 L 413.5,372.6 L 414.4,372.6 L 415.3,372.6 L 416.1,372.6 L 417.0,372.6 L 417.9,372.6 L 418.8,372.6 L 419.6,372.6 L 420.5,372.6 L 421.4,372.6 L 422.2,372.6 L 423.1,372.6 L 424.0,372.6 L 424.9,372.6 L 425.7,372.6 L 426.6,372.6 L 427.5,372.6 L 428.4,372.6 L 429.2,372.6 L 430.1,372.6 L 431.0,372.6 L 431.8,372.6 L 432.7,372.6 L 433.6,372.6 L 434.5,372.6 L 435.3,372.6 L 436.2,368.7 L 437.1,358.2 L 437.9,358.0 L 438.8,361.5 L 439.7,360.6 L 440.6,362.5 L 441.4,359.4 L 442.3,355.9 L 443.2,355.0 L 444.1,357.1 L 444.9,359.0 L 445.8,354.8 L 446.7,354.1 L 447.5,362.5 L 448.4,359.6 L 449.3,353.3 L 450.2,355.0 L 451.0,354.3 L 451.9,356.8 L 452.8,345.4 L 453.6,349.6 L 454.5,351.7 L 455.4,355.0 L 456.3,356.6 L 457.1,360.8 L 458.0,358.5 L 458.9,363.8 L 459.7,363.9 L 460.6,363.9 L 461.5,363.9 L 462.4,363.9 L 463.2,363.9 L 464.1,364.9 L 465.0,370.9 L 465.9,371.2 L 466.7,361.8 L 467.6,358.4 L 468.5,353.2 L 469.3,355.9 L 470.2,358.5 L 471.1,362.2 L 472.0,362.0 L 472.8,364.7 L 473.7,371.1 L 474.6,372.6 L 475.4,372.4 L 476.3,376.6 L 477.2,372.8 L 478.1,375.0 L 478.9,375.1 L 479.8,375.1 L 480.7,375.1 L 481.5,375.1 L 482.4,375.1 L 483.3,375.1 L 484.2,375.1 L 485.0,374.2 L 485.9,370.3 L 486.8,363.3 L 487.7,370.8 L 488.5,371.2 L 489.4,374.4 L 490.3,370.4 L 491.1,370.8 L 492.0,371.9 L 492.9,374.0 L 493.8,372.3 L 494.6,375.3 L 495.5,376.1 L 496.4,377.2 L 497.2,375.5 L 498.1,380.4 L 499.0,380.5 L 499.9,380.5 L 500.7,380.5 L 501.6,380.5 L 502.5,380.5 L 503.3,380.5 L 504.2,380.5 L 505.1,380.5 L 506.0,380.5 L 506.8,380.5 L 507.7,380.5 L 508.6,389.0 L 509.5,386.1 L 510.3,387.1 L 511.2,390.4 L 512.1,406.3 L 512.9,406.4 L 513.8,406.4 L 514.7,406.4 L 515.6,406.4 L 516.4,406.4 L 517.3,406.4 L 518.2,406.4 L 519.0,406.4 L 519.9,406.4 L 520.8,406.4 L 521.7,406.4 L 522.5,406.4 L 523.4,406.4 L 524.3,406.4 L 525.2,406.4 L 526.0,406.4 L 526.9,406.4 L 527.8,406.4 L 528.6,406.4 L 529.5,406.4 L 530.4,406.4 L 531.3,406.4 L 532.1,406.4 L 533.0,406.4 L 533.9,406.4 L 534.7,406.4 L 535.6,406.4 L 536.5,406.4 L 537.4,406.4 L 538.2,406.4 L 539.1,406.4 L 540.0,406.4 L 540.8,406.4 L 541.7,405.9 L 542.6,407.3 L 543.5,413.0 L 544.3,415.0 L 545.2,418.0 L 546.1,417.2 L 547.0,417.4 L 547.8,416.8 L 548.7,411.9 L 549.6,411.4 L 550.4,411.0 L 551.3,383.9 L 552.2,394.5 L 553.1,387.3 L 553.9,399.6 L 554.8,394.6 L 555.7,397.0 L 556.5,397.0 L 557.4,395.8 L 558.3,397.4 L 559.2,396.6 L 560.0,393.5 L 560.9,394.5 L 561.8,397.0 L 562.6,393.9 L 563.5,392.6 L 564.4,398.8 L 565.3,401.4 L 566.1,400.2 L 567.0,401.4 L 567.9,403.4 L 568.8,403.5 L 569.6,403.5 L 570.5,403.5 L 571.4,403.5 L 572.2,403.5 L 573.1,403.5 L 574.0,403.5 L 574.9,403.5 L 575.7,403.5 L 576.6,403.5 L 577.5,403.5 L 578.3,403.5 L 579.2,403.5 L 580.1,403.5 L 581.0,403.5 L 581.8,403.5 L 582.7,403.5 L 583.6,403.5 L 584.4,403.5 L 585.3,403.5 L 586.2,403.5 L 587.1,403.5 L 587.9,403.5 L 588.8,403.5 L 589.7,403.5 L 590.6,403.5 L 591.4,403.5 L 592.3,403.5 L 593.2,402.0 L 594.0,403.4 L 594.9,407.3 L 595.8,411.9 L 596.7,412.3 L 597.5,415.3 L 598.4,411.6 L 599.3,411.7 L 600.1,409.6 L 601.0,407.5 L 601.9,408.1 L 602.8,409.6 L 603.6,410.4 L 604.5,410.6 L 605.4,406.5 L 606.3,405.7 L 607.1,402.8 L 608.0,403.6 L 608.9,402.1 L 609.7,396.2 L 610.6,397.6 L 611.5,385.7 L 612.4,378.8 L 613.2,364.4 L 614.1,364.4 L 615.0,364.8 L 615.8,363.4 L 616.7,317.2 L 617.6,319.3 L 618.5,320.3 L 619.3,323.8 L 620.2,326.5 L 621.1,318.7 L 621.9,323.8 L 622.8,324.3 L 623.7,311.3 L 624.6,309.9 L 625.4,309.9 L 626.3,308.8 L 627.2,294.8 L 628.1,287.0 L 628.9,294.0 L 629.8,289.3 L 630.7,289.5 L 631.5,291.5 L 632.4,293.2 L 633.3,264.3 L 634.2,257.8 L 635.0,272.3 L 635.9,272.8 L 636.8,278.0 L 637.6,253.6 L 638.5,234.1 L 639.4,210.1 L 640.3,214.6 L 641.1,199.2 L 642.0,195.5 L 642.9,192.2 L 643.7,205.6 L 644.6,206.6 L 645.5,214.9 L 646.4,212.6 L 647.2,194.1 L 648.1,161.5 L 649.0,166.6 L 649.9,162.7 L 650.7,157.9 L 651.6,193.6 L 652.5,189.1 L 653.3,187.4 L 654.2,191.9 L 655.1,213.5 L 656.0,223.7 L 656.8,223.8 L 657.7,223.8 L 658.6,223.8 L 659.4,223.8 L 660.3,223.8 L 661.2,223.8 L 662.1,223.8 L 662.9,223.8 L 663.8,223.8 L 664.7,223.8 L 665.6,223.8 L 666.4,223.8 L 667.3,223.8 L 668.2,223.8 L 669.0,223.8 L 669.9,223.8 L 670.8,223.8 L 671.7,223.8 L 672.5,223.8 L 673.4,223.8 L 674.3,223.8 L 675.1,223.8 L 676.0,223.8 L 676.9,223.8 L 677.8,223.8 L 678.6,223.8 L 679.5,223.8 L 680.4,223.8 L 681.2,223.8 L 682.1,223.8 L 683.0,223.8 L 683.9,231.9 L 684.7,230.9 L 685.6,218.0 L 686.5,201.0 L 687.4,205.5 L 688.2,208.7 L 689.1,205.8 L 690.0,208.8 L 690.8,211.3 L 691.7,211.7 L 692.6,208.2 L 693.5,223.9 L 694.3,213.5 L 695.2,213.5 L 696.1,229.6 L 696.9,218.9 L 697.8,203.1 L 698.7,217.9 L 699.6,220.3 L 700.4,210.0 L 701.3,222.1 L 702.2,226.5 L 703.0,226.6 L 703.9,226.6 L 704.8,226.6 L 705.7,226.6 L 706.5,226.6 L 707.4,226.6 L 708.3,233.9 L 709.2,219.0 L 710.0,230.2 L 710.9,221.1 L 711.8,218.4 L 712.6,212.0 L 713.5,206.2 L 714.4,197.9 L 715.3,178.2 L 716.1,180.7 L 717.0,184.6 L 717.9,210.9 L 718.7,207.4 L 719.6,196.8 L 720.5,189.8 L 721.4,180.4 L 722.2,186.7 L 723.1,189.4 L 724.0,193.8 L 724.8,188.6 L 725.7,195.4 L 726.6,177.3 L 727.5,151.4 L 728.3,102.2 L 729.2,98.0 L 730.1,106.5 L 731.0,122.7 L 731.8,153.3 L 732.7,169.1 L 733.6,168.0 L 734.4,244.0 L 735.3,231.5 L 736.2,231.6 L 737.1,231.6 L 737.9,231.6 L 738.8,231.6 L 739.7,231.6 L 740.5,231.6 L 741.4,231.6 L 742.3,231.6 L 743.2,231.6 L 744.0,231.6 L 744.9,231.6 L 745.8,231.6 L 746.7,231.6 L 747.5,231.6 L 748.4,231.6 L 749.3,231.6 L 750.1,231.6 L 751.0,231.6 L 751.9,231.6 L 752.8,231.6 L 753.6,231.6 L 754.5,231.6 L 755.4,231.6 L 756.2,231.6 L 757.1,231.6 L 758.0,231.6 L 758.9,231.6 L 759.7,231.6 L 760.6,231.6 L 761.5,231.6 L 762.3,231.6 L 763.2,231.6 L 764.1,231.6 L 765.0,231.6 L 765.8,231.6 L 766.7,231.6 L 767.6,228.4 L 768.5,228.4 L 769.3,213.6 L 770.2,218.6 L 771.1,217.7 L 771.9,217.8 L 772.8,214.2 L 773.7,221.2 L 774.6,219.6 L 775.4,221.8 L 776.3,220.6 L 777.2,225.2 L 778.0,220.6 L 778.9,216.1 L 779.8,211.7 L 780.7,224.1 L 781.5,223.6 L 782.4,225.3 L 783.3,226.7 L 784.1,231.7 L 785.0,231.9 L 785.9,231.9 L 786.8,231.9 L 787.6,231.9 L 788.5,231.9 L 789.4,231.9 L 790.3,231.9 L 791.1,231.9 L 792.0,231.9 L 792.9,231.9 L 793.7,231.9 L 794.6,231.9 L 795.5,231.9 L 796.4,231.9 L 797.2,231.9 L 798.1,231.9 L 799.0,231.9 L 799.8,231.9 L 800.7,231.9 L 801.6,231.9 L 802.5,231.9 L 803.3,231.9 L 804.2,231.9 L 805.1,231.9 L 805.9,231.9 L 806.8,231.9 L 807.7,231.9 L 808.6,231.9 L 809.4,231.9 L 810.3,231.9 L 811.2,231.9 L 812.1,231.9 L 812.9,231.9 L 813.8,231.9 L 814.7,231.9 L 815.5,231.9 L 816.4,231.9 L 817.3,231.9 L 818.2,231.9 L 819.0,231.9 L 819.9,231.9 L 820.8,231.9 L 821.6,231.9 L 822.5,231.9 L 823.4,231.9 L 824.3,231.9 L 825.1,231.9 L 826.0,231.9 L 826.9,231.9 L 827.8,231.9 L 828.6,231.9 L 829.5,231.9 L 830.4,231.9 L 831.2,231.9 L 832.1,231.9 L 833.0,231.9 L 833.9,231.9 L 834.7,231.9 L 835.6,231.9 L 836.5,231.9 L 837.3,231.9 L 838.2,231.9 L 839.1,231.9 L 840.0,231.9 L 840.8,231.9 L 841.7,231.9 L 842.6,231.9 L 843.4,231.9 L 844.3,231.9 L 845.2,231.9 L 846.1,231.9 L 846.9,231.9 L 847.8,224.5 L 848.7,229.6 L 849.6,228.0 L 850.4,223.9 L 851.3,227.4 L 852.2,227.4 L 853.0,225.2 L 853.9,211.1 L 854.8,204.7 L 855.7,215.3 L 856.5,211.5 L 857.4,210.4 L 858.3,198.5 L 859.1,200.1 L 860.0,199.9 L 860.9,178.7 L 861.8,183.6 L 862.6,185.5 L 863.5,187.3 L 864.4,194.6 L 865.2,198.8 L 866.1,204.3 L 867.0,204.9 L 867.9,211.7 L 868.7,208.0 L 869.6,209.8 L 870.5,215.7 L 871.4,220.8 L 872.2,220.9 L 873.1,220.9 L 874.0,220.9 L 874.8,220.9 L 875.7,220.9 L 876.6,220.9 L 877.5,220.9 L 878.3,220.9 L 879.2,220.9 L 880.1,220.9 L 880.9,220.9 L 881.8,220.9 L 882.7,220.9 L 883.6,220.9 L 884.4,220.9 L 885.3,220.9 L 886.2,220.9 L 887.0,220.9 L 887.9,220.9 L 888.8,220.9 L 889.7,220.9 L 890.5,220.9 L 891.4,220.9 L 892.3,220.9 L 893.2,220.9 L 894.0,220.9 L 894.9,220.9 L 895.8,220.9 L 896.6,220.9 L 897.5,220.9 L 898.4,220.9 L 899.3,220.9 L 900.1,220.9 L 901.0,220.9 L 901.9,220.9 L 902.7,220.9 L 903.6,220.9 L 904.5,220.9 L 905.4,220.9 L 906.2,220.9 L 907.1,220.9 L 908.0,220.9 L 908.9,220.9 L 909.7,220.9 L 910.6,220.9 L 911.5,220.9 L 912.3,220.9 L 913.2,220.9 L 914.1,220.9 L 915.0,220.9 L 915.8,220.9 L 916.7,220.9 L 917.6,220.9 L 918.4,220.9 L 919.3,219.2 L 920.2,224.4 L 921.1,226.2 L 921.9,224.4 L 922.8,225.6 L 923.7,234.4 L 924.5,238.3 L 925.4,234.6 L 926.3,236.0 L 927.2,236.1 L 928.0,236.1 L 928.9,236.1 L 929.8,236.1 L 930.7,236.1 L 931.5,236.1 L 932.4,236.1 L 933.3,236.1 L 934.1,251.2 L 935.0,257.0 L 935.9,257.6 L 936.8,252.0 L 937.6,234.1 L 938.5,237.1 L 939.4,240.1 L 940.2,234.3 L 941.1,235.2 L 942.0,231.1 L 942.9,226.3 L 943.7,224.4 L 944.6,231.7 L 945.5,232.1 L 946.3,241.0 L 947.2,240.1 L 948.1,237.5 L 949.0,234.9 L 949.8,240.3 L 950.7,246.0 L 951.6,227.8 L 952.5,231.7 L 953.3,232.4 L 954.2,227.8 L 955.1,221.1 L 955.9,213.6 L 956.8,214.6 L 957.7,209.5 L 958.6,234.5 L 959.4,235.4 L 960.3,236.0 L 961.2,239.3 L 962.0,239.4 L 962.9,239.4 L 963.8,239.4 L 964.7,239.4 L 965.5,239.4 L 966.4,242.0 L 967.3,243.8 L 968.1,242.2 L 969.0,249.2 L 969.9,246.1 L 970.8,241.8 L 971.6,246.3 L 972.5,249.8 L 973.4,253.3 L 974.3,255.3 L 975.1,255.1 L 976.0,272.2 L 976.9,272.3 L 977.7,272.3 L 978.6,272.3 L 979.5,272.3 L 980.4,272.3 L 981.2,272.3 L 982.1,272.3 L 983.0,272.3 L 983.8,272.3 L 984.7,272.3 L 985.6,272.3 L 986.5,272.3 L 987.3,272.3 L 988.2,272.3 L 989.1,272.3 L 990.0,272.3 L 990.8,272.3 L 991.7,272.3 L 992.6,272.3 L 993.4,272.3 L 994.3,272.3 L 995.2,272.3 L 996.1,272.3 L 996.9,272.3 L 997.8,272.3 L 998.7,272.3 L 999.5,272.3 L 1000.4,272.3 L 1001.3,272.3 L 1002.2,272.3 L 1003.0,272.3 L 1003.9,272.3 L 1004.8,272.3 L 1005.6,272.3 L 1006.5,272.3 L 1007.4,272.3 L 1008.3,272.3 L 1009.1,272.3 L 1010.0,272.3 L 1010.9,272.3 L 1011.8,272.3 L 1012.6,272.3 L 1013.5,272.3 L 1014.4,272.3 L 1015.2,272.3 L 1016.1,272.3 L 1017.0,272.3 L 1017.9,272.3 L 1018.7,272.3 L 1019.6,272.3 L 1020.5,272.3 L 1021.3,272.3 L 1022.2,272.3 L 1023.1,272.3 L 1024.0,272.3 L 1024.8,272.3 L 1025.7,270.1 L 1026.6,271.9 L 1027.4,273.3 L 1028.3,269.9 L 1029.2,267.8 L 1030.1,266.5 L 1030.9,271.5 L 1031.8,270.8 L 1032.7,271.7 L 1033.6,272.9 L 1034.4,274.0 L 1035.3,276.0 L 1036.2,276.2 L 1037.0,276.2 L 1037.9,276.2 L 1038.8,276.2 L 1039.7,276.2 L 1040.5,276.2 L 1041.4,276.2 L 1042.3,276.2 L 1043.1,276.2 L 1044.0,278.3 L 1044.9,278.3 L 1045.8,279.0 L 1046.6,277.0 L 1047.5,277.8 L 1048.4,278.1 L 1049.3,269.1 L 1050.1,267.3 L 1051.0,270.5 L 1051.9,275.4 L 1052.7,272.7 L 1053.6,272.7 L 1054.5,272.5 L 1055.4,280.1 L 1056.2,286.3 L 1057.1,283.4 L 1058.0,283.6 L 1058.8,283.6 L 1059.7,283.6 L 1060.6,283.6 L 1061.5,283.6 L 1062.3,283.6 L 1063.2,283.6 L 1064.1,283.6 L 1064.9,283.6 L 1065.8,283.6 L 1066.7,283.6 L 1067.6,283.6 L 1068.4,283.6 L 1069.3,283.6 L 1070.2,283.6 L 1071.1,283.6 L 1071.9,283.6 L 1072.8,283.6 L 1073.7,283.6 L 1074.5,283.6 L 1075.4,283.6 L 1076.3,283.6 L 1077.2,283.6 L 1078.0,283.6 L 1078.9,283.6 L 1079.8,283.6 L 1080.6,283.6 L 1081.5,286.7 L 1082.4,289.9 L 1083.3,291.5 L 1084.1,290.1 L 1085.0,293.6 L 1085.9,292.7 L 1086.7,294.3 L 1087.6,288.5 L 1088.5,292.2 L 1089.4,289.7 L 1090.2,295.6 L 1091.1,301.2 L 1092.0,298.6 L 1092.9,298.8 L 1093.7,298.8 L 1094.6,298.8 L 1095.5,298.8 L 1096.3,298.8 L 1097.2,298.8 L 1098.1,298.8 L 1099.0,298.8 L 1099.8,298.8 L 1100.7,298.8 L 1101.6,298.8 L 1102.4,298.8 L 1103.3,298.8 L 1104.2,298.8 L 1105.1,298.8 L 1105.9,298.8 L 1106.8,298.8 L 1107.7,298.8 L 1108.5,298.8 L 1109.4,298.8 L 1110.3,298.8 L 1111.2,298.8 L 1112.0,298.8 L 1112.9,298.8 L 1113.8,298.8 L 1114.7,298.8 L 1115.5,298.8 L 1116.4,298.8 L 1117.3,298.8 L 1118.1,298.8 L 1119.0,298.8 L 1119.9,298.8 L 1120.8,298.8 L 1121.6,298.8 L 1122.5,298.8 L 1123.4,298.8 L 1124.2,298.8 L 1125.1,298.8 L 1126.0,298.8 L 1126.9,298.8 L 1127.7,298.8 L 1128.6,298.8 L 1129.5,298.8 L 1130.4,298.8 L 1131.2,298.8 L 1132.1,298.8 L 1133.0,298.8 L 1133.8,298.8 L 1134.7,298.8 L 1135.6,298.8 L 1136.5,298.8 L 1137.3,298.9 L 1138.2,305.2 L 1139.1,301.9 L 1139.9,309.2 L 1140.8,312.0 L 1141.7,312.1 L 1142.6,312.1 L 1143.4,312.1 L 1144.3,312.1 L 1145.2,312.1 L 1146.0,312.1 L 1146.9,312.1 L 1147.8,312.1 L 1148.7,310.1 L 1149.5,312.5 L 1150.4,299.4 L 1151.3,304.0 L 1152.2,301.4 L 1153.0,295.8 L 1153.9,289.5 L 1154.8,281.6 L 1155.6,284.0 L 1156.5,292.7 L 1157.4,286.7 L 1158.3,289.3 L 1159.1,287.4 L 1160.0,287.4 L 1160.0,418.0 Z" fill="#60a5fa" opacity="0.22" />
<polyline fill="none" stroke="#2563eb" stroke-width="3" stroke-linecap="round" stroke-linejoin="round" points="90.0,390.7 90.9,390.7 91.7,390.7 92.6,390.7 93.5,390.7 94.4,390.7 95.2,390.7 96.1,390.7 97.0,390.7 97.8,390.7 98.7,390.7 99.6,390.7 100.5,390.7 101.3,390.7 102.2,390.7 103.1,390.7 104.0,390.7 104.8,390.7 105.7,390.7 106.6,390.7 107.4,390.7 108.3,390.7 109.2,390.7 110.1,390.7 110.9,390.7 111.8,390.7 112.7,390.7 113.5,390.7 114.4,390.7 115.3,390.7 116.2,390.7 117.0,390.7 117.9,390.7 118.8,390.7 119.6,390.7 120.5,390.7 121.4,390.7 122.3,393.7 123.1,392.0 124.0,387.9 124.9,388.9 125.8,393.0 126.6,397.2 127.5,399.2 128.4,396.1 129.2,390.4 130.1,391.6 131.0,387.7 131.9,383.0 132.7,384.6 133.6,385.5 134.5,382.1 135.3,368.6 136.2,339.1 137.1,350.7 138.0,344.9 138.8,349.4 139.7,345.3 140.6,346.6 141.5,342.8 142.3,353.8 143.2,356.5 144.1,363.7 144.9,360.8 145.8,360.8 146.7,348.0 147.6,333.5 148.4,335.3 149.3,336.5 150.2,334.7 151.0,334.5 151.9,325.8 152.8,331.8 153.7,327.9 154.5,334.5 155.4,338.2 156.3,313.6 157.1,308.7 158.0,297.7 158.9,299.4 159.8,300.8 160.6,294.0 161.5,303.7 162.4,303.5 163.3,312.5 164.1,314.8 165.0,309.4 165.9,305.7 166.7,308.0 167.6,309.2 168.5,309.8 169.4,308.1 170.2,308.9 171.1,302.3 172.0,301.1 172.8,309.6 173.7,321.8 174.6,322.0 175.5,322.0 176.3,322.0 177.2,322.0 178.1,322.0 178.9,322.0 179.8,322.0 180.7,322.0 181.6,322.0 182.4,322.0 183.3,322.0 184.2,322.0 185.1,322.0 185.9,322.0 186.8,322.0 187.7,322.0 188.5,322.0 189.4,322.0 190.3,322.0 191.2,322.0 192.0,325.0 192.9,324.3 193.8,321.4 194.6,324.2 195.5,320.1 196.4,320.9 197.3,315.5 198.1,322.8 199.0,323.7 199.9,324.1 200.7,334.8 201.6,321.2 202.5,312.3 203.4,313.4 204.2,317.8 205.1,322.3 206.0,326.2 206.9,323.6 207.7,306.6 208.6,314.3 209.5,322.7 210.3,317.6 211.2,323.4 212.1,332.9 213.0,333.5 213.8,333.6 214.7,333.6 215.6,333.6 216.4,333.6 217.3,333.6 218.2,333.6 219.1,333.6 219.9,333.6 220.8,333.6 221.7,333.6 222.6,333.6 223.4,333.6 224.3,333.6 225.2,333.6 226.0,333.6 226.9,333.6 227.8,333.6 228.7,333.6 229.5,333.6 230.4,333.6 231.3,333.6 232.1,333.6 233.0,333.6 233.9,333.6 234.8,333.6 235.6,333.6 236.5,333.6 237.4,333.6 238.2,333.6 239.1,333.6 240.0,333.6 240.9,333.6 241.7,333.6 242.6,333.6 243.5,333.6 244.4,333.6 245.2,333.6 246.1,333.6 247.0,333.6 247.8,333.6 248.7,333.6 249.6,333.6 250.5,333.6 251.3,333.6 252.2,333.6 253.1,333.6 253.9,333.6 254.8,333.6 255.7,333.6 256.6,333.6 257.4,333.6 258.3,331.0 259.2,331.0 260.0,327.4 260.9,328.9 261.8,328.9 262.7,333.0 263.5,337.3 264.4,339.8 265.3,344.7 266.2,344.8 267.0,344.8 267.9,344.8 268.8,344.8 269.6,344.8 270.5,344.8 271.4,344.8 272.3,344.8 273.1,344.8 274.0,344.8 274.9,344.8 275.7,344.8 276.6,344.8 277.5,344.8 278.4,344.8 279.2,344.8 280.1,344.8 281.0,344.8 281.9,344.8 282.7,344.8 283.6,344.8 284.5,344.8 285.3,344.8 286.2,344.8 287.1,344.8 288.0,344.8 288.8,344.8 289.7,344.8 290.6,344.8 291.4,344.8 292.3,344.8 293.2,344.8 294.1,344.8 294.9,344.8 295.8,344.8 296.7,344.8 297.5,344.8 298.4,344.8 299.3,344.8 300.2,344.8 301.0,344.8 301.9,344.8 302.8,344.8 303.7,344.8 304.5,344.8 305.4,344.8 306.3,344.8 307.1,344.8 308.0,344.8 308.9,344.8 309.8,344.8 310.6,344.8 311.5,344.8 312.4,344.8 313.2,344.8 314.1,344.8 315.0,344.8 315.9,344.8 316.7,344.8 317.6,345.1 318.5,352.7 319.3,357.7 320.2,364.1 321.1,365.6 322.0,367.0 322.8,369.4 323.7,375.6 324.6,385.6 325.5,385.7 326.3,385.7 327.2,385.7 328.1,385.7 328.9,385.7 329.8,385.7 330.7,385.7 331.6,385.7 332.4,385.7 333.3,385.7 334.2,385.7 335.0,385.7 335.9,376.9 336.8,375.2 337.7,383.6 338.5,388.3 339.4,387.1 340.3,370.9 341.1,378.3 342.0,372.7 342.9,375.1 343.8,375.4 344.6,383.1 345.5,388.5 346.4,388.0 347.3,387.5 348.1,380.5 349.0,379.1 349.9,383.3 350.7,388.1 351.6,394.6 352.5,394.7 353.4,394.7 354.2,394.7 355.1,394.7 356.0,394.7 356.8,394.7 357.7,394.7 358.6,394.7 359.5,394.7 360.3,395.1 361.2,391.9 362.1,386.5 363.0,384.7 363.8,384.4 364.7,365.4 365.6,383.0 366.4,384.1 367.3,386.6 368.2,384.2 369.1,371.1 369.9,372.2 370.8,371.8 371.7,374.8 372.5,378.4 373.4,381.3 374.3,376.4 375.2,362.3 376.0,359.8 376.9,358.7 377.8,357.8 378.6,333.5 379.5,354.9 380.4,355.6 381.3,355.8 382.1,359.0 383.0,366.0 383.9,367.8 384.8,363.3 385.6,362.8 386.5,372.5 387.4,372.6 388.2,372.6 389.1,372.6 390.0,372.6 390.9,372.6 391.7,372.6 392.6,372.6 393.5,372.6 394.3,372.6 395.2,372.6 396.1,372.6 397.0,372.6 397.8,372.6 398.7,372.6 399.6,372.6 400.4,372.6 401.3,372.6 402.2,372.6 403.1,372.6 403.9,372.6 404.8,372.6 405.7,372.6 406.6,372.6 407.4,372.6 408.3,372.6 409.2,372.6 410.0,372.6 410.9,372.6 411.8,372.6 412.7,372.6 413.5,372.6 414.4,372.6 415.3,372.6 416.1,372.6 417.0,372.6 417.9,372.6 418.8,372.6 419.6,372.6 420.5,372.6 421.4,372.6 422.2,372.6 423.1,372.6 424.0,372.6 424.9,372.6 425.7,372.6 426.6,372.6 427.5,372.6 428.4,372.6 429.2,372.6 430.1,372.6 431.0,372.6 431.8,372.6 432.7,372.6 433.6,372.6 434.5,372.6 435.3,372.6 436.2,368.7 437.1,358.2 437.9,358.0 438.8,361.5 439.7,360.6 440.6,362.5 441.4,359.4 442.3,355.9 443.2,355.0 444.1,357.1 444.9,359.0 445.8,354.8 446.7,354.1 447.5,362.5 448.4,359.6 449.3,353.3 450.2,355.0 451.0,354.3 451.9,356.8 452.8,345.4 453.6,349.6 454.5,351.7 455.4,355.0 456.3,356.6 457.1,360.8 458.0,358.5 458.9,363.8 459.7,363.9 460.6,363.9 461.5,363.9 462.4,363.9 463.2,363.9 464.1,364.9 465.0,370.9 465.9,371.2 466.7,361.8 467.6,358.4 468.5,353.2 469.3,355.9 470.2,358.5 471.1,362.2 472.0,362.0 472.8,364.7 473.7,371.1 474.6,372.6 475.4,372.4 476.3,376.6 477.2,372.8 478.1,375.0 478.9,375.1 479.8,375.1 480.7,375.1 481.5,375.1 482.4,375.1 483.3,375.1 484.2,375.1 485.0,374.2 485.9,370.3 486.8,363.3 487.7,370.8 488.5,371.2 489.4,374.4 490.3,370.4 491.1,370.8 492.0,371.9 492.9,374.0 493.8,372.3 494.6,375.3 495.5,376.1 496.4,377.2 497.2,375.5 498.1,380.4 499.0,380.5 499.9,380.5 500.7,380.5 501.6,380.5 502.5,380.5 503.3,380.5 504.2,380.5 505.1,380.5 506.0,380.5 506.8,380.5 507.7,380.5 508.6,389.0 509.5,386.1 510.3,387.1 511.2,390.4 512.1,406.3 512.9,406.4 513.8,406.4 514.7,406.4 515.6,406.4 516.4,406.4 517.3,406.4 518.2,406.4 519.0,406.4 519.9,406.4 520.8,406.4 521.7,406.4 522.5,406.4 523.4,406.4 524.3,406.4 525.2,406.4 526.0,406.4 526.9,406.4 527.8,406.4 528.6,406.4 529.5,406.4 530.4,406.4 531.3,406.4 532.1,406.4 533.0,406.4 533.9,406.4 534.7,406.4 535.6,406.4 536.5,406.4 537.4,406.4 538.2,406.4 539.1,406.4 540.0,406.4 540.8,406.4 541.7,405.9 542.6,407.3 543.5,413.0 544.3,415.0 545.2,418.0 546.1,417.2 547.0,417.4 547.8,416.8 548.7,411.9 549.6,411.4 550.4,411.0 551.3,383.9 552.2,394.5 553.1,387.3 553.9,399.6 554.8,394.6 555.7,397.0 556.5,397.0 557.4,395.8 558.3,397.4 559.2,396.6 560.0,393.5 560.9,394.5 561.8,397.0 562.6,393.9 563.5,392.6 564.4,398.8 565.3,401.4 566.1,400.2 567.0,401.4 567.9,403.4 568.8,403.5 569.6,403.5 570.5,403.5 571.4,403.5 572.2,403.5 573.1,403.5 574.0,403.5 574.9,403.5 575.7,403.5 576.6,403.5 577.5,403.5 578.3,403.5 579.2,403.5 580.1,403.5 581.0,403.5 581.8,403.5 582.7,403.5 583.6,403.5 584.4,403.5 585.3,403.5 586.2,403.5 587.1,403.5 587.9,403.5 588.8,403.5 589.7,403.5 590.6,403.5 591.4,403.5 592.3,403.5 593.2,402.0 594.0,403.4 594.9,407.3 595.8,411.9 596.7,412.3 597.5,415.3 598.4,411.6 599.3,411.7 600.1,409.6 601.0,407.5 601.9,408.1 602.8,409.6 603.6,410.4 604.5,410.6 605.4,406.5 606.3,405.7 607.1,402.8 608.0,403.6 608.9,402.1 609.7,396.2 610.6,397.6 611.5,385.7 612.4,378.8 613.2,364.4 614.1,364.4 615.0,364.8 615.8,363.4 616.7,317.2 617.6,319.3 618.5,320.3 619.3,323.8 620.2,326.5 621.1,318.7 621.9,323.8 622.8,324.3 623.7,311.3 624.6,309.9 625.4,309.9 626.3,308.8 627.2,294.8 628.1,287.0 628.9,294.0 629.8,289.3 630.7,289.5 631.5,291.5 632.4,293.2 633.3,264.3 634.2,257.8 635.0,272.3 635.9,272.8 636.8,278.0 637.6,253.6 638.5,234.1 639.4,210.1 640.3,214.6 641.1,199.2 642.0,195.5 642.9,192.2 643.7,205.6 644.6,206.6 645.5,214.9 646.4,212.6 647.2,194.1 648.1,161.5 649.0,166.6 649.9,162.7 650.7,157.9 651.6,193.6 652.5,189.1 653.3,187.4 654.2,191.9 655.1,213.5 656.0,223.7 656.8,223.8 657.7,223.8 658.6,223.8 659.4,223.8 660.3,223.8 661.2,223.8 662.1,223.8 662.9,223.8 663.8,223.8 664.7,223.8 665.6,223.8 666.4,223.8 667.3,223.8 668.2,223.8 669.0,223.8 669.9,223.8 670.8,223.8 671.7,223.8 672.5,223.8 673.4,223.8 674.3,223.8 675.1,223.8 676.0,223.8 676.9,223.8 677.8,223.8 678.6,223.8 679.5,223.8 680.4,223.8 681.2,223.8 682.1,223.8 683.0,223.8 683.9,231.9 684.7,230.9 685.6,218.0 686.5,201.0 687.4,205.5 688.2,208.7 689.1,205.8 690.0,208.8 690.8,211.3 691.7,211.7 692.6,208.2 693.5,223.9 694.3,213.5 695.2,213.5 696.1,229.6 696.9,218.9 697.8,203.1 698.7,217.9 699.6,220.3 700.4,210.0 701.3,222.1 702.2,226.5 703.0,226.6 703.9,226.6 704.8,226.6 705.7,226.6 706.5,226.6 707.4,226.6 708.3,233.9 709.2,219.0 710.0,230.2 710.9,221.1 711.8,218.4 712.6,212.0 713.5,206.2 714.4,197.9 715.3,178.2 716.1,180.7 717.0,184.6 717.9,210.9 718.7,207.4 719.6,196.8 720.5,189.8 721.4,180.4 722.2,186.7 723.1,189.4 724.0,193.8 724.8,188.6 725.7,195.4 726.6,177.3 727.5,151.4 728.3,102.2 729.2,98.0 730.1,106.5 731.0,122.7 731.8,153.3 732.7,169.1 733.6,168.0 734.4,244.0 735.3,231.5 736.2,231.6 737.1,231.6 737.9,231.6 738.8,231.6 739.7,231.6 740.5,231.6 741.4,231.6 742.3,231.6 743.2,231.6 744.0,231.6 744.9,231.6 745.8,231.6 746.7,231.6 747.5,231.6 748.4,231.6 749.3,231.6 750.1,231.6 751.0,231.6 751.9,231.6 752.8,231.6 753.6,231.6 754.5,231.6 755.4,231.6 756.2,231.6 757.1,231.6 758.0,231.6 758.9,231.6 759.7,231.6 760.6,231.6 761.5,231.6 762.3,231.6 763.2,231.6 764.1,231.6 765.0,231.6 765.8,231.6 766.7,231.6 767.6,228.4 768.5,228.4 769.3,213.6 770.2,218.6 771.1,217.7 771.9,217.8 772.8,214.2 773.7,221.2 774.6,219.6 775.4,221.8 776.3,220.6 777.2,225.2 778.0,220.6 778.9,216.1 779.8,211.7 780.7,224.1 781.5,223.6 782.4,225.3 783.3,226.7 784.1,231.7 785.0,231.9 785.9,231.9 786.8,231.9 787.6,231.9 788.5,231.9 789.4,231.9 790.3,231.9 791.1,231.9 792.0,231.9 792.9,231.9 793.7,231.9 794.6,231.9 795.5,231.9 796.4,231.9 797.2,231.9 798.1,231.9 799.0,231.9 799.8,231.9 800.7,231.9 801.6,231.9 802.5,231.9 803.3,231.9 804.2,231.9 805.1,231.9 805.9,231.9 806.8,231.9 807.7,231.9 808.6,231.9 809.4,231.9 810.3,231.9 811.2,231.9 812.1,231.9 812.9,231.9 813.8,231.9 814.7,231.9 815.5,231.9 816.4,231.9 817.3,231.9 818.2,231.9 819.0,231.9 819.9,231.9 820.8,231.9 821.6,231.9 822.5,231.9 823.4,231.9 824.3,231.9 825.1,231.9 826.0,231.9 826.9,231.9 827.8,231.9 828.6,231.9 829.5,231.9 830.4,231.9 831.2,231.9 832.1,231.9 833.0,231.9 833.9,231.9 834.7,231.9 835.6,231.9 836.5,231.9 837.3,231.9 838.2,231.9 839.1,231.9 840.0,231.9 840.8,231.9 841.7,231.9 842.6,231.9 843.4,231.9 844.3,231.9 845.2,231.9 846.1,231.9 846.9,231.9 847.8,224.5 848.7,229.6 849.6,228.0 850.4,223.9 851.3,227.4 852.2,227.4 853.0,225.2 853.9,211.1 854.8,204.7 855.7,215.3 856.5,211.5 857.4,210.4 858.3,198.5 859.1,200.1 860.0,199.9 860.9,178.7 861.8,183.6 862.6,185.5 863.5,187.3 864.4,194.6 865.2,198.8 866.1,204.3 867.0,204.9 867.9,211.7 868.7,208.0 869.6,209.8 870.5,215.7 871.4,220.8 872.2,220.9 873.1,220.9 874.0,220.9 874.8,220.9 875.7,220.9 876.6,220.9 877.5,220.9 878.3,220.9 879.2,220.9 880.1,220.9 880.9,220.9 881.8,220.9 882.7,220.9 883.6,220.9 884.4,220.9 885.3,220.9 886.2,220.9 887.0,220.9 887.9,220.9 888.8,220.9 889.7,220.9 890.5,220.9 891.4,220.9 892.3,220.9 893.2,220.9 894.0,220.9 894.9,220.9 895.8,220.9 896.6,220.9 897.5,220.9 898.4,220.9 899.3,220.9 900.1,220.9 901.0,220.9 901.9,220.9 902.7,220.9 903.6,220.9 904.5,220.9 905.4,220.9 906.2,220.9 907.1,220.9 908.0,220.9 908.9,220.9 909.7,220.9 910.6,220.9 911.5,220.9 912.3,220.9 913.2,220.9 914.1,220.9 915.0,220.9 915.8,220.9 916.7,220.9 917.6,220.9 918.4,220.9 919.3,219.2 920.2,224.4 921.1,226.2 921.9,224.4 922.8,225.6 923.7,234.4 924.5,238.3 925.4,234.6 926.3,236.0 927.2,236.1 928.0,236.1 928.9,236.1 929.8,236.1 930.7,236.1 931.5,236.1 932.4,236.1 933.3,236.1 934.1,251.2 935.0,257.0 935.9,257.6 936.8,252.0 937.6,234.1 938.5,237.1 939.4,240.1 940.2,234.3 941.1,235.2 942.0,231.1 942.9,226.3 943.7,224.4 944.6,231.7 945.5,232.1 946.3,241.0 947.2,240.1 948.1,237.5 949.0,234.9 949.8,240.3 950.7,246.0 951.6,227.8 952.5,231.7 953.3,232.4 954.2,227.8 955.1,221.1 955.9,213.6 956.8,214.6 957.7,209.5 958.6,234.5 959.4,235.4 960.3,236.0 961.2,239.3 962.0,239.4 962.9,239.4 963.8,239.4 964.7,239.4 965.5,239.4 966.4,242.0 967.3,243.8 968.1,242.2 969.0,249.2 969.9,246.1 970.8,241.8 971.6,246.3 972.5,249.8 973.4,253.3 974.3,255.3 975.1,255.1 976.0,272.2 976.9,272.3 977.7,272.3 978.6,272.3 979.5,272.3 980.4,272.3 981.2,272.3 982.1,272.3 983.0,272.3 983.8,272.3 984.7,272.3 985.6,272.3 986.5,272.3 987.3,272.3 988.2,272.3 989.1,272.3 990.0,272.3 990.8,272.3 991.7,272.3 992.6,272.3 993.4,272.3 994.3,272.3 995.2,272.3 996.1,272.3 996.9,272.3 997.8,272.3 998.7,272.3 999.5,272.3 1000.4,272.3 1001.3,272.3 1002.2,272.3 1003.0,272.3 1003.9,272.3 1004.8,272.3 1005.6,272.3 1006.5,272.3 1007.4,272.3 1008.3,272.3 1009.1,272.3 1010.0,272.3 1010.9,272.3 1011.8,272.3 1012.6,272.3 1013.5,272.3 1014.4,272.3 1015.2,272.3 1016.1,272.3 1017.0,272.3 1017.9,272.3 1018.7,272.3 1019.6,272.3 1020.5,272.3 1021.3,272.3 1022.2,272.3 1023.1,272.3 1024.0,272.3 1024.8,272.3 1025.7,270.1 1026.6,271.9 1027.4,273.3 1028.3,269.9 1029.2,267.8 1030.1,266.5 1030.9,271.5 1031.8,270.8 1032.7,271.7 1033.6,272.9 1034.4,274.0 1035.3,276.0 1036.2,276.2 1037.0,276.2 1037.9,276.2 1038.8,276.2 1039.7,276.2 1040.5,276.2 1041.4,276.2 1042.3,276.2 1043.1,276.2 1044.0,278.3 1044.9,278.3 1045.8,279.0 1046.6,277.0 1047.5,277.8 1048.4,278.1 1049.3,269.1 1050.1,267.3 1051.0,270.5 1051.9,275.4 1052.7,272.7 1053.6,272.7 1054.5,272.5 1055.4,280.1 1056.2,286.3 1057.1,283.4 1058.0,283.6 1058.8,283.6 1059.7,283.6 1060.6,283.6 1061.5,283.6 1062.3,283.6 1063.2,283.6 1064.1,283.6 1064.9,283.6 1065.8,283.6 1066.7,283.6 1067.6,283.6 1068.4,283.6 1069.3,283.6 1070.2,283.6 1071.1,283.6 1071.9,283.6 1072.8,283.6 1073.7,283.6 1074.5,283.6 1075.4,283.6 1076.3,283.6 1077.2,283.6 1078.0,283.6 1078.9,283.6 1079.8,283.6 1080.6,283.6 1081.5,286.7 1082.4,289.9 1083.3,291.5 1084.1,290.1 1085.0,293.6 1085.9,292.7 1086.7,294.3 1087.6,288.5 1088.5,292.2 1089.4,289.7 1090.2,295.6 1091.1,301.2 1092.0,298.6 1092.9,298.8 1093.7,298.8 1094.6,298.8 1095.5,298.8 1096.3,298.8 1097.2,298.8 1098.1,298.8 1099.0,298.8 1099.8,298.8 1100.7,298.8 1101.6,298.8 1102.4,298.8 1103.3,298.8 1104.2,298.8 1105.1,298.8 1105.9,298.8 1106.8,298.8 1107.7,298.8 1108.5,298.8 1109.4,298.8 1110.3,298.8 1111.2,298.8 1112.0,298.8 1112.9,298.8 1113.8,298.8 1114.7,298.8 1115.5,298.8 1116.4,298.8 1117.3,298.8 1118.1,298.8 1119.0,298.8 1119.9,298.8 1120.8,298.8 1121.6,298.8 1122.5,298.8 1123.4,298.8 1124.2,298.8 1125.1,298.8 1126.0,298.8 1126.9,298.8 1127.7,298.8 1128.6,298.8 1129.5,298.8 1130.4,298.8 1131.2,298.8 1132.1,298.8 1133.0,298.8 1133.8,298.8 1134.7,298.8 1135.6,298.8 1136.5,298.8 1137.3,298.9 1138.2,305.2 1139.1,301.9 1139.9,309.2 1140.8,312.0 1141.7,312.1 1142.6,312.1 1143.4,312.1 1144.3,312.1 1145.2,312.1 1146.0,312.1 1146.9,312.1 1147.8,312.1 1148.7,310.1 1149.5,312.5 1150.4,299.4 1151.3,304.0 1152.2,301.4 1153.0,295.8 1153.9,289.5 1154.8,281.6 1155.6,284.0 1156.5,292.7 1157.4,286.7 1158.3,289.3 1159.1,287.4 1160.0,287.4" />
<text x="90" y="442" font-size="12" fill="#64748b">2025-01-02</text>
<text x="583.0" y="442" font-size="12" fill="#64748b">2025-08-20</text>
<text x="1088" y="442" font-size="12" fill="#64748b">2026-04-13</text>
<text x="8" y="112" font-size="12" fill="#64748b">60.54%</text>
<text x="8" y="418" font-size="12" fill="#64748b">-5.64%</text>
<g><circle cx="122.3" cy="-11523.3" r="6" fill="#16a34a" stroke="#ffffff" stroke-width="2" /><text x="130.3" y="-11533.3" font-size="11" font-weight="700" fill="#16a34a">BUY</text></g>
<g><circle cx="174.6" cy="-13223.4" r="6" fill="#dc2626" stroke="#ffffff" stroke-width="2" /><text x="182.6" y="-13205.4" font-size="11" font-weight="700" fill="#dc2626">SELL</text></g>
<g><circle cx="192.0" cy="-13776.9" r="6" fill="#16a34a" stroke="#ffffff" stroke-width="2" /><text x="200.0" y="-13786.9" font-size="11" font-weight="700" fill="#16a34a">BUY</text></g>
<g><circle cx="213.8" cy="-13483.5" r="6" fill="#dc2626" stroke="#ffffff" stroke-width="2" /><text x="221.8" y="-13465.5" font-size="11" font-weight="700" fill="#dc2626">SELL</text></g>
<g><circle cx="258.3" cy="-12879.2" r="6" fill="#16a34a" stroke="#ffffff" stroke-width="2" /><text x="266.3" y="-12889.2" font-size="11" font-weight="700" fill="#16a34a">BUY</text></g>
<g><circle cx="266.2" cy="-12610.6" r="6" fill="#dc2626" stroke="#ffffff" stroke-width="2" /><text x="274.2" y="-12592.6" font-size="11" font-weight="700" fill="#dc2626">SELL</text></g>
<g><circle cx="317.6" cy="-9941.1" r="6" fill="#16a34a" stroke="#ffffff" stroke-width="2" /><text x="325.6" y="-9951.1" font-size="11" font-weight="700" fill="#16a34a">BUY</text></g>
<g><circle cx="325.5" cy="-9146.1" r="6" fill="#dc2626" stroke="#ffffff" stroke-width="2" /><text x="333.5" y="-9128.1" font-size="11" font-weight="700" fill="#dc2626">SELL</text></g>
<g><circle cx="335.9" cy="-9625.7" r="6" fill="#16a34a" stroke="#ffffff" stroke-width="2" /><text x="343.9" y="-9635.7" font-size="11" font-weight="700" fill="#16a34a">BUY</text></g>
<g><circle cx="352.5" cy="-9444.5" r="6" fill="#dc2626" stroke="#ffffff" stroke-width="2" /><text x="360.5" y="-9426.5" font-size="11" font-weight="700" fill="#dc2626">SELL</text></g>
<g><circle cx="360.3" cy="-9763.4" r="6" fill="#16a34a" stroke="#ffffff" stroke-width="2" /><text x="368.3" y="-9773.4" font-size="11" font-weight="700" fill="#16a34a">BUY</text></g>
<g><circle cx="387.4" cy="-10236.5" r="6" fill="#dc2626" stroke="#ffffff" stroke-width="2" /><text x="395.4" y="-10218.5" font-size="11" font-weight="700" fill="#dc2626">SELL</text></g>
<g><circle cx="436.2" cy="-9963.7" r="6" fill="#16a34a" stroke="#ffffff" stroke-width="2" /><text x="444.2" y="-9973.7" font-size="11" font-weight="700" fill="#16a34a">BUY</text></g>
<g><circle cx="459.7" cy="-10146.8" r="6" fill="#dc2626" stroke="#ffffff" stroke-width="2" /><text x="467.7" y="-10128.8" font-size="11" font-weight="700" fill="#dc2626">SELL</text></g>
<g><circle cx="464.1" cy="-10759.4" r="6" fill="#16a34a" stroke="#ffffff" stroke-width="2" /><text x="472.1" y="-10769.4" font-size="11" font-weight="700" fill="#16a34a">BUY</text></g>
<g><circle cx="478.9" cy="-10518.7" r="6" fill="#dc2626" stroke="#ffffff" stroke-width="2" /><text x="486.9" y="-10500.7" font-size="11" font-weight="700" fill="#dc2626">SELL</text></g>
<g><circle cx="485.0" cy="-10833.4" r="6" fill="#16a34a" stroke="#ffffff" stroke-width="2" /><text x="493.0" y="-10843.4" font-size="11" font-weight="700" fill="#16a34a">BUY</text></g>
<g><circle cx="499.0" cy="-10716.7" r="6" fill="#dc2626" stroke="#ffffff" stroke-width="2" /><text x="507.0" y="-10698.7" font-size="11" font-weight="700" fill="#dc2626">SELL</text></g>
<g><circle cx="508.6" cy="-10947.4" r="6" fill="#16a34a" stroke="#ffffff" stroke-width="2" /><text x="516.6" y="-10957.4" font-size="11" font-weight="700" fill="#16a34a">BUY</text></g>
<g><circle cx="512.9" cy="-10358.2" r="6" fill="#dc2626" stroke="#ffffff" stroke-width="2" /><text x="520.9" y="-10340.2" font-size="11" font-weight="700" fill="#dc2626">SELL</text></g>
<g><circle cx="541.7" cy="-10793.8" r="6" fill="#16a34a" stroke="#ffffff" stroke-width="2" /><text x="549.7" y="-10803.8" font-size="11" font-weight="700" fill="#16a34a">BUY</text></g>
<g><circle cx="568.8" cy="-10866.7" r="6" fill="#dc2626" stroke="#ffffff" stroke-width="2" /><text x="576.8" y="-10848.7" font-size="11" font-weight="700" fill="#dc2626">SELL</text></g>
<g><circle cx="593.2" cy="-10870.9" r="6" fill="#16a34a" stroke="#ffffff" stroke-width="2" /><text x="601.2" y="-10880.9" font-size="11" font-weight="700" fill="#16a34a">BUY</text></g>
<g><circle cx="599.3" cy="-10680.1" r="6" fill="#dc2626" stroke="#ffffff" stroke-width="2" /><text x="607.3" y="-10662.1" font-size="11" font-weight="700" fill="#dc2626">SELL</text></g>
<g><circle cx="600.1" cy="-11021.7" r="6" fill="#16a34a" stroke="#ffffff" stroke-width="2" /><text x="608.1" y="-11031.7" font-size="11" font-weight="700" fill="#16a34a">BUY</text></g>
<g><circle cx="656.8" cy="-15662.8" r="6" fill="#dc2626" stroke="#ffffff" stroke-width="2" /><text x="664.8" y="-15644.8" font-size="11" font-weight="700" fill="#dc2626">SELL</text></g>
<g><circle cx="683.9" cy="-15386.4" r="6" fill="#16a34a" stroke="#ffffff" stroke-width="2" /><text x="691.9" y="-15396.4" font-size="11" font-weight="700" fill="#16a34a">BUY</text></g>
<g><circle cx="703.0" cy="-15324.5" r="6" fill="#dc2626" stroke="#ffffff" stroke-width="2" /><text x="711.0" y="-15306.5" font-size="11" font-weight="700" fill="#dc2626">SELL</text></g>
<g><circle cx="708.3" cy="-15766.0" r="6" fill="#16a34a" stroke="#ffffff" stroke-width="2" /><text x="716.3" y="-15776.0" font-size="11" font-weight="700" fill="#16a34a">BUY</text></g>
<g><circle cx="736.2" cy="-15648.8" r="6" fill="#dc2626" stroke="#ffffff" stroke-width="2" /><text x="744.2" y="-15630.8" font-size="11" font-weight="700" fill="#dc2626">SELL</text></g>
<g><circle cx="767.6" cy="-15523.3" r="6" fill="#16a34a" stroke="#ffffff" stroke-width="2" /><text x="775.6" y="-15533.3" font-size="11" font-weight="700" fill="#16a34a">BUY</text></g>
<g><circle cx="785.0" cy="-15522.3" r="6" fill="#dc2626" stroke="#ffffff" stroke-width="2" /><text x="793.0" y="-15504.3" font-size="11" font-weight="700" fill="#dc2626">SELL</text></g>
<g><circle cx="847.8" cy="-13714.4" r="6" fill="#16a34a" stroke="#ffffff" stroke-width="2" /><text x="855.8" y="-13724.4" font-size="11" font-weight="700" fill="#16a34a">BUY</text></g>
<g><circle cx="872.2" cy="-13961.0" r="6" fill="#dc2626" stroke="#ffffff" stroke-width="2" /><text x="880.2" y="-13943.0" font-size="11" font-weight="700" fill="#dc2626">SELL</text></g>
<g><circle cx="919.3" cy="-13554.8" r="6" fill="#16a34a" stroke="#ffffff" stroke-width="2" /><text x="927.3" y="-13564.8" font-size="11" font-weight="700" fill="#16a34a">BUY</text></g>
<g><circle cx="927.2" cy="-13235.7" r="6" fill="#dc2626" stroke="#ffffff" stroke-width="2" /><text x="935.2" y="-13217.7" font-size="11" font-weight="700" fill="#dc2626">SELL</text></g>
<g><circle cx="934.1" cy="-13888.5" r="6" fill="#16a34a" stroke="#ffffff" stroke-width="2" /><text x="942.1" y="-13898.5" font-size="11" font-weight="700" fill="#16a34a">BUY</text></g>
<g><circle cx="962.0" cy="-13820.8" r="6" fill="#dc2626" stroke="#ffffff" stroke-width="2" /><text x="970.0" y="-13802.8" font-size="11" font-weight="700" fill="#dc2626">SELL</text></g>
<g><circle cx="966.4" cy="-14565.4" r="6" fill="#16a34a" stroke="#ffffff" stroke-width="2" /><text x="974.4" y="-14575.4" font-size="11" font-weight="700" fill="#16a34a">BUY</text></g>
<g><circle cx="976.9" cy="-13796.6" r="6" fill="#dc2626" stroke="#ffffff" stroke-width="2" /><text x="984.9" y="-13778.6" font-size="11" font-weight="700" fill="#dc2626">SELL</text></g>
<g><circle cx="1025.7" cy="-12370.1" r="6" fill="#16a34a" stroke="#ffffff" stroke-width="2" /><text x="1033.7" y="-12380.1" font-size="11" font-weight="700" fill="#16a34a">BUY</text></g>
<g><circle cx="1036.2" cy="-12292.7" r="6" fill="#dc2626" stroke="#ffffff" stroke-width="2" /><text x="1044.2" y="-12274.7" font-size="11" font-weight="700" fill="#dc2626">SELL</text></g>
<g><circle cx="1044.0" cy="-12553.9" r="6" fill="#16a34a" stroke="#ffffff" stroke-width="2" /><text x="1052.0" y="-12563.9" font-size="11" font-weight="700" fill="#16a34a">BUY</text></g>
<g><circle cx="1058.0" cy="-12399.1" r="6" fill="#dc2626" stroke="#ffffff" stroke-width="2" /><text x="1066.0" y="-12381.1" font-size="11" font-weight="700" fill="#dc2626">SELL</text></g>
<g><circle cx="1081.5" cy="-12007.5" r="6" fill="#16a34a" stroke="#ffffff" stroke-width="2" /><text x="1089.5" y="-12017.5" font-size="11" font-weight="700" fill="#16a34a">BUY</text></g>
<g><circle cx="1092.9" cy="-11693.1" r="6" fill="#dc2626" stroke="#ffffff" stroke-width="2" /><text x="1100.9" y="-11675.1" font-size="11" font-weight="700" fill="#dc2626">SELL</text></g>
<g><circle cx="1137.3" cy="-10624.5" r="6" fill="#16a34a" stroke="#ffffff" stroke-width="2" /><text x="1145.3" y="-10634.5" font-size="11" font-weight="700" fill="#16a34a">BUY</text></g>
<g><circle cx="1141.7" cy="-10373.1" r="6" fill="#dc2626" stroke="#ffffff" stroke-width="2" /><text x="1149.7" y="-10355.1" font-size="11" font-weight="700" fill="#dc2626">SELL</text></g>
<g><circle cx="1148.7" cy="-10871.1" r="6" fill="#16a34a" stroke="#ffffff" stroke-width="2" /><text x="1156.7" y="-10881.1" font-size="11" font-weight="700" fill="#16a34a">BUY</text></g>
<text x="40" y="732" font-size="13" fill="#334155">初始资金 1,000,000.00 | 结束资金 1,213,758.52 | 总盈亏 +213,758.52</text>
</svg>