<?xml version="1.0" encoding="UTF-8"?>
<svg xmlns="http://www.w3.org/2000/svg" width="1200" height="760" viewBox="0 0 1200 760">
<rect width="100%" height="100%" fill="#f8fafc" />
<text x="40" y="36" font-size="24" font-weight="700" fill="#111827">收益曲线</text>
<text x="40" y="58" font-size="13" fill="#6b7280">区间 2025-01-02 -&gt; 2026-04-13 | 累计收益曲线（下一根K线生效）</text>
<g transform="translate(930,18)">
<rect x="0" y="0" width="220" height="56" rx="10" fill="#ffffff" stroke="#e2e8f0" />
<circle cx="18" cy="20" r="5" fill="#16a34a" />
<text x="30" y="24" font-size="12" fill="#334155">BUY: 开仓</text>
<circle cx="18" cy="40" r="5" fill="#dc2626" />
<text x="30" y="44" font-size="12" fill="#334155">SELL: 平仓</text>
</g>
<text x="40" y="84" font-size="16" font-weight="700" fill="#111827">累计收益</text>
<line x1="90" y1="418" x2="1160" y2="418" stroke="#94a3b8" stroke-width="1.5" />
<line x1="90" y1="98" x2="90" y2="418" stroke="#cbd5e1" stroke-width="1" />
<line x1="90" y1="418" x2="1160" y2="418" stroke="#cbd5e1" stroke-width="1" />
<path d="M 90.0,418.0 L 90.0,371.7 L 90.9,371.7 L 91.7,371.7 L 92.6,371.7 L 93.5,371.7 L 94.4,371.7 L 95.2,371.7 L 96.1,371.7 L 97.0,371.7 L 97.8,371.7 L 98.7,371.7 L 99.6,371.7 L 100.5,371.7 L 101.3,371.7 L 102.2,371.7 L 103.1,371.7 L 104.0,371.7 L 104.8,371.7 L 105.7,371.7 L 106.6,371.7 L 107.4,371.7 L 108.3,371.7 L 109.2,371.7 L 110.1,371.7 L 110.9,371.7 L 111.8,371.7 L 112.7,371.7 L 113.5,371.7 L 114.4,371.7 L 115.3,371.7 L 116.2,371.7 L 117.0,371.7 L 117.9,371.7 L 118.8,371.7 L 119.6,371.7 L 120.5,371.7 L 121.4,371.7 L 122.3,375.4 L 123.1,373.6 L 124.0,374.3 L 124.9,370.0 L 125.8,374.5 L 126.6,379.5 L 127.5,375.7 L 128.4,378.1 L 129.2,371.5 L 130.1,372.9 L 131.0,374.3 L 131.9,362.8 L 132.7,364.4 L 133.6,366.0 L 134.5,368.5 L 135.3,345.9 L 136.2,311.3 L 137.1,324.9 L 138.0,320.4 L 138.8,323.3 L 139.7,318.5 L 140.6,320.1 L 141.5,317.9 L 142.3,328.3 L 143.2,332.0 L 144.1,340.4 L 144.9,337.7 L 145.8,336.7 L 146.7,322.0 L 147.6,304.7 L 148.4,298.7 L 149.3,308.4 L 150.2,305.9 L 151.0,305.7 L 151.9,307.7 L 152.8,302.7 L 153.7,298.2 L 154.5,305.9 L 155.4,307.3 L 156.3,281.3 L 157.1,275.4 L 158.0,262.4 L 158.9,269.3 L 159.8,266.3 L 160.6,258.1 L 161.5,269.5 L 162.4,269.7 L 163.3,279.8 L 164.1,282.7 L 165.0,276.4 L 165.9,273.4 L 166.7,274.6 L 167.6,276.2 L 168.5,276.9 L 169.4,277.3 L 170.2,275.6 L 171.1,268.5 L 172.0,266.7 L 172.8,266.0 L 173.7,291.0 L 174.6,291.2 L 175.5,291.2 L 176.3,291.2 L 177.2,291.2 L 178.1,291.2 L 178.9,291.2 L 179.8,291.2 L 180.7,291.2 L 181.6,291.2 L 182.4,291.2 L 183.3,291.2 L 184.2,291.2 L 185.1,291.2 L 185.9,291.2 L 186.8,291.2 L 187.7,291.2 L 188.5,291.2 L 189.4,291.2 L 190.3,291.2 L 191.2,291.2 L 192.0,294.8 L 192.9,293.9 L 193.8,292.6 L 194.6,294.0 L 195.5,289.0 L 196.4,289.7 L 197.3,284.9 L 198.1,292.2 L 199.0,293.3 L 199.9,293.7 L 200.7,292.2 L 201.6,290.1 L 202.5,279.8 L 203.4,280.9 L 204.2,284.4 L 205.1,291.7 L 206.0,296.1 L 206.9,292.8 L 207.7,293.9 L 208.6,281.9 L 209.5,292.0 L 210.3,286.1 L 211.2,277.1 L 212.1,304.5 L 213.0,304.7 L 213.8,304.8 L 214.7,304.8 L 215.6,304.8 L 216.4,304.8 L 217.3,304.8 L 218.2,304.8 L 219.1,304.8 L 219.9,304.8 L 220.8,304.8 L 221.7,304.8 L 222.6,304.8 L 223.4,304.8 L 224.3,304.8 L 225.2,304.8 L 226.0,304.8 L 226.9,304.8 L 227.8,304.8 L 228.7,304.8 L 229.5,304.8 L 230.4,304.8 L 231.3,304.8 L 232.1,304.8 L 233.0,304.8 L 233.9,304.8 L 234.8,304.8 L 235.6,304.8 L 236.5,304.8 L 237.4,304.8 L 238.2,304.8 L 239.1,304.8 L 240.0,304.8 L 240.9,304.8 L 241.7,304.8 L 242.6,304.8 L 243.5,304.8 L 244.4,304.8 L 245.2,304.8 L 246.1,304.8 L 247.0,304.8 L 247.8,304.8 L 248.7,304.8 L 249.6,304.8 L 250.5,304.8 L 251.3,304.8 L 252.2,304.8 L 253.1,304.8 L 253.9,304.8 L 254.8,304.8 L 255.7,308.1 L 256.6,307.9 L 257.4,311.5 L 258.3,308.6 L 259.2,308.1 L 260.0,306.3 L 260.9,305.9 L 261.8,306.2 L 262.7,310.9 L 263.5,313.2 L 264.4,318.8 L 265.3,324.4 L 266.2,324.6 L 267.0,324.6 L 267.9,324.6 L 268.8,324.6 L 269.6,324.6 L 270.5,324.6 L 271.4,324.6 L 272.3,324.6 L 273.1,324.6 L 274.0,324.6 L 274.9,324.6 L 275.7,324.6 L 276.6,324.6 L 277.5,324.6 L 278.4,324.6 L 279.2,324.6 L 280.1,324.6 L 281.0,324.6 L 281.9,324.6 L 282.7,324.6 L 283.6,324.6 L 284.5,324.6 L 285.3,324.6 L 286.2,324.6 L 287.1,324.6 L 288.0,324.6 L 288.8,324.6 L 289.7,324.6 L 290.6,324.6 L 291.4,324.6 L 292.3,324.6 L 293.2,324.6 L 294.1,324.6 L 294.9,324.6 L 295.8,324.6 L 296.7,324.6 L 297.5,324.6 L 298.4,324.6 L 299.3,324.6 L 300.2,324.6 L 301.0,324.6 L 301.9,324.6 L 302.8,324.6 L 303.7,324.6 L 304.5,324.6 L 305.4,324.6 L 306.3,324.6 L 307.1,324.6 L 308.0,324.6 L 308.9,324.6 L 309.8,324.6 L 310.6,324.6 L 311.5,324.6 L 312.4,324.6 L 313.2,324.6 L 314.1,324.6 L 315.0,324.6 L 315.9,324.6 L 316.7,324.6 L 317.6,325.3 L 318.5,333.8 L 319.3,332.9 L 320.2,346.7 L 321.1,349.0 L 322.0,350.4 L 322.8,345.9 L 323.7,360.3 L 324.6,372.0 L 325.5,372.1 L 326.3,372.1 L 327.2,372.1 L 328.1,372.1 L 328.9,372.1 L 329.8,372.1 L 330.7,372.1 L 331.6,372.1 L 332.4,372.1 L 333.3,372.1 L 334.2,372.1 L 335.0,372.1 L 335.9,362.5 L 336.8,362.2 L 337.7,369.9 L 338.5,375.1 L 339.4,374.0 L 340.3,376.2 L 341.1,363.8 L 342.0,357.3 L 342.9,360.0 L 343.8,360.6 L 344.6,369.1 L 345.5,375.3 L 346.4,374.8 L 347.3,374.5 L 348.1,366.1 L 349.0,364.7 L 349.9,369.3 L 350.7,370.4 L 351.6,382.7 L 352.5,382.8 L 353.4,382.8 L 354.2,382.8 L 355.1,382.8 L 356.0,382.8 L 356.8,382.8 L 357.7,382.8 L 358.6,382.8 L 359.5,382.8 L 360.3,383.5 L 361.2,385.1 L 362.1,373.5 L 363.0,371.4 L 363.8,371.2 L 364.7,361.7 L 365.6,369.4 L 366.4,371.0 L 367.3,373.6 L 368.2,371.0 L 369.1,355.7 L 369.9,357.0 L 370.8,356.2 L 371.7,356.4 L 372.5,364.1 L 373.4,367.8 L 374.3,362.1 L 375.2,365.5 L 376.0,342.6 L 376.9,341.5 L 377.8,339.9 L 378.6,333.4 L 379.5,336.9 L 380.4,337.7 L 381.3,337.9 L 382.1,340.8 L 383.0,350.0 L 383.9,351.9 L 384.8,346.9 L 385.6,345.6 L 386.5,357.6 L 387.4,357.7 L 388.2,357.7 L 389.1,357.7 L 390.0,357.7 L 390.9,357.7 L 391.7,357.7 L 392.6,357.7 L 393.5,357.7 L 394.3,357.7 L 395.2,357.7 L 396.1,357.7 L 397.0,357.7 L 397.8,357.7 L 398.7,357.7 L 399.6,357.7 L 400.4,357.7 L 401.3,357.7 L 402.2,357.7 L 403.1,357.7 L 403.9,357.7 L 404.8,357.7 L 405.7,357.7 L 406.6,357.7 L 407.4,357.7 L 408.3,357.7 L 409.2,357.7 L 410.0,357.7 L 410.9,357.7 L 411.8,357.7 L 412.7,357.7 L 413.5,357.7 L 414.4,357.7 L 415.3,357.7 L 416.1,357.7 L 417.0,357.7 L 417.9,357.7 L 418.8,357.7 L 419.6,357.7 L 420.5,357.7 L 421.4,357.7 L 422.2,357.7 L 423.1,357.7 L 424.0,357.8 L 424.9,373.7 L 425.7,373.9 L 426.6,375.0 L 427.5,375.3 L 428.4,375.4 L 429.2,375.4 L 430.1,375.4 L 431.0,375.4 L 431.8,375.4 L 432.7,375.4 L 433.6,375.4 L 434.5,375.4 L 435.3,364.7 L 436.2,359.6 L 437.1,348.1 L 437.9,345.4 L 438.8,351.6 L 439.7,350.3 L 440.6,352.7 L 441.4,354.0 L 442.3,345.4 L 443.2,344.4 L 444.1,346.5 L 444.9,346.5 L 445.8,343.6 L 446.7,342.8 L 447.5,352.7 L 448.4,349.5 L 449.3,341.9 L 450.2,344.1 L 451.0,343.3 L 451.9,343.8 L 452.8,333.1 L 453.6,337.9 L 454.5,340.1 L 455.4,340.1 L 456.3,346.0 L 457.1,351.1 L 458.0,348.1 L 458.9,351.3 L 459.7,351.4 L 460.6,351.4 L 461.5,351.4 L 462.4,351.4 L 463.2,351.4 L 464.1,352.3 L 465.0,359.2 L 465.9,356.9 L 466.7,349.2 L 467.6,345.1 L 468.5,339.1 L 469.3,340.1 L 470.2,344.9 L 471.1,349.5 L 472.0,349.3 L 472.8,350.5 L 473.7,360.0 L 474.6,361.5 L 475.4,361.2 L 476.3,361.5 L 477.2,361.5 L 478.1,364.5 L 478.9,364.6 L 479.8,364.6 L 480.7,364.6 L 481.5,364.6 L 482.4,364.6 L 483.3,364.6 L 484.2,365.7 L 485.0,364.9 L 485.9,360.5 L 486.8,356.6 L 487.7,361.3 L 488.5,361.5 L 489.4,365.0 L 490.3,364.5 L 491.1,361.1 L 492.0,362.5 L 492.9,364.5 L 493.8,364.5 L 494.6,366.2 L 495.5,367.0 L 496.4,368.7 L 497.2,366.5 L 498.1,372.1 L 499.0,372.2 L 499.9,372.2 L 500.7,372.2 L 501.6,372.2 L 502.5,372.2 L 503.3,372.2 L 504.2,372.2 L 505.1,372.2 L 506.0,372.2 L 506.8,372.2 L 507.7,372.2 L 508.6,385.1 L 509.5,381.8 L 510.3,383.2 L 511.2,385.8 L 512.1,404.8 L 512.9,405.0 L 513.8,405.0 L 514.7,405.0 L 515.6,405.0 L 516.4,405.0 L 517.3,405.0 L 518.2,405.0 L 519.0,405.0 L 519.9,405.0 L 520.8,405.0 L 521.7,405.0 L 522.5,405.0 L 523.4,405.0 L 524.3,405.0 L 525.2,405.0 L 526.0,405.0 L 526.9,405.0 L 527.8,405.0 L 528.6,405.0 L 529.5,405.0 L 530.4,405.0 L 531.3,405.0 L 532.1,405.0 L 533.0,405.0 L 533.9,405.0 L 534.7,405.0 L 535.6,405.0 L 536.5,405.0 L 537.4,405.0 L 538.2,405.0 L 539.1,405.0 L 540.0,405.0 L 540.8,405.0 L 541.7,403.9 L 542.6,403.9 L 543.5,412.3 L 544.3,414.8 L 545.2,418.0 L 546.1,417.1 L 547.0,417.3 L 547.8,416.6 L 548.7,411.3 L 549.6,409.7 L 550.4,410.1 L 551.3,379.0 L 552.2,391.2 L 553.1,391.9 L 553.9,397.0 L 554.8,391.2 L 555.7,394.0 L 556.5,398.1 L 557.4,392.6 L 558.3,394.4 L 559.2,393.5 L 560.0,391.4 L 560.9,391.2 L 561.8,394.0 L 562.6,390.5 L 563.5,392.4 L 564.4,395.8 L 565.3,399.0 L 566.1,397.7 L 567.0,396.7 L 567.9,401.3 L 568.8,401.5 L 569.6,401.5 L 570.5,401.5 L 571.4,401.5 L 572.2,401.5 L 573.1,401.5 L 574.0,401.5 L 574.9,401.5 L 575.7,401.5 L 576.6,401.5 L 577.5,401.5 L 578.3,401.5 L 579.2,401.5 L 580.1,401.5 L 581.0,401.5 L 581.8,401.5 L 582.7,401.5 L 583.6,401.5 L 584.4,401.5 L 585.3,401.5 L 586.2,401.5 L 587.1,401.5 L 587.9,401.5 L 588.8,401.5 L 589.7,401.5 L 590.6,401.5 L 591.4,401.5 L 592.3,401.5 L 593.2,399.7 L 594.0,401.3 L 594.9,403.6 L 595.8,411.3 L 596.7,411.5 L 597.5,414.9 L 598.4,414.0 L 599.3,414.1 L 600.1,412.0 L 601.0,409.8 L 601.9,408.5 L 602.8,412.0 L 603.6,412.9 L 604.5,413.1 L 605.4,411.1 L 606.3,407.6 L 607.1,404.3 L 608.0,405.1 L 608.9,404.7 L 609.7,396.8 L 610.6,398.5 L 611.5,384.8 L 612.4,371.1 L 613.2,360.7 L 614.1,360.7 L 615.0,361.1 L 615.8,361.1 L 616.7,307.3 L 617.6,310.0 L 618.5,310.4 L 619.3,312.8 L 620.2,317.7 L 621.1,309.1 L 621.9,314.4 L 622.8,315.3 L 623.7,300.4 L 624.6,298.8 L 625.4,298.8 L 626.3,297.5 L 627.2,281.7 L 628.1,272.9 L 628.9,281.0 L 629.8,282.6 L 630.7,275.7 L 631.5,277.9 L 632.4,279.9 L 633.3,278.4 L 634.2,239.7 L 635.0,255.9 L 635.9,257.0 L 636.8,254.1 L 637.6,235.0 L 638.5,212.8 L 639.4,185.6 L 640.3,185.6 L 641.1,173.2 L 642.0,169.2 L 642.9,165.0 L 643.7,178.3 L 644.6,180.9 L 645.5,190.8 L 646.4,188.2 L 647.2,166.3 L 648.1,130.4 L 649.0,136.0 L 649.9,131.8 L 650.7,126.7 L 651.6,166.9 L 652.5,161.8 L 653.3,159.6 L 654.2,149.8 L 655.1,189.7 L 656.0,201.2 L 656.8,201.4 L 657.7,201.4 L 658.6,201.4 L 659.4,201.4 L 660.3,201.4 L 661.2,201.4 L 662.1,201.4 L 662.9,201.4 L 663.8,201.4 L 664.7,201.4 L 665.6,201.4 L 666.4,201.4 L 667.3,201.4 L 668.2,201.4 L 669.0,201.4 L 669.9,201.4 L 670.8,201.4 L 671.7,201.4 L 672.5,201.4 L 673.4,201.4 L 674.3,201.4 L 675.1,201.4 L 676.0,201.4 L 676.9,201.4 L 677.8,201.4 L 678.6,201.4 L 679.5,201.4 L 680.4,201.4 L 681.2,201.4 L 682.1,201.4 L 683.0,201.4 L 683.9,210.3 L 684.7,208.9 L 685.6,211.4 L 686.5,175.0 L 687.4,180.4 L 688.2,184.0 L 689.1,171.6 L 690.0,184.0 L 690.8,187.2 L 691.7,187.2 L 692.6,186.7 L 693.5,201.6 L 694.3,189.3 L 695.2,189.3 L 696.1,192.2 L 696.9,195.6 L 697.8,177.6 L 698.7,194.5 L 699.6,200.5 L 700.4,185.5 L 701.3,199.0 L 702.2,203.9 L 703.0,204.1 L 703.9,204.1 L 704.8,204.1 L 705.7,207.8 L 706.5,204.7 L 707.4,237.2 L 708.3,245.1 L 709.2,229.0 L 710.0,225.5 L 710.9,230.6 L 711.8,228.5 L 712.6,221.4 L 713.5,211.8 L 714.4,206.1 L 715.3,185.2 L 716.1,187.9 L 717.0,191.6 L 717.9,220.4 L 718.7,215.8 L 719.6,205.3 L 720.5,208.4 L 721.4,187.1 L 722.2,194.2 L 723.1,196.9 L 724.0,200.5 L 724.8,195.2 L 725.7,203.6 L 726.6,183.9 L 727.5,155.5 L 728.3,102.4 L 729.2,98.0 L 730.1,107.0 L 731.0,111.8 L 731.8,158.0 L 732.7,173.6 L 733.6,173.6 L 734.4,189.5 L 735.3,242.5 L 736.2,242.6 L 737.1,242.6 L 737.9,242.6 L 738.8,242.6 L 739.7,242.6 L 740.5,242.6 L 741.4,242.6 L 742.3,242.6 L 743.2,242.6 L 744.0,242.6 L 744.9,242.6 L 745.8,242.6 L 746.7,242.6 L 747.5,242.6 L 748.4,242.6 L 749.3,242.6 L 750.1,242.6 L 751.0,242.6 L 751.9,242.6 L 752.8,242.6 L 753.6,242.6 L 754.5,242.6 L 755.4,242.6 L 756.2,242.6 L 757.1,242.6 L 758.0,242.6 L 758.9,242.6 L 759.7,242.6 L 760.6,247.9 L 761.5,246.8 L 762.3,247.7 L 763.2,266.5 L 764.1,262.4 L 765.0,260.5 L 765.8,253.4 L 766.7,233.5 L 767.6,229.4 L 768.5,229.6 L 769.3,229.0 L 770.2,218.5 L 771.1,218.0 L 771.9,217.8 L 772.8,214.2 L 773.7,221.7 L 774.6,220.4 L 775.4,222.3 L 776.3,222.3 L 777.2,226.1 L 778.0,221.2 L 778.9,215.9 L 779.8,211.4 L 780.7,224.9 L 781.5,224.3 L 782.4,225.8 L 783.3,231.8 L 784.1,233.1 L 785.0,233.2 L 785.9,233.2 L 786.8,233.2 L 787.6,233.2 L 788.5,233.2 L 789.4,233.2 L 790.3,233.2 L 791.1,233.2 L 792.0,233.2 L 792.9,233.2 L 793.7,233.2 L 794.6,233.2 L 795.5,233.2 L 796.4,233.2 L 797.2,233.2 L 798.1,233.2 L 799.0,233.2 L 799.8,233.2 L 800.7,233.2 L 801.6,233.2 L 802.5,233.2 L 803.3,233.2 L 804.2,233.2 L 805.1,233.2 L 805.9,233.2 L 806.8,233.2 L 807.7,233.2 L 808.6,233.2 L 809.4,233.2 L 810.3,233.2 L 811.2,233.2 L 812.1,233.2 L 812.9,233.2 L 813.8,233.2 L 814.7,233.2 L 815.5,233.2 L 816.4,233.2 L 817.3,233.2 L 818.2,233.2 L 819.0,233.2 L 819.9,233.2 L 820.8,233.2 L 821.6,233.2 L 822.5,233.2 L 823.4,233.2 L 824.3,233.2 L 825.1,233.2 L 826.0,233.2 L 826.9,233.2 L 827.8,233.2 L 828.6,233.2 L 829.5,233.2 L 830.4,233.2 L 831.2,233.2 L 832.1,233.2 L 833.0,233.2 L 833.9,233.2 L 834.7,233.2 L 835.6,233.2 L 836.5,233.2 L 837.3,233.2 L 838.2,233.2 L 839.1,233.2 L 840.0,233.2 L 840.8,233.2 L 841.7,233.2 L 842.6,233.2 L 843.4,233.2 L 844.3,233.2 L 845.2,233.2 L 846.1,232.9 L 846.9,216.0 L 847.8,207.8 L 848.7,213.5 L 849.6,212.1 L 850.4,207.1 L 851.3,210.8 L 852.2,211.1 L 853.0,216.3 L 853.9,192.7 L 854.8,185.5 L 855.7,197.7 L 856.5,195.0 L 857.4,192.2 L 858.3,178.6 L 859.1,180.3 L 860.0,176.9 L 860.9,156.3 L 861.8,162.0 L 862.6,164.2 L 863.5,163.0 L 864.4,174.4 L 865.2,178.8 L 866.1,185.0 L 867.0,185.0 L 867.9,193.5 L 868.7,189.0 L 869.6,191.0 L 870.5,189.2 L 871.4,203.6 L 872.2,203.8 L 873.1,203.8 L 874.0,203.8 L 874.8,203.8 L 875.7,203.8 L 876.6,203.8 L 877.5,203.8 L 878.3,203.8 L 879.2,203.8 L 880.1,203.8 L 880.9,203.8 L 881.8,203.8 L 882.7,203.8 L 883.6,203.8 L 884.4,203.8 L 885.3,203.8 L 886.2,203.8 L 887.0,203.8 L 887.9,203.8 L 888.8,203.8 L 889.7,203.8 L 890.5,203.8 L 891.4,203.8 L 892.3,203.8 L 893.2,203.8 L 894.0,203.8 L 894.9,203.8 L 895.8,203.8 L 896.6,203.8 L 897.5,203.8 L 898.4,203.8 L 899.3,203.8 L 900.1,203.8 L 901.0,203.8 L 901.9,203.8 L 902.7,203.8 L 903.6,203.8 L 904.5,203.8 L 905.4,203.8 L 906.2,203.8 L 907.1,203.8 L 908.0,203.8 L 908.9,203.8 L 909.7,203.8 L 910.6,203.8 L 911.5,203.8 L 912.3,203.8 L 913.2,203.8 L 914.1,203.8 L 915.0,203.8 L 915.8,203.8 L 916.7,203.8 L 917.6,203.8 L 918.4,197.0 L 919.3,192.8 L 920.2,200.6 L 921.1,202.4 L 921.9,200.8 L 922.8,199.5 L 923.7,211.9 L 924.5,216.3 L 925.4,212.2 L 926.3,212.2 L 927.2,212.3 L 928.0,212.3 L 928.9,212.3 L 929.8,212.3 L 930.7,212.3 L 931.5,212.3 L 932.4,212.3 L 933.3,211.9 L 934.1,213.7 L 935.0,220.3 L 935.9,221.0 L 936.8,216.2 L 937.6,193.8 L 938.5,197.1 L 939.4,200.6 L 940.2,200.1 L 941.1,194.8 L 942.0,190.0 L 942.9,184.5 L 943.7,184.3 L 944.6,190.8 L 945.5,191.6 L 946.3,201.9 L 947.2,196.6 L 948.1,197.6 L 949.0,194.3 L 949.8,200.6 L 950.7,202.4 L 951.6,186.5 L 952.5,190.8 L 953.3,191.8 L 954.2,186.3 L 955.1,178.5 L 955.9,169.7 L 956.8,170.9 L 957.7,170.2 L 958.6,194.3 L 959.4,195.1 L 960.3,195.6 L 961.2,204.6 L 962.0,204.8 L 962.9,204.8 L 963.8,221.8 L 964.7,220.6 L 965.5,193.6 L 966.4,196.7 L 967.3,198.7 L 968.1,195.8 L 969.0,204.9 L 969.9,201.3 L 970.8,196.5 L 971.6,199.2 L 972.5,205.7 L 973.4,209.5 L 974.3,212.2 L 975.1,212.9 L 976.0,231.9 L 976.9,232.1 L 977.7,232.1 L 978.6,232.1 L 979.5,232.1 L 980.4,232.1 L 981.2,232.1 L 982.1,232.1 L 983.0,232.1 L 983.8,232.1 L 984.7,232.1 L 985.6,232.1 L 986.5,232.1 L 987.3,232.1 L 988.2,232.1 L 989.1,232.1 L 990.0,232.1 L 990.8,232.1 L 991.7,232.1 L 992.6,232.1 L 993.4,232.1 L 994.3,232.1 L 995.2,232.1 L 996.1,232.1 L 996.9,232.1 L 997.8,232.1 L 998.7,232.1 L 999.5,232.1 L 1000.4,232.1 L 1001.3,232.1 L 1002.2,232.1 L 1003.0,232.1 L 1003.9,232.1 L 1004.8,232.1 L 1005.6,232.1 L 1006.5,232.1 L 1007.4,232.1 L 1008.3,232.1 L 1009.1,232.1 L 1010.0,232.1 L 1010.9,232.1 L 1011.8,232.1 L 1012.6,232.1 L 1013.5,232.1 L 1014.4,232.1 L 1015.2,232.1 L 1016.1,232.1 L 1017.0,232.1 L 1017.9,232.1 L 1018.7,232.1 L 1019.6,232.1 L 1020.5,232.1 L 1021.3,232.1 L 1022.2,232.1 L 1023.1,233.8 L 1024.0,238.1 L 1024.8,232.8 L 1025.7,229.8 L 1026.6,232.0 L 1027.4,230.6 L 1028.3,229.8 L 1029.2,226.9 L 1030.1,225.5 L 1030.9,226.3 L 1031.8,230.6 L 1032.7,231.7 L 1033.6,233.0 L 1034.4,234.6 L 1035.3,236.5 L 1036.2,236.7 L 1037.0,236.7 L 1037.9,236.7 L 1038.8,236.7 L 1039.7,236.7 L 1040.5,236.7 L 1041.4,236.7 L 1042.3,236.7 L 1043.1,236.7 L 1044.0,239.2 L 1044.9,238.6 L 1045.8,239.9 L 1046.6,237.6 L 1047.5,238.6 L 1048.4,239.2 L 1049.3,228.1 L 1050.1,226.3 L 1051.0,230.0 L 1051.9,228.7 L 1052.7,232.9 L 1053.6,232.6 L 1054.5,232.9 L 1055.4,226.0 L 1056.2,248.6 L 1057.1,245.2 L 1058.0,245.3 L 1058.8,245.3 L 1059.7,245.3 L 1060.6,245.3 L 1061.5,245.3 L 1062.3,245.3 L 1063.2,245.3 L 1064.1,245.3 L 1064.9,245.3 L 1065.8,245.3 L 1066.7,245.3 L 1067.6,245.3 L 1068.4,245.3 L 1069.3,245.3 L 1070.2,245.3 L 1071.1,245.3 L 1071.9,245.3 L 1072.8,245.3 L 1073.7,245.3 L 1074.5,245.3 L 1075.4,245.3 L 1076.3,245.3 L 1077.2,245.3 L 1078.0,245.3 L 1078.9,245.3 L 1079.8,245.3 L 1080.6,245.3 L 1081.5,249.3 L 1082.4,253.1 L 1083.3,252.2 L 1084.1,253.3 L 1085.0,257.4 L 1085.9,256.3 L 1086.7,253.6 L 1087.6,251.4 L 1088.5,255.8 L 1089.4,252.5 L 1090.2,257.9 L 1091.1,266.3 L 1092.0,263.6 L 1092.9,263.7 L 1093.7,263.7 L 1094.6,263.7 L 1095.5,263.7 L 1096.3,263.7 L 1097.2,263.7 L 1098.1,263.7 L 1099.0,263.7 L 1099.8,263.7 L 1100.7,263.7 L 1101.6,263.7 L 1102.4,263.7 L 1103.3,263.7 L 1104.2,263.7 L 1105.1,263.7 L 1105.9,263.7 L 1106.8,263.7 L 1107.7,263.7 L 1108.5,263.7 L 1109.4,263.7 L 1110.3,263.7 L 1111.2,263.7 L 1112.0,263.7 L 1112.9,263.7 L 1113.8,263.7 L 1114.7,263.7 L 1115.5,263.7 L 1116.4,263.7 L 1117.3,263.7 L 1118.1,263.7 L 1119.0,263.7 L 1119.9,263.7 L 1120.8,263.7 L 1121.6,263.7 L 1122.5,263.7 L 1123.4,263.7 L 1124.2,263.7 L 1125.1,263.7 L 1126.0,263.7 L 1126.9,263.7 L 1127.7,263.7 L 1128.6,263.7 L 1129.5,263.7 L 1130.4,263.7 L 1131.2,263.7 L 1132.1,263.7 L 1133.0,263.7 L 1133.8,263.7 L 1134.7,263.7 L 1135.6,263.7 L 1136.5,264.5 L 1137.3,264.2 L 1138.2,272.2 L 1139.1,271.0 L 1139.9,276.3 L 1140.8,279.9 L 1141.7,280.0 L 1142.6,280.0 L 1143.4,280.0 L 1144.3,280.0 L 1145.2,280.0 L 1146.0,280.0 L 1146.9,280.0 L 1147.8,280.0 L 1148.7,277.9 L 1149.5,273.1 L 1150.4,265.1 L 1151.3,270.2 L 1152.2,267.4 L 1153.0,268.8 L 1153.9,253.5 L 1154.8,244.5 L 1155.6,247.3 L 1156.5,248.4 L 1157.4,250.1 L 1158.3,253.2 L 1159.1,251.0 L 1160.0,251.5 L 1160.0,418.0 Z" fill="#60a5fa" opacity="0.22" />
<polyline fill="none" stroke="#2563eb" stroke-width="3" stroke-linecap="round" stroke-linejoin="round" points="90.0,371.7 90.9,371.7 91.7,371.7 92.6,371.7 93.5,371.7 94.4,371.7 95.2,371.7 96.1,371.7 97.0,371.7 97.8,371.7 98.7,371.7 99.6,371.7 100.5,371.7 101.3,371.7 102.2,371.7 103.1,371.7 104.0,371.7 104.8,371.7 105.7,371.7 106.6,371.7 107.4,371.7 108.3,371.7 109.2,371.7 110.1,371.7 110.9,371.7 111.8,371.7 112.7,371.7 113.5,371.7 114.4,371.7 115.3,371.7 116.2,371.7 117.0,371.7 117.9,371.7 118.8,371.7 119.6,371.7 120.5,371.7 121.4,371.7 122.3,375.4 123.1,373.6 124.0,374.3 124.9,370.0 125.8,374.5 126.6,379.5 127.5,375.7 128.4,378.1 129.2,371.5 130.1,372.9 131.0,374.3 131.9,362.8 132.7,364.4 133.6,366.0 134.5,368.5 135.3,345.9 136.2,311.3 137.1,324.9 138.0,320.4 138.8,323.3 139.7,318.5 140.6,320.1 141.5,317.9 142.3,328.3 143.2,332.0 144.1,340.4 144.9,337.7 145.8,336.7 146.7,322.0 147.6,304.7 148.4,298.7 149.3,308.4 150.2,305.9 151.0,305.7 151.9,307.7 152.8,302.7 153.7,298.2 154.5,305.9 155.4,307.3 156.3,281.3 157.1,275.4 158.0,262.4 158.9,269.3 159.8,266.3 160.6,258.1 161.5,269.5 162.4,269.7 163.3,279.8 164.1,282.7 165.0,276.4 165.9,273.4 166.7,274.6 167.6,276.2 168.5,276.9 169.4,277.3 170.2,275.6 171.1,268.5 172.0,266.7 172.8,266.0 173.7,291.0 174.6,291.2 175.5,291.2 176.3,291.2 177.2,291.2 178.1,291.2 178.9,291.2 179.8,291.2 180.7,291.2 181.6,291.2 182.4,291.2 183.3,291.2 184.2,291.2 185.1,291.2 185.9,291.2 186.8,291.2 187.7,291.2 188.5,291.2 189.4,291.2 190.3,291.2 191.2,291.2 192.0,294.8 192.9,293.9 193.8,292.6 194.6,294.0 195.5,289.0 196.4,289.7 197.3,284.9 198.1,292.2 199.0,293.3 199.9,293.7 200.7,292.2 201.6,290.1 202.5,279.8 203.4,280.9 204.2,284.4 205.1,291.7 206.0,296.1 206.9,292.8 207.7,293.9 208.6,281.9 209.5,292.0 210.3,286.1 211.2,277.1 212.1,304.5 213.0,304.7 213.8,304.8 214.7,304.8 215.6,304.8 216.4,304.8 217.3,304.8 218.2,304.8 219.1,304.8 219.9,304.8 220.8,304.8 221.7,304.8 222.6,304.8 223.4,304.8 224.3,304.8 225.2,304.8 226.0,304.8 226.9,304.8 227.8,304.8 228.7,304.8 229.5,304.8 230.4,304.8 231.3,304.8 232.1,304.8 233.0,304.8 233.9,304.8 234.8,304.8 235.6,304.8 236.5,304.8 237.4,304.8 238.2,304.8 239.1,304.8 240.0,304.8 240.9,304.8 241.7,304.8 242.6,304.8 243.5,304.8 244.4,304.8 245.2,304.8 246.1,304.8 247.0,304.8 247.8,304.8 248.7,304.8 249.6,304.8 250.5,304.8 251.3,304.8 252.2,304.8 253.1,304.8 253.9,304.8 254.8,304.8 255.7,308.1 256.6,307.9 257.4,311.5 258.3,308.6 259.2,308.1 260.0,306.3 260.9,305.9 261.8,306.2 262.7,310.9 263.5,313.2 264.4,318.8 265.3,324.4 266.2,324.6 267.0,324.6 267.9,324.6 268.8,324.6 269.6,324.6 270.5,324.6 271.4,324.6 272.3,324.6 273.1,324.6 274.0,324.6 274.9,324.6 275.7,324.6 276.6,324.6 277.5,324.6 278.4,324.6 279.2,324.6 280.1,324.6 281.0,324.6 281.9,324.6 282.7,324.6 283.6,324.6 284.5,324.6 285.3,324.6 286.2,324.6 287.1,324.6 288.0,324.6 288.8,324.6 289.7,324.6 290.6,324.6 291.4,324.6 292.3,324.6 293.2,324.6 294.1,324.6 294.9,324.6 295.8,324.6 296.7,324.6 297.5,324.6 298.4,324.6 299.3,324.6 300.2,324.6 301.0,324.6 301.9,324.6 302.8,324.6 303.7,324.6 304.5,324.6 305.4,324.6 306.3,324.6 307.1,324.6 308.0,324.6 308.9,324.6 309.8,324.6 310.6,324.6 311.5,324.6 312.4,324.6 313.2,324.6 314.1,324.6 315.0,324.6 315.9,324.6 316.7,324.6 317.6,325.3 318.5,333.8 319.3,332.9 320.2,346.7 321.1,349.0 322.0,350.4 322.8,345.9 323.7,360.3 324.6,372.0 325.5,372.1 326.3,372.1 327.2,372.1 328.1,372.1 328.9,372.1 329.8,372.1 330.7,372.1 331.6,372.1 332.4,372.1 333.3,372.1 334.2,372.1 335.0,372.1 335.9,362.5 336.8,362.2 337.7,369.9 338.5,375.1 339.4,374.0 340.3,376.2 341.1,363.8 342.0,357.3 342.9,360.0 343.8,360.6 344.6,369.1 345.5,375.3 346.4,374.8 347.3,374.5 348.1,366.1 349.0,364.7 349.9,369.3 350.7,370.4 351.6,382.7 352.5,382.8 353.4,382.8 354.2,382.8 355.1,382.8 356.0,382.8 356.8,382.8 357.7,382.8 358.6,382.8 359.5,382.8 360.3,383.5 361.2,385.1 362.1,373.5 363.0,371.4 363.8,371.2 364.7,361.7 365.6,369.4 366.4,371.0 367.3,373.6 368.2,371.0 369.1,355.7 369.9,357.0 370.8,356.2 371.7,356.4 372.5,364.1 373.4,367.8 374.3,362.1 375.2,365.5 376.0,342.6 376.9,341.5 377.8,339.9 378.6,333.4 379.5,336.9 380.4,337.7 381.3,337.9 382.1,340.8 383.0,350.0 383.9,351.9 384.8,346.9 385.6,345.6 386.5,357.6 387.4,357.7 388.2,357.7 389.1,357.7 390.0,357.7 390.9,357.7 391.7,357.7 392.6,357.7 393.5,357.7 394.3,357.7 395.2,357.7 396.1,357.7 397.0,357.7 397.8,357.7 398.7,357.7 399.6,357.7 400.4,357.7 401.3,357.7 402.2,357.7 403.1,357.7 403.9,357.7 404.8,357.7 405.7,357.7 406.6,357.7 407.4,357.7 408.3,357.7 409.2,357.7 410.0,357.7 410.9,357.7 411.8,357.7 412.7,357.7 413.5,357.7 414.4,357.7 415.3,357.7 416.1,357.7 417.0,357.7 417.9,357.7 418.8,357.7 419.6,357.7 420.5,357.7 421.4,357.7 422.2,357.7 423.1,357.7 424.0,357.8 424.9,373.7 425.7,373.9 426.6,375.0 427.5,375.3 428.4,375.4 429.2,375.4 430.1,375.4 431.0,375.4 431.8,375.4 432.7,375.4 433.6,375.4 434.5,375.4 435.3,364.7 436.2,359.6 437.1,348.1 437.9,345.4 438.8,351.6 439.7,350.3 440.6,352.7 441.4,354.0 442.3,345.4 443.2,344.4 444.1,346.5 444.9,346.5 445.8,343.6 446.7,342.8 447.5,352.7 448.4,349.5 449.3,341.9 450.2,344.1 451.0,343.3 451.9,343.8 452.8,333.1 453.6,337.9 454.5,340.1 455.4,340.1 456.3,346.0 457.1,351.1 458.0,348.1 458.9,351.3 459.7,351.4 460.6,351.4 461.5,351.4 462.4,351.4 463.2,351.4 464.1,352.3 465.0,359.2 465.9,356.9 466.7,349.2 467.6,345.1 468.5,339.1 469.3,340.1 470.2,344.9 471.1,349.5 472.0,349.3 472.8,350.5 473.7,360.0 474.6,361.5 475.4,361.2 476.3,361.5 477.2,361.5 478.1,364.5 478.9,364.6 479.8,364.6 480.7,364.6 481.5,364.6 482.4,364.6 483.3,364.6 484.2,365.7 485.0,364.9 485.9,360.5 486.8,356.6 487.7,361.3 488.5,361.5 489.4,365.0 490.3,364.5 491.1,361.1 492.0,362.5 492.9,364.5 493.8,364.5 494.6,366.2 495.5,367.0 496.4,368.7 497.2,366.5 498.1,372.1 499.0,372.2 499.9,372.2 500.7,372.2 501.6,372.2 502.5,372.2 503.3,372.2 504.2,372.2 505.1,372.2 506.0,372.2 506.8,372.2 507.7,372.2 508.6,385.1 509.5,381.8 510.3,383.2 511.2,385.8 512.1,404.8 512.9,405.0 513.8,405.0 514.7,405.0 515.6,405.0 516.4,405.0 517.3,405.0 518.2,405.0 519.0,405.0 519.9,405.0 520.8,405.0 521.7,405.0 522.5,405.0 523.4,405.0 524.3,405.0 525.2,405.0 526.0,405.0 526.9,405.0 527.8,405.0 528.6,405.0 529.5,405.0 530.4,405.0 531.3,405.0 532.1,405.0 533.0,405.0 533.9,405.0 534.7,405.0 535.6,405.0 536.5,405.0 537.4,405.0 538.2,405.0 539.1,405.0 540.0,405.0 540.8,405.0 541.7,403.9 542.6,403.9 543.5,412.3 544.3,414.8 545.2,418.0 546.1,417.1 547.0,417.3 547.8,416.6 548.7,411.3 549.6,409.7 550.4,410.1 551.3,379.0 552.2,391.2 553.1,391.9 553.9,397.0 554.8,391.2 555.7,394.0 556.5,398.1 557.4,392.6 558.3,394.4 559.2,393.5 560.0,391.4 560.9,391.2 561.8,394.0 562.6,390.5 563.5,392.4 564.4,395.8 565.3,399.0 566.1,397.7 567.0,396.7 567.9,401.3 568.8,401.5 569.6,401.5 570.5,401.5 571.4,401.5 572.2,401.5 573.1,401.5 574.0,401.5 574.9,401.5 575.7,401.5 576.6,401.5 577.5,401.5 578.3,401.5 579.2,401.5 580.1,401.5 581.0,401.5 581.8,401.5 582.7,401.5 583.6,401.5 584.4,401.5 585.3,401.5 586.2,401.5 587.1,401.5 587.9,401.5 588.8,401.5 589.7,401.5 590.6,401.5 591.4,401.5 592.3,401.5 593.2,399.7 594.0,401.3 594.9,403.6 595.8,411.3 596.7,411.5 597.5,414.9 598.4,414.0 599.3,414.1 600.1,412.0 601.0,409.8 601.9,408.5 602.8,412.0 603.6,412.9 604.5,413.1 605.4,411.1 606.3,407.6 607.1,404.3 608.0,405.1 608.9,404.7 609.7,396.8 610.6,398.5 611.5,384.8 612.4,371.1 613.2,360.7 614.1,360.7 615.0,361.1 615.8,361.1 616.7,307.3 617.6,310.0 618.5,310.4 619.3,312.8 620.2,317.7 621.1,309.1 621.9,314.4 622.8,315.3 623.7,300.4 624.6,298.8 625.4,298.8 626.3,297.5 627.2,281.7 628.1,272.9 628.9,281.0 629.8,282.6 630.7,275.7 631.5,277.9 632.4,279.9 633.3,278.4 634.2,239.7 635.0,255.9 635.9,257.0 636.8,254.1 637.6,235.0 638.5,212.8 639.4,185.6 640.3,185.6 641.1,173.2 642.0,169.2 642.9,165.0 643.7,178.3 644.6,180.9 645.5,190.8 646.4,188.2 647.2,166.3 648.1,130.4 649.0,136.0 649.9,131.8 650.7,126.7 651.6,166.9 652.5,161.8 653.3,159.6 654.2,149.8 655.1,189.7 656.0,201.2 656.8,201.4 657.7,201.4 658.6,201.4 659.4,201.4 660.3,201.4 661.2,201.4 662.1,201.4 662.9,201.4 663.8,201.4 664.7,201.4 665.6,201.4 666.4,201.4 667.3,201.4 668.2,201.4 669.0,201.4 669.9,201.4 670.8,201.4 671.7,201.4 672.5,201.4 673.4,201.4 674.3,201.4 675.1,201.4 676.0,201.4 676.9,201.4 677.8,201.4 678.6,201.4 679.5,201.4 680.4,201.4 681.2,201.4 682.1,201.4 683.0,201.4 683.9,210.3 684.7,208.9 685.6,211.4 686.5,175.0 687.4,180.4 688.2,184.0 689.1,171.6 690.0,184.0 690.8,187.2 691.7,187.2 692.6,186.7 693.5,201.6 694.3,189.3 695.2,189.3 696.1,192.2 696.9,195.6 697.8,177.6 698.7,194.5 699.6,200.5 700.4,185.5 701.3,199.0 702.2,203.9 703.0,204.1 703.9,204.1 704.8,204.1 705.7,207.8 706.5,204.7 707.4,237.2 708.3,245.1 709.2,229.0 710.0,225.5 710.9,230.6 711.8,228.5 712.6,221.4 713.5,211.8 714.4,206.1 715.3,185.2 716.1,187.9 717.0,191.6 717.9,220.4 718.7,215.8 719.6,205.3 720.5,208.4 721.4,187.1 722.2,194.2 723.1,196.9 724.0,200.5 724.8,195.2 725.7,203.6 726.6,183.9 727.5,155.5 728.3,102.4 729.2,98.0 730.1,107.0 731.0,111.8 731.8,158.0 732.7,173.6 733.6,173.6 734.4,189.5 735.3,242.5 736.2,242.6 737.1,242.6 737.9,242.6 738.8,242.6 739.7,242.6 740.5,242.6 741.4,242.6 742.3,242.6 743.2,242.6 744.0,242.6 744.9,242.6 745.8,242.6 746.7,242.6 747.5,242.6 748.4,242.6 749.3,242.6 750.1,242.6 751.0,242.6 751.9,242.6 752.8,242.6 753.6,242.6 754.5,242.6 755.4,242.6 756.2,242.6 757.1,242.6 758.0,242.6 758.9,242.6 759.7,242.6 760.6,247.9 761.5,246.8 762.3,247.7 763.2,266.5 764.1,262.4 765.0,260.5 765.8,253.4 766.7,233.5 767.6,229.4 768.5,229.6 769.3,229.0 770.2,218.5 771.1,218.0 771.9,217.8 772.8,214.2 773.7,221.7 774.6,220.4 775.4,222.3 776.3,222.3 777.2,226.1 778.0,221.2 778.9,215.9 779.8,211.4 780.7,224.9 781.5,224.3 782.4,225.8 783.3,231.8 784.1,233.1 785.0,233.2 785.9,233.2 786.8,233.2 787.6,233.2 788.5,233.2 789.4,233.2 790.3,233.2 791.1,233.2 792.0,233.2 792.9,233.2 793.7,233.2 794.6,233.2 795.5,233.2 796.4,233.2 797.2,233.2 798.1,233.2 799.0,233.2 799.8,233.2 800.7,233.2 801.6,233.2 802.5,233.2 803.3,233.2 804.2,233.2 805.1,233.2 805.9,233.2 806.8,233.2 807.7,233.2 808.6,233.2 809.4,233.2 810.3,233.2 811.2,233.2 812.1,233.2 812.9,233.2 813.8,233.2 814.7,233.2 815.5,233.2 816.4,233.2 817.3,233.2 818.2,233.2 819.0,233.2 819.9,233.2 820.8,233.2 821.6,233.2 822.5,233.2 823.4,233.2 824.3,233.2 825.1,233.2 826.0,233.2 826.9,233.2 827.8,233.2 828.6,233.2 829.5,233.2 830.4,233.2 831.2,233.2 832.1,233.2 833.0,233.2 833.9,233.2 834.7,233.2 835.6,233.2 836.5,233.2 837.3,233.2 838.2,233.2 839.1,233.2 840.0,233.2 840.8,233.2 841.7,233.2 842.6,233.2 843.4,233.2 844.3,233.2 845.2,233.2 846.1,232.9 846.9,216.0 847.8,207.8 848.7,213.5 849.6,212.1 850.4,207.1 851.3,210.8 852.2,211.1 853.0,216.3 853.9,192.7 854.8,185.5 855.7,197.7 856.5,195.0 857.4,192.2 858.3,178.6 859.1,180.3 860.0,176.9 860.9,156.3 861.8,162.0 862.6,164.2 863.5,163.0 864.4,174.4 865.2,178.8 866.1,185.0 867.0,185.0 867.9,193.5 868.7,189.0 869.6,191.0 870.5,189.2 871.4,203.6 872.2,203.8 873.1,203.8 874.0,203.8 874.8,203.8 875.7,203.8 876.6,203.8 877.5,203.8 878.3,203.8 879.2,203.8 880.1,203.8 880.9,203.8 881.8,203.8 882.7,203.8 883.6,203.8 884.4,203.8 885.3,203.8 886.2,203.8 887.0,203.8 887.9,203.8 888.8,203.8 889.7,203.8 890.5,203.8 891.4,203.8 892.3,203.8 893.2,203.8 894.0,203.8 894.9,203.8 895.8,203.8 896.6,203.8 897.5,203.8 898.4,203.8 899.3,203.8 900.1,203.8 901.0,203.8 901.9,203.8 902.7,203.8 903.6,203.8 904.5,203.8 905.4,203.8 906.2,203.8 907.1,203.8 908.0,203.8 908.9,203.8 909.7,203.8 910.6,203.8 911.5,203.8 912.3,203.8 913.2,203.8 914.1,203.8 915.0,203.8 915.8,203.8 916.7,203.8 917.6,203.8 918.4,197.0 919.3,192.8 920.2,200.6 921.1,202.4 921.9,200.8 922.8,199.5 923.7,211.9 924.5,216.3 925.4,212.2 926.3,212.2 927.2,212.3 928.0,212.3 928.9,212.3 929.8,212.3 930.7,212.3 931.5,212.3 932.4,212.3 933.3,211.9 934.1,213.7 935.0,220.3 935.9,221.0 936.8,216.2 937.6,193.8 938.5,197.1 939.4,200.6 940.2,200.1 941.1,194.8 942.0,190.0 942.9,184.5 943.7,184.3 944.6,190.8 945.5,191.6 946.3,201.9 947.2,196.6 948.1,197.6 949.0,194.3 949.8,200.6 950.7,202.4 951.6,186.5 952.5,190.8 953.3,191.8 954.2,186.3 955.1,178.5 955.9,169.7 956.8,170.9 957.7,170.2 958.6,194.3 959.4,195.1 960.3,195.6 961.2,204.6 962.0,204.8 962.9,204.8 963.8,221.8 964.7,220.6 965.5,193.6 966.4,196.7 967.3,198.7 968.1,195.8 969.0,204.9 969.9,201.3 970.8,196.5 971.6,199.2 972.5,205.7 973.4,209.5 974.3,212.2 975.1,212.9 976.0,231.9 976.9,232.1 977.7,232.1 978.6,232.1 979.5,232.1 980.4,232.1 981.2,232.1 982.1,232.1 983.0,232.1 983.8,232.1 984.7,232.1 985.6,232.1 986.5,232.1 987.3,232.1 988.2,232.1 989.1,232.1 990.0,232.1 990.8,232.1 991.7,232.1 992.6,232.1 993.4,232.1 994.3,232.1 995.2,232.1 996.1,232.1 996.9,232.1 997.8,232.1 998.7,232.1 999.5,232.1 1000.4,232.1 1001.3,232.1 1002.2,232.1 1003.0,232.1 1003.9,232.1 1004.8,232.1 1005.6,232.1 1006.5,232.1 1007.4,232.1 1008.3,232.1 1009.1,232.1 1010.0,232.1 1010.9,232.1 1011.8,232.1 1012.6,232.1 1013.5,232.1 1014.4,232.1 1015.2,232.1 1016.1,232.1 1017.0,232.1 1017.9,232.1 1018.7,232.1 1019.6,232.1 1020.5,232.1 1021.3,232.1 1022.2,232.1 1023.1,233.8 1024.0,238.1 1024.8,232.8 1025.7,229.8 1026.6,232.0 1027.4,230.6 1028.3,229.8 1029.2,226.9 1030.1,225.5 1030.9,226.3 1031.8,230.6 1032.7,231.7 1033.6,233.0 1034.4,234.6 1035.3,236.5 1036.2,236.7 1037.0,236.7 1037.9,236.7 1038.8,236.7 1039.7,236.7 1040.5,236.7 1041.4,236.7 1042.3,236.7 1043.1,236.7 1044.0,239.2 1044.9,238.6 1045.8,239.9 1046.6,237.6 1047.5,238.6 1048.4,239.2 1049.3,228.1 1050.1,226.3 1051.0,230.0 1051.9,228.7 1052.7,232.9 1053.6,232.6 1054.5,232.9 1055.4,226.0 1056.2,248.6 1057.1,245.2 1058.0,245.3 1058.8,245.3 1059.7,245.3 1060.6,245.3 1061.5,245.3 1062.3,245.3 1063.2,245.3 1064.1,245.3 1064.9,245.3 1065.8,245.3 1066.7,245.3 1067.6,245.3 1068.4,245.3 1069.3,245.3 1070.2,245.3 1071.1,245.3 1071.9,245.3 1072.8,245.3 1073.7,245.3 1074.5,245.3 1075.4,245.3 1076.3,245.3 1077.2,245.3 1078.0,245.3 1078.9,245.3 1079.8,245.3 1080.6,245.3 1081.5,249.3 1082.4,253.1 1083.3,252.2 1084.1,253.3 1085.0,257.4 1085.9,256.3 1086.7,253.6 1087.6,251.4 1088.5,255.8 1089.4,252.5 1090.2,257.9 1091.1,266.3 1092.0,263.6 1092.9,263.7 1093.7,263.7 1094.6,263.7 1095.5,263.7 1096.3,263.7 1097.2,263.7 1098.1,263.7 1099.0,263.7 1099.8,263.7 1100.7,263.7 1101.6,263.7 1102.4,263.7 1103.3,263.7 1104.2,263.7 1105.1,263.7 1105.9,263.7 1106.8,263.7 1107.7,263.7 1108.5,263.7 1109.4,263.7 1110.3,263.7 1111.2,263.7 1112.0,263.7 1112.9,263.7 1113.8,263.7 1114.7,263.7 1115.5,263.7 1116.4,263.7 1117.3,263.7 1118.1,263.7 1119.0,263.7 1119.9,263.7 1120.8,263.7 1121.6,263.7 1122.5,263.7 1123.4,263.7 1124.2,263.7 1125.1,263.7 1126.0,263.7 1126.9,263.7 1127.7,263.7 1128.6,263.7 1129.5,263.7 1130.4,263.7 1131.2,263.7 1132.1,263.7 1133.0,263.7 1133.8,263.7 1134.7,263.7 1135.6,263.7 1136.5,264.5 1137.3,264.2 1138.2,272.2 1139.1,271.0 1139.9,276.3 1140.8,279.9 1141.7,280.0 1142.6,280.0 1143.4,280.0 1144.3,280.0 1145.2,280.0 1146.0,280.0 1146.9,280.0 1147.8,280.0 1148.7,277.9 1149.5,273.1 1150.4,265.1 1151.3,270.2 1152.2,267.4 1153.0,268.8 1153.9,253.5 1154.8,244.5 1155.6,247.3 1156.5,248.4 1157.4,250.1 1158.3,253.2 1159.1,251.0 1160.0,251.5" />
<text x="90" y="442" font-size="12" fill="#64748b">2025-01-02</text>
<text x="583.0" y="442" font-size="12" fill="#64748b">2025-08-20</text>
<text x="1088" y="442" font-size="12" fill="#64748b">2026-04-13</text>
<text x="8" y="112" font-size="12" fill="#64748b">48.20%</text>
<text x="8" y="418" font-size="12" fill="#64748b">-8.16%</text>
<g><circle cx="123.1" cy="-13531.9" r="6" fill="#16a34a" stroke="#ffffff" stroke-width="2" /><text x="131.1" y="-13541.9" font-size="11" font-weight="700" fill="#16a34a">BUY</text></g>
<g><circle cx="175.5" cy="-15477.3" r="6" fill="#dc2626" stroke="#ffffff" stroke-width="2" /><text x="183.5" y="-15459.3" font-size="11" font-weight="700" fill="#dc2626">SELL</text></g>
<g><circle cx="192.9" cy="-16172.0" r="6" fill="#16a34a" stroke="#ffffff" stroke-width="2" /><text x="200.9" y="-16182.0" font-size="11" font-weight="700" fill="#16a34a">BUY</text></g>
<g><circle cx="214.7" cy="-15653.7" r="6" fill="#dc2626" stroke="#ffffff" stroke-width="2" /><text x="222.7" y="-15635.7" font-size="11" font-weight="700" fill="#dc2626">SELL</text></g>
<g><circle cx="256.6" cy="-15297.1" r="6" fill="#16a34a" stroke="#ffffff" stroke-width="2" /><text x="264.6" y="-15307.1" font-size="11" font-weight="700" fill="#16a34a">BUY</text></g>
<g><circle cx="267.0" cy="-14785.9" r="6" fill="#dc2626" stroke="#ffffff" stroke-width="2" /><text x="275.0" y="-14767.9" font-size="11" font-weight="700" fill="#dc2626">SELL</text></g>
<g><circle cx="318.5" cy="-11752.7" r="6" fill="#16a34a" stroke="#ffffff" stroke-width="2" /><text x="326.5" y="-11762.7" font-size="11" font-weight="700" fill="#16a34a">BUY</text></g>
<g><circle cx="326.3" cy="-10869.9" r="6" fill="#dc2626" stroke="#ffffff" stroke-width="2" /><text x="334.3" y="-10851.9" font-size="11" font-weight="700" fill="#dc2626">SELL</text></g>
<g><circle cx="336.8" cy="-11601.3" r="6" fill="#16a34a" stroke="#ffffff" stroke-width="2" /><text x="344.8" y="-11611.3" font-size="11" font-weight="700" fill="#16a34a">BUY</text></g>
<g><circle cx="353.4" cy="-11180.9" r="6" fill="#dc2626" stroke="#ffffff" stroke-width="2" /><text x="361.4" y="-11162.9" font-size="11" font-weight="700" fill="#dc2626">SELL</text></g>
<g><circle cx="361.2" cy="-11544.1" r="6" fill="#16a34a" stroke="#ffffff" stroke-width="2" /><text x="369.2" y="-11554.1" font-size="11" font-weight="700" fill="#16a34a">BUY</text></g>
<g><circle cx="388.2" cy="-12071.6" r="6" fill="#dc2626" stroke="#ffffff" stroke-width="2" /><text x="396.2" y="-12053.6" font-size="11" font-weight="700" fill="#dc2626">SELL</text></g>
<g><circle cx="424.9" cy="-11575.9" r="6" fill="#16a34a" stroke="#ffffff" stroke-width="2" /><text x="432.9" y="-11585.9" font-size="11" font-weight="700" fill="#16a34a">BUY</text></g>
<g><circle cx="429.2" cy="-11368.6" r="6" fill="#dc2626" stroke="#ffffff" stroke-width="2" /><text x="437.2" y="-11350.6" font-size="11" font-weight="700" fill="#dc2626">SELL</text></g>
<g><circle cx="436.2" cy="-11785.0" r="6" fill="#16a34a" stroke="#ffffff" stroke-width="2" /><text x="444.2" y="-11795.0" font-size="11" font-weight="700" fill="#16a34a">BUY</text></g>
<g><circle cx="460.6" cy="-12321.9" r="6" fill="#dc2626" stroke="#ffffff" stroke-width="2" /><text x="468.6" y="-12303.9" font-size="11" font-weight="700" fill="#dc2626">SELL</text></g>
<g><circle cx="465.0" cy="-12696.5" r="6" fill="#16a34a" stroke="#ffffff" stroke-width="2" /><text x="473.0" y="-12706.5" font-size="11" font-weight="700" fill="#16a34a">BUY</text></g>
<g><circle cx="479.8" cy="-12521.3" r="6" fill="#dc2626" stroke="#ffffff" stroke-width="2" /><text x="487.8" y="-12503.3" font-size="11" font-weight="700" fill="#dc2626">SELL</text></g>
<g><circle cx="485.0" cy="-12806.0" r="6" fill="#16a34a" stroke="#ffffff" stroke-width="2" /><text x="493.0" y="-12816.0" font-size="11" font-weight="700" fill="#16a34a">BUY</text></g>
<g><circle cx="499.9" cy="-12612.4" r="6" fill="#dc2626" stroke="#ffffff" stroke-width="2" /><text x="507.9" y="-12594.4" font-size="11" font-weight="700" fill="#dc2626">SELL</text></g>
<g><circle cx="509.5" cy="-12713.9" r="6" fill="#16a34a" stroke="#ffffff" stroke-width="2" /><text x="517.5" y="-12723.9" font-size="11" font-weight="700" fill="#16a34a">BUY</text></g>
<g><circle cx="513.8" cy="-12169.0" r="6" fill="#dc2626" stroke="#ffffff" stroke-width="2" /><text x="521.8" y="-12151.0" font-size="11" font-weight="700" fill="#dc2626">SELL</text></g>
<g><circle cx="542.6" cy="-12776.5" r="6" fill="#16a34a" stroke="#ffffff" stroke-width="2" /><text x="550.6" y="-12786.5" font-size="11" font-weight="700" fill="#16a34a">BUY</text></g>
<g><circle cx="569.6" cy="-12833.8" r="6" fill="#dc2626" stroke="#ffffff" stroke-width="2" /><text x="577.6" y="-12815.8" font-size="11" font-weight="700" fill="#dc2626">SELL</text></g>
<g><circle cx="594.0" cy="-12895.2" r="6" fill="#16a34a" stroke="#ffffff" stroke-width="2" /><text x="602.0" y="-12905.2" font-size="11" font-weight="700" fill="#16a34a">BUY</text></g>
<g><circle cx="600.1" cy="-13027.0" r="6" fill="#dc2626" stroke="#ffffff" stroke-width="2" /><text x="608.1" y="-13009.0" font-size="11" font-weight="700" fill="#dc2626">SELL</text></g>
<g><circle cx="601.0" cy="-13089.2" r="6" fill="#16a34a" stroke="#ffffff" stroke-width="2" /><text x="609.0" y="-13099.2" font-size="11" font-weight="700" fill="#16a34a">BUY</text></g>
<g><circle cx="657.7" cy="-18464.6" r="6" fill="#dc2626" stroke="#ffffff" stroke-width="2" /><text x="665.7" y="-18446.6" font-size="11" font-weight="700" fill="#dc2626">SELL</text></g>
<g><circle cx="684.7" cy="-17925.4" r="6" fill="#16a34a" stroke="#ffffff" stroke-width="2" /><text x="692.7" y="-17935.4" font-size="11" font-weight="700" fill="#16a34a">BUY</text></g>
<g><circle cx="703.9" cy="-18831.4" r="6" fill="#dc2626" stroke="#ffffff" stroke-width="2" /><text x="711.9" y="-18813.4" font-size="11" font-weight="700" fill="#dc2626">SELL</text></g>
<g><circle cx="706.5" cy="-19402.0" r="6" fill="#16a34a" stroke="#ffffff" stroke-width="2" /><text x="714.5" y="-19412.0" font-size="11" font-weight="700" fill="#16a34a">BUY</text></g>
<g><circle cx="737.1" cy="-18340.9" r="6" fill="#dc2626" stroke="#ffffff" stroke-width="2" /><text x="745.1" y="-18322.9" font-size="11" font-weight="700" fill="#dc2626">SELL</text></g>
<g><circle cx="761.5" cy="-17925.6" r="6" fill="#16a34a" stroke="#ffffff" stroke-width="2" /><text x="769.5" y="-17935.6" font-size="11" font-weight="700" fill="#16a34a">BUY</text></g>
<g><circle cx="785.9" cy="-18079.4" r="6" fill="#dc2626" stroke="#ffffff" stroke-width="2" /><text x="793.9" y="-18061.4" font-size="11" font-weight="700" fill="#dc2626">SELL</text></g>
<g><circle cx="846.9" cy="-15802.3" r="6" fill="#16a34a" stroke="#ffffff" stroke-width="2" /><text x="854.9" y="-15812.3" font-size="11" font-weight="700" fill="#16a34a">BUY</text></g>
<g><circle cx="873.1" cy="-16841.2" r="6" fill="#dc2626" stroke="#ffffff" stroke-width="2" /><text x="881.1" y="-16823.2" font-size="11" font-weight="700" fill="#dc2626">SELL</text></g>
<g><circle cx="919.3" cy="-16001.0" r="6" fill="#16a34a" stroke="#ffffff" stroke-width="2" /><text x="927.3" y="-16011.0" font-size="11" font-weight="700" fill="#16a34a">BUY</text></g>
<g><circle cx="928.0" cy="-15756.9" r="6" fill="#dc2626" stroke="#ffffff" stroke-width="2" /><text x="936.0" y="-15738.9" font-size="11" font-weight="700" fill="#dc2626">SELL</text></g>
<g><circle cx="934.1" cy="-16392.8" r="6" fill="#16a34a" stroke="#ffffff" stroke-width="2" /><text x="942.1" y="-16402.8" font-size="11" font-weight="700" fill="#16a34a">BUY</text></g>
<g><circle cx="962.9" cy="-17005.9" r="6" fill="#dc2626" stroke="#ffffff" stroke-width="2" /><text x="970.9" y="-16987.9" font-size="11" font-weight="700" fill="#dc2626">SELL</text></g>
<g><circle cx="964.7" cy="-16517.7" r="6" fill="#16a34a" stroke="#ffffff" stroke-width="2" /><text x="972.7" y="-16527.7" font-size="11" font-weight="700" fill="#16a34a">BUY</text></g>
<g><circle cx="977.7" cy="-16324.6" r="6" fill="#dc2626" stroke="#ffffff" stroke-width="2" /><text x="985.7" y="-16306.6" font-size="11" font-weight="700" fill="#dc2626">SELL</text></g>
<g><circle cx="1024.0" cy="-14581.8" r="6" fill="#16a34a" stroke="#ffffff" stroke-width="2" /><text x="1032.0" y="-14591.8" font-size="11" font-weight="700" fill="#16a34a">BUY</text></g>
<g><circle cx="1037.0" cy="-14559.1" r="6" fill="#dc2626" stroke="#ffffff" stroke-width="2" /><text x="1045.0" y="-14541.1" font-size="11" font-weight="700" fill="#dc2626">SELL</text></g>
<g><circle cx="1044.9" cy="-14774.8" r="6" fill="#16a34a" stroke="#ffffff" stroke-width="2" /><text x="1052.9" y="-14784.8" font-size="11" font-weight="700" fill="#16a34a">BUY</text></g>
<g><circle cx="1058.8" cy="-14610.2" r="6" fill="#dc2626" stroke="#ffffff" stroke-width="2" /><text x="1066.8" y="-14592.2" font-size="11" font-weight="700" fill="#dc2626">SELL</text></g>
<g><circle cx="1082.4" cy="-14110.6" r="6" fill="#16a34a" stroke="#ffffff" stroke-width="2" /><text x="1090.4" y="-14120.6" font-size="11" font-weight="700" fill="#16a34a">BUY</text></g>
<g><circle cx="1093.7" cy="-13860.8" r="6" fill="#dc2626" stroke="#ffffff" stroke-width="2" /><text x="1101.7" y="-13842.8" font-size="11" font-weight="700" fill="#dc2626">SELL</text></g>
<g><circle cx="1137.3" cy="-12560.7" r="6" fill="#16a34a" stroke="#ffffff" stroke-width="2" /><text x="1145.3" y="-12570.7" font-size="11" font-weight="700" fill="#16a34a">BUY</text></g>
<g><circle cx="1142.6" cy="-12305.3" r="6" fill="#dc2626" stroke="#ffffff" stroke-width="2" /><text x="1150.6" y="-12287.3" font-size="11" font-weight="700" fill="#dc2626">SELL</text></g>
<g><circle cx="1149.5" cy="-12901.4" r="6" fill="#16a34a" stroke="#ffffff" stroke-width="2" /><text x="1157.5" y="-12911.4" font-size="11" font-weight="700" fill="#16a34a">BUY</text></g>
<text x="40" y="732" font-size="13" fill="#334155">初始资金 1,000,000.00 | 结束资金 1,211,572.06 | 总盈亏 +211,572.06</text>
</svg>