<?xml version="1.0" encoding="UTF-8"?>
<svg xmlns="http://www.w3.org/2000/svg" width="1200" height="760" viewBox="0 0 1200 760">
<rect width="100%" height="100%" fill="#f8fafc" />
<text x="40" y="36" font-size="24" font-weight="700" fill="#111827">股票价格曲线</text>
<text x="40" y="58" font-size="13" fill="#6b7280">区间 2025-01-02 -&gt; 2026-04-13 | 股票价格曲线与买卖点（下一根K线生效）</text>
<g transform="translate(930,18)">
<rect x="0" y="0" width="220" height="56" rx="10" fill="#ffffff" stroke="#e2e8f0" />
<circle cx="18" cy="20" r="5" fill="#16a34a" />
<text x="30" y="24" font-size="12" fill="#334155">BUY: 开仓</text>
<circle cx="18" cy="40" r="5" fill="#dc2626" />
<text x="30" y="44" font-size="12" fill="#334155">SELL: 平仓</text>
</g>
<text x="40" y="84" font-size="16" font-weight="700" fill="#111827">价格</text>
<line x1="90" y1="418" x2="1160" y2="418" stroke="#94a3b8" stroke-width="1.5" />
<line x1="90" y1="98" x2="90" y2="418" stroke="#cbd5e1" stroke-width="1" />
<line x1="90" y1="418" x2="1160" y2="418" stroke="#cbd5e1" stroke-width="1" />
<path d="M 90.0,418.0 L 90.0,305.2 L 90.9,307.2 L 91.7,314.9 L 92.6,324.1 L 93.5,340.5 L 94.4,344.7 L 95.2,352.2 L 96.1,362.2 L 97.0,356.9 L 97.8,359.1 L 98.7,362.4 L 99.6,363.0 L 100.5,351.3 L 101.3,356.5 L 102.2,348.0 L 103.1,340.8 L 104.0,366.3 L 104.8,375.2 L 105.7,361.3 L 106.6,358.3 L 107.4,341.6 L 108.3,336.9 L 109.2,333.8 L 110.1,331.6 L 110.9,351.1 L 111.8,349.7 L 112.7,353.3 L 113.5,361.0 L 114.4,370.8 L 115.3,379.4 L 116.2,375.8 L 117.0,379.7 L 117.9,357.9 L 118.8,355.2 L 119.6,348.2 L 120.5,340.2 L 121.4,343.5 L 122.3,344.4 L 123.1,344.9 L 124.0,346.6 L 124.9,343.5 L 125.8,352.7 L 126.6,352.7 L 127.5,346.9 L 128.4,346.8 L 129.2,339.1 L 130.1,337.7 L 131.0,340.5 L 131.9,334.4 L 132.7,333.5 L 133.6,331.6 L 134.5,335.2 L 135.3,332.1 L 136.2,311.9 L 137.1,320.2 L 138.0,312.1 L 138.8,317.1 L 139.7,303.5 L 140.6,305.7 L 141.5,306.6 L 142.3,306.4 L 143.2,308.6 L 144.1,322.7 L 144.9,323.3 L 145.8,314.9 L 146.7,307.1 L 147.6,308.0 L 148.4,301.6 L 149.3,327.2 L 150.2,333.9 L 151.0,341.6 L 151.9,347.1 L 152.8,323.8 L 153.7,313.3 L 154.5,323.0 L 155.4,319.1 L 156.3,303.5 L 157.1,292.7 L 158.0,288.8 L 158.9,285.7 L 159.8,277.4 L 160.6,248.6 L 161.5,266.3 L 162.4,262.4 L 163.3,248.8 L 164.1,254.6 L 165.0,257.7 L 165.9,255.2 L 166.7,251.6 L 167.6,236.6 L 168.5,250.7 L 169.4,255.2 L 170.2,237.4 L 171.1,237.9 L 172.0,240.2 L 172.8,235.4 L 173.7,257.1 L 174.6,255.7 L 175.5,248.8 L 176.3,253.0 L 177.2,230.9 L 178.1,219.6 L 178.9,226.8 L 179.8,202.9 L 180.7,163.8 L 181.6,169.4 L 182.4,194.0 L 183.3,186.3 L 184.2,214.4 L 185.1,217.2 L 185.9,231.6 L 186.8,236.0 L 187.7,209.9 L 188.5,214.1 L 189.4,214.9 L 190.3,216.6 L 191.2,230.2 L 192.0,241.2 L 192.9,229.9 L 193.8,228.2 L 194.6,185.3 L 195.5,172.6 L 196.4,161.5 L 197.3,146.5 L 198.1,117.1 L 199.0,127.7 L 199.9,129.9 L 200.7,130.4 L 201.6,135.7 L 202.5,98.0 L 203.4,119.6 L 204.2,127.1 L 205.1,145.7 L 206.0,142.3 L 206.9,129.9 L 207.7,131.3 L 208.6,167.9 L 209.5,172.4 L 210.3,170.4 L 211.2,167.4 L 212.1,203.8 L 213.0,201.3 L 213.8,213.0 L 214.7,225.7 L 215.6,224.1 L 216.4,233.5 L 217.3,236.6 L 218.2,235.7 L 219.1,236.8 L 219.9,235.4 L 220.8,229.1 L 221.7,230.4 L 222.6,236.5 L 223.4,238.7 L 224.3,223.5 L 225.2,227.4 L 226.0,200.4 L 226.9,196.3 L 227.8,197.1 L 228.7,193.8 L 229.5,206.6 L 230.4,209.9 L 231.3,213.8 L 232.1,218.2 L 233.0,229.9 L 233.9,235.4 L 234.8,239.3 L 235.6,231.3 L 236.5,237.7 L 237.4,244.6 L 238.2,247.1 L 239.1,237.1 L 240.0,223.2 L 240.9,220.5 L 241.7,212.7 L 242.6,223.8 L 243.5,242.7 L 244.4,250.7 L 245.2,259.3 L 246.1,255.5 L 247.0,245.7 L 247.8,240.7 L 248.7,237.6 L 249.6,226.3 L 250.5,228.5 L 251.3,231.3 L 252.2,232.9 L 253.1,232.1 L 253.9,218.3 L 254.8,221.9 L 255.7,224.3 L 256.6,227.4 L 257.4,240.2 L 258.3,240.7 L 259.2,241.6 L 260.0,241.6 L 260.9,239.1 L 261.8,240.5 L 262.7,245.7 L 263.5,249.9 L 264.4,269.9 L 265.3,276.0 L 266.2,281.6 L 267.0,282.1 L 267.9,276.8 L 268.8,282.4 L 269.6,286.8 L 270.5,275.5 L 271.4,286.0 L 272.3,290.2 L 273.1,290.2 L 274.0,292.1 L 274.9,288.5 L 275.7,287.7 L 276.6,289.9 L 277.5,293.0 L 278.4,288.5 L 279.2,285.2 L 280.1,288.2 L 281.0,290.2 L 281.9,289.9 L 282.7,286.8 L 283.6,281.6 L 284.5,283.5 L 285.3,294.9 L 286.2,304.3 L 287.1,299.6 L 288.0,285.2 L 288.8,282.4 L 289.7,280.8 L 290.6,286.3 L 291.4,287.4 L 292.3,265.8 L 293.2,268.0 L 294.1,272.1 L 294.9,271.8 L 295.8,278.3 L 296.7,289.1 L 297.5,291.0 L 298.4,291.6 L 299.3,353.0 L 300.2,365.2 L 301.0,366.9 L 301.9,366.9 L 302.8,377.7 L 303.7,373.8 L 304.5,394.1 L 305.4,380.8 L 306.3,363.8 L 307.1,366.0 L 308.0,359.4 L 308.9,358.3 L 309.8,312.2 L 310.6,326.6 L 311.5,328.0 L 312.4,333.8 L 313.2,343.8 L 314.1,334.9 L 315.0,329.9 L 315.9,333.0 L 316.7,325.8 L 317.6,326.9 L 318.5,331.6 L 319.3,332.7 L 320.2,333.8 L 321.1,333.3 L 322.0,333.5 L 322.8,332.4 L 323.7,346.9 L 324.6,355.7 L 325.5,355.7 L 326.3,349.6 L 327.2,344.1 L 328.1,345.2 L 328.9,349.4 L 329.8,353.8 L 330.7,356.6 L 331.6,356.3 L 332.4,349.1 L 333.3,350.8 L 334.2,348.5 L 335.0,346.8 L 335.9,338.2 L 336.8,336.3 L 337.7,346.6 L 338.5,352.4 L 339.4,348.5 L 340.3,349.9 L 341.1,344.4 L 342.0,341.3 L 342.9,339.1 L 343.8,341.3 L 344.6,346.6 L 345.5,353.5 L 346.4,352.4 L 347.3,353.0 L 348.1,345.2 L 349.0,341.6 L 349.9,345.5 L 350.7,346.6 L 351.6,346.6 L 352.5,349.1 L 353.4,353.3 L 354.2,354.1 L 355.1,376.0 L 356.0,372.1 L 356.8,369.4 L 357.7,368.0 L 358.6,347.7 L 359.5,344.1 L 360.3,346.9 L 361.2,348.3 L 362.1,333.5 L 363.0,332.4 L 363.8,333.8 L 364.7,331.0 L 365.6,334.9 L 366.4,335.2 L 367.3,338.8 L 368.2,334.4 L 369.1,333.0 L 369.9,329.7 L 370.8,331.9 L 371.7,332.1 L 372.5,341.9 L 373.4,345.5 L 374.3,342.2 L 375.2,346.6 L 376.0,336.6 L 376.9,338.2 L 377.8,338.5 L 378.6,332.7 L 379.5,334.4 L 380.4,338.8 L 381.3,336.9 L 382.1,339.6 L 383.0,341.3 L 383.9,343.0 L 384.8,335.8 L 385.6,337.1 L 386.5,351.9 L 387.4,357.7 L 388.2,361.6 L 389.1,363.3 L 390.0,368.8 L 390.9,366.0 L 391.7,364.7 L 392.6,365.5 L 393.5,373.8 L 394.3,368.8 L 395.2,369.4 L 396.1,369.7 L 397.0,369.4 L 397.8,365.5 L 398.7,366.6 L 399.6,365.8 L 400.4,362.7 L 401.3,364.1 L 402.2,369.1 L 403.1,370.2 L 403.9,369.1 L 404.8,370.5 L 405.7,373.6 L 406.6,376.9 L 407.4,375.8 L 408.3,376.1 L 409.2,379.4 L 410.0,388.0 L 410.9,372.4 L 411.8,376.0 L 412.7,375.2 L 413.5,372.2 L 414.4,379.4 L 415.3,379.1 L 416.1,380.2 L 417.0,380.5 L 417.9,384.7 L 418.8,383.8 L 419.6,387.4 L 420.5,386.3 L 421.4,374.6 L 422.2,371.6 L 423.1,369.1 L 424.0,368.8 L 424.9,380.5 L 425.7,379.1 L 426.6,379.9 L 427.5,379.1 L 428.4,381.3 L 429.2,381.9 L 430.1,382.2 L 431.0,383.3 L 431.8,374.4 L 432.7,373.5 L 433.6,374.7 L 434.5,375.2 L 435.3,369.6 L 436.2,367.4 L 437.1,361.0 L 437.9,359.4 L 438.8,363.3 L 439.7,360.5 L 440.6,362.1 L 441.4,359.4 L 442.3,357.4 L 443.2,357.4 L 444.1,359.6 L 444.9,356.6 L 445.8,371.1 L 446.7,371.1 L 447.5,377.7 L 448.4,376.9 L 449.3,374.7 L 450.2,376.9 L 451.0,377.4 L 451.9,376.9 L 452.8,376.3 L 453.6,378.0 L 454.5,381.0 L 455.4,381.9 L 456.3,393.8 L 457.1,396.6 L 458.0,398.3 L 458.9,399.4 L 459.7,393.3 L 460.6,396.3 L 461.5,396.6 L 462.4,397.4 L 463.2,399.4 L 464.1,399.9 L 465.0,403.8 L 465.9,403.0 L 466.7,408.0 L 467.6,406.9 L 468.5,402.7 L 469.3,402.7 L 470.2,402.2 L 471.1,408.6 L 472.0,410.5 L 472.8,410.8 L 473.7,418.0 L 474.6,416.9 L 475.4,417.4 L 476.3,413.6 L 477.2,416.6 L 478.1,415.8 L 478.9,411.1 L 479.8,411.1 L 480.7,398.3 L 481.5,398.6 L 482.4,397.2 L 483.3,396.6 L 484.2,396.6 L 485.0,393.8 L 485.9,391.0 L 486.8,385.8 L 487.7,384.7 L 488.5,381.9 L 489.4,387.4 L 490.3,389.7 L 491.1,384.7 L 492.0,382.4 L 492.9,387.7 L 493.8,387.2 L 494.6,380.5 L 495.5,379.1 L 496.4,379.9 L 497.2,378.0 L 498.1,381.9 L 499.0,386.3 L 499.9,381.0 L 500.7,381.9 L 501.6,389.9 L 502.5,390.8 L 503.3,394.4 L 504.2,391.6 L 505.1,384.9 L 506.0,383.5 L 506.8,380.2 L 507.7,380.8 L 508.6,385.8 L 509.5,382.7 L 510.3,382.7 L 511.2,387.4 L 512.1,393.8 L 512.9,394.9 L 513.8,394.1 L 514.7,394.9 L 515.6,378.5 L 516.4,376.0 L 517.3,373.5 L 518.2,373.3 L 519.0,373.3 L 519.9,375.5 L 520.8,373.8 L 521.7,378.3 L 522.5,376.9 L 523.4,379.7 L 524.3,376.3 L 525.2,376.9 L 526.0,371.3 L 526.9,371.0 L 527.8,369.9 L 528.6,371.0 L 529.5,370.2 L 530.4,372.2 L 531.3,371.6 L 532.1,373.5 L 533.0,354.4 L 533.9,361.3 L 534.7,356.6 L 535.6,354.1 L 536.5,356.0 L 537.4,355.8 L 538.2,359.1 L 539.1,359.1 L 540.0,354.6 L 540.8,352.1 L 541.7,349.6 L 542.6,349.4 L 543.5,351.3 L 544.3,354.1 L 545.2,356.6 L 546.1,354.1 L 547.0,362.2 L 547.8,362.2 L 548.7,359.1 L 549.6,357.7 L 550.4,362.7 L 551.3,359.9 L 552.2,362.4 L 553.1,361.3 L 553.9,362.2 L 554.8,359.7 L 555.7,361.3 L 556.5,365.2 L 557.4,361.6 L 558.3,360.8 L 559.2,358.3 L 560.0,353.3 L 560.9,353.0 L 561.8,355.8 L 562.6,353.5 L 563.5,348.8 L 564.4,354.4 L 565.3,356.6 L 566.1,355.8 L 567.0,354.4 L 567.9,361.0 L 568.8,355.2 L 569.6,351.3 L 570.5,347.1 L 571.4,355.5 L 572.2,353.5 L 573.1,357.7 L 574.0,356.9 L 574.9,342.7 L 575.7,344.9 L 576.6,349.1 L 577.5,357.4 L 578.3,353.8 L 579.2,366.3 L 580.1,368.3 L 581.0,363.8 L 581.8,366.6 L 582.7,368.0 L 583.6,367.2 L 584.4,362.7 L 585.3,367.7 L 586.2,368.5 L 587.1,365.2 L 587.9,363.5 L 588.8,360.8 L 589.7,356.3 L 590.6,356.3 L 591.4,352.7 L 592.3,360.2 L 593.2,357.4 L 594.0,357.7 L 594.9,356.9 L 595.8,366.3 L 596.7,365.5 L 597.5,369.4 L 598.4,369.1 L 599.3,361.0 L 600.1,358.5 L 601.0,356.9 L 601.9,355.5 L 602.8,353.3 L 603.6,352.7 L 604.5,350.8 L 605.4,350.5 L 606.3,339.1 L 607.1,340.2 L 608.0,343.0 L 608.9,340.8 L 609.7,336.3 L 610.6,341.3 L 611.5,342.1 L 612.4,346.6 L 613.2,341.3 L 614.1,338.8 L 615.0,340.2 L 615.8,338.8 L 616.7,307.4 L 617.6,302.7 L 618.5,307.4 L 619.3,309.4 L 620.2,314.4 L 621.1,311.9 L 621.9,317.7 L 622.8,316.6 L 623.7,312.4 L 624.6,314.1 L 625.4,281.9 L 626.3,274.6 L 627.2,271.3 L 628.1,279.4 L 628.9,284.1 L 629.8,287.4 L 630.7,263.5 L 631.5,257.7 L 632.4,256.8 L 633.3,252.7 L 634.2,249.3 L 635.0,257.1 L 635.9,258.0 L 636.8,249.3 L 637.6,256.6 L 638.5,254.1 L 639.4,251.8 L 640.3,259.6 L 641.1,259.1 L 642.0,252.1 L 642.9,265.7 L 643.7,281.3 L 644.6,269.1 L 645.5,271.3 L 646.4,274.6 L 647.2,255.7 L 648.1,269.9 L 649.0,273.0 L 649.9,267.1 L 650.7,269.3 L 651.6,242.7 L 652.5,235.7 L 653.3,234.6 L 654.2,236.3 L 655.1,264.9 L 656.0,279.9 L 656.8,282.7 L 657.7,283.0 L 658.6,232.1 L 659.4,238.8 L 660.3,248.0 L 661.2,248.2 L 662.1,244.3 L 662.9,269.9 L 663.8,277.1 L 664.7,276.0 L 665.6,281.3 L 666.4,269.6 L 667.3,269.9 L 668.2,263.0 L 669.0,277.4 L 669.9,276.6 L 670.8,276.3 L 671.7,272.1 L 672.5,300.2 L 673.4,305.5 L 674.3,312.1 L 675.1,312.4 L 676.0,307.1 L 676.9,300.2 L 677.8,301.9 L 678.6,308.0 L 679.5,287.7 L 680.4,258.0 L 681.2,253.8 L 682.1,248.0 L 683.0,240.7 L 683.9,222.4 L 684.7,226.6 L 685.6,231.0 L 686.5,242.1 L 687.4,239.6 L 688.2,240.7 L 689.1,245.5 L 690.0,228.2 L 690.8,234.9 L 691.7,216.0 L 692.6,221.0 L 693.5,240.2 L 694.3,232.4 L 695.2,228.5 L 696.1,227.4 L 696.9,193.8 L 697.8,195.2 L 698.7,176.0 L 699.6,184.9 L 700.4,185.7 L 701.3,198.5 L 702.2,207.9 L 703.0,206.8 L 703.9,191.3 L 704.8,207.9 L 705.7,202.7 L 706.5,197.9 L 707.4,229.6 L 708.3,238.5 L 709.2,239.9 L 710.0,226.6 L 710.9,212.9 L 711.8,184.6 L 712.6,197.9 L 713.5,197.1 L 714.4,166.3 L 715.3,159.6 L 716.1,163.8 L 717.0,169.0 L 717.9,206.3 L 718.7,207.9 L 719.6,206.6 L 720.5,212.9 L 721.4,205.2 L 722.2,208.8 L 723.1,204.9 L 724.0,207.7 L 724.8,208.2 L 725.7,206.3 L 726.6,209.6 L 727.5,206.0 L 728.3,167.1 L 729.2,165.4 L 730.1,175.4 L 731.0,181.8 L 731.8,213.2 L 732.7,221.6 L 733.6,222.7 L 734.4,230.7 L 735.3,238.8 L 736.2,250.5 L 737.1,241.6 L 737.9,238.5 L 738.8,240.2 L 739.7,254.1 L 740.5,266.3 L 741.4,270.2 L 742.3,265.2 L 743.2,270.5 L 744.0,263.0 L 744.9,254.6 L 745.8,256.6 L 746.7,253.2 L 747.5,260.2 L 748.4,259.9 L 749.3,275.7 L 750.1,282.4 L 751.0,283.5 L 751.9,291.9 L 752.8,273.8 L 753.6,278.0 L 754.5,283.2 L 755.4,284.1 L 756.2,263.5 L 757.1,268.0 L 758.0,268.2 L 758.9,265.2 L 759.7,271.0 L 760.6,278.5 L 761.5,274.9 L 762.3,275.2 L 763.2,291.9 L 764.1,293.2 L 765.0,291.9 L 765.8,284.1 L 766.7,273.5 L 767.6,271.0 L 768.5,270.5 L 769.3,263.5 L 770.2,264.6 L 771.1,260.5 L 771.9,262.1 L 772.8,251.0 L 773.7,253.0 L 774.6,248.5 L 775.4,256.8 L 776.3,257.4 L 777.2,263.2 L 778.0,256.8 L 778.9,254.9 L 779.8,252.4 L 780.7,256.8 L 781.5,258.5 L 782.4,254.6 L 783.3,263.8 L 784.1,286.3 L 785.0,289.6 L 785.9,290.5 L 786.8,292.1 L 787.6,308.5 L 788.5,306.0 L 789.4,290.7 L 790.3,288.5 L 791.1,301.0 L 792.0,302.7 L 792.9,305.5 L 793.7,303.8 L 794.6,314.6 L 795.5,312.1 L 796.4,309.6 L 797.2,309.9 L 798.1,304.9 L 799.0,301.9 L 799.8,304.4 L 800.7,303.2 L 801.6,313.2 L 802.5,309.4 L 803.3,311.6 L 804.2,314.1 L 805.1,313.2 L 805.9,314.9 L 806.8,313.8 L 807.7,309.6 L 808.6,314.1 L 809.4,314.6 L 810.3,319.1 L 811.2,318.8 L 812.1,324.9 L 812.9,331.3 L 813.8,330.8 L 814.7,326.9 L 815.5,325.2 L 816.4,322.1 L 817.3,327.7 L 818.2,324.9 L 819.0,328.8 L 819.9,333.5 L 820.8,333.0 L 821.6,340.2 L 822.5,339.9 L 823.4,339.4 L 824.3,341.0 L 825.1,338.5 L 826.0,324.1 L 826.9,326.3 L 827.8,328.5 L 828.6,329.1 L 829.5,337.7 L 830.4,341.6 L 831.2,340.8 L 832.1,340.5 L 833.0,355.2 L 833.9,354.9 L 834.7,355.2 L 835.6,360.8 L 836.5,369.1 L 837.3,371.0 L 838.2,370.8 L 839.1,375.5 L 840.0,371.0 L 840.8,373.5 L 841.7,364.4 L 842.6,365.2 L 843.4,350.2 L 844.3,353.0 L 845.2,356.9 L 846.1,358.3 L 846.9,347.7 L 847.8,347.4 L 848.7,349.9 L 849.6,350.5 L 850.4,345.5 L 851.3,348.5 L 852.2,349.9 L 853.0,355.5 L 853.9,354.9 L 854.8,352.7 L 855.7,353.0 L 856.5,352.1 L 857.4,340.5 L 858.3,337.4 L 859.1,340.5 L 860.0,337.1 L 860.9,344.9 L 861.8,346.0 L 862.6,346.0 L 863.5,346.9 L 864.4,354.4 L 865.2,351.9 L 866.1,354.6 L 867.0,355.2 L 867.9,355.5 L 868.7,352.7 L 869.6,353.0 L 870.5,350.8 L 871.4,355.8 L 872.2,351.9 L 873.1,348.3 L 874.0,350.2 L 874.8,339.9 L 875.7,337.7 L 876.6,337.4 L 877.5,338.0 L 878.3,333.5 L 879.2,332.1 L 880.1,337.7 L 880.9,336.6 L 881.8,342.7 L 882.7,342.4 L 883.6,340.8 L 884.4,336.0 L 885.3,343.8 L 886.2,351.0 L 887.0,353.0 L 887.9,359.4 L 888.8,354.4 L 889.7,347.7 L 890.5,346.9 L 891.4,348.5 L 892.3,356.6 L 893.2,360.2 L 894.0,364.1 L 894.9,366.0 L 895.8,373.3 L 896.6,377.4 L 897.5,376.9 L 898.4,378.3 L 899.3,376.9 L 900.1,378.8 L 901.0,369.4 L 901.9,363.8 L 902.7,364.1 L 903.6,366.6 L 904.5,367.4 L 905.4,368.8 L 906.2,360.5 L 907.1,359.9 L 908.0,363.8 L 908.9,365.8 L 909.7,355.5 L 910.6,352.1 L 911.5,353.8 L 912.3,354.6 L 913.2,355.5 L 914.1,357.4 L 915.0,359.4 L 915.8,358.5 L 916.7,366.0 L 917.6,362.4 L 918.4,361.6 L 919.3,359.9 L 920.2,363.3 L 921.1,362.4 L 921.9,359.1 L 922.8,360.2 L 923.7,354.1 L 924.5,358.8 L 925.4,356.6 L 926.3,356.6 L 927.2,353.3 L 928.0,352.7 L 928.9,355.2 L 929.8,356.9 L 930.7,354.9 L 931.5,357.7 L 932.4,356.9 L 933.3,357.4 L 934.1,359.1 L 935.0,360.2 L 935.9,359.7 L 936.8,361.0 L 937.6,348.3 L 938.5,344.9 L 939.4,344.1 L 940.2,343.0 L 941.1,341.3 L 942.0,340.2 L 942.9,339.9 L 943.7,336.3 L 944.6,337.4 L 945.5,334.9 L 946.3,339.9 L 947.2,338.8 L 948.1,326.6 L 949.0,327.7 L 949.8,328.5 L 950.7,330.8 L 951.6,321.9 L 952.5,328.8 L 953.3,325.8 L 954.2,324.6 L 955.1,295.2 L 955.9,294.9 L 956.8,295.2 L 957.7,294.4 L 958.6,307.4 L 959.4,308.2 L 960.3,310.5 L 961.2,317.4 L 962.0,298.0 L 962.9,288.8 L 963.8,306.0 L 964.7,292.1 L 965.5,299.6 L 966.4,304.4 L 967.3,301.0 L 968.1,297.4 L 969.0,294.1 L 969.9,296.3 L 970.8,291.6 L 971.6,292.4 L 972.5,282.1 L 973.4,286.6 L 974.3,269.6 L 975.1,271.6 L 976.0,287.7 L 976.9,291.6 L 977.7,295.7 L 978.6,301.3 L 979.5,295.7 L 980.4,298.8 L 981.2,298.8 L 982.1,305.7 L 983.0,305.7 L 983.8,309.1 L 984.7,311.6 L 985.6,311.3 L 986.5,312.4 L 987.3,310.2 L 988.2,310.7 L 989.1,306.6 L 990.0,315.5 L 990.8,322.1 L 991.7,325.5 L 992.6,322.1 L 993.4,334.6 L 994.3,329.4 L 995.2,319.9 L 996.1,325.5 L 996.9,325.5 L 997.8,328.3 L 998.7,330.5 L 999.5,329.6 L 1000.4,320.2 L 1001.3,329.1 L 1002.2,335.2 L 1003.0,335.5 L 1003.9,355.5 L 1004.8,348.0 L 1005.6,345.8 L 1006.5,349.4 L 1007.4,345.2 L 1008.3,351.6 L 1009.1,354.1 L 1010.0,364.1 L 1010.9,360.2 L 1011.8,358.8 L 1012.6,356.3 L 1013.5,353.0 L 1014.4,361.0 L 1015.2,363.5 L 1016.1,361.9 L 1017.0,355.2 L 1017.9,364.4 L 1018.7,365.8 L 1019.6,363.0 L 1020.5,364.7 L 1021.3,364.9 L 1022.2,363.5 L 1023.1,362.7 L 1024.0,368.0 L 1024.8,349.6 L 1025.7,346.3 L 1026.6,345.5 L 1027.4,345.8 L 1028.3,340.8 L 1029.2,339.6 L 1030.1,340.2 L 1030.9,341.3 L 1031.8,341.3 L 1032.7,341.9 L 1033.6,344.6 L 1034.4,346.3 L 1035.3,343.8 L 1036.2,339.4 L 1037.0,331.9 L 1037.9,332.7 L 1038.8,331.9 L 1039.7,332.4 L 1040.5,332.1 L 1041.4,336.0 L 1042.3,336.0 L 1043.1,333.8 L 1044.0,339.4 L 1044.9,337.1 L 1045.8,342.1 L 1046.6,338.8 L 1047.5,340.8 L 1048.4,342.1 L 1049.3,334.1 L 1050.1,328.5 L 1051.0,331.3 L 1051.9,329.6 L 1052.7,333.8 L 1053.6,324.6 L 1054.5,325.8 L 1055.4,323.5 L 1056.2,346.6 L 1057.1,344.4 L 1058.0,345.5 L 1058.8,347.7 L 1059.7,360.8 L 1060.6,359.7 L 1061.5,372.4 L 1062.3,381.6 L 1063.2,381.0 L 1064.1,391.0 L 1064.9,386.6 L 1065.8,389.9 L 1066.7,364.7 L 1067.6,370.2 L 1068.4,372.4 L 1069.3,374.9 L 1070.2,375.8 L 1071.1,373.5 L 1071.9,373.8 L 1072.8,374.1 L 1073.7,396.9 L 1074.5,392.7 L 1075.4,376.9 L 1076.3,370.5 L 1077.2,363.0 L 1078.0,358.8 L 1078.9,356.0 L 1079.8,352.1 L 1080.6,346.6 L 1081.5,341.0 L 1082.4,346.0 L 1083.3,343.5 L 1084.1,300.5 L 1085.0,308.0 L 1085.9,308.5 L 1086.7,307.7 L 1087.6,319.1 L 1088.5,319.6 L 1089.4,324.1 L 1090.2,327.7 L 1091.1,345.8 L 1092.0,345.2 L 1092.9,339.6 L 1093.7,339.1 L 1094.6,348.3 L 1095.5,352.4 L 1096.3,360.8 L 1097.2,365.2 L 1098.1,355.5 L 1099.0,352.4 L 1099.8,339.1 L 1100.7,313.8 L 1101.6,285.2 L 1102.4,296.9 L 1103.3,298.5 L 1104.2,300.7 L 1105.1,304.4 L 1105.9,304.9 L 1106.8,310.7 L 1107.7,317.1 L 1108.5,326.0 L 1109.4,329.4 L 1110.3,336.0 L 1111.2,338.8 L 1112.0,333.5 L 1112.9,334.4 L 1113.8,344.4 L 1114.7,330.5 L 1115.5,311.9 L 1116.4,317.1 L 1117.3,314.1 L 1118.1,312.7 L 1119.0,324.9 L 1119.9,330.5 L 1120.8,336.9 L 1121.6,338.8 L 1122.5,359.9 L 1123.4,336.0 L 1124.2,344.6 L 1125.1,346.0 L 1126.0,369.7 L 1126.9,353.8 L 1127.7,355.5 L 1128.6,354.9 L 1129.5,345.8 L 1130.4,356.3 L 1131.2,344.6 L 1132.1,352.7 L 1133.0,336.9 L 1133.8,343.3 L 1134.7,345.2 L 1135.6,341.9 L 1136.5,361.6 L 1137.3,366.9 L 1138.2,375.2 L 1139.1,372.2 L 1139.9,353.5 L 1140.8,333.5 L 1141.7,333.5 L 1142.6,332.7 L 1143.4,335.2 L 1144.3,343.5 L 1145.2,342.1 L 1146.0,346.3 L 1146.9,318.5 L 1147.8,317.7 L 1148.7,313.0 L 1149.5,309.4 L 1150.4,303.0 L 1151.3,308.5 L 1152.2,292.1 L 1153.0,293.8 L 1153.9,281.6 L 1154.8,290.2 L 1155.6,289.9 L 1156.5,291.9 L 1157.4,276.3 L 1158.3,281.6 L 1159.1,259.9 L 1160.0,259.9 L 1160.0,418.0 Z" fill="#14b8a6" opacity="0.22" />
<polyline fill="none" stroke="#0f766e" stroke-width="3" stroke-linecap="round" stroke-linejoin="round" points="90.0,305.2 90.9,307.2 91.7,314.9 92.6,324.1 93.5,340.5 94.4,344.7 95.2,352.2 96.1,362.2 97.0,356.9 97.8,359.1 98.7,362.4 99.6,363.0 100.5,351.3 101.3,356.5 102.2,348.0 103.1,340.8 104.0,366.3 104.8,375.2 105.7,361.3 106.6,358.3 107.4,341.6 108.3,336.9 109.2,333.8 110.1,331.6 110.9,351.1 111.8,349.7 112.7,353.3 113.5,361.0 114.4,370.8 115.3,379.4 116.2,375.8 117.0,379.7 117.9,357.9 118.8,355.2 119.6,348.2 120.5,340.2 121.4,343.5 122.3,344.4 123.1,344.9 124.0,346.6 124.9,343.5 125.8,352.7 126.6,352.7 127.5,346.9 128.4,346.8 129.2,339.1 130.1,337.7 131.0,340.5 131.9,334.4 132.7,333.5 133.6,331.6 134.5,335.2 135.3,332.1 136.2,311.9 137.1,320.2 138.0,312.1 138.8,317.1 139.7,303.5 140.6,305.7 141.5,306.6 142.3,306.4 143.2,308.6 144.1,322.7 144.9,323.3 145.8,314.9 146.7,307.1 147.6,308.0 148.4,301.6 149.3,327.2 150.2,333.9 151.0,341.6 151.9,347.1 152.8,323.8 153.7,313.3 154.5,323.0 155.4,319.1 156.3,303.5 157.1,292.7 158.0,288.8 158.9,285.7 159.8,277.4 160.6,248.6 161.5,266.3 162.4,262.4 163.3,248.8 164.1,254.6 165.0,257.7 165.9,255.2 166.7,251.6 167.6,236.6 168.5,250.7 169.4,255.2 170.2,237.4 171.1,237.9 172.0,240.2 172.8,235.4 173.7,257.1 174.6,255.7 175.5,248.8 176.3,253.0 177.2,230.9 178.1,219.6 178.9,226.8 179.8,202.9 180.7,163.8 181.6,169.4 182.4,194.0 183.3,186.3 184.2,214.4 185.1,217.2 185.9,231.6 186.8,236.0 187.7,209.9 188.5,214.1 189.4,214.9 190.3,216.6 191.2,230.2 192.0,241.2 192.9,229.9 193.8,228.2 194.6,185.3 195.5,172.6 196.4,161.5 197.3,146.5 198.1,117.1 199.0,127.7 199.9,129.9 200.7,130.4 201.6,135.7 202.5,98.0 203.4,119.6 204.2,127.1 205.1,145.7 206.0,142.3 206.9,129.9 207.7,131.3 208.6,167.9 209.5,172.4 210.3,170.4 211.2,167.4 212.1,203.8 213.0,201.3 213.8,213.0 214.7,225.7 215.6,224.1 216.4,233.5 217.3,236.6 218.2,235.7 219.1,236.8 219.9,235.4 220.8,229.1 221.7,230.4 222.6,236.5 223.4,238.7 224.3,223.5 225.2,227.4 226.0,200.4 226.9,196.3 227.8,197.1 228.7,193.8 229.5,206.6 230.4,209.9 231.3,213.8 232.1,218.2 233.0,229.9 233.9,235.4 234.8,239.3 235.6,231.3 236.5,237.7 237.4,244.6 238.2,247.1 239.1,237.1 240.0,223.2 240.9,220.5 241.7,212.7 242.6,223.8 243.5,242.7 244.4,250.7 245.2,259.3 246.1,255.5 247.0,245.7 247.8,240.7 248.7,237.6 249.6,226.3 250.5,228.5 251.3,231.3 252.2,232.9 253.1,232.1 253.9,218.3 254.8,221.9 255.7,224.3 256.6,227.4 257.4,240.2 258.3,240.7 259.2,241.6 260.0,241.6 260.9,239.1 261.8,240.5 262.7,245.7 263.5,249.9 264.4,269.9 265.3,276.0 266.2,281.6 267.0,282.1 267.9,276.8 268.8,282.4 269.6,286.8 270.5,275.5 271.4,286.0 272.3,290.2 273.1,290.2 274.0,292.1 274.9,288.5 275.7,287.7 276.6,289.9 277.5,293.0 278.4,288.5 279.2,285.2 280.1,288.2 281.0,290.2 281.9,289.9 282.7,286.8 283.6,281.6 284.5,283.5 285.3,294.9 286.2,304.3 287.1,299.6 288.0,285.2 288.8,282.4 289.7,280.8 290.6,286.3 291.4,287.4 292.3,265.8 293.2,268.0 294.1,272.1 294.9,271.8 295.8,278.3 296.7,289.1 297.5,291.0 298.4,291.6 299.3,353.0 300.2,365.2 301.0,366.9 301.9,366.9 302.8,377.7 303.7,373.8 304.5,394.1 305.4,380.8 306.3,363.8 307.1,366.0 308.0,359.4 308.9,358.3 309.8,312.2 310.6,326.6 311.5,328.0 312.4,333.8 313.2,343.8 314.1,334.9 315.0,329.9 315.9,333.0 316.7,325.8 317.6,326.9 318.5,331.6 319.3,332.7 320.2,333.8 321.1,333.3 322.0,333.5 322.8,332.4 323.7,346.9 324.6,355.7 325.5,355.7 326.3,349.6 327.2,344.1 328.1,345.2 328.9,349.4 329.8,353.8 330.7,356.6 331.6,356.3 332.4,349.1 333.3,350.8 334.2,348.5 335.0,346.8 335.9,338.2 336.8,336.3 337.7,346.6 338.5,352.4 339.4,348.5 340.3,349.9 341.1,344.4 342.0,341.3 342.9,339.1 343.8,341.3 344.6,346.6 345.5,353.5 346.4,352.4 347.3,353.0 348.1,345.2 349.0,341.6 349.9,345.5 350.7,346.6 351.6,346.6 352.5,349.1 353.4,353.3 354.2,354.1 355.1,376.0 356.0,372.1 356.8,369.4 357.7,368.0 358.6,347.7 359.5,344.1 360.3,346.9 361.2,348.3 362.1,333.5 363.0,332.4 363.8,333.8 364.7,331.0 365.6,334.9 366.4,335.2 367.3,338.8 368.2,334.4 369.1,333.0 369.9,329.7 370.8,331.9 371.7,332.1 372.5,341.9 373.4,345.5 374.3,342.2 375.2,346.6 376.0,336.6 376.9,338.2 377.8,338.5 378.6,332.7 379.5,334.4 380.4,338.8 381.3,336.9 382.1,339.6 383.0,341.3 383.9,343.0 384.8,335.8 385.6,337.1 386.5,351.9 387.4,357.7 388.2,361.6 389.1,363.3 390.0,368.8 390.9,366.0 391.7,364.7 392.6,365.5 393.5,373.8 394.3,368.8 395.2,369.4 396.1,369.7 397.0,369.4 397.8,365.5 398.7,366.6 399.6,365.8 400.4,362.7 401.3,364.1 402.2,369.1 403.1,370.2 403.9,369.1 404.8,370.5 405.7,373.6 406.6,376.9 407.4,375.8 408.3,376.1 409.2,379.4 410.0,388.0 410.9,372.4 411.8,376.0 412.7,375.2 413.5,372.2 414.4,379.4 415.3,379.1 416.1,380.2 417.0,380.5 417.9,384.7 418.8,383.8 419.6,387.4 420.5,386.3 421.4,374.6 422.2,371.6 423.1,369.1 424.0,368.8 424.9,380.5 425.7,379.1 426.6,379.9 427.5,379.1 428.4,381.3 429.2,381.9 430.1,382.2 431.0,383.3 431.8,374.4 432.7,373.5 433.6,374.7 434.5,375.2 435.3,369.6 436.2,367.4 437.1,361.0 437.9,359.4 438.8,363.3 439.7,360.5 440.6,362.1 441.4,359.4 442.3,357.4 443.2,357.4 444.1,359.6 444.9,356.6 445.8,371.1 446.7,371.1 447.5,377.7 448.4,376.9 449.3,374.7 450.2,376.9 451.0,377.4 451.9,376.9 452.8,376.3 453.6,378.0 454.5,381.0 455.4,381.9 456.3,393.8 457.1,396.6 458.0,398.3 458.9,399.4 459.7,393.3 460.6,396.3 461.5,396.6 462.4,397.4 463.2,399.4 464.1,399.9 465.0,403.8 465.9,403.0 466.7,408.0 467.6,406.9 468.5,402.7 469.3,402.7 470.2,402.2 471.1,408.6 472.0,410.5 472.8,410.8 473.7,418.0 474.6,416.9 475.4,417.4 476.3,413.6 477.2,416.6 478.1,415.8 478.9,411.1 479.8,411.1 480.7,398.3 481.5,398.6 482.4,397.2 483.3,396.6 484.2,396.6 485.0,393.8 485.9,391.0 486.8,385.8 487.7,384.7 488.5,381.9 489.4,387.4 490.3,389.7 491.1,384.7 492.0,382.4 492.9,387.7 493.8,387.2 494.6,380.5 495.5,379.1 496.4,379.9 497.2,378.0 498.1,381.9 499.0,386.3 499.9,381.0 500.7,381.9 501.6,389.9 502.5,390.8 503.3,394.4 504.2,391.6 505.1,384.9 506.0,383.5 506.8,380.2 507.7,380.8 508.6,385.8 509.5,382.7 510.3,382.7 511.2,387.4 512.1,393.8 512.9,394.9 513.8,394.1 514.7,394.9 515.6,378.5 516.4,376.0 517.3,373.5 518.2,373.3 519.0,373.3 519.9,375.5 520.8,373.8 521.7,378.3 522.5,376.9 523.4,379.7 524.3,376.3 525.2,376.9 526.0,371.3 526.9,371.0 527.8,369.9 528.6,371.0 529.5,370.2 530.4,372.2 531.3,371.6 532.1,373.5 533.0,354.4 533.9,361.3 534.7,356.6 535.6,354.1 536.5,356.0 537.4,355.8 538.2,359.1 539.1,359.1 540.0,354.6 540.8,352.1 541.7,349.6 542.6,349.4 543.5,351.3 544.3,354.1 545.2,356.6 546.1,354.1 547.0,362.2 547.8,362.2 548.7,359.1 549.6,357.7 550.4,362.7 551.3,359.9 552.2,362.4 553.1,361.3 553.9,362.2 554.8,359.7 555.7,361.3 556.5,365.2 557.4,361.6 558.3,360.8 559.2,358.3 560.0,353.3 560.9,353.0 561.8,355.8 562.6,353.5 563.5,348.8 564.4,354.4 565.3,356.6 566.1,355.8 567.0,354.4 567.9,361.0 568.8,355.2 569.6,351.3 570.5,347.1 571.4,355.5 572.2,353.5 573.1,357.7 574.0,356.9 574.9,342.7 575.7,344.9 576.6,349.1 577.5,357.4 578.3,353.8 579.2,366.3 580.1,368.3 581.0,363.8 581.8,366.6 582.7,368.0 583.6,367.2 584.4,362.7 585.3,367.7 586.2,368.5 587.1,365.2 587.9,363.5 588.8,360.8 589.7,356.3 590.6,356.3 591.4,352.7 592.3,360.2 593.2,357.4 594.0,357.7 594.9,356.9 595.8,366.3 596.7,365.5 597.5,369.4 598.4,369.1 599.3,361.0 600.1,358.5 601.0,356.9 601.9,355.5 602.8,353.3 603.6,352.7 604.5,350.8 605.4,350.5 606.3,339.1 607.1,340.2 608.0,343.0 608.9,340.8 609.7,336.3 610.6,341.3 611.5,342.1 612.4,346.6 613.2,341.3 614.1,338.8 615.0,340.2 615.8,338.8 616.7,307.4 617.6,302.7 618.5,307.4 619.3,309.4 620.2,314.4 621.1,311.9 621.9,317.7 622.8,316.6 623.7,312.4 624.6,314.1 625.4,281.9 626.3,274.6 627.2,271.3 628.1,279.4 628.9,284.1 629.8,287.4 630.7,263.5 631.5,257.7 632.4,256.8 633.3,252.7 634.2,249.3 635.0,257.1 635.9,258.0 636.8,249.3 637.6,256.6 638.5,254.1 639.4,251.8 640.3,259.6 641.1,259.1 642.0,252.1 642.9,265.7 643.7,281.3 644.6,269.1 645.5,271.3 646.4,274.6 647.2,255.7 648.1,269.9 649.0,273.0 649.9,267.1 650.7,269.3 651.6,242.7 652.5,235.7 653.3,234.6 654.2,236.3 655.1,264.9 656.0,279.9 656.8,282.7 657.7,283.0 658.6,232.1 659.4,238.8 660.3,248.0 661.2,248.2 662.1,244.3 662.9,269.9 663.8,277.1 664.7,276.0 665.6,281.3 666.4,269.6 667.3,269.9 668.2,263.0 669.0,277.4 669.9,276.6 670.8,276.3 671.7,272.1 672.5,300.2 673.4,305.5 674.3,312.1 675.1,312.4 676.0,307.1 676.9,300.2 677.8,301.9 678.6,308.0 679.5,287.7 680.4,258.0 681.2,253.8 682.1,248.0 683.0,240.7 683.9,222.4 684.7,226.6 685.6,231.0 686.5,242.1 687.4,239.6 688.2,240.7 689.1,245.5 690.0,228.2 690.8,234.9 691.7,216.0 692.6,221.0 693.5,240.2 694.3,232.4 695.2,228.5 696.1,227.4 696.9,193.8 697.8,195.2 698.7,176.0 699.6,184.9 700.4,185.7 701.3,198.5 702.2,207.9 703.0,206.8 703.9,191.3 704.8,207.9 705.7,202.7 706.5,197.9 707.4,229.6 708.3,238.5 709.2,239.9 710.0,226.6 710.9,212.9 711.8,184.6 712.6,197.9 713.5,197.1 714.4,166.3 715.3,159.6 716.1,163.8 717.0,169.0 717.9,206.3 718.7,207.9 719.6,206.6 720.5,212.9 721.4,205.2 722.2,208.8 723.1,204.9 724.0,207.7 724.8,208.2 725.7,206.3 726.6,209.6 727.5,206.0 728.3,167.1 729.2,165.4 730.1,175.4 731.0,181.8 731.8,213.2 732.7,221.6 733.6,222.7 734.4,230.7 735.3,238.8 736.2,250.5 737.1,241.6 737.9,238.5 738.8,240.2 739.7,254.1 740.5,266.3 741.4,270.2 742.3,265.2 743.2,270.5 744.0,263.0 744.9,254.6 745.8,256.6 746.7,253.2 747.5,260.2 748.4,259.9 749.3,275.7 750.1,282.4 751.0,283.5 751.9,291.9 752.8,273.8 753.6,278.0 754.5,283.2 755.4,284.1 756.2,263.5 757.1,268.0 758.0,268.2 758.9,265.2 759.7,271.0 760.6,278.5 761.5,274.9 762.3,275.2 763.2,291.9 764.1,293.2 765.0,291.9 765.8,284.1 766.7,273.5 767.6,271.0 768.5,270.5 769.3,263.5 770.2,264.6 771.1,260.5 771.9,262.1 772.8,251.0 773.7,253.0 774.6,248.5 775.4,256.8 776.3,257.4 777.2,263.2 778.0,256.8 778.9,254.9 779.8,252.4 780.7,256.8 781.5,258.5 782.4,254.6 783.3,263.8 784.1,286.3 785.0,289.6 785.9,290.5 786.8,292.1 787.6,308.5 788.5,306.0 789.4,290.7 790.3,288.5 791.1,301.0 792.0,302.7 792.9,305.5 793.7,303.8 794.6,314.6 795.5,312.1 796.4,309.6 797.2,309.9 798.1,304.9 799.0,301.9 799.8,304.4 800.7,303.2 801.6,313.2 802.5,309.4 803.3,311.6 804.2,314.1 805.1,313.2 805.9,314.9 806.8,313.8 807.7,309.6 808.6,314.1 809.4,314.6 810.3,319.1 811.2,318.8 812.1,324.9 812.9,331.3 813.8,330.8 814.7,326.9 815.5,325.2 816.4,322.1 817.3,327.7 818.2,324.9 819.0,328.8 819.9,333.5 820.8,333.0 821.6,340.2 822.5,339.9 823.4,339.4 824.3,341.0 825.1,338.5 826.0,324.1 826.9,326.3 827.8,328.5 828.6,329.1 829.5,337.7 830.4,341.6 831.2,340.8 832.1,340.5 833.0,355.2 833.9,354.9 834.7,355.2 835.6,360.8 836.5,369.1 837.3,371.0 838.2,370.8 839.1,375.5 840.0,371.0 840.8,373.5 841.7,364.4 842.6,365.2 843.4,350.2 844.3,353.0 845.2,356.9 846.1,358.3 846.9,347.7 847.8,347.4 848.7,349.9 849.6,350.5 850.4,345.5 851.3,348.5 852.2,349.9 853.0,355.5 853.9,354.9 854.8,352.7 855.7,353.0 856.5,352.1 857.4,340.5 858.3,337.4 859.1,340.5 860.0,337.1 860.9,344.9 861.8,346.0 862.6,346.0 863.5,346.9 864.4,354.4 865.2,351.9 866.1,354.6 867.0,355.2 867.9,355.5 868.7,352.7 869.6,353.0 870.5,350.8 871.4,355.8 872.2,351.9 873.1,348.3 874.0,350.2 874.8,339.9 875.7,337.7 876.6,337.4 877.5,338.0 878.3,333.5 879.2,332.1 880.1,337.7 880.9,336.6 881.8,342.7 882.7,342.4 883.6,340.8 884.4,336.0 885.3,343.8 886.2,351.0 887.0,353.0 887.9,359.4 888.8,354.4 889.7,347.7 890.5,346.9 891.4,348.5 892.3,356.6 893.2,360.2 894.0,364.1 894.9,366.0 895.8,373.3 896.6,377.4 897.5,376.9 898.4,378.3 899.3,376.9 900.1,378.8 901.0,369.4 901.9,363.8 902.7,364.1 903.6,366.6 904.5,367.4 905.4,368.8 906.2,360.5 907.1,359.9 908.0,363.8 908.9,365.8 909.7,355.5 910.6,352.1 911.5,353.8 912.3,354.6 913.2,355.5 914.1,357.4 915.0,359.4 915.8,358.5 916.7,366.0 917.6,362.4 918.4,361.6 919.3,359.9 920.2,363.3 921.1,362.4 921.9,359.1 922.8,360.2 923.7,354.1 924.5,358.8 925.4,356.6 926.3,356.6 927.2,353.3 928.0,352.7 928.9,355.2 929.8,356.9 930.7,354.9 931.5,357.7 932.4,356.9 933.3,357.4 934.1,359.1 935.0,360.2 935.9,359.7 936.8,361.0 937.6,348.3 938.5,344.9 939.4,344.1 940.2,343.0 941.1,341.3 942.0,340.2 942.9,339.9 943.7,336.3 944.6,337.4 945.5,334.9 946.3,339.9 947.2,338.8 948.1,326.6 949.0,327.7 949.8,328.5 950.7,330.8 951.6,321.9 952.5,328.8 953.3,325.8 954.2,324.6 955.1,295.2 955.9,294.9 956.8,295.2 957.7,294.4 958.6,307.4 959.4,308.2 960.3,310.5 961.2,317.4 962.0,298.0 962.9,288.8 963.8,306.0 964.7,292.1 965.5,299.6 966.4,304.4 967.3,301.0 968.1,297.4 969.0,294.1 969.9,296.3 970.8,291.6 971.6,292.4 972.5,282.1 973.4,286.6 974.3,269.6 975.1,271.6 976.0,287.7 976.9,291.6 977.7,295.7 978.6,301.3 979.5,295.7 980.4,298.8 981.2,298.8 982.1,305.7 983.0,305.7 983.8,309.1 984.7,311.6 985.6,311.3 986.5,312.4 987.3,310.2 988.2,310.7 989.1,306.6 990.0,315.5 990.8,322.1 991.7,325.5 992.6,322.1 993.4,334.6 994.3,329.4 995.2,319.9 996.1,325.5 996.9,325.5 997.8,328.3 998.7,330.5 999.5,329.6 1000.4,320.2 1001.3,329.1 1002.2,335.2 1003.0,335.5 1003.9,355.5 1004.8,348.0 1005.6,345.8 1006.5,349.4 1007.4,345.2 1008.3,351.6 1009.1,354.1 1010.0,364.1 1010.9,360.2 1011.8,358.8 1012.6,356.3 1013.5,353.0 1014.4,361.0 1015.2,363.5 1016.1,361.9 1017.0,355.2 1017.9,364.4 1018.7,365.8 1019.6,363.0 1020.5,364.7 1021.3,364.9 1022.2,363.5 1023.1,362.7 1024.0,368.0 1024.8,349.6 1025.7,346.3 1026.6,345.5 1027.4,345.8 1028.3,340.8 1029.2,339.6 1030.1,340.2 1030.9,341.3 1031.8,341.3 1032.7,341.9 1033.6,344.6 1034.4,346.3 1035.3,343.8 1036.2,339.4 1037.0,331.9 1037.9,332.7 1038.8,331.9 1039.7,332.4 1040.5,332.1 1041.4,336.0 1042.3,336.0 1043.1,333.8 1044.0,339.4 1044.9,337.1 1045.8,342.1 1046.6,338.8 1047.5,340.8 1048.4,342.1 1049.3,334.1 1050.1,328.5 1051.0,331.3 1051.9,329.6 1052.7,333.8 1053.6,324.6 1054.5,325.8 1055.4,323.5 1056.2,346.6 1057.1,344.4 1058.0,345.5 1058.8,347.7 1059.7,360.8 1060.6,359.7 1061.5,372.4 1062.3,381.6 1063.2,381.0 1064.1,391.0 1064.9,386.6 1065.8,389.9 1066.7,364.7 1067.6,370.2 1068.4,372.4 1069.3,374.9 1070.2,375.8 1071.1,373.5 1071.9,373.8 1072.8,374.1 1073.7,396.9 1074.5,392.7 1075.4,376.9 1076.3,370.5 1077.2,363.0 1078.0,358.8 1078.9,356.0 1079.8,352.1 1080.6,346.6 1081.5,341.0 1082.4,346.0 1083.3,343.5 1084.1,300.5 1085.0,308.0 1085.9,308.5 1086.7,307.7 1087.6,319.1 1088.5,319.6 1089.4,324.1 1090.2,327.7 1091.1,345.8 1092.0,345.2 1092.9,339.6 1093.7,339.1 1094.6,348.3 1095.5,352.4 1096.3,360.8 1097.2,365.2 1098.1,355.5 1099.0,352.4 1099.8,339.1 1100.7,313.8 1101.6,285.2 1102.4,296.9 1103.3,298.5 1104.2,300.7 1105.1,304.4 1105.9,304.9 1106.8,310.7 1107.7,317.1 1108.5,326.0 1109.4,329.4 1110.3,336.0 1111.2,338.8 1112.0,333.5 1112.9,334.4 1113.8,344.4 1114.7,330.5 1115.5,311.9 1116.4,317.1 1117.3,314.1 1118.1,312.7 1119.0,324.9 1119.9,330.5 1120.8,336.9 1121.6,338.8 1122.5,359.9 1123.4,336.0 1124.2,344.6 1125.1,346.0 1126.0,369.7 1126.9,353.8 1127.7,355.5 1128.6,354.9 1129.5,345.8 1130.4,356.3 1131.2,344.6 1132.1,352.7 1133.0,336.9 1133.8,343.3 1134.7,345.2 1135.6,341.9 1136.5,361.6 1137.3,366.9 1138.2,375.2 1139.1,372.2 1139.9,353.5 1140.8,333.5 1141.7,333.5 1142.6,332.7 1143.4,335.2 1144.3,343.5 1145.2,342.1 1146.0,346.3 1146.9,318.5 1147.8,317.7 1148.7,313.0 1149.5,309.4 1150.4,303.0 1151.3,308.5 1152.2,292.1 1153.0,293.8 1153.9,281.6 1154.8,290.2 1155.6,289.9 1156.5,291.9 1157.4,276.3 1158.3,281.6 1159.1,259.9 1160.0,259.9" />
<text x="90" y="442" font-size="12" fill="#64748b">2025-01-02</text>
<text x="583.0" y="442" font-size="12" fill="#64748b">2025-08-20</text>
<text x="1088" y="442" font-size="12" fill="#64748b">2026-04-13</text>
<text x="8" y="112" font-size="12" fill="#64748b">34.07</text>
<text x="8" y="418" font-size="12" fill="#64748b">22.55</text>
<g><circle cx="122.3" cy="343.8" r="6" fill="#16a34a" stroke="#ffffff" stroke-width="2" /><text x="130.3" y="333.8" font-size="11" font-weight="700" fill="#16a34a">BUY</text></g>
<g><circle cx="152.8" cy="332.7" r="6" fill="#dc2626" stroke="#ffffff" stroke-width="2" /><text x="160.8" y="350.7" font-size="11" font-weight="700" fill="#dc2626">SELL</text></g>
<g><circle cx="158.0" cy="292.7" r="6" fill="#16a34a" stroke="#ffffff" stroke-width="2" /><text x="166.0" y="282.7" font-size="11" font-weight="700" fill="#16a34a">BUY</text></g>
<g><circle cx="192.9" cy="241.2" r="6" fill="#dc2626" stroke="#ffffff" stroke-width="2" /><text x="200.9" y="259.2" font-size="11" font-weight="700" fill="#dc2626">SELL</text></g>
<g><circle cx="198.1" cy="129.6" r="6" fill="#16a34a" stroke="#ffffff" stroke-width="2" /><text x="206.1" y="119.6" font-size="11" font-weight="700" fill="#16a34a">BUY</text></g>
<g><circle cx="213.8" cy="201.3" r="6" fill="#dc2626" stroke="#ffffff" stroke-width="2" /><text x="221.8" y="219.3" font-size="11" font-weight="700" fill="#dc2626">SELL</text></g>
<g><circle cx="255.7" cy="221.6" r="6" fill="#16a34a" stroke="#ffffff" stroke-width="2" /><text x="263.7" y="211.6" font-size="11" font-weight="700" fill="#16a34a">BUY</text></g>
<g><circle cx="261.8" cy="239.4" r="6" fill="#dc2626" stroke="#ffffff" stroke-width="2" /><text x="269.8" y="257.4" font-size="11" font-weight="700" fill="#dc2626">SELL</text></g>
<g><circle cx="294.1" cy="268.0" r="6" fill="#16a34a" stroke="#ffffff" stroke-width="2" /><text x="302.1" y="258.0" font-size="11" font-weight="700" fill="#16a34a">BUY</text></g>
<g><circle cx="301.0" cy="365.2" r="6" fill="#dc2626" stroke="#ffffff" stroke-width="2" /><text x="309.0" y="383.2" font-size="11" font-weight="700" fill="#dc2626">SELL</text></g>
<g><circle cx="318.5" cy="326.6" r="6" fill="#16a34a" stroke="#ffffff" stroke-width="2" /><text x="326.5" y="316.6" font-size="11" font-weight="700" fill="#16a34a">BUY</text></g>
<g><circle cx="326.3" cy="355.7" r="6" fill="#dc2626" stroke="#ffffff" stroke-width="2" /><text x="334.3" y="373.7" font-size="11" font-weight="700" fill="#dc2626">SELL</text></g>
<g><circle cx="338.5" cy="346.3" r="6" fill="#16a34a" stroke="#ffffff" stroke-width="2" /><text x="346.5" y="336.3" font-size="11" font-weight="700" fill="#16a34a">BUY</text></g>
<g><circle cx="349.0" cy="344.9" r="6" fill="#dc2626" stroke="#ffffff" stroke-width="2" /><text x="357.0" y="362.9" font-size="11" font-weight="700" fill="#dc2626">SELL</text></g>
<g><circle cx="363.8" cy="332.4" r="6" fill="#16a34a" stroke="#ffffff" stroke-width="2" /><text x="371.8" y="322.4" font-size="11" font-weight="700" fill="#16a34a">BUY</text></g>
<g><circle cx="376.9" cy="336.6" r="6" fill="#dc2626" stroke="#ffffff" stroke-width="2" /><text x="384.9" y="354.6" font-size="11" font-weight="700" fill="#dc2626">SELL</text></g>
<g><circle cx="381.3" cy="339.1" r="6" fill="#16a34a" stroke="#ffffff" stroke-width="2" /><text x="389.3" y="329.1" font-size="11" font-weight="700" fill="#16a34a">BUY</text></g>
<g><circle cx="384.8" cy="343.2" r="6" fill="#dc2626" stroke="#ffffff" stroke-width="2" /><text x="392.8" y="361.2" font-size="11" font-weight="700" fill="#dc2626">SELL</text></g>
<g><circle cx="424.9" cy="371.6" r="6" fill="#16a34a" stroke="#ffffff" stroke-width="2" /><text x="432.9" y="361.6" font-size="11" font-weight="700" fill="#16a34a">BUY</text></g>
<g><circle cx="430.1" cy="381.6" r="6" fill="#dc2626" stroke="#ffffff" stroke-width="2" /><text x="438.1" y="399.6" font-size="11" font-weight="700" fill="#dc2626">SELL</text></g>
<g><circle cx="437.1" cy="367.7" r="6" fill="#16a34a" stroke="#ffffff" stroke-width="2" /><text x="445.1" y="357.7" font-size="11" font-weight="700" fill="#16a34a">BUY</text></g>
<g><circle cx="449.3" cy="377.7" r="6" fill="#dc2626" stroke="#ffffff" stroke-width="2" /><text x="457.3" y="395.7" font-size="11" font-weight="700" fill="#dc2626">SELL</text></g>
<g><circle cx="485.9" cy="393.5" r="6" fill="#16a34a" stroke="#ffffff" stroke-width="2" /><text x="493.9" y="383.5" font-size="11" font-weight="700" fill="#16a34a">BUY</text></g>
<g><circle cx="505.1" cy="391.6" r="6" fill="#dc2626" stroke="#ffffff" stroke-width="2" /><text x="513.1" y="409.6" font-size="11" font-weight="700" fill="#dc2626">SELL</text></g>
<g><circle cx="519.0" cy="372.7" r="6" fill="#16a34a" stroke="#ffffff" stroke-width="2" /><text x="527.0" y="362.7" font-size="11" font-weight="700" fill="#16a34a">BUY</text></g>
<g><circle cx="552.2" cy="360.5" r="6" fill="#dc2626" stroke="#ffffff" stroke-width="2" /><text x="560.2" y="378.5" font-size="11" font-weight="700" fill="#dc2626">SELL</text></g>
<g><circle cx="562.6" cy="355.5" r="6" fill="#16a34a" stroke="#ffffff" stroke-width="2" /><text x="570.6" y="345.5" font-size="11" font-weight="700" fill="#16a34a">BUY</text></g>
<g><circle cx="581.0" cy="368.3" r="6" fill="#dc2626" stroke="#ffffff" stroke-width="2" /><text x="589.0" y="386.3" font-size="11" font-weight="700" fill="#dc2626">SELL</text></g>
<g><circle cx="593.2" cy="360.5" r="6" fill="#16a34a" stroke="#ffffff" stroke-width="2" /><text x="601.2" y="350.5" font-size="11" font-weight="700" fill="#16a34a">BUY</text></g>
<g><circle cx="599.3" cy="369.4" r="6" fill="#dc2626" stroke="#ffffff" stroke-width="2" /><text x="607.3" y="387.4" font-size="11" font-weight="700" fill="#dc2626">SELL</text></g>
<g><circle cx="603.6" cy="353.3" r="6" fill="#16a34a" stroke="#ffffff" stroke-width="2" /><text x="611.6" y="343.3" font-size="11" font-weight="700" fill="#16a34a">BUY</text></g>
<g><circle cx="645.5" cy="268.8" r="6" fill="#dc2626" stroke="#ffffff" stroke-width="2" /><text x="653.5" y="286.8" font-size="11" font-weight="700" fill="#dc2626">SELL</text></g>
<g><circle cx="663.8" cy="269.9" r="6" fill="#16a34a" stroke="#ffffff" stroke-width="2" /><text x="671.8" y="259.9" font-size="11" font-weight="700" fill="#16a34a">BUY</text></g>
<g><circle cx="666.4" cy="281.3" r="6" fill="#dc2626" stroke="#ffffff" stroke-width="2" /><text x="674.4" y="299.3" font-size="11" font-weight="700" fill="#dc2626">SELL</text></g>
<g><circle cx="683.0" cy="256.8" r="6" fill="#16a34a" stroke="#ffffff" stroke-width="2" /><text x="691.0" y="246.8" font-size="11" font-weight="700" fill="#16a34a">BUY</text></g>
<g><circle cx="710.0" cy="240.2" r="6" fill="#dc2626" stroke="#ffffff" stroke-width="2" /><text x="718.0" y="258.2" font-size="11" font-weight="700" fill="#dc2626">SELL</text></g>
<g><circle cx="716.1" cy="159.9" r="6" fill="#16a34a" stroke="#ffffff" stroke-width="2" /><text x="724.1" y="149.9" font-size="11" font-weight="700" fill="#16a34a">BUY</text></g>
<g><circle cx="723.1" cy="208.5" r="6" fill="#dc2626" stroke="#ffffff" stroke-width="2" /><text x="731.1" y="226.5" font-size="11" font-weight="700" fill="#dc2626">SELL</text></g>
<g><circle cx="731.0" cy="175.7" r="6" fill="#16a34a" stroke="#ffffff" stroke-width="2" /><text x="739.0" y="165.7" font-size="11" font-weight="700" fill="#16a34a">BUY</text></g>
<g><circle cx="735.3" cy="252.7" r="6" fill="#dc2626" stroke="#ffffff" stroke-width="2" /><text x="743.3" y="270.7" font-size="11" font-weight="700" fill="#dc2626">SELL</text></g>
<g><circle cx="771.1" cy="264.6" r="6" fill="#16a34a" stroke="#ffffff" stroke-width="2" /><text x="779.1" y="254.6" font-size="11" font-weight="700" fill="#16a34a">BUY</text></g>
<g><circle cx="785.9" cy="289.6" r="6" fill="#dc2626" stroke="#ffffff" stroke-width="2" /><text x="793.9" y="307.6" font-size="11" font-weight="700" fill="#dc2626">SELL</text></g>
<g><circle cx="848.7" cy="347.1" r="6" fill="#16a34a" stroke="#ffffff" stroke-width="2" /><text x="856.7" y="337.1" font-size="11" font-weight="700" fill="#16a34a">BUY</text></g>
<g><circle cx="867.0" cy="355.2" r="6" fill="#dc2626" stroke="#ffffff" stroke-width="2" /><text x="875.0" y="373.2" font-size="11" font-weight="700" fill="#dc2626">SELL</text></g>
<g><circle cx="878.3" cy="327.7" r="6" fill="#16a34a" stroke="#ffffff" stroke-width="2" /><text x="886.3" y="317.7" font-size="11" font-weight="700" fill="#16a34a">BUY</text></g>
<g><circle cx="888.8" cy="360.2" r="6" fill="#dc2626" stroke="#ffffff" stroke-width="2" /><text x="896.8" y="378.2" font-size="11" font-weight="700" fill="#dc2626">SELL</text></g>
<g><circle cx="911.5" cy="352.1" r="6" fill="#16a34a" stroke="#ffffff" stroke-width="2" /><text x="919.5" y="342.1" font-size="11" font-weight="700" fill="#16a34a">BUY</text></g>
<g><circle cx="936.8" cy="359.7" r="6" fill="#dc2626" stroke="#ffffff" stroke-width="2" /><text x="944.8" y="377.7" font-size="11" font-weight="700" fill="#dc2626">SELL</text></g>
<g><circle cx="940.2" cy="343.8" r="6" fill="#16a34a" stroke="#ffffff" stroke-width="2" /><text x="948.2" y="333.8" font-size="11" font-weight="700" fill="#16a34a">BUY</text></g>
<g><circle cx="982.1" cy="299.1" r="6" fill="#dc2626" stroke="#ffffff" stroke-width="2" /><text x="990.1" y="317.1" font-size="11" font-weight="700" fill="#dc2626">SELL</text></g>
<g><circle cx="1027.4" cy="345.5" r="6" fill="#16a34a" stroke="#ffffff" stroke-width="2" /><text x="1035.4" y="335.5" font-size="11" font-weight="700" fill="#16a34a">BUY</text></g>
<g><circle cx="1050.1" cy="334.1" r="6" fill="#dc2626" stroke="#ffffff" stroke-width="2" /><text x="1058.1" y="352.1" font-size="11" font-weight="700" fill="#dc2626">SELL</text></g>
<g><circle cx="1051.9" cy="331.3" r="6" fill="#16a34a" stroke="#ffffff" stroke-width="2" /><text x="1059.9" y="321.3" font-size="11" font-weight="700" fill="#16a34a">BUY</text></g>
<g><circle cx="1059.7" cy="345.2" r="6" fill="#dc2626" stroke="#ffffff" stroke-width="2" /><text x="1067.7" y="363.2" font-size="11" font-weight="700" fill="#dc2626">SELL</text></g>
<g><circle cx="1081.5" cy="346.9" r="6" fill="#16a34a" stroke="#ffffff" stroke-width="2" /><text x="1089.5" y="336.9" font-size="11" font-weight="700" fill="#16a34a">BUY</text></g>
<g><circle cx="1097.2" cy="360.8" r="6" fill="#dc2626" stroke="#ffffff" stroke-width="2" /><text x="1105.2" y="378.8" font-size="11" font-weight="700" fill="#dc2626">SELL</text></g>
<g><circle cx="1103.3" cy="297.1" r="6" fill="#16a34a" stroke="#ffffff" stroke-width="2" /><text x="1111.3" y="287.1" font-size="11" font-weight="700" fill="#16a34a">BUY</text></g>
<g><circle cx="1112.9" cy="333.3" r="6" fill="#dc2626" stroke="#ffffff" stroke-width="2" /><text x="1120.9" y="351.3" font-size="11" font-weight="700" fill="#dc2626">SELL</text></g>
<g><circle cx="1145.2" cy="343.3" r="6" fill="#16a34a" stroke="#ffffff" stroke-width="2" /><text x="1153.2" y="333.3" font-size="11" font-weight="700" fill="#16a34a">BUY</text></g>
<text x="40" y="732" font-size="13" fill="#334155">初始资金 1,000,000.00 | 结束资金 749,116.86 | 总盈亏 -250,883.14</text>
</svg>