<?xml version="1.0" encoding="UTF-8"?>
<svg xmlns="http://www.w3.org/2000/svg" width="1200" height="760" viewBox="0 0 1200 760">
<rect width="100%" height="100%" fill="#f8fafc" />
<text x="40" y="36" font-size="24" font-weight="700" fill="#111827">收益曲线</text>
<text x="40" y="58" font-size="13" fill="#6b7280">区间 2025-01-02 -&gt; 2026-04-13 | 累计收益曲线（下一根K线生效）</text>
<g transform="translate(930,18)">
<rect x="0" y="0" width="220" height="56" rx="10" fill="#ffffff" stroke="#e2e8f0" />
<circle cx="18" cy="20" r="5" fill="#16a34a" />
<text x="30" y="24" font-size="12" fill="#334155">BUY: 开仓</text>
<circle cx="18" cy="40" r="5" fill="#dc2626" />
<text x="30" y="44" font-size="12" fill="#334155">SELL: 平仓</text>
</g>
<text x="40" y="84" font-size="16" font-weight="700" fill="#111827">累计收益</text>
<line x1="90" y1="418" x2="1160" y2="418" stroke="#94a3b8" stroke-width="1.5" />
<line x1="90" y1="98" x2="90" y2="418" stroke="#cbd5e1" stroke-width="1" />
<line x1="90" y1="418" x2="1160" y2="418" stroke="#cbd5e1" stroke-width="1" />
<path d="M 90.0,418.0 L 90.0,212.3 L 90.9,212.3 L 91.7,212.3 L 92.6,212.3 L 93.5,212.3 L 94.4,212.3 L 95.2,212.3 L 96.1,212.3 L 97.0,212.3 L 97.8,212.3 L 98.7,212.3 L 99.6,212.3 L 100.5,212.3 L 101.3,212.3 L 102.2,212.3 L 103.1,212.3 L 104.0,212.3 L 104.8,212.3 L 105.7,212.3 L 106.6,212.3 L 107.4,212.3 L 108.3,212.3 L 109.2,212.3 L 110.1,212.3 L 110.9,212.3 L 111.8,212.3 L 112.7,212.3 L 113.5,212.3 L 114.4,212.3 L 115.3,212.3 L 116.2,212.3 L 117.0,212.3 L 117.9,212.3 L 118.8,212.3 L 119.6,212.3 L 120.5,212.3 L 121.4,215.4 L 122.3,216.1 L 123.1,216.6 L 124.0,218.1 L 124.9,215.4 L 125.8,223.4 L 126.6,223.4 L 127.5,218.3 L 128.4,218.3 L 129.2,211.5 L 130.1,210.3 L 131.0,212.7 L 131.9,207.3 L 132.7,206.6 L 133.6,204.9 L 134.5,208.1 L 135.3,205.3 L 136.2,187.6 L 137.1,194.9 L 138.0,187.9 L 138.8,192.2 L 139.7,180.3 L 140.6,182.3 L 141.5,183.0 L 142.3,182.8 L 143.2,184.8 L 144.1,197.1 L 144.9,197.6 L 145.8,190.3 L 146.7,183.5 L 147.6,184.2 L 148.4,178.6 L 149.3,201.1 L 150.2,206.9 L 151.0,213.7 L 151.9,213.8 L 152.8,213.8 L 153.7,213.8 L 154.5,213.8 L 155.4,213.8 L 156.3,213.8 L 157.1,205.0 L 158.0,201.7 L 158.9,199.2 L 159.8,192.3 L 160.6,168.3 L 161.5,183.1 L 162.4,179.8 L 163.3,168.5 L 164.1,173.4 L 165.0,175.9 L 165.9,173.8 L 166.7,170.8 L 167.6,158.4 L 168.5,170.2 L 169.4,173.8 L 170.2,159.1 L 171.1,159.5 L 172.0,161.4 L 172.8,157.5 L 173.7,175.4 L 174.6,174.3 L 175.5,168.5 L 176.3,172.0 L 177.2,153.7 L 178.1,144.3 L 178.9,150.2 L 179.8,130.5 L 180.7,98.0 L 181.6,102.6 L 182.4,123.1 L 183.3,116.6 L 184.2,140.0 L 185.1,142.3 L 185.9,154.2 L 186.8,157.9 L 187.7,136.3 L 188.5,139.7 L 189.4,140.4 L 190.3,141.8 L 191.2,153.1 L 192.0,153.2 L 192.9,153.2 L 193.8,153.2 L 194.6,153.2 L 195.5,153.2 L 196.4,153.2 L 197.3,141.9 L 198.1,119.4 L 199.0,127.4 L 199.9,129.1 L 200.7,129.6 L 201.6,133.6 L 202.5,104.7 L 203.4,121.3 L 204.2,127.0 L 205.1,141.2 L 206.0,138.7 L 206.9,129.1 L 207.7,130.2 L 208.6,158.3 L 209.5,161.7 L 210.3,160.2 L 211.2,157.8 L 212.1,185.8 L 213.0,185.9 L 213.8,185.9 L 214.7,185.9 L 215.6,185.9 L 216.4,185.9 L 217.3,185.9 L 218.2,185.9 L 219.1,185.9 L 219.9,185.9 L 220.8,185.9 L 221.7,185.9 L 222.6,185.9 L 223.4,185.9 L 224.3,185.9 L 225.2,185.9 L 226.0,185.9 L 226.9,185.9 L 227.8,185.9 L 228.7,185.9 L 229.5,185.9 L 230.4,185.9 L 231.3,185.9 L 232.1,185.9 L 233.0,185.9 L 233.9,185.9 L 234.8,185.9 L 235.6,185.9 L 236.5,185.9 L 237.4,185.9 L 238.2,185.9 L 239.1,185.9 L 240.0,185.9 L 240.9,185.9 L 241.7,185.9 L 242.6,185.9 L 243.5,185.9 L 244.4,185.9 L 245.2,185.9 L 246.1,185.9 L 247.0,185.9 L 247.8,185.9 L 248.7,185.9 L 249.6,185.9 L 250.5,185.9 L 251.3,185.9 L 252.2,185.9 L 253.1,185.9 L 253.9,185.9 L 254.8,188.8 L 255.7,190.8 L 256.6,193.1 L 257.4,203.1 L 258.3,203.5 L 259.2,204.2 L 260.0,204.2 L 260.9,204.3 L 261.8,204.3 L 262.7,204.3 L 263.5,204.3 L 264.4,204.3 L 265.3,204.3 L 266.2,204.3 L 267.0,204.3 L 267.9,204.3 L 268.8,204.3 L 269.6,204.3 L 270.5,204.3 L 271.4,204.3 L 272.3,204.3 L 273.1,204.3 L 274.0,204.3 L 274.9,204.3 L 275.7,204.3 L 276.6,204.3 L 277.5,204.3 L 278.4,204.3 L 279.2,204.3 L 280.1,204.3 L 281.0,204.3 L 281.9,204.3 L 282.7,204.3 L 283.6,204.3 L 284.5,204.3 L 285.3,204.3 L 286.2,204.3 L 287.1,204.3 L 288.0,204.3 L 288.8,204.3 L 289.7,204.3 L 290.6,204.3 L 291.4,204.3 L 292.3,204.3 L 293.2,206.2 L 294.1,209.5 L 294.9,209.3 L 295.8,214.5 L 296.7,223.1 L 297.5,224.7 L 298.4,225.1 L 299.3,274.4 L 300.2,274.5 L 301.0,274.5 L 301.9,274.5 L 302.8,274.5 L 303.7,274.5 L 304.5,274.5 L 305.4,274.5 L 306.3,274.5 L 307.1,274.5 L 308.0,274.5 L 308.9,274.5 L 309.8,274.5 L 310.6,274.5 L 311.5,274.5 L 312.4,274.5 L 313.2,274.5 L 314.1,274.5 L 315.0,274.5 L 315.9,274.5 L 316.7,274.5 L 317.6,275.5 L 318.5,279.1 L 319.3,280.0 L 320.2,280.8 L 321.1,280.4 L 322.0,280.6 L 322.8,279.8 L 323.7,290.9 L 324.6,297.8 L 325.5,297.9 L 326.3,297.9 L 327.2,297.9 L 328.1,297.9 L 328.9,297.9 L 329.8,297.9 L 330.7,297.9 L 331.6,297.9 L 332.4,297.9 L 333.3,297.9 L 334.2,297.9 L 335.0,297.9 L 335.9,297.9 L 336.8,297.9 L 337.7,305.7 L 338.5,310.1 L 339.4,307.2 L 340.3,308.2 L 341.1,304.0 L 342.0,301.7 L 342.9,300.1 L 343.8,301.7 L 344.6,305.7 L 345.5,310.9 L 346.4,310.1 L 347.3,310.5 L 348.1,310.6 L 349.0,310.6 L 349.9,310.6 L 350.7,310.6 L 351.6,310.6 L 352.5,310.6 L 353.4,310.6 L 354.2,310.6 L 355.1,310.6 L 356.0,310.6 L 356.8,310.6 L 357.7,310.6 L 358.6,310.6 L 359.5,310.6 L 360.3,310.6 L 361.2,310.6 L 362.1,310.6 L 363.0,309.9 L 363.8,310.9 L 364.7,308.9 L 365.6,311.7 L 366.4,311.9 L 367.3,314.5 L 368.2,311.3 L 369.1,310.3 L 369.9,307.9 L 370.8,309.5 L 371.7,309.7 L 372.5,316.8 L 373.4,319.4 L 374.3,317.0 L 375.2,320.2 L 376.0,320.3 L 376.9,320.3 L 377.8,320.3 L 378.6,320.3 L 379.5,320.3 L 380.4,323.6 L 381.3,322.2 L 382.1,324.2 L 383.0,325.4 L 383.9,325.5 L 384.8,325.5 L 385.6,325.5 L 386.5,325.5 L 387.4,325.5 L 388.2,325.5 L 389.1,325.5 L 390.0,325.5 L 390.9,325.5 L 391.7,325.5 L 392.6,325.5 L 393.5,325.5 L 394.3,325.5 L 395.2,325.5 L 396.1,325.5 L 397.0,325.5 L 397.8,325.5 L 398.7,325.5 L 399.6,325.5 L 400.4,325.5 L 401.3,325.5 L 402.2,325.5 L 403.1,325.5 L 403.9,325.5 L 404.8,325.5 L 405.7,325.5 L 406.6,325.5 L 407.4,325.5 L 408.3,325.5 L 409.2,325.5 L 410.0,325.5 L 410.9,325.5 L 411.8,325.5 L 412.7,325.5 L 413.5,325.5 L 414.4,325.5 L 415.3,325.5 L 416.1,325.5 L 417.0,325.5 L 417.9,325.5 L 418.8,325.5 L 419.6,325.5 L 420.5,325.5 L 421.4,325.5 L 422.2,325.5 L 423.1,325.5 L 424.0,325.4 L 424.9,334.1 L 425.7,333.0 L 426.6,333.7 L 427.5,333.0 L 428.4,334.7 L 429.2,334.8 L 430.1,334.8 L 431.0,334.8 L 431.8,334.8 L 432.7,334.8 L 433.6,334.8 L 434.5,334.8 L 435.3,334.8 L 436.2,333.3 L 437.1,328.6 L 437.9,327.4 L 438.8,330.2 L 439.7,328.2 L 440.6,329.4 L 441.4,327.4 L 442.3,326.0 L 443.2,326.0 L 444.1,327.6 L 444.9,325.4 L 445.8,336.0 L 446.7,336.0 L 447.5,340.8 L 448.4,340.9 L 449.3,340.9 L 450.2,340.9 L 451.0,340.9 L 451.9,340.9 L 452.8,340.9 L 453.6,340.9 L 454.5,340.9 L 455.4,340.9 L 456.3,340.9 L 457.1,340.9 L 458.0,340.9 L 458.9,340.9 L 459.7,340.9 L 460.6,340.9 L 461.5,340.9 L 462.4,340.9 L 463.2,340.9 L 464.1,340.9 L 465.0,340.9 L 465.9,340.9 L 466.7,340.9 L 467.6,340.9 L 468.5,340.9 L 469.3,340.9 L 470.2,340.9 L 471.1,340.9 L 472.0,340.9 L 472.8,340.9 L 473.7,340.9 L 474.6,340.9 L 475.4,340.9 L 476.3,340.9 L 477.2,340.9 L 478.1,340.9 L 478.9,340.9 L 479.8,340.9 L 480.7,340.9 L 481.5,340.9 L 482.4,340.9 L 483.3,340.9 L 484.2,340.9 L 485.0,338.9 L 485.9,336.8 L 486.8,332.9 L 487.7,332.0 L 488.5,329.9 L 489.4,334.1 L 490.3,335.8 L 491.1,332.0 L 492.0,330.3 L 492.9,334.3 L 493.8,333.9 L 494.6,328.9 L 495.5,327.8 L 496.4,328.5 L 497.2,327.0 L 498.1,329.9 L 499.0,333.3 L 499.9,329.3 L 500.7,329.9 L 501.6,336.0 L 502.5,336.6 L 503.3,339.4 L 504.2,339.4 L 505.1,339.4 L 506.0,339.4 L 506.8,339.4 L 507.7,339.4 L 508.6,339.4 L 509.5,339.4 L 510.3,339.4 L 511.2,339.4 L 512.1,339.4 L 512.9,339.4 L 513.8,339.4 L 514.7,339.4 L 515.6,339.4 L 516.4,339.4 L 517.3,339.4 L 518.2,339.3 L 519.0,339.3 L 519.9,341.0 L 520.8,339.7 L 521.7,343.0 L 522.5,342.0 L 523.4,344.0 L 524.3,341.6 L 525.2,342.0 L 526.0,337.9 L 526.9,337.7 L 527.8,336.9 L 528.6,337.7 L 529.5,337.1 L 530.4,338.5 L 531.3,338.1 L 532.1,339.5 L 533.0,325.6 L 533.9,330.6 L 534.7,327.2 L 535.6,325.4 L 536.5,326.8 L 537.4,326.6 L 538.2,329.0 L 539.1,329.0 L 540.0,325.8 L 540.8,323.9 L 541.7,322.1 L 542.6,321.9 L 543.5,323.3 L 544.3,325.4 L 545.2,327.2 L 546.1,325.4 L 547.0,331.2 L 547.8,331.2 L 548.7,329.0 L 549.6,328.0 L 550.4,331.6 L 551.3,331.7 L 552.2,331.7 L 553.1,331.7 L 553.9,331.7 L 554.8,331.7 L 555.7,331.7 L 556.5,331.7 L 557.4,331.7 L 558.3,331.7 L 559.2,331.7 L 560.0,331.7 L 560.9,331.7 L 561.8,333.8 L 562.6,332.2 L 563.5,328.8 L 564.4,332.8 L 565.3,334.4 L 566.1,333.8 L 567.0,332.8 L 567.9,337.6 L 568.8,333.4 L 569.6,330.6 L 570.5,327.6 L 571.4,333.6 L 572.2,332.2 L 573.1,335.2 L 574.0,334.6 L 574.9,324.4 L 575.7,326.0 L 576.6,329.0 L 577.5,335.0 L 578.3,332.4 L 579.2,341.4 L 580.1,341.5 L 581.0,341.5 L 581.8,341.5 L 582.7,341.5 L 583.6,341.5 L 584.4,341.5 L 585.3,341.5 L 586.2,341.5 L 587.1,341.5 L 587.9,341.5 L 588.8,341.5 L 589.7,341.5 L 590.6,341.5 L 591.4,341.5 L 592.3,346.9 L 593.2,345.0 L 594.0,345.2 L 594.9,344.6 L 595.8,351.2 L 596.7,350.6 L 597.5,353.4 L 598.4,353.5 L 599.3,353.5 L 600.1,353.5 L 601.0,353.5 L 601.9,353.5 L 602.8,352.0 L 603.6,351.6 L 604.5,350.3 L 605.4,350.1 L 606.3,342.2 L 607.1,343.0 L 608.0,344.9 L 608.9,343.4 L 609.7,340.3 L 610.6,343.8 L 611.5,344.4 L 612.4,347.4 L 613.2,343.8 L 614.1,342.1 L 615.0,343.0 L 615.8,342.1 L 616.7,320.4 L 617.6,317.1 L 618.5,320.4 L 619.3,321.7 L 620.2,325.2 L 621.1,323.5 L 621.9,327.5 L 622.8,326.7 L 623.7,323.8 L 624.6,325.0 L 625.4,302.7 L 626.3,297.8 L 627.2,295.4 L 628.1,301.0 L 628.9,304.3 L 629.8,306.6 L 630.7,290.1 L 631.5,286.0 L 632.4,285.5 L 633.3,282.6 L 634.2,280.3 L 635.0,285.7 L 635.9,286.2 L 636.8,280.3 L 637.6,285.3 L 638.5,283.6 L 639.4,282.0 L 640.3,287.4 L 641.1,287.0 L 642.0,282.2 L 642.9,291.6 L 643.7,302.4 L 644.6,302.5 L 645.5,302.5 L 646.4,302.5 L 647.2,302.5 L 648.1,302.5 L 649.0,302.5 L 649.9,302.5 L 650.7,302.5 L 651.6,302.5 L 652.5,302.5 L 653.3,302.5 L 654.2,302.5 L 655.1,302.5 L 656.0,302.5 L 656.8,302.5 L 657.7,302.5 L 658.6,302.5 L 659.4,302.5 L 660.3,302.5 L 661.2,302.5 L 662.1,302.5 L 662.9,319.4 L 663.8,324.1 L 664.7,323.4 L 665.6,323.5 L 666.4,323.5 L 667.3,323.5 L 668.2,323.5 L 669.0,323.5 L 669.9,323.5 L 670.8,323.5 L 671.7,323.5 L 672.5,323.5 L 673.4,323.5 L 674.3,323.5 L 675.1,323.5 L 676.0,323.5 L 676.9,323.5 L 677.8,323.5 L 678.6,323.5 L 679.5,323.5 L 680.4,323.5 L 681.2,323.5 L 682.1,319.9 L 683.0,315.3 L 683.9,303.5 L 684.7,306.2 L 685.6,309.0 L 686.5,316.2 L 687.4,314.6 L 688.2,315.3 L 689.1,318.3 L 690.0,307.3 L 690.8,311.5 L 691.7,299.5 L 692.6,302.7 L 693.5,314.9 L 694.3,309.9 L 695.2,307.4 L 696.1,306.7 L 696.9,285.2 L 697.8,286.1 L 698.7,273.9 L 699.6,279.6 L 700.4,280.1 L 701.3,288.3 L 702.2,294.3 L 703.0,293.6 L 703.9,283.6 L 704.8,294.3 L 705.7,290.9 L 706.5,287.9 L 707.4,308.2 L 708.3,313.8 L 709.2,313.9 L 710.0,313.9 L 710.9,313.9 L 711.8,313.9 L 712.6,313.9 L 713.5,313.9 L 714.4,313.9 L 715.3,310.1 L 716.1,312.6 L 717.0,315.7 L 717.9,337.5 L 718.7,338.5 L 719.6,337.7 L 720.5,341.4 L 721.4,336.9 L 722.2,337.0 L 723.1,337.0 L 724.0,337.0 L 724.8,337.0 L 725.7,337.0 L 726.6,337.0 L 727.5,337.0 L 728.3,337.0 L 729.2,337.0 L 730.1,342.7 L 731.0,346.2 L 731.8,363.8 L 732.7,368.5 L 733.6,369.1 L 734.4,369.2 L 735.3,369.2 L 736.2,369.2 L 737.1,369.2 L 737.9,369.2 L 738.8,369.2 L 739.7,369.2 L 740.5,369.2 L 741.4,369.2 L 742.3,369.2 L 743.2,369.2 L 744.0,369.2 L 744.9,369.2 L 745.8,369.2 L 746.7,369.2 L 747.5,369.2 L 748.4,369.2 L 749.3,369.2 L 750.1,369.2 L 751.0,369.2 L 751.9,369.2 L 752.8,369.2 L 753.6,369.2 L 754.5,369.2 L 755.4,369.2 L 756.2,369.2 L 757.1,369.2 L 758.0,369.2 L 758.9,369.2 L 759.7,369.2 L 760.6,369.2 L 761.5,369.2 L 762.3,369.2 L 763.2,369.2 L 764.1,369.2 L 765.0,369.2 L 765.8,369.2 L 766.7,369.2 L 767.6,369.2 L 768.5,369.2 L 769.3,369.2 L 770.2,370.0 L 771.1,367.5 L 771.9,368.5 L 772.8,361.9 L 773.7,363.1 L 774.6,360.5 L 775.4,365.4 L 776.3,365.7 L 777.2,369.1 L 778.0,365.4 L 778.9,364.2 L 779.8,362.8 L 780.7,365.4 L 781.5,366.4 L 782.4,364.1 L 783.3,369.5 L 784.1,382.7 L 785.0,382.8 L 785.9,382.8 L 786.8,382.8 L 787.6,382.8 L 788.5,382.8 L 789.4,382.8 L 790.3,382.8 L 791.1,382.8 L 792.0,382.8 L 792.9,382.8 L 793.7,382.8 L 794.6,382.8 L 795.5,382.8 L 796.4,382.8 L 797.2,382.8 L 798.1,382.8 L 799.0,382.8 L 799.8,382.8 L 800.7,382.8 L 801.6,382.8 L 802.5,382.8 L 803.3,382.8 L 804.2,382.8 L 805.1,382.8 L 805.9,382.8 L 806.8,382.8 L 807.7,382.8 L 808.6,382.8 L 809.4,382.8 L 810.3,382.8 L 811.2,382.8 L 812.1,382.8 L 812.9,382.8 L 813.8,382.8 L 814.7,382.8 L 815.5,382.8 L 816.4,382.8 L 817.3,382.8 L 818.2,382.8 L 819.0,382.8 L 819.9,382.8 L 820.8,382.8 L 821.6,382.8 L 822.5,382.8 L 823.4,382.8 L 824.3,382.8 L 825.1,382.8 L 826.0,382.8 L 826.9,382.8 L 827.8,382.8 L 828.6,382.8 L 829.5,382.8 L 830.4,382.8 L 831.2,382.8 L 832.1,382.8 L 833.0,382.8 L 833.9,382.8 L 834.7,382.8 L 835.6,382.8 L 836.5,382.8 L 837.3,382.8 L 838.2,382.8 L 839.1,382.8 L 840.0,382.8 L 840.8,382.8 L 841.7,382.8 L 842.6,382.8 L 843.4,382.8 L 844.3,382.8 L 845.2,382.8 L 846.1,382.8 L 846.9,382.8 L 847.8,382.7 L 848.7,384.3 L 849.6,384.7 L 850.4,381.5 L 851.3,383.4 L 852.2,384.3 L 853.0,387.9 L 853.9,387.5 L 854.8,386.1 L 855.7,386.3 L 856.5,385.7 L 857.4,378.3 L 858.3,376.3 L 859.1,378.3 L 860.0,376.1 L 860.9,381.1 L 861.8,381.8 L 862.6,381.8 L 863.5,382.4 L 864.4,387.2 L 865.2,385.6 L 866.1,385.7 L 867.0,385.7 L 867.9,385.7 L 868.7,385.7 L 869.6,385.7 L 870.5,385.7 L 871.4,385.7 L 872.2,385.7 L 873.1,385.7 L 874.0,385.7 L 874.8,385.7 L 875.7,385.7 L 876.6,385.7 L 877.5,386.1 L 878.3,383.3 L 879.2,382.4 L 880.1,385.9 L 880.9,385.2 L 881.8,389.0 L 882.7,388.9 L 883.6,387.8 L 884.4,384.9 L 885.3,389.7 L 886.2,394.3 L 887.0,395.5 L 887.9,395.6 L 888.8,395.6 L 889.7,395.6 L 890.5,395.6 L 891.4,395.6 L 892.3,395.6 L 893.2,395.6 L 894.0,395.6 L 894.9,395.6 L 895.8,395.6 L 896.6,395.6 L 897.5,395.6 L 898.4,395.6 L 899.3,395.6 L 900.1,395.6 L 901.0,395.6 L 901.9,395.6 L 902.7,395.6 L 903.6,395.6 L 904.5,395.6 L 905.4,395.6 L 906.2,395.6 L 907.1,395.6 L 908.0,395.6 L 908.9,395.6 L 909.7,395.6 L 910.6,393.6 L 911.5,394.6 L 912.3,395.1 L 913.2,395.7 L 914.1,396.9 L 915.0,398.1 L 915.8,397.6 L 916.7,402.3 L 917.6,400.0 L 918.4,399.5 L 919.3,398.5 L 920.2,400.6 L 921.1,400.0 L 921.9,397.9 L 922.8,398.6 L 923.7,394.8 L 924.5,397.8 L 925.4,396.4 L 926.3,396.4 L 927.2,394.3 L 928.0,393.9 L 928.9,395.5 L 929.8,396.5 L 930.7,395.3 L 931.5,397.1 L 932.4,396.5 L 933.3,396.9 L 934.1,397.9 L 935.0,398.6 L 935.9,398.7 L 936.8,398.7 L 937.6,398.7 L 938.5,398.7 L 939.4,398.3 L 940.2,397.6 L 941.1,396.6 L 942.0,395.9 L 942.9,395.7 L 943.7,393.5 L 944.6,394.2 L 945.5,392.7 L 946.3,395.7 L 947.2,395.1 L 948.1,387.5 L 949.0,388.2 L 949.8,388.7 L 950.7,390.1 L 951.6,384.6 L 952.5,388.9 L 953.3,387.0 L 954.2,386.3 L 955.1,368.2 L 955.9,368.0 L 956.8,368.2 L 957.7,367.7 L 958.6,375.7 L 959.4,376.3 L 960.3,377.6 L 961.2,381.9 L 962.0,369.9 L 962.9,364.3 L 963.8,374.9 L 964.7,366.3 L 965.5,371.0 L 966.4,373.9 L 967.3,371.8 L 968.1,369.6 L 969.0,367.5 L 969.9,368.9 L 970.8,366.0 L 971.6,366.5 L 972.5,360.2 L 973.4,362.9 L 974.3,352.5 L 975.1,353.7 L 976.0,363.6 L 976.9,366.0 L 977.7,368.6 L 978.6,372.0 L 979.5,368.6 L 980.4,370.4 L 981.2,370.5 L 982.1,370.5 L 983.0,370.5 L 983.8,370.5 L 984.7,370.5 L 985.6,370.5 L 986.5,370.5 L 987.3,370.5 L 988.2,370.5 L 989.1,370.5 L 990.0,370.5 L 990.8,370.5 L 991.7,370.5 L 992.6,370.5 L 993.4,370.5 L 994.3,370.5 L 995.2,370.5 L 996.1,370.5 L 996.9,370.5 L 997.8,370.5 L 998.7,370.5 L 999.5,370.5 L 1000.4,370.5 L 1001.3,370.5 L 1002.2,370.5 L 1003.0,370.5 L 1003.9,370.5 L 1004.8,370.5 L 1005.6,370.5 L 1006.5,370.5 L 1007.4,370.5 L 1008.3,370.5 L 1009.1,370.5 L 1010.0,370.5 L 1010.9,370.5 L 1011.8,370.5 L 1012.6,370.5 L 1013.5,370.5 L 1014.4,370.5 L 1015.2,370.5 L 1016.1,370.5 L 1017.0,370.5 L 1017.9,370.5 L 1018.7,370.5 L 1019.6,370.5 L 1020.5,370.5 L 1021.3,370.5 L 1022.2,370.5 L 1023.1,370.5 L 1024.0,370.5 L 1024.8,370.5 L 1025.7,370.5 L 1026.6,370.1 L 1027.4,370.3 L 1028.3,367.0 L 1029.2,366.2 L 1030.1,366.6 L 1030.9,367.3 L 1031.8,367.3 L 1032.7,367.7 L 1033.6,369.5 L 1034.4,370.6 L 1035.3,369.0 L 1036.2,366.1 L 1037.0,361.1 L 1037.9,361.7 L 1038.8,361.1 L 1039.7,361.5 L 1040.5,361.3 L 1041.4,363.9 L 1042.3,363.9 L 1043.1,362.4 L 1044.0,366.1 L 1044.9,364.6 L 1045.8,367.9 L 1046.6,365.7 L 1047.5,367.0 L 1048.4,367.9 L 1049.3,368.0 L 1050.1,368.0 L 1051.0,369.9 L 1051.9,368.8 L 1052.7,371.5 L 1053.6,365.6 L 1054.5,366.3 L 1055.4,364.8 L 1056.2,379.7 L 1057.1,378.3 L 1058.0,379.0 L 1058.8,379.1 L 1059.7,379.1 L 1060.6,379.1 L 1061.5,379.1 L 1062.3,379.1 L 1063.2,379.1 L 1064.1,379.1 L 1064.9,379.1 L 1065.8,379.1 L 1066.7,379.1 L 1067.6,379.1 L 1068.4,379.1 L 1069.3,379.1 L 1070.2,379.1 L 1071.1,379.1 L 1071.9,379.1 L 1072.8,379.1 L 1073.7,379.1 L 1074.5,379.1 L 1075.4,379.1 L 1076.3,379.1 L 1077.2,379.1 L 1078.0,379.1 L 1078.9,379.1 L 1079.8,379.1 L 1080.6,375.6 L 1081.5,371.9 L 1082.4,375.2 L 1083.3,373.6 L 1084.1,345.6 L 1085.0,350.4 L 1085.9,350.8 L 1086.7,350.3 L 1087.6,357.7 L 1088.5,358.0 L 1089.4,360.9 L 1090.2,363.3 L 1091.1,375.0 L 1092.0,374.7 L 1092.9,371.0 L 1093.7,370.7 L 1094.6,376.6 L 1095.5,379.3 L 1096.3,379.4 L 1097.2,379.4 L 1098.1,379.4 L 1099.0,379.4 L 1099.8,379.4 L 1100.7,379.4 L 1101.6,379.4 L 1102.4,386.4 L 1103.3,387.4 L 1104.2,388.7 L 1105.1,390.9 L 1105.9,391.2 L 1106.8,394.7 L 1107.7,398.5 L 1108.5,403.7 L 1109.4,405.7 L 1110.3,409.6 L 1111.2,411.3 L 1112.0,411.4 L 1112.9,411.4 L 1113.8,411.4 L 1114.7,411.4 L 1115.5,411.4 L 1116.4,411.4 L 1117.3,411.4 L 1118.1,411.4 L 1119.0,411.4 L 1119.9,411.4 L 1120.8,411.4 L 1121.6,411.4 L 1122.5,411.4 L 1123.4,411.4 L 1124.2,411.4 L 1125.1,411.4 L 1126.0,411.4 L 1126.9,411.4 L 1127.7,411.4 L 1128.6,411.4 L 1129.5,411.4 L 1130.4,411.4 L 1131.2,411.4 L 1132.1,411.4 L 1133.0,411.4 L 1133.8,411.4 L 1134.7,411.4 L 1135.6,411.4 L 1136.5,411.4 L 1137.3,411.4 L 1138.2,411.4 L 1139.1,411.4 L 1139.9,411.4 L 1140.8,411.4 L 1141.7,411.4 L 1142.6,411.4 L 1143.4,411.4 L 1144.3,416.4 L 1145.2,415.5 L 1146.0,418.0 L 1146.9,401.6 L 1147.8,401.1 L 1148.7,398.4 L 1149.5,396.2 L 1150.4,392.5 L 1151.3,395.7 L 1152.2,386.1 L 1153.0,387.1 L 1153.9,379.9 L 1154.8,384.9 L 1155.6,384.8 L 1156.5,385.9 L 1157.4,376.8 L 1158.3,379.9 L 1159.1,367.1 L 1160.0,367.1 L 1160.0,418.0 Z" fill="#60a5fa" opacity="0.22" />
<polyline fill="none" stroke="#2563eb" stroke-width="3" stroke-linecap="round" stroke-linejoin="round" points="90.0,212.3 90.9,212.3 91.7,212.3 92.6,212.3 93.5,212.3 94.4,212.3 95.2,212.3 96.1,212.3 97.0,212.3 97.8,212.3 98.7,212.3 99.6,212.3 100.5,212.3 101.3,212.3 102.2,212.3 103.1,212.3 104.0,212.3 104.8,212.3 105.7,212.3 106.6,212.3 107.4,212.3 108.3,212.3 109.2,212.3 110.1,212.3 110.9,212.3 111.8,212.3 112.7,212.3 113.5,212.3 114.4,212.3 115.3,212.3 116.2,212.3 117.0,212.3 117.9,212.3 118.8,212.3 119.6,212.3 120.5,212.3 121.4,215.4 122.3,216.1 123.1,216.6 124.0,218.1 124.9,215.4 125.8,223.4 126.6,223.4 127.5,218.3 128.4,218.3 129.2,211.5 130.1,210.3 131.0,212.7 131.9,207.3 132.7,206.6 133.6,204.9 134.5,208.1 135.3,205.3 136.2,187.6 137.1,194.9 138.0,187.9 138.8,192.2 139.7,180.3 140.6,182.3 141.5,183.0 142.3,182.8 143.2,184.8 144.1,197.1 144.9,197.6 145.8,190.3 146.7,183.5 147.6,184.2 148.4,178.6 149.3,201.1 150.2,206.9 151.0,213.7 151.9,213.8 152.8,213.8 153.7,213.8 154.5,213.8 155.4,213.8 156.3,213.8 157.1,205.0 158.0,201.7 158.9,199.2 159.8,192.3 160.6,168.3 161.5,183.1 162.4,179.8 163.3,168.5 164.1,173.4 165.0,175.9 165.9,173.8 166.7,170.8 167.6,158.4 168.5,170.2 169.4,173.8 170.2,159.1 171.1,159.5 172.0,161.4 172.8,157.5 173.7,175.4 174.6,174.3 175.5,168.5 176.3,172.0 177.2,153.7 178.1,144.3 178.9,150.2 179.8,130.5 180.7,98.0 181.6,102.6 182.4,123.1 183.3,116.6 184.2,140.0 185.1,142.3 185.9,154.2 186.8,157.9 187.7,136.3 188.5,139.7 189.4,140.4 190.3,141.8 191.2,153.1 192.0,153.2 192.9,153.2 193.8,153.2 194.6,153.2 195.5,153.2 196.4,153.2 197.3,141.9 198.1,119.4 199.0,127.4 199.9,129.1 200.7,129.6 201.6,133.6 202.5,104.7 203.4,121.3 204.2,127.0 205.1,141.2 206.0,138.7 206.9,129.1 207.7,130.2 208.6,158.3 209.5,161.7 210.3,160.2 211.2,157.8 212.1,185.8 213.0,185.9 213.8,185.9 214.7,185.9 215.6,185.9 216.4,185.9 217.3,185.9 218.2,185.9 219.1,185.9 219.9,185.9 220.8,185.9 221.7,185.9 222.6,185.9 223.4,185.9 224.3,185.9 225.2,185.9 226.0,185.9 226.9,185.9 227.8,185.9 228.7,185.9 229.5,185.9 230.4,185.9 231.3,185.9 232.1,185.9 233.0,185.9 233.9,185.9 234.8,185.9 235.6,185.9 236.5,185.9 237.4,185.9 238.2,185.9 239.1,185.9 240.0,185.9 240.9,185.9 241.7,185.9 242.6,185.9 243.5,185.9 244.4,185.9 245.2,185.9 246.1,185.9 247.0,185.9 247.8,185.9 248.7,185.9 249.6,185.9 250.5,185.9 251.3,185.9 252.2,185.9 253.1,185.9 253.9,185.9 254.8,188.8 255.7,190.8 256.6,193.1 257.4,203.1 258.3,203.5 259.2,204.2 260.0,204.2 260.9,204.3 261.8,204.3 262.7,204.3 263.5,204.3 264.4,204.3 265.3,204.3 266.2,204.3 267.0,204.3 267.9,204.3 268.8,204.3 269.6,204.3 270.5,204.3 271.4,204.3 272.3,204.3 273.1,204.3 274.0,204.3 274.9,204.3 275.7,204.3 276.6,204.3 277.5,204.3 278.4,204.3 279.2,204.3 280.1,204.3 281.0,204.3 281.9,204.3 282.7,204.3 283.6,204.3 284.5,204.3 285.3,204.3 286.2,204.3 287.1,204.3 288.0,204.3 288.8,204.3 289.7,204.3 290.6,204.3 291.4,204.3 292.3,204.3 293.2,206.2 294.1,209.5 294.9,209.3 295.8,214.5 296.7,223.1 297.5,224.7 298.4,225.1 299.3,274.4 300.2,274.5 301.0,274.5 301.9,274.5 302.8,274.5 303.7,274.5 304.5,274.5 305.4,274.5 306.3,274.5 307.1,274.5 308.0,274.5 308.9,274.5 309.8,274.5 310.6,274.5 311.5,274.5 312.4,274.5 313.2,274.5 314.1,274.5 315.0,274.5 315.9,274.5 316.7,274.5 317.6,275.5 318.5,279.1 319.3,280.0 320.2,280.8 321.1,280.4 322.0,280.6 322.8,279.8 323.7,290.9 324.6,297.8 325.5,297.9 326.3,297.9 327.2,297.9 328.1,297.9 328.9,297.9 329.8,297.9 330.7,297.9 331.6,297.9 332.4,297.9 333.3,297.9 334.2,297.9 335.0,297.9 335.9,297.9 336.8,297.9 337.7,305.7 338.5,310.1 339.4,307.2 340.3,308.2 341.1,304.0 342.0,301.7 342.9,300.1 343.8,301.7 344.6,305.7 345.5,310.9 346.4,310.1 347.3,310.5 348.1,310.6 349.0,310.6 349.9,310.6 350.7,310.6 351.6,310.6 352.5,310.6 353.4,310.6 354.2,310.6 355.1,310.6 356.0,310.6 356.8,310.6 357.7,310.6 358.6,310.6 359.5,310.6 360.3,310.6 361.2,310.6 362.1,310.6 363.0,309.9 363.8,310.9 364.7,308.9 365.6,311.7 366.4,311.9 367.3,314.5 368.2,311.3 369.1,310.3 369.9,307.9 370.8,309.5 371.7,309.7 372.5,316.8 373.4,319.4 374.3,317.0 375.2,320.2 376.0,320.3 376.9,320.3 377.8,320.3 378.6,320.3 379.5,320.3 380.4,323.6 381.3,322.2 382.1,324.2 383.0,325.4 383.9,325.5 384.8,325.5 385.6,325.5 386.5,325.5 387.4,325.5 388.2,325.5 389.1,325.5 390.0,325.5 390.9,325.5 391.7,325.5 392.6,325.5 393.5,325.5 394.3,325.5 395.2,325.5 396.1,325.5 397.0,325.5 397.8,325.5 398.7,325.5 399.6,325.5 400.4,325.5 401.3,325.5 402.2,325.5 403.1,325.5 403.9,325.5 404.8,325.5 405.7,325.5 406.6,325.5 407.4,325.5 408.3,325.5 409.2,325.5 410.0,325.5 410.9,325.5 411.8,325.5 412.7,325.5 413.5,325.5 414.4,325.5 415.3,325.5 416.1,325.5 417.0,325.5 417.9,325.5 418.8,325.5 419.6,325.5 420.5,325.5 421.4,325.5 422.2,325.5 423.1,325.5 424.0,325.4 424.9,334.1 425.7,333.0 426.6,333.7 427.5,333.0 428.4,334.7 429.2,334.8 430.1,334.8 431.0,334.8 431.8,334.8 432.7,334.8 433.6,334.8 434.5,334.8 435.3,334.8 436.2,333.3 437.1,328.6 437.9,327.4 438.8,330.2 439.7,328.2 440.6,329.4 441.4,327.4 442.3,326.0 443.2,326.0 444.1,327.6 444.9,325.4 445.8,336.0 446.7,336.0 447.5,340.8 448.4,340.9 449.3,340.9 450.2,340.9 451.0,340.9 451.9,340.9 452.8,340.9 453.6,340.9 454.5,340.9 455.4,340.9 456.3,340.9 457.1,340.9 458.0,340.9 458.9,340.9 459.7,340.9 460.6,340.9 461.5,340.9 462.4,340.9 463.2,340.9 464.1,340.9 465.0,340.9 465.9,340.9 466.7,340.9 467.6,340.9 468.5,340.9 469.3,340.9 470.2,340.9 471.1,340.9 472.0,340.9 472.8,340.9 473.7,340.9 474.6,340.9 475.4,340.9 476.3,340.9 477.2,340.9 478.1,340.9 478.9,340.9 479.8,340.9 480.7,340.9 481.5,340.9 482.4,340.9 483.3,340.9 484.2,340.9 485.0,338.9 485.9,336.8 486.8,332.9 487.7,332.0 488.5,329.9 489.4,334.1 490.3,335.8 491.1,332.0 492.0,330.3 492.9,334.3 493.8,333.9 494.6,328.9 495.5,327.8 496.4,328.5 497.2,327.0 498.1,329.9 499.0,333.3 499.9,329.3 500.7,329.9 501.6,336.0 502.5,336.6 503.3,339.4 504.2,339.4 505.1,339.4 506.0,339.4 506.8,339.4 507.7,339.4 508.6,339.4 509.5,339.4 510.3,339.4 511.2,339.4 512.1,339.4 512.9,339.4 513.8,339.4 514.7,339.4 515.6,339.4 516.4,339.4 517.3,339.4 518.2,339.3 519.0,339.3 519.9,341.0 520.8,339.7 521.7,343.0 522.5,342.0 523.4,344.0 524.3,341.6 525.2,342.0 526.0,337.9 526.9,337.7 527.8,336.9 528.6,337.7 529.5,337.1 530.4,338.5 531.3,338.1 532.1,339.5 533.0,325.6 533.9,330.6 534.7,327.2 535.6,325.4 536.5,326.8 537.4,326.6 538.2,329.0 539.1,329.0 540.0,325.8 540.8,323.9 541.7,322.1 542.6,321.9 543.5,323.3 544.3,325.4 545.2,327.2 546.1,325.4 547.0,331.2 547.8,331.2 548.7,329.0 549.6,328.0 550.4,331.6 551.3,331.7 552.2,331.7 553.1,331.7 553.9,331.7 554.8,331.7 555.7,331.7 556.5,331.7 557.4,331.7 558.3,331.7 559.2,331.7 560.0,331.7 560.9,331.7 561.8,333.8 562.6,332.2 563.5,328.8 564.4,332.8 565.3,334.4 566.1,333.8 567.0,332.8 567.9,337.6 568.8,333.4 569.6,330.6 570.5,327.6 571.4,333.6 572.2,332.2 573.1,335.2 574.0,334.6 574.9,324.4 575.7,326.0 576.6,329.0 577.5,335.0 578.3,332.4 579.2,341.4 580.1,341.5 581.0,341.5 581.8,341.5 582.7,341.5 583.6,341.5 584.4,341.5 585.3,341.5 586.2,341.5 587.1,341.5 587.9,341.5 588.8,341.5 589.7,341.5 590.6,341.5 591.4,341.5 592.3,346.9 593.2,345.0 594.0,345.2 594.9,344.6 595.8,351.2 596.7,350.6 597.5,353.4 598.4,353.5 599.3,353.5 600.1,353.5 601.0,353.5 601.9,353.5 602.8,352.0 603.6,351.6 604.5,350.3 605.4,350.1 606.3,342.2 607.1,343.0 608.0,344.9 608.9,343.4 609.7,340.3 610.6,343.8 611.5,344.4 612.4,347.4 613.2,343.8 614.1,342.1 615.0,343.0 615.8,342.1 616.7,320.4 617.6,317.1 618.5,320.4 619.3,321.7 620.2,325.2 621.1,323.5 621.9,327.5 622.8,326.7 623.7,323.8 624.6,325.0 625.4,302.7 626.3,297.8 627.2,295.4 628.1,301.0 628.9,304.3 629.8,306.6 630.7,290.1 631.5,286.0 632.4,285.5 633.3,282.6 634.2,280.3 635.0,285.7 635.9,286.2 636.8,280.3 637.6,285.3 638.5,283.6 639.4,282.0 640.3,287.4 641.1,287.0 642.0,282.2 642.9,291.6 643.7,302.4 644.6,302.5 645.5,302.5 646.4,302.5 647.2,302.5 648.1,302.5 649.0,302.5 649.9,302.5 650.7,302.5 651.6,302.5 652.5,302.5 653.3,302.5 654.2,302.5 655.1,302.5 656.0,302.5 656.8,302.5 657.7,302.5 658.6,302.5 659.4,302.5 660.3,302.5 661.2,302.5 662.1,302.5 662.9,319.4 663.8,324.1 664.7,323.4 665.6,323.5 666.4,323.5 667.3,323.5 668.2,323.5 669.0,323.5 669.9,323.5 670.8,323.5 671.7,323.5 672.5,323.5 673.4,323.5 674.3,323.5 675.1,323.5 676.0,323.5 676.9,323.5 677.8,323.5 678.6,323.5 679.5,323.5 680.4,323.5 681.2,323.5 682.1,319.9 683.0,315.3 683.9,303.5 684.7,306.2 685.6,309.0 686.5,316.2 687.4,314.6 688.2,315.3 689.1,318.3 690.0,307.3 690.8,311.5 691.7,299.5 692.6,302.7 693.5,314.9 694.3,309.9 695.2,307.4 696.1,306.7 696.9,285.2 697.8,286.1 698.7,273.9 699.6,279.6 700.4,280.1 701.3,288.3 702.2,294.3 703.0,293.6 703.9,283.6 704.8,294.3 705.7,290.9 706.5,287.9 707.4,308.2 708.3,313.8 709.2,313.9 710.0,313.9 710.9,313.9 711.8,313.9 712.6,313.9 713.5,313.9 714.4,313.9 715.3,310.1 716.1,312.6 717.0,315.7 717.9,337.5 718.7,338.5 719.6,337.7 720.5,341.4 721.4,336.9 722.2,337.0 723.1,337.0 724.0,337.0 724.8,337.0 725.7,337.0 726.6,337.0 727.5,337.0 728.3,337.0 729.2,337.0 730.1,342.7 731.0,346.2 731.8,363.8 732.7,368.5 733.6,369.1 734.4,369.2 735.3,369.2 736.2,369.2 737.1,369.2 737.9,369.2 738.8,369.2 739.7,369.2 740.5,369.2 741.4,369.2 742.3,369.2 743.2,369.2 744.0,369.2 744.9,369.2 745.8,369.2 746.7,369.2 747.5,369.2 748.4,369.2 749.3,369.2 750.1,369.2 751.0,369.2 751.9,369.2 752.8,369.2 753.6,369.2 754.5,369.2 755.4,369.2 756.2,369.2 757.1,369.2 758.0,369.2 758.9,369.2 759.7,369.2 760.6,369.2 761.5,369.2 762.3,369.2 763.2,369.2 764.1,369.2 765.0,369.2 765.8,369.2 766.7,369.2 767.6,369.2 768.5,369.2 769.3,369.2 770.2,370.0 771.1,367.5 771.9,368.5 772.8,361.9 773.7,363.1 774.6,360.5 775.4,365.4 776.3,365.7 777.2,369.1 778.0,365.4 778.9,364.2 779.8,362.8 780.7,365.4 781.5,366.4 782.4,364.1 783.3,369.5 784.1,382.7 785.0,382.8 785.9,382.8 786.8,382.8 787.6,382.8 788.5,382.8 789.4,382.8 790.3,382.8 791.1,382.8 792.0,382.8 792.9,382.8 793.7,382.8 794.6,382.8 795.5,382.8 796.4,382.8 797.2,382.8 798.1,382.8 799.0,382.8 799.8,382.8 800.7,382.8 801.6,382.8 802.5,382.8 803.3,382.8 804.2,382.8 805.1,382.8 805.9,382.8 806.8,382.8 807.7,382.8 808.6,382.8 809.4,382.8 810.3,382.8 811.2,382.8 812.1,382.8 812.9,382.8 813.8,382.8 814.7,382.8 815.5,382.8 816.4,382.8 817.3,382.8 818.2,382.8 819.0,382.8 819.9,382.8 820.8,382.8 821.6,382.8 822.5,382.8 823.4,382.8 824.3,382.8 825.1,382.8 826.0,382.8 826.9,382.8 827.8,382.8 828.6,382.8 829.5,382.8 830.4,382.8 831.2,382.8 832.1,382.8 833.0,382.8 833.9,382.8 834.7,382.8 835.6,382.8 836.5,382.8 837.3,382.8 838.2,382.8 839.1,382.8 840.0,382.8 840.8,382.8 841.7,382.8 842.6,382.8 843.4,382.8 844.3,382.8 845.2,382.8 846.1,382.8 846.9,382.8 847.8,382.7 848.7,384.3 849.6,384.7 850.4,381.5 851.3,383.4 852.2,384.3 853.0,387.9 853.9,387.5 854.8,386.1 855.7,386.3 856.5,385.7 857.4,378.3 858.3,376.3 859.1,378.3 860.0,376.1 860.9,381.1 861.8,381.8 862.6,381.8 863.5,382.4 864.4,387.2 865.2,385.6 866.1,385.7 867.0,385.7 867.9,385.7 868.7,385.7 869.6,385.7 870.5,385.7 871.4,385.7 872.2,385.7 873.1,385.7 874.0,385.7 874.8,385.7 875.7,385.7 876.6,385.7 877.5,386.1 878.3,383.3 879.2,382.4 880.1,385.9 880.9,385.2 881.8,389.0 882.7,388.9 883.6,387.8 884.4,384.9 885.3,389.7 886.2,394.3 887.0,395.5 887.9,395.6 888.8,395.6 889.7,395.6 890.5,395.6 891.4,395.6 892.3,395.6 893.2,395.6 894.0,395.6 894.9,395.6 895.8,395.6 896.6,395.6 897.5,395.6 898.4,395.6 899.3,395.6 900.1,395.6 901.0,395.6 901.9,395.6 902.7,395.6 903.6,395.6 904.5,395.6 905.4,395.6 906.2,395.6 907.1,395.6 908.0,395.6 908.9,395.6 909.7,395.6 910.6,393.6 911.5,394.6 912.3,395.1 913.2,395.7 914.1,396.9 915.0,398.1 915.8,397.6 916.7,402.3 917.6,400.0 918.4,399.5 919.3,398.5 920.2,400.6 921.1,400.0 921.9,397.9 922.8,398.6 923.7,394.8 924.5,397.8 925.4,396.4 926.3,396.4 927.2,394.3 928.0,393.9 928.9,395.5 929.8,396.5 930.7,395.3 931.5,397.1 932.4,396.5 933.3,396.9 934.1,397.9 935.0,398.6 935.9,398.7 936.8,398.7 937.6,398.7 938.5,398.7 939.4,398.3 940.2,397.6 941.1,396.6 942.0,395.9 942.9,395.7 943.7,393.5 944.6,394.2 945.5,392.7 946.3,395.7 947.2,395.1 948.1,387.5 949.0,388.2 949.8,388.7 950.7,390.1 951.6,384.6 952.5,388.9 953.3,387.0 954.2,386.3 955.1,368.2 955.9,368.0 956.8,368.2 957.7,367.7 958.6,375.7 959.4,376.3 960.3,377.6 961.2,381.9 962.0,369.9 962.9,364.3 963.8,374.9 964.7,366.3 965.5,371.0 966.4,373.9 967.3,371.8 968.1,369.6 969.0,367.5 969.9,368.9 970.8,366.0 971.6,366.5 972.5,360.2 973.4,362.9 974.3,352.5 975.1,353.7 976.0,363.6 976.9,366.0 977.7,368.6 978.6,372.0 979.5,368.6 980.4,370.4 981.2,370.5 982.1,370.5 983.0,370.5 983.8,370.5 984.7,370.5 985.6,370.5 986.5,370.5 987.3,370.5 988.2,370.5 989.1,370.5 990.0,370.5 990.8,370.5 991.7,370.5 992.6,370.5 993.4,370.5 994.3,370.5 995.2,370.5 996.1,370.5 996.9,370.5 997.8,370.5 998.7,370.5 999.5,370.5 1000.4,370.5 1001.3,370.5 1002.2,370.5 1003.0,370.5 1003.9,370.5 1004.8,370.5 1005.6,370.5 1006.5,370.5 1007.4,370.5 1008.3,370.5 1009.1,370.5 1010.0,370.5 1010.9,370.5 1011.8,370.5 1012.6,370.5 1013.5,370.5 1014.4,370.5 1015.2,370.5 1016.1,370.5 1017.0,370.5 1017.9,370.5 1018.7,370.5 1019.6,370.5 1020.5,370.5 1021.3,370.5 1022.2,370.5 1023.1,370.5 1024.0,370.5 1024.8,370.5 1025.7,370.5 1026.6,370.1 1027.4,370.3 1028.3,367.0 1029.2,366.2 1030.1,366.6 1030.9,367.3 1031.8,367.3 1032.7,367.7 1033.6,369.5 1034.4,370.6 1035.3,369.0 1036.2,366.1 1037.0,361.1 1037.9,361.7 1038.8,361.1 1039.7,361.5 1040.5,361.3 1041.4,363.9 1042.3,363.9 1043.1,362.4 1044.0,366.1 1044.9,364.6 1045.8,367.9 1046.6,365.7 1047.5,367.0 1048.4,367.9 1049.3,368.0 1050.1,368.0 1051.0,369.9 1051.9,368.8 1052.7,371.5 1053.6,365.6 1054.5,366.3 1055.4,364.8 1056.2,379.7 1057.1,378.3 1058.0,379.0 1058.8,379.1 1059.7,379.1 1060.6,379.1 1061.5,379.1 1062.3,379.1 1063.2,379.1 1064.1,379.1 1064.9,379.1 1065.8,379.1 1066.7,379.1 1067.6,379.1 1068.4,379.1 1069.3,379.1 1070.2,379.1 1071.1,379.1 1071.9,379.1 1072.8,379.1 1073.7,379.1 1074.5,379.1 1075.4,379.1 1076.3,379.1 1077.2,379.1 1078.0,379.1 1078.9,379.1 1079.8,379.1 1080.6,375.6 1081.5,371.9 1082.4,375.2 1083.3,373.6 1084.1,345.6 1085.0,350.4 1085.9,350.8 1086.7,350.3 1087.6,357.7 1088.5,358.0 1089.4,360.9 1090.2,363.3 1091.1,375.0 1092.0,374.7 1092.9,371.0 1093.7,370.7 1094.6,376.6 1095.5,379.3 1096.3,379.4 1097.2,379.4 1098.1,379.4 1099.0,379.4 1099.8,379.4 1100.7,379.4 1101.6,379.4 1102.4,386.4 1103.3,387.4 1104.2,388.7 1105.1,390.9 1105.9,391.2 1106.8,394.7 1107.7,398.5 1108.5,403.7 1109.4,405.7 1110.3,409.6 1111.2,411.3 1112.0,411.4 1112.9,411.4 1113.8,411.4 1114.7,411.4 1115.5,411.4 1116.4,411.4 1117.3,411.4 1118.1,411.4 1119.0,411.4 1119.9,411.4 1120.8,411.4 1121.6,411.4 1122.5,411.4 1123.4,411.4 1124.2,411.4 1125.1,411.4 1126.0,411.4 1126.9,411.4 1127.7,411.4 1128.6,411.4 1129.5,411.4 1130.4,411.4 1131.2,411.4 1132.1,411.4 1133.0,411.4 1133.8,411.4 1134.7,411.4 1135.6,411.4 1136.5,411.4 1137.3,411.4 1138.2,411.4 1139.1,411.4 1139.9,411.4 1140.8,411.4 1141.7,411.4 1142.6,411.4 1143.4,411.4 1144.3,416.4 1145.2,415.5 1146.0,418.0 1146.9,401.6 1147.8,401.1 1148.7,398.4 1149.5,396.2 1150.4,392.5 1151.3,395.7 1152.2,386.1 1153.0,387.1 1153.9,379.9 1154.8,384.9 1155.6,384.8 1156.5,385.9 1157.4,376.8 1158.3,379.9 1159.1,367.1 1160.0,367.1" />
<text x="90" y="442" font-size="12" fill="#64748b">2025-01-02</text>
<text x="583.0" y="442" font-size="12" fill="#64748b">2025-08-20</text>
<text x="1088" y="442" font-size="12" fill="#64748b">2026-04-13</text>
<text x="8" y="112" font-size="12" fill="#64748b">18.53%</text>
<text x="8" y="418" font-size="12" fill="#64748b">-33.34%</text>
<g><circle cx="122.3" cy="-15346.1" r="6" fill="#16a34a" stroke="#ffffff" stroke-width="2" /><text x="130.3" y="-15356.1" font-size="11" font-weight="700" fill="#16a34a">BUY</text></g>
<g><circle cx="152.8" cy="-15594.0" r="6" fill="#dc2626" stroke="#ffffff" stroke-width="2" /><text x="160.8" y="-15576.0" font-size="11" font-weight="700" fill="#dc2626">SELL</text></g>
<g><circle cx="158.0" cy="-16482.0" r="6" fill="#16a34a" stroke="#ffffff" stroke-width="2" /><text x="166.0" y="-16492.0" font-size="11" font-weight="700" fill="#16a34a">BUY</text></g>
<g><circle cx="192.9" cy="-17623.6" r="6" fill="#dc2626" stroke="#ffffff" stroke-width="2" /><text x="200.9" y="-17605.6" font-size="11" font-weight="700" fill="#dc2626">SELL</text></g>
<g><circle cx="198.1" cy="-20102.7" r="6" fill="#16a34a" stroke="#ffffff" stroke-width="2" /><text x="206.1" y="-20112.7" font-size="11" font-weight="700" fill="#16a34a">BUY</text></g>
<g><circle cx="213.8" cy="-18509.5" r="6" fill="#dc2626" stroke="#ffffff" stroke-width="2" /><text x="221.8" y="-18491.5" font-size="11" font-weight="700" fill="#dc2626">SELL</text></g>
<g><circle cx="255.7" cy="-18060.4" r="6" fill="#16a34a" stroke="#ffffff" stroke-width="2" /><text x="263.7" y="-18070.4" font-size="11" font-weight="700" fill="#16a34a">BUY</text></g>
<g><circle cx="261.8" cy="-17665.2" r="6" fill="#dc2626" stroke="#ffffff" stroke-width="2" /><text x="269.8" y="-17647.2" font-size="11" font-weight="700" fill="#dc2626">SELL</text></g>
<g><circle cx="294.1" cy="-17030.2" r="6" fill="#16a34a" stroke="#ffffff" stroke-width="2" /><text x="302.1" y="-17040.2" font-size="11" font-weight="700" fill="#16a34a">BUY</text></g>
<g><circle cx="301.0" cy="-14871.2" r="6" fill="#dc2626" stroke="#ffffff" stroke-width="2" /><text x="309.0" y="-14853.2" font-size="11" font-weight="700" fill="#dc2626">SELL</text></g>
<g><circle cx="318.5" cy="-15728.4" r="6" fill="#16a34a" stroke="#ffffff" stroke-width="2" /><text x="326.5" y="-15738.4" font-size="11" font-weight="700" fill="#16a34a">BUY</text></g>
<g><circle cx="326.3" cy="-15081.5" r="6" fill="#dc2626" stroke="#ffffff" stroke-width="2" /><text x="334.3" y="-15063.5" font-size="11" font-weight="700" fill="#dc2626">SELL</text></g>
<g><circle cx="338.5" cy="-15290.5" r="6" fill="#16a34a" stroke="#ffffff" stroke-width="2" /><text x="346.5" y="-15300.5" font-size="11" font-weight="700" fill="#16a34a">BUY</text></g>
<g><circle cx="349.0" cy="-15321.5" r="6" fill="#dc2626" stroke="#ffffff" stroke-width="2" /><text x="357.0" y="-15303.5" font-size="11" font-weight="700" fill="#dc2626">SELL</text></g>
<g><circle cx="363.8" cy="-15599.4" r="6" fill="#16a34a" stroke="#ffffff" stroke-width="2" /><text x="371.8" y="-15609.4" font-size="11" font-weight="700" fill="#16a34a">BUY</text></g>
<g><circle cx="376.9" cy="-15507.0" r="6" fill="#dc2626" stroke="#ffffff" stroke-width="2" /><text x="384.9" y="-15489.0" font-size="11" font-weight="700" fill="#dc2626">SELL</text></g>
<g><circle cx="381.3" cy="-15451.2" r="6" fill="#16a34a" stroke="#ffffff" stroke-width="2" /><text x="389.3" y="-15461.2" font-size="11" font-weight="700" fill="#16a34a">BUY</text></g>
<g><circle cx="384.8" cy="-15359.1" r="6" fill="#dc2626" stroke="#ffffff" stroke-width="2" /><text x="392.8" y="-15341.1" font-size="11" font-weight="700" fill="#dc2626">SELL</text></g>
<g><circle cx="424.9" cy="-14728.8" r="6" fill="#16a34a" stroke="#ffffff" stroke-width="2" /><text x="432.9" y="-14738.8" font-size="11" font-weight="700" fill="#16a34a">BUY</text></g>
<g><circle cx="430.1" cy="-14507.2" r="6" fill="#dc2626" stroke="#ffffff" stroke-width="2" /><text x="438.1" y="-14489.2" font-size="11" font-weight="700" fill="#dc2626">SELL</text></g>
<g><circle cx="437.1" cy="-14816.4" r="6" fill="#16a34a" stroke="#ffffff" stroke-width="2" /><text x="445.1" y="-14826.4" font-size="11" font-weight="700" fill="#16a34a">BUY</text></g>
<g><circle cx="449.3" cy="-14593.7" r="6" fill="#dc2626" stroke="#ffffff" stroke-width="2" /><text x="457.3" y="-14575.7" font-size="11" font-weight="700" fill="#dc2626">SELL</text></g>
<g><circle cx="485.9" cy="-14242.0" r="6" fill="#16a34a" stroke="#ffffff" stroke-width="2" /><text x="493.9" y="-14252.0" font-size="11" font-weight="700" fill="#16a34a">BUY</text></g>
<g><circle cx="505.1" cy="-14285.2" r="6" fill="#dc2626" stroke="#ffffff" stroke-width="2" /><text x="513.1" y="-14267.2" font-size="11" font-weight="700" fill="#dc2626">SELL</text></g>
<g><circle cx="519.0" cy="-14704.7" r="6" fill="#16a34a" stroke="#ffffff" stroke-width="2" /><text x="527.0" y="-14714.7" font-size="11" font-weight="700" fill="#16a34a">BUY</text></g>
<g><circle cx="552.2" cy="-14976.2" r="6" fill="#dc2626" stroke="#ffffff" stroke-width="2" /><text x="560.2" y="-14958.2" font-size="11" font-weight="700" fill="#dc2626">SELL</text></g>
<g><circle cx="562.6" cy="-15087.2" r="6" fill="#16a34a" stroke="#ffffff" stroke-width="2" /><text x="570.6" y="-15097.2" font-size="11" font-weight="700" fill="#16a34a">BUY</text></g>
<g><circle cx="581.0" cy="-14803.4" r="6" fill="#dc2626" stroke="#ffffff" stroke-width="2" /><text x="589.0" y="-14785.4" font-size="11" font-weight="700" fill="#dc2626">SELL</text></g>
<g><circle cx="593.2" cy="-14976.2" r="6" fill="#16a34a" stroke="#ffffff" stroke-width="2" /><text x="601.2" y="-14986.2" font-size="11" font-weight="700" fill="#16a34a">BUY</text></g>
<g><circle cx="599.3" cy="-14778.8" r="6" fill="#dc2626" stroke="#ffffff" stroke-width="2" /><text x="607.3" y="-14760.8" font-size="11" font-weight="700" fill="#dc2626">SELL</text></g>
<g><circle cx="603.6" cy="-15136.6" r="6" fill="#16a34a" stroke="#ffffff" stroke-width="2" /><text x="611.6" y="-15146.6" font-size="11" font-weight="700" fill="#16a34a">BUY</text></g>
<g><circle cx="645.5" cy="-17012.0" r="6" fill="#dc2626" stroke="#ffffff" stroke-width="2" /><text x="653.5" y="-16994.0" font-size="11" font-weight="700" fill="#dc2626">SELL</text></g>
<g><circle cx="663.8" cy="-16987.3" r="6" fill="#16a34a" stroke="#ffffff" stroke-width="2" /><text x="671.8" y="-16997.3" font-size="11" font-weight="700" fill="#16a34a">BUY</text></g>
<g><circle cx="666.4" cy="-16734.4" r="6" fill="#dc2626" stroke="#ffffff" stroke-width="2" /><text x="674.4" y="-16716.4" font-size="11" font-weight="700" fill="#dc2626">SELL</text></g>
<g><circle cx="683.0" cy="-17277.3" r="6" fill="#16a34a" stroke="#ffffff" stroke-width="2" /><text x="691.0" y="-17287.3" font-size="11" font-weight="700" fill="#16a34a">BUY</text></g>
<g><circle cx="710.0" cy="-17647.4" r="6" fill="#dc2626" stroke="#ffffff" stroke-width="2" /><text x="718.0" y="-17629.4" font-size="11" font-weight="700" fill="#dc2626">SELL</text></g>
<g><circle cx="716.1" cy="-19430.3" r="6" fill="#16a34a" stroke="#ffffff" stroke-width="2" /><text x="724.1" y="-19440.3" font-size="11" font-weight="700" fill="#16a34a">BUY</text></g>
<g><circle cx="723.1" cy="-18350.7" r="6" fill="#dc2626" stroke="#ffffff" stroke-width="2" /><text x="731.1" y="-18332.7" font-size="11" font-weight="700" fill="#dc2626">SELL</text></g>
<g><circle cx="731.0" cy="-19078.7" r="6" fill="#16a34a" stroke="#ffffff" stroke-width="2" /><text x="739.0" y="-19088.7" font-size="11" font-weight="700" fill="#16a34a">BUY</text></g>
<g><circle cx="735.3" cy="-17369.8" r="6" fill="#dc2626" stroke="#ffffff" stroke-width="2" /><text x="743.3" y="-17351.8" font-size="11" font-weight="700" fill="#dc2626">SELL</text></g>
<g><circle cx="771.1" cy="-17104.5" r="6" fill="#16a34a" stroke="#ffffff" stroke-width="2" /><text x="779.1" y="-17114.5" font-size="11" font-weight="700" fill="#16a34a">BUY</text></g>
<g><circle cx="785.9" cy="-16549.3" r="6" fill="#dc2626" stroke="#ffffff" stroke-width="2" /><text x="793.9" y="-16531.3" font-size="11" font-weight="700" fill="#dc2626">SELL</text></g>
<g><circle cx="848.7" cy="-15272.3" r="6" fill="#16a34a" stroke="#ffffff" stroke-width="2" /><text x="856.7" y="-15282.3" font-size="11" font-weight="700" fill="#16a34a">BUY</text></g>
<g><circle cx="867.0" cy="-15093.4" r="6" fill="#dc2626" stroke="#ffffff" stroke-width="2" /><text x="875.0" y="-15075.4" font-size="11" font-weight="700" fill="#dc2626">SELL</text></g>
<g><circle cx="878.3" cy="-15704.1" r="6" fill="#16a34a" stroke="#ffffff" stroke-width="2" /><text x="886.3" y="-15714.1" font-size="11" font-weight="700" fill="#16a34a">BUY</text></g>
<g><circle cx="888.8" cy="-14982.3" r="6" fill="#dc2626" stroke="#ffffff" stroke-width="2" /><text x="896.8" y="-14964.3" font-size="11" font-weight="700" fill="#dc2626">SELL</text></g>
<g><circle cx="911.5" cy="-15161.2" r="6" fill="#16a34a" stroke="#ffffff" stroke-width="2" /><text x="919.5" y="-15171.2" font-size="11" font-weight="700" fill="#16a34a">BUY</text></g>
<g><circle cx="936.8" cy="-14994.7" r="6" fill="#dc2626" stroke="#ffffff" stroke-width="2" /><text x="944.8" y="-14976.7" font-size="11" font-weight="700" fill="#dc2626">SELL</text></g>
<g><circle cx="940.2" cy="-15346.3" r="6" fill="#16a34a" stroke="#ffffff" stroke-width="2" /><text x="948.2" y="-15356.3" font-size="11" font-weight="700" fill="#16a34a">BUY</text></g>
<g><circle cx="982.1" cy="-16339.6" r="6" fill="#dc2626" stroke="#ffffff" stroke-width="2" /><text x="990.1" y="-16321.6" font-size="11" font-weight="700" fill="#dc2626">SELL</text></g>
<g><circle cx="1027.4" cy="-15309.3" r="6" fill="#16a34a" stroke="#ffffff" stroke-width="2" /><text x="1035.4" y="-15319.3" font-size="11" font-weight="700" fill="#16a34a">BUY</text></g>
<g><circle cx="1050.1" cy="-15562.2" r="6" fill="#dc2626" stroke="#ffffff" stroke-width="2" /><text x="1058.1" y="-15544.2" font-size="11" font-weight="700" fill="#dc2626">SELL</text></g>
<g><circle cx="1051.9" cy="-15623.9" r="6" fill="#16a34a" stroke="#ffffff" stroke-width="2" /><text x="1059.9" y="-15633.9" font-size="11" font-weight="700" fill="#16a34a">BUY</text></g>
<g><circle cx="1059.7" cy="-15315.5" r="6" fill="#dc2626" stroke="#ffffff" stroke-width="2" /><text x="1067.7" y="-15297.5" font-size="11" font-weight="700" fill="#dc2626">SELL</text></g>
<g><circle cx="1081.5" cy="-15278.5" r="6" fill="#16a34a" stroke="#ffffff" stroke-width="2" /><text x="1089.5" y="-15288.5" font-size="11" font-weight="700" fill="#16a34a">BUY</text></g>
<g><circle cx="1097.2" cy="-14970.0" r="6" fill="#dc2626" stroke="#ffffff" stroke-width="2" /><text x="1105.2" y="-14952.0" font-size="11" font-weight="700" fill="#dc2626">SELL</text></g>
<g><circle cx="1103.3" cy="-16382.7" r="6" fill="#16a34a" stroke="#ffffff" stroke-width="2" /><text x="1111.3" y="-16392.7" font-size="11" font-weight="700" fill="#16a34a">BUY</text></g>
<g><circle cx="1112.9" cy="-15580.7" r="6" fill="#dc2626" stroke="#ffffff" stroke-width="2" /><text x="1120.9" y="-15562.7" font-size="11" font-weight="700" fill="#dc2626">SELL</text></g>
<g><circle cx="1145.2" cy="-15358.7" r="6" fill="#16a34a" stroke="#ffffff" stroke-width="2" /><text x="1153.2" y="-15368.7" font-size="11" font-weight="700" fill="#16a34a">BUY</text></g>
<text x="40" y="732" font-size="13" fill="#334155">初始资金 1,000,000.00 | 结束资金 749,116.86 | 总盈亏 -250,883.14</text>
</svg>