<?xml version="1.0" encoding="UTF-8"?>
<svg xmlns="http://www.w3.org/2000/svg" width="1200" height="760" viewBox="0 0 1200 760">
<rect width="100%" height="100%" fill="#f8fafc" />
<text x="40" y="36" font-size="24" font-weight="700" fill="#111827">收益曲线</text>
<text x="40" y="58" font-size="13" fill="#6b7280">区间 2025-01-02 -&gt; 2026-04-13 | 累计收益曲线（下一根K线生效）</text>
<g transform="translate(930,18)">
<rect x="0" y="0" width="220" height="56" rx="10" fill="#ffffff" stroke="#e2e8f0" />
<circle cx="18" cy="20" r="5" fill="#16a34a" />
<text x="30" y="24" font-size="12" fill="#334155">BUY: 开仓</text>
<circle cx="18" cy="40" r="5" fill="#dc2626" />
<text x="30" y="44" font-size="12" fill="#334155">SELL: 平仓</text>
</g>
<text x="40" y="84" font-size="16" font-weight="700" fill="#111827">累计收益</text>
<line x1="90" y1="418" x2="1160" y2="418" stroke="#94a3b8" stroke-width="1.5" />
<line x1="90" y1="98" x2="90" y2="418" stroke="#cbd5e1" stroke-width="1" />
<line x1="90" y1="418" x2="1160" y2="418" stroke="#cbd5e1" stroke-width="1" />
<path d="M 90.0,418.0 L 90.0,199.6 L 90.9,199.6 L 91.7,199.6 L 92.6,199.6 L 93.5,199.6 L 94.4,199.6 L 95.2,199.6 L 96.1,199.6 L 97.0,199.6 L 97.8,199.6 L 98.7,199.6 L 99.6,199.6 L 100.5,199.6 L 101.3,199.6 L 102.2,199.6 L 103.1,199.6 L 104.0,199.6 L 104.8,199.6 L 105.7,199.6 L 106.6,199.6 L 107.4,199.6 L 108.3,199.6 L 109.2,199.6 L 110.1,199.6 L 110.9,199.6 L 111.8,199.6 L 112.7,199.6 L 113.5,199.6 L 114.4,199.6 L 115.3,199.6 L 116.2,199.6 L 117.0,199.6 L 117.9,199.6 L 118.8,199.6 L 119.6,199.6 L 120.5,199.6 L 121.4,202.3 L 122.3,203.0 L 123.1,203.4 L 124.0,204.7 L 124.9,202.3 L 125.8,209.4 L 126.6,209.4 L 127.5,204.9 L 128.4,204.9 L 129.2,198.8 L 130.1,197.8 L 131.0,199.9 L 131.9,195.2 L 132.7,194.5 L 133.6,193.0 L 134.5,195.8 L 135.3,193.4 L 136.2,177.7 L 137.1,184.1 L 138.0,177.9 L 138.8,181.7 L 139.7,171.2 L 140.6,172.9 L 141.5,173.5 L 142.3,173.4 L 143.2,175.1 L 144.1,186.1 L 144.9,186.5 L 145.8,180.0 L 146.7,174.0 L 147.6,174.6 L 148.4,169.7 L 149.3,189.6 L 150.2,194.8 L 151.0,200.8 L 151.9,200.9 L 152.8,200.9 L 153.7,200.9 L 154.5,200.9 L 155.4,200.9 L 156.3,200.9 L 157.1,193.0 L 158.0,190.2 L 158.9,187.9 L 159.8,181.8 L 160.6,160.5 L 161.5,173.6 L 162.4,170.7 L 163.3,160.7 L 164.1,165.0 L 165.0,167.2 L 165.9,165.4 L 166.7,162.7 L 167.6,151.7 L 168.5,162.1 L 169.4,165.4 L 170.2,152.3 L 171.1,152.7 L 172.0,154.3 L 172.8,150.8 L 173.7,166.8 L 174.6,165.8 L 175.5,160.7 L 176.3,163.7 L 177.2,147.5 L 178.1,139.1 L 178.9,144.4 L 179.8,126.9 L 180.7,98.0 L 181.6,102.1 L 182.4,120.3 L 183.3,114.6 L 184.2,135.3 L 185.1,137.3 L 185.9,148.0 L 186.8,151.2 L 187.7,132.0 L 188.5,135.1 L 189.4,135.7 L 190.3,136.9 L 191.2,146.9 L 192.0,147.1 L 192.9,147.1 L 193.8,147.1 L 194.6,147.1 L 195.5,147.1 L 196.4,147.1 L 197.3,137.0 L 198.1,117.0 L 199.0,124.2 L 199.9,125.7 L 200.7,126.0 L 201.6,129.6 L 202.5,104.0 L 203.4,118.7 L 204.2,123.8 L 205.1,136.4 L 206.0,134.1 L 206.9,125.7 L 207.7,126.6 L 208.6,151.6 L 209.5,154.6 L 210.3,153.2 L 211.2,151.2 L 212.1,176.0 L 213.0,176.1 L 213.8,176.1 L 214.7,176.1 L 215.6,176.1 L 216.4,176.1 L 217.3,176.1 L 218.2,176.1 L 219.1,176.1 L 219.9,176.1 L 220.8,176.1 L 221.7,176.1 L 222.6,176.1 L 223.4,176.1 L 224.3,176.1 L 225.2,176.1 L 226.0,176.1 L 226.9,176.1 L 227.8,176.1 L 228.7,176.1 L 229.5,184.8 L 230.4,187.0 L 231.3,189.7 L 232.1,192.6 L 233.0,200.5 L 233.9,204.2 L 234.8,206.8 L 235.6,206.9 L 236.5,206.9 L 237.4,206.9 L 238.2,206.9 L 239.1,206.9 L 240.0,206.9 L 240.9,206.9 L 241.7,206.9 L 242.6,206.9 L 243.5,206.9 L 244.4,206.9 L 245.2,206.9 L 246.1,206.9 L 247.0,206.9 L 247.8,206.9 L 248.7,206.9 L 249.6,206.9 L 250.5,206.9 L 251.3,206.9 L 252.2,206.9 L 253.1,206.9 L 253.9,206.9 L 254.8,209.4 L 255.7,211.0 L 256.6,213.0 L 257.4,221.4 L 258.3,221.7 L 259.2,222.3 L 260.0,222.3 L 260.9,222.4 L 261.8,222.4 L 262.7,222.4 L 263.5,222.4 L 264.4,222.4 L 265.3,222.4 L 266.2,222.4 L 267.0,222.4 L 267.9,222.4 L 268.8,222.4 L 269.6,222.4 L 270.5,222.4 L 271.4,222.4 L 272.3,222.4 L 273.1,222.4 L 274.0,222.4 L 274.9,222.4 L 275.7,222.4 L 276.6,222.4 L 277.5,222.4 L 278.4,222.4 L 279.2,222.4 L 280.1,222.4 L 281.0,222.4 L 281.9,222.4 L 282.7,222.4 L 283.6,222.4 L 284.5,222.4 L 285.3,222.4 L 286.2,222.4 L 287.1,222.4 L 288.0,222.4 L 288.8,222.4 L 289.7,222.4 L 290.6,222.4 L 291.4,223.3 L 292.3,208.3 L 293.2,209.8 L 294.1,212.7 L 294.9,212.5 L 295.8,216.9 L 296.7,224.4 L 297.5,225.8 L 298.4,226.1 L 299.3,268.7 L 300.2,268.8 L 301.0,268.8 L 301.9,268.8 L 302.8,268.8 L 303.7,268.8 L 304.5,268.8 L 305.4,268.8 L 306.3,268.8 L 307.1,268.8 L 308.0,268.8 L 308.9,268.8 L 309.8,268.8 L 310.6,268.8 L 311.5,268.8 L 312.4,268.8 L 313.2,268.8 L 314.1,268.8 L 315.0,268.8 L 315.9,268.8 L 316.7,268.8 L 317.6,269.6 L 318.5,272.8 L 319.3,273.5 L 320.2,274.3 L 321.1,273.9 L 322.0,274.1 L 322.8,273.3 L 323.7,283.0 L 324.6,288.9 L 325.5,289.0 L 326.3,289.0 L 327.2,289.0 L 328.1,289.0 L 328.9,289.0 L 329.8,289.0 L 330.7,289.0 L 331.6,289.0 L 332.4,289.0 L 333.3,289.0 L 334.2,289.0 L 335.0,289.0 L 335.9,289.0 L 336.8,289.0 L 337.7,295.7 L 338.5,299.5 L 339.4,297.0 L 340.3,297.9 L 341.1,294.3 L 342.0,292.3 L 342.9,290.9 L 343.8,292.3 L 344.6,295.7 L 345.5,300.2 L 346.4,299.5 L 347.3,299.9 L 348.1,299.9 L 349.0,299.9 L 349.9,299.9 L 350.7,299.9 L 351.6,299.9 L 352.5,299.9 L 353.4,299.9 L 354.2,299.9 L 355.1,299.9 L 356.0,299.9 L 356.8,299.9 L 357.7,299.9 L 358.6,299.9 L 359.5,299.9 L 360.3,299.9 L 361.2,299.9 L 362.1,290.6 L 363.0,289.8 L 363.8,290.7 L 364.7,289.0 L 365.6,291.5 L 366.4,291.6 L 367.3,293.9 L 368.2,291.1 L 369.1,290.2 L 369.9,288.1 L 370.8,289.5 L 371.7,289.7 L 372.5,295.9 L 373.4,298.2 L 374.3,296.1 L 375.2,299.0 L 376.0,299.0 L 376.9,299.0 L 377.8,299.0 L 378.6,299.0 L 379.5,299.0 L 380.4,301.9 L 381.3,300.7 L 382.1,302.5 L 383.0,303.5 L 383.9,303.6 L 384.8,303.6 L 385.6,303.6 L 386.5,303.6 L 387.4,303.6 L 388.2,303.6 L 389.1,303.6 L 390.0,303.6 L 390.9,303.6 L 391.7,303.6 L 392.6,303.6 L 393.5,303.6 L 394.3,303.6 L 395.2,303.6 L 396.1,303.6 L 397.0,303.6 L 397.8,303.6 L 398.7,303.6 L 399.6,303.6 L 400.4,303.6 L 401.3,303.6 L 402.2,303.6 L 403.1,303.6 L 403.9,303.6 L 404.8,303.6 L 405.7,303.6 L 406.6,303.6 L 407.4,303.6 L 408.3,303.6 L 409.2,303.6 L 410.0,303.6 L 410.9,303.6 L 411.8,303.6 L 412.7,303.6 L 413.5,303.6 L 414.4,303.6 L 415.3,303.6 L 416.1,303.6 L 417.0,303.6 L 417.9,303.6 L 418.8,303.6 L 419.6,303.6 L 420.5,303.6 L 421.4,303.6 L 422.2,303.6 L 423.1,303.6 L 424.0,303.5 L 424.9,311.2 L 425.7,310.3 L 426.6,310.8 L 427.5,310.3 L 428.4,311.7 L 429.2,311.8 L 430.1,311.8 L 431.0,311.8 L 431.8,311.8 L 432.7,311.8 L 433.6,312.6 L 434.5,313.0 L 435.3,309.3 L 436.2,307.9 L 437.1,303.8 L 437.9,302.7 L 438.8,305.2 L 439.7,303.4 L 440.6,304.5 L 441.4,302.7 L 442.3,301.4 L 443.2,301.4 L 444.1,302.9 L 444.9,300.9 L 445.8,310.3 L 446.7,310.3 L 447.5,314.6 L 448.4,314.7 L 449.3,314.7 L 450.2,314.7 L 451.0,314.7 L 451.9,314.7 L 452.8,314.7 L 453.6,314.7 L 454.5,314.7 L 455.4,314.7 L 456.3,314.7 L 457.1,314.7 L 458.0,314.7 L 458.9,314.7 L 459.7,314.7 L 460.6,314.7 L 461.5,314.7 L 462.4,314.7 L 463.2,314.7 L 464.1,314.7 L 465.0,314.7 L 465.9,314.7 L 466.7,314.7 L 467.6,314.7 L 468.5,314.7 L 469.3,314.7 L 470.2,314.7 L 471.1,314.7 L 472.0,314.7 L 472.8,314.7 L 473.7,314.7 L 474.6,314.7 L 475.4,314.7 L 476.3,314.7 L 477.2,314.7 L 478.1,314.7 L 478.9,314.7 L 479.8,314.7 L 480.7,314.7 L 481.5,314.7 L 482.4,313.8 L 483.3,313.5 L 484.2,313.5 L 485.0,311.6 L 485.9,309.7 L 486.8,306.2 L 487.7,305.5 L 488.5,303.6 L 489.4,307.3 L 490.3,308.8 L 491.1,305.5 L 492.0,304.0 L 492.9,307.5 L 493.8,307.1 L 494.6,302.7 L 495.5,301.7 L 496.4,302.3 L 497.2,301.0 L 498.1,303.6 L 499.0,306.6 L 499.9,303.0 L 500.7,303.6 L 501.6,309.0 L 502.5,309.6 L 503.3,312.0 L 504.2,312.1 L 505.1,312.1 L 506.0,312.1 L 506.8,312.1 L 507.7,312.1 L 508.6,315.4 L 509.5,313.4 L 510.3,313.4 L 511.2,316.5 L 512.1,320.7 L 512.9,320.8 L 513.8,320.8 L 514.7,320.8 L 515.6,320.8 L 516.4,320.8 L 517.3,320.8 L 518.2,320.7 L 519.0,320.7 L 519.9,322.1 L 520.8,321.1 L 521.7,323.9 L 522.5,323.0 L 523.4,324.8 L 524.3,322.7 L 525.2,323.0 L 526.0,319.5 L 526.9,319.3 L 527.8,318.6 L 528.6,319.3 L 529.5,318.8 L 530.4,320.0 L 531.3,319.7 L 532.1,320.9 L 533.0,308.7 L 533.9,313.1 L 534.7,310.1 L 535.6,308.5 L 536.5,309.8 L 537.4,309.6 L 538.2,311.7 L 539.1,311.7 L 540.0,308.9 L 540.8,307.3 L 541.7,305.7 L 542.6,305.5 L 543.5,306.8 L 544.3,308.5 L 545.2,310.1 L 546.1,308.5 L 547.0,313.7 L 547.8,313.7 L 548.7,311.7 L 549.6,310.8 L 550.4,314.0 L 551.3,314.1 L 552.2,314.1 L 553.1,314.1 L 553.9,314.1 L 554.8,314.1 L 555.7,314.1 L 556.5,314.1 L 557.4,314.1 L 558.3,314.1 L 559.2,314.1 L 560.0,314.1 L 560.9,314.1 L 561.8,315.9 L 562.6,314.5 L 563.5,311.6 L 564.4,315.0 L 565.3,316.4 L 566.1,315.9 L 567.0,315.0 L 567.9,319.2 L 568.8,315.6 L 569.6,313.1 L 570.5,310.5 L 571.4,315.7 L 572.2,314.5 L 573.1,317.1 L 574.0,316.6 L 574.9,307.7 L 575.7,309.1 L 576.6,311.7 L 577.5,317.0 L 578.3,314.7 L 579.2,322.5 L 580.1,322.6 L 581.0,322.6 L 581.8,322.6 L 582.7,322.6 L 583.6,322.6 L 584.4,322.6 L 585.3,322.6 L 586.2,322.6 L 587.1,322.6 L 587.9,322.6 L 588.8,322.6 L 589.7,322.6 L 590.6,322.6 L 591.4,322.6 L 592.3,327.3 L 593.2,325.6 L 594.0,325.8 L 594.9,325.3 L 595.8,331.1 L 596.7,330.6 L 597.5,333.0 L 598.4,333.0 L 599.3,333.0 L 600.1,333.0 L 601.0,333.0 L 601.9,333.0 L 602.8,331.8 L 603.6,331.4 L 604.5,330.3 L 605.4,330.1 L 606.3,323.3 L 607.1,323.9 L 608.0,325.6 L 608.9,324.3 L 609.7,321.6 L 610.6,324.6 L 611.5,325.1 L 612.4,327.8 L 613.2,324.6 L 614.1,323.1 L 615.0,323.9 L 615.8,323.1 L 616.7,304.2 L 617.6,301.4 L 618.5,304.2 L 619.3,305.4 L 620.2,308.4 L 621.1,306.9 L 621.9,310.4 L 622.8,309.7 L 623.7,307.2 L 624.6,308.2 L 625.4,288.8 L 626.3,284.5 L 627.2,282.5 L 628.1,287.3 L 628.9,290.1 L 629.8,292.2 L 630.7,277.8 L 631.5,274.3 L 632.4,273.8 L 633.3,271.3 L 634.2,269.2 L 635.0,273.9 L 635.9,274.4 L 636.8,269.2 L 637.6,273.6 L 638.5,272.1 L 639.4,270.8 L 640.3,275.4 L 641.1,275.1 L 642.0,270.9 L 642.9,279.1 L 643.7,288.5 L 644.6,288.6 L 645.5,288.6 L 646.4,288.6 L 647.2,288.6 L 648.1,288.6 L 649.0,288.6 L 649.9,288.6 L 650.7,288.6 L 651.6,288.6 L 652.5,288.6 L 653.3,288.0 L 654.2,289.0 L 655.1,305.2 L 656.0,313.7 L 656.8,315.3 L 657.7,315.5 L 658.6,315.6 L 659.4,315.6 L 660.3,315.6 L 661.2,315.8 L 662.1,313.7 L 662.9,327.6 L 663.8,331.5 L 664.7,330.9 L 665.6,331.0 L 666.4,331.0 L 667.3,331.0 L 668.2,331.0 L 669.0,331.0 L 669.9,331.0 L 670.8,331.0 L 671.7,331.0 L 672.5,331.0 L 673.4,331.0 L 674.3,331.0 L 675.1,331.0 L 676.0,331.0 L 676.9,331.0 L 677.8,331.0 L 678.6,331.0 L 679.5,331.0 L 680.4,331.0 L 681.2,331.0 L 682.1,328.0 L 683.0,324.2 L 683.9,314.5 L 684.7,316.7 L 685.6,319.0 L 686.5,324.9 L 687.4,323.6 L 688.2,324.2 L 689.1,326.6 L 690.0,317.6 L 690.8,321.1 L 691.7,311.1 L 692.6,313.8 L 693.5,323.9 L 694.3,319.8 L 695.2,317.7 L 696.1,317.1 L 696.9,299.4 L 697.8,300.1 L 698.7,290.0 L 699.6,294.7 L 700.4,295.2 L 701.3,301.9 L 702.2,306.9 L 703.0,306.3 L 703.9,298.1 L 704.8,306.9 L 705.7,304.1 L 706.5,301.6 L 707.4,318.3 L 708.3,323.0 L 709.2,323.1 L 710.0,323.1 L 710.9,323.1 L 711.8,323.1 L 712.6,323.1 L 713.5,323.1 L 714.4,323.1 L 715.3,319.9 L 716.1,321.9 L 717.0,324.5 L 717.9,342.5 L 718.7,343.3 L 719.6,342.6 L 720.5,345.7 L 721.4,342.0 L 722.2,342.0 L 723.1,342.0 L 724.0,342.0 L 724.8,342.0 L 725.7,342.0 L 726.6,342.0 L 727.5,342.0 L 728.3,342.0 L 729.2,342.0 L 730.1,346.7 L 731.0,349.7 L 731.8,364.2 L 732.7,368.0 L 733.6,368.5 L 734.4,368.6 L 735.3,368.6 L 736.2,368.6 L 737.1,368.6 L 737.9,368.6 L 738.8,368.6 L 739.7,368.6 L 740.5,368.6 L 741.4,368.6 L 742.3,368.6 L 743.2,368.6 L 744.0,368.6 L 744.9,368.6 L 745.8,368.6 L 746.7,368.6 L 747.5,368.6 L 748.4,368.6 L 749.3,368.6 L 750.1,368.6 L 751.0,368.6 L 751.9,368.6 L 752.8,368.6 L 753.6,368.6 L 754.5,368.6 L 755.4,368.6 L 756.2,368.6 L 757.1,368.6 L 758.0,368.6 L 758.9,368.6 L 759.7,368.6 L 760.6,368.6 L 761.5,368.6 L 762.3,368.6 L 763.2,368.6 L 764.1,368.6 L 765.0,368.6 L 765.8,368.6 L 766.7,368.6 L 767.6,368.6 L 768.5,368.6 L 769.3,368.6 L 770.2,369.2 L 771.1,367.2 L 771.9,368.0 L 772.8,362.6 L 773.7,363.6 L 774.6,361.4 L 775.4,365.4 L 776.3,365.7 L 777.2,368.5 L 778.0,365.4 L 778.9,364.5 L 779.8,363.3 L 780.7,365.4 L 781.5,366.3 L 782.4,364.4 L 783.3,368.8 L 784.1,379.7 L 785.0,379.8 L 785.9,379.8 L 786.8,379.8 L 787.6,379.8 L 788.5,379.8 L 789.4,379.8 L 790.3,379.8 L 791.1,379.8 L 792.0,379.8 L 792.9,379.8 L 793.7,379.8 L 794.6,379.8 L 795.5,379.8 L 796.4,379.8 L 797.2,379.8 L 798.1,379.8 L 799.0,379.8 L 799.8,379.8 L 800.7,379.8 L 801.6,379.8 L 802.5,379.8 L 803.3,379.8 L 804.2,379.8 L 805.1,379.8 L 805.9,379.8 L 806.8,379.8 L 807.7,379.8 L 808.6,379.8 L 809.4,379.8 L 810.3,379.8 L 811.2,379.8 L 812.1,379.8 L 812.9,379.8 L 813.8,379.8 L 814.7,379.8 L 815.5,379.8 L 816.4,379.8 L 817.3,379.8 L 818.2,379.8 L 819.0,379.8 L 819.9,379.8 L 820.8,379.8 L 821.6,379.8 L 822.5,379.8 L 823.4,379.8 L 824.3,379.8 L 825.1,379.8 L 826.0,379.8 L 826.9,379.8 L 827.8,379.8 L 828.6,379.8 L 829.5,379.8 L 830.4,379.8 L 831.2,379.8 L 832.1,379.8 L 833.0,379.8 L 833.9,379.8 L 834.7,379.8 L 835.6,379.8 L 836.5,379.8 L 837.3,379.8 L 838.2,379.8 L 839.1,379.8 L 840.0,379.8 L 840.8,379.8 L 841.7,379.8 L 842.6,379.8 L 843.4,379.8 L 844.3,379.8 L 845.2,379.8 L 846.1,379.8 L 846.9,379.8 L 847.8,379.7 L 848.7,381.1 L 849.6,381.4 L 850.4,378.7 L 851.3,380.3 L 852.2,381.1 L 853.0,384.0 L 853.9,383.7 L 854.8,382.5 L 855.7,382.7 L 856.5,382.2 L 857.4,376.1 L 858.3,374.5 L 859.1,376.1 L 860.0,374.3 L 860.9,378.4 L 861.8,379.0 L 862.6,379.0 L 863.5,379.4 L 864.4,383.4 L 865.2,382.1 L 866.1,382.2 L 867.0,382.2 L 867.9,382.2 L 868.7,382.2 L 869.6,382.2 L 870.5,382.2 L 871.4,382.2 L 872.2,382.2 L 873.1,382.2 L 874.0,382.2 L 874.8,382.2 L 875.7,382.2 L 876.6,382.1 L 877.5,382.4 L 878.3,380.1 L 879.2,379.4 L 880.1,382.2 L 880.9,381.7 L 881.8,384.8 L 882.7,384.7 L 883.6,383.8 L 884.4,381.4 L 885.3,385.4 L 886.2,389.1 L 887.0,390.1 L 887.9,390.2 L 888.8,390.2 L 889.7,390.2 L 890.5,390.2 L 891.4,390.2 L 892.3,390.2 L 893.2,390.2 L 894.0,390.2 L 894.9,390.2 L 895.8,390.2 L 896.6,390.2 L 897.5,390.2 L 898.4,390.2 L 899.3,390.2 L 900.1,390.2 L 901.0,390.2 L 901.9,390.2 L 902.7,390.2 L 903.6,390.2 L 904.5,390.2 L 905.4,390.2 L 906.2,390.2 L 907.1,390.2 L 908.0,390.2 L 908.9,390.2 L 909.7,390.2 L 910.6,388.6 L 911.5,389.4 L 912.3,389.8 L 913.2,390.3 L 914.1,391.3 L 915.0,392.3 L 915.8,391.9 L 916.7,395.8 L 917.6,393.9 L 918.4,393.5 L 919.3,392.6 L 920.2,394.3 L 921.1,393.9 L 921.9,392.2 L 922.8,392.7 L 923.7,389.6 L 924.5,392.0 L 925.4,390.9 L 926.3,390.9 L 927.2,389.1 L 928.0,388.8 L 928.9,390.1 L 929.8,391.0 L 930.7,390.0 L 931.5,391.4 L 932.4,391.0 L 933.3,391.3 L 934.1,392.2 L 935.0,392.7 L 935.9,392.8 L 936.8,392.8 L 937.6,392.8 L 938.5,392.8 L 939.4,392.5 L 940.2,391.9 L 941.1,391.0 L 942.0,390.5 L 942.9,390.3 L 943.7,388.5 L 944.6,389.1 L 945.5,387.8 L 946.3,390.3 L 947.2,389.8 L 948.1,383.6 L 949.0,384.1 L 949.8,384.6 L 950.7,385.7 L 951.6,381.2 L 952.5,384.7 L 953.3,383.1 L 954.2,382.6 L 955.1,367.6 L 955.9,367.5 L 956.8,367.6 L 957.7,367.2 L 958.6,373.8 L 959.4,374.3 L 960.3,375.4 L 961.2,378.9 L 962.0,369.1 L 962.9,364.4 L 963.8,373.1 L 964.7,366.1 L 965.5,369.9 L 966.4,372.3 L 967.3,370.6 L 968.1,368.8 L 969.0,367.1 L 969.9,368.2 L 970.8,365.8 L 971.6,366.2 L 972.5,361.0 L 973.4,363.3 L 974.3,354.7 L 975.1,355.7 L 976.0,363.8 L 976.9,365.8 L 977.7,367.9 L 978.6,370.7 L 979.5,367.9 L 980.4,369.5 L 981.2,369.6 L 982.1,369.6 L 983.0,369.6 L 983.8,369.6 L 984.7,369.6 L 985.6,369.6 L 986.5,369.6 L 987.3,369.6 L 988.2,369.6 L 989.1,369.6 L 990.0,369.6 L 990.8,369.6 L 991.7,369.6 L 992.6,369.6 L 993.4,369.6 L 994.3,369.6 L 995.2,369.6 L 996.1,369.6 L 996.9,369.6 L 997.8,369.6 L 998.7,369.6 L 999.5,369.6 L 1000.4,369.6 L 1001.3,369.6 L 1002.2,369.6 L 1003.0,369.6 L 1003.9,369.6 L 1004.8,369.6 L 1005.6,369.6 L 1006.5,369.6 L 1007.4,369.6 L 1008.3,369.6 L 1009.1,369.6 L 1010.0,369.6 L 1010.9,369.6 L 1011.8,369.6 L 1012.6,369.6 L 1013.5,369.6 L 1014.4,369.6 L 1015.2,369.6 L 1016.1,369.6 L 1017.0,369.6 L 1017.9,369.6 L 1018.7,369.6 L 1019.6,369.6 L 1020.5,369.6 L 1021.3,369.6 L 1022.2,369.6 L 1023.1,369.6 L 1024.0,369.6 L 1024.8,369.6 L 1025.7,369.6 L 1026.6,369.2 L 1027.4,369.3 L 1028.3,366.6 L 1029.2,366.0 L 1030.1,366.3 L 1030.9,366.9 L 1031.8,366.9 L 1032.7,367.2 L 1033.6,368.7 L 1034.4,369.6 L 1035.3,368.3 L 1036.2,365.9 L 1037.0,361.8 L 1037.9,362.3 L 1038.8,361.8 L 1039.7,362.1 L 1040.5,362.0 L 1041.4,364.1 L 1042.3,364.1 L 1043.1,362.9 L 1044.0,365.9 L 1044.9,364.7 L 1045.8,367.4 L 1046.6,365.6 L 1047.5,366.6 L 1048.4,367.4 L 1049.3,367.4 L 1050.1,367.4 L 1051.0,369.0 L 1051.9,368.1 L 1052.7,370.3 L 1053.6,365.5 L 1054.5,366.0 L 1055.4,364.9 L 1056.2,377.1 L 1057.1,375.9 L 1058.0,376.5 L 1058.8,376.6 L 1059.7,376.6 L 1060.6,376.6 L 1061.5,376.6 L 1062.3,376.6 L 1063.2,376.6 L 1064.1,376.6 L 1064.9,376.6 L 1065.8,376.6 L 1066.7,376.6 L 1067.6,376.6 L 1068.4,376.6 L 1069.3,376.6 L 1070.2,376.6 L 1071.1,376.6 L 1071.9,376.6 L 1072.8,376.6 L 1073.7,376.6 L 1074.5,376.6 L 1075.4,376.6 L 1076.3,376.6 L 1077.2,376.6 L 1078.0,376.6 L 1078.9,375.2 L 1079.8,373.1 L 1080.6,370.1 L 1081.5,367.0 L 1082.4,369.8 L 1083.3,368.4 L 1084.1,345.1 L 1085.0,349.2 L 1085.9,349.5 L 1086.7,349.0 L 1087.6,355.2 L 1088.5,355.5 L 1089.4,357.9 L 1090.2,359.8 L 1091.1,369.6 L 1092.0,369.3 L 1092.9,366.3 L 1093.7,366.0 L 1094.6,371.0 L 1095.5,373.2 L 1096.3,373.3 L 1097.2,373.3 L 1098.1,373.3 L 1099.0,373.3 L 1099.8,373.3 L 1100.7,373.3 L 1101.6,373.3 L 1102.4,379.1 L 1103.3,379.9 L 1104.2,381.0 L 1105.1,382.8 L 1105.9,383.1 L 1106.8,386.0 L 1107.7,389.1 L 1108.5,393.5 L 1109.4,395.1 L 1110.3,398.4 L 1111.2,399.8 L 1112.0,399.9 L 1112.9,399.9 L 1113.8,399.9 L 1114.7,399.9 L 1115.5,399.9 L 1116.4,399.9 L 1117.3,399.9 L 1118.1,399.9 L 1119.0,405.8 L 1119.9,408.4 L 1120.8,411.4 L 1121.6,411.5 L 1122.5,411.5 L 1123.4,411.5 L 1124.2,411.5 L 1125.1,411.5 L 1126.0,411.5 L 1126.9,411.5 L 1127.7,411.5 L 1128.6,411.5 L 1129.5,411.5 L 1130.4,411.5 L 1131.2,411.5 L 1132.1,411.5 L 1133.0,411.5 L 1133.8,411.5 L 1134.7,411.5 L 1135.6,411.5 L 1136.5,411.5 L 1137.3,411.5 L 1138.2,411.5 L 1139.1,411.5 L 1139.9,411.5 L 1140.8,411.5 L 1141.7,411.5 L 1142.6,411.5 L 1143.4,412.8 L 1144.3,416.7 L 1145.2,416.0 L 1146.0,418.0 L 1146.9,404.9 L 1147.8,404.5 L 1148.7,402.3 L 1149.5,400.5 L 1150.4,397.5 L 1151.3,400.2 L 1152.2,392.4 L 1153.0,393.2 L 1153.9,387.4 L 1154.8,391.5 L 1155.6,391.4 L 1156.5,392.3 L 1157.4,384.9 L 1158.3,387.4 L 1159.1,377.2 L 1160.0,377.2 L 1160.0,418.0 Z" fill="#60a5fa" opacity="0.22" />
<polyline fill="none" stroke="#2563eb" stroke-width="3" stroke-linecap="round" stroke-linejoin="round" points="90.0,199.6 90.9,199.6 91.7,199.6 92.6,199.6 93.5,199.6 94.4,199.6 95.2,199.6 96.1,199.6 97.0,199.6 97.8,199.6 98.7,199.6 99.6,199.6 100.5,199.6 101.3,199.6 102.2,199.6 103.1,199.6 104.0,199.6 104.8,199.6 105.7,199.6 106.6,199.6 107.4,199.6 108.3,199.6 109.2,199.6 110.1,199.6 110.9,199.6 111.8,199.6 112.7,199.6 113.5,199.6 114.4,199.6 115.3,199.6 116.2,199.6 117.0,199.6 117.9,199.6 118.8,199.6 119.6,199.6 120.5,199.6 121.4,202.3 122.3,203.0 123.1,203.4 124.0,204.7 124.9,202.3 125.8,209.4 126.6,209.4 127.5,204.9 128.4,204.9 129.2,198.8 130.1,197.8 131.0,199.9 131.9,195.2 132.7,194.5 133.6,193.0 134.5,195.8 135.3,193.4 136.2,177.7 137.1,184.1 138.0,177.9 138.8,181.7 139.7,171.2 140.6,172.9 141.5,173.5 142.3,173.4 143.2,175.1 144.1,186.1 144.9,186.5 145.8,180.0 146.7,174.0 147.6,174.6 148.4,169.7 149.3,189.6 150.2,194.8 151.0,200.8 151.9,200.9 152.8,200.9 153.7,200.9 154.5,200.9 155.4,200.9 156.3,200.9 157.1,193.0 158.0,190.2 158.9,187.9 159.8,181.8 160.6,160.5 161.5,173.6 162.4,170.7 163.3,160.7 164.1,165.0 165.0,167.2 165.9,165.4 166.7,162.7 167.6,151.7 168.5,162.1 169.4,165.4 170.2,152.3 171.1,152.7 172.0,154.3 172.8,150.8 173.7,166.8 174.6,165.8 175.5,160.7 176.3,163.7 177.2,147.5 178.1,139.1 178.9,144.4 179.8,126.9 180.7,98.0 181.6,102.1 182.4,120.3 183.3,114.6 184.2,135.3 185.1,137.3 185.9,148.0 186.8,151.2 187.7,132.0 188.5,135.1 189.4,135.7 190.3,136.9 191.2,146.9 192.0,147.1 192.9,147.1 193.8,147.1 194.6,147.1 195.5,147.1 196.4,147.1 197.3,137.0 198.1,117.0 199.0,124.2 199.9,125.7 200.7,126.0 201.6,129.6 202.5,104.0 203.4,118.7 204.2,123.8 205.1,136.4 206.0,134.1 206.9,125.7 207.7,126.6 208.6,151.6 209.5,154.6 210.3,153.2 211.2,151.2 212.1,176.0 213.0,176.1 213.8,176.1 214.7,176.1 215.6,176.1 216.4,176.1 217.3,176.1 218.2,176.1 219.1,176.1 219.9,176.1 220.8,176.1 221.7,176.1 222.6,176.1 223.4,176.1 224.3,176.1 225.2,176.1 226.0,176.1 226.9,176.1 227.8,176.1 228.7,176.1 229.5,184.8 230.4,187.0 231.3,189.7 232.1,192.6 233.0,200.5 233.9,204.2 234.8,206.8 235.6,206.9 236.5,206.9 237.4,206.9 238.2,206.9 239.1,206.9 240.0,206.9 240.9,206.9 241.7,206.9 242.6,206.9 243.5,206.9 244.4,206.9 245.2,206.9 246.1,206.9 247.0,206.9 247.8,206.9 248.7,206.9 249.6,206.9 250.5,206.9 251.3,206.9 252.2,206.9 253.1,206.9 253.9,206.9 254.8,209.4 255.7,211.0 256.6,213.0 257.4,221.4 258.3,221.7 259.2,222.3 260.0,222.3 260.9,222.4 261.8,222.4 262.7,222.4 263.5,222.4 264.4,222.4 265.3,222.4 266.2,222.4 267.0,222.4 267.9,222.4 268.8,222.4 269.6,222.4 270.5,222.4 271.4,222.4 272.3,222.4 273.1,222.4 274.0,222.4 274.9,222.4 275.7,222.4 276.6,222.4 277.5,222.4 278.4,222.4 279.2,222.4 280.1,222.4 281.0,222.4 281.9,222.4 282.7,222.4 283.6,222.4 284.5,222.4 285.3,222.4 286.2,222.4 287.1,222.4 288.0,222.4 288.8,222.4 289.7,222.4 290.6,222.4 291.4,223.3 292.3,208.3 293.2,209.8 294.1,212.7 294.9,212.5 295.8,216.9 296.7,224.4 297.5,225.8 298.4,226.1 299.3,268.7 300.2,268.8 301.0,268.8 301.9,268.8 302.8,268.8 303.7,268.8 304.5,268.8 305.4,268.8 306.3,268.8 307.1,268.8 308.0,268.8 308.9,268.8 309.8,268.8 310.6,268.8 311.5,268.8 312.4,268.8 313.2,268.8 314.1,268.8 315.0,268.8 315.9,268.8 316.7,268.8 317.6,269.6 318.5,272.8 319.3,273.5 320.2,274.3 321.1,273.9 322.0,274.1 322.8,273.3 323.7,283.0 324.6,288.9 325.5,289.0 326.3,289.0 327.2,289.0 328.1,289.0 328.9,289.0 329.8,289.0 330.7,289.0 331.6,289.0 332.4,289.0 333.3,289.0 334.2,289.0 335.0,289.0 335.9,289.0 336.8,289.0 337.7,295.7 338.5,299.5 339.4,297.0 340.3,297.9 341.1,294.3 342.0,292.3 342.9,290.9 343.8,292.3 344.6,295.7 345.5,300.2 346.4,299.5 347.3,299.9 348.1,299.9 349.0,299.9 349.9,299.9 350.7,299.9 351.6,299.9 352.5,299.9 353.4,299.9 354.2,299.9 355.1,299.9 356.0,299.9 356.8,299.9 357.7,299.9 358.6,299.9 359.5,299.9 360.3,299.9 361.2,299.9 362.1,290.6 363.0,289.8 363.8,290.7 364.7,289.0 365.6,291.5 366.4,291.6 367.3,293.9 368.2,291.1 369.1,290.2 369.9,288.1 370.8,289.5 371.7,289.7 372.5,295.9 373.4,298.2 374.3,296.1 375.2,299.0 376.0,299.0 376.9,299.0 377.8,299.0 378.6,299.0 379.5,299.0 380.4,301.9 381.3,300.7 382.1,302.5 383.0,303.5 383.9,303.6 384.8,303.6 385.6,303.6 386.5,303.6 387.4,303.6 388.2,303.6 389.1,303.6 390.0,303.6 390.9,303.6 391.7,303.6 392.6,303.6 393.5,303.6 394.3,303.6 395.2,303.6 396.1,303.6 397.0,303.6 397.8,303.6 398.7,303.6 399.6,303.6 400.4,303.6 401.3,303.6 402.2,303.6 403.1,303.6 403.9,303.6 404.8,303.6 405.7,303.6 406.6,303.6 407.4,303.6 408.3,303.6 409.2,303.6 410.0,303.6 410.9,303.6 411.8,303.6 412.7,303.6 413.5,303.6 414.4,303.6 415.3,303.6 416.1,303.6 417.0,303.6 417.9,303.6 418.8,303.6 419.6,303.6 420.5,303.6 421.4,303.6 422.2,303.6 423.1,303.6 424.0,303.5 424.9,311.2 425.7,310.3 426.6,310.8 427.5,310.3 428.4,311.7 429.2,311.8 430.1,311.8 431.0,311.8 431.8,311.8 432.7,311.8 433.6,312.6 434.5,313.0 435.3,309.3 436.2,307.9 437.1,303.8 437.9,302.7 438.8,305.2 439.7,303.4 440.6,304.5 441.4,302.7 442.3,301.4 443.2,301.4 444.1,302.9 444.9,300.9 445.8,310.3 446.7,310.3 447.5,314.6 448.4,314.7 449.3,314.7 450.2,314.7 451.0,314.7 451.9,314.7 452.8,314.7 453.6,314.7 454.5,314.7 455.4,314.7 456.3,314.7 457.1,314.7 458.0,314.7 458.9,314.7 459.7,314.7 460.6,314.7 461.5,314.7 462.4,314.7 463.2,314.7 464.1,314.7 465.0,314.7 465.9,314.7 466.7,314.7 467.6,314.7 468.5,314.7 469.3,314.7 470.2,314.7 471.1,314.7 472.0,314.7 472.8,314.7 473.7,314.7 474.6,314.7 475.4,314.7 476.3,314.7 477.2,314.7 478.1,314.7 478.9,314.7 479.8,314.7 480.7,314.7 481.5,314.7 482.4,313.8 483.3,313.5 484.2,313.5 485.0,311.6 485.9,309.7 486.8,306.2 487.7,305.5 488.5,303.6 489.4,307.3 490.3,308.8 491.1,305.5 492.0,304.0 492.9,307.5 493.8,307.1 494.6,302.7 495.5,301.7 496.4,302.3 497.2,301.0 498.1,303.6 499.0,306.6 499.9,303.0 500.7,303.6 501.6,309.0 502.5,309.6 503.3,312.0 504.2,312.1 505.1,312.1 506.0,312.1 506.8,312.1 507.7,312.1 508.6,315.4 509.5,313.4 510.3,313.4 511.2,316.5 512.1,320.7 512.9,320.8 513.8,320.8 514.7,320.8 515.6,320.8 516.4,320.8 517.3,320.8 518.2,320.7 519.0,320.7 519.9,322.1 520.8,321.1 521.7,323.9 522.5,323.0 523.4,324.8 524.3,322.7 525.2,323.0 526.0,319.5 526.9,319.3 527.8,318.6 528.6,319.3 529.5,318.8 530.4,320.0 531.3,319.7 532.1,320.9 533.0,308.7 533.9,313.1 534.7,310.1 535.6,308.5 536.5,309.8 537.4,309.6 538.2,311.7 539.1,311.7 540.0,308.9 540.8,307.3 541.7,305.7 542.6,305.5 543.5,306.8 544.3,308.5 545.2,310.1 546.1,308.5 547.0,313.7 547.8,313.7 548.7,311.7 549.6,310.8 550.4,314.0 551.3,314.1 552.2,314.1 553.1,314.1 553.9,314.1 554.8,314.1 555.7,314.1 556.5,314.1 557.4,314.1 558.3,314.1 559.2,314.1 560.0,314.1 560.9,314.1 561.8,315.9 562.6,314.5 563.5,311.6 564.4,315.0 565.3,316.4 566.1,315.9 567.0,315.0 567.9,319.2 568.8,315.6 569.6,313.1 570.5,310.5 571.4,315.7 572.2,314.5 573.1,317.1 574.0,316.6 574.9,307.7 575.7,309.1 576.6,311.7 577.5,317.0 578.3,314.7 579.2,322.5 580.1,322.6 581.0,322.6 581.8,322.6 582.7,322.6 583.6,322.6 584.4,322.6 585.3,322.6 586.2,322.6 587.1,322.6 587.9,322.6 588.8,322.6 589.7,322.6 590.6,322.6 591.4,322.6 592.3,327.3 593.2,325.6 594.0,325.8 594.9,325.3 595.8,331.1 596.7,330.6 597.5,333.0 598.4,333.0 599.3,333.0 600.1,333.0 601.0,333.0 601.9,333.0 602.8,331.8 603.6,331.4 604.5,330.3 605.4,330.1 606.3,323.3 607.1,323.9 608.0,325.6 608.9,324.3 609.7,321.6 610.6,324.6 611.5,325.1 612.4,327.8 613.2,324.6 614.1,323.1 615.0,323.9 615.8,323.1 616.7,304.2 617.6,301.4 618.5,304.2 619.3,305.4 620.2,308.4 621.1,306.9 621.9,310.4 622.8,309.7 623.7,307.2 624.6,308.2 625.4,288.8 626.3,284.5 627.2,282.5 628.1,287.3 628.9,290.1 629.8,292.2 630.7,277.8 631.5,274.3 632.4,273.8 633.3,271.3 634.2,269.2 635.0,273.9 635.9,274.4 636.8,269.2 637.6,273.6 638.5,272.1 639.4,270.8 640.3,275.4 641.1,275.1 642.0,270.9 642.9,279.1 643.7,288.5 644.6,288.6 645.5,288.6 646.4,288.6 647.2,288.6 648.1,288.6 649.0,288.6 649.9,288.6 650.7,288.6 651.6,288.6 652.5,288.6 653.3,288.0 654.2,289.0 655.1,305.2 656.0,313.7 656.8,315.3 657.7,315.5 658.6,315.6 659.4,315.6 660.3,315.6 661.2,315.8 662.1,313.7 662.9,327.6 663.8,331.5 664.7,330.9 665.6,331.0 666.4,331.0 667.3,331.0 668.2,331.0 669.0,331.0 669.9,331.0 670.8,331.0 671.7,331.0 672.5,331.0 673.4,331.0 674.3,331.0 675.1,331.0 676.0,331.0 676.9,331.0 677.8,331.0 678.6,331.0 679.5,331.0 680.4,331.0 681.2,331.0 682.1,328.0 683.0,324.2 683.9,314.5 684.7,316.7 685.6,319.0 686.5,324.9 687.4,323.6 688.2,324.2 689.1,326.6 690.0,317.6 690.8,321.1 691.7,311.1 692.6,313.8 693.5,323.9 694.3,319.8 695.2,317.7 696.1,317.1 696.9,299.4 697.8,300.1 698.7,290.0 699.6,294.7 700.4,295.2 701.3,301.9 702.2,306.9 703.0,306.3 703.9,298.1 704.8,306.9 705.7,304.1 706.5,301.6 707.4,318.3 708.3,323.0 709.2,323.1 710.0,323.1 710.9,323.1 711.8,323.1 712.6,323.1 713.5,323.1 714.4,323.1 715.3,319.9 716.1,321.9 717.0,324.5 717.9,342.5 718.7,343.3 719.6,342.6 720.5,345.7 721.4,342.0 722.2,342.0 723.1,342.0 724.0,342.0 724.8,342.0 725.7,342.0 726.6,342.0 727.5,342.0 728.3,342.0 729.2,342.0 730.1,346.7 731.0,349.7 731.8,364.2 732.7,368.0 733.6,368.5 734.4,368.6 735.3,368.6 736.2,368.6 737.1,368.6 737.9,368.6 738.8,368.6 739.7,368.6 740.5,368.6 741.4,368.6 742.3,368.6 743.2,368.6 744.0,368.6 744.9,368.6 745.8,368.6 746.7,368.6 747.5,368.6 748.4,368.6 749.3,368.6 750.1,368.6 751.0,368.6 751.9,368.6 752.8,368.6 753.6,368.6 754.5,368.6 755.4,368.6 756.2,368.6 757.1,368.6 758.0,368.6 758.9,368.6 759.7,368.6 760.6,368.6 761.5,368.6 762.3,368.6 763.2,368.6 764.1,368.6 765.0,368.6 765.8,368.6 766.7,368.6 767.6,368.6 768.5,368.6 769.3,368.6 770.2,369.2 771.1,367.2 771.9,368.0 772.8,362.6 773.7,363.6 774.6,361.4 775.4,365.4 776.3,365.7 777.2,368.5 778.0,365.4 778.9,364.5 779.8,363.3 780.7,365.4 781.5,366.3 782.4,364.4 783.3,368.8 784.1,379.7 785.0,379.8 785.9,379.8 786.8,379.8 787.6,379.8 788.5,379.8 789.4,379.8 790.3,379.8 791.1,379.8 792.0,379.8 792.9,379.8 793.7,379.8 794.6,379.8 795.5,379.8 796.4,379.8 797.2,379.8 798.1,379.8 799.0,379.8 799.8,379.8 800.7,379.8 801.6,379.8 802.5,379.8 803.3,379.8 804.2,379.8 805.1,379.8 805.9,379.8 806.8,379.8 807.7,379.8 808.6,379.8 809.4,379.8 810.3,379.8 811.2,379.8 812.1,379.8 812.9,379.8 813.8,379.8 814.7,379.8 815.5,379.8 816.4,379.8 817.3,379.8 818.2,379.8 819.0,379.8 819.9,379.8 820.8,379.8 821.6,379.8 822.5,379.8 823.4,379.8 824.3,379.8 825.1,379.8 826.0,379.8 826.9,379.8 827.8,379.8 828.6,379.8 829.5,379.8 830.4,379.8 831.2,379.8 832.1,379.8 833.0,379.8 833.9,379.8 834.7,379.8 835.6,379.8 836.5,379.8 837.3,379.8 838.2,379.8 839.1,379.8 840.0,379.8 840.8,379.8 841.7,379.8 842.6,379.8 843.4,379.8 844.3,379.8 845.2,379.8 846.1,379.8 846.9,379.8 847.8,379.7 848.7,381.1 849.6,381.4 850.4,378.7 851.3,380.3 852.2,381.1 853.0,384.0 853.9,383.7 854.8,382.5 855.7,382.7 856.5,382.2 857.4,376.1 858.3,374.5 859.1,376.1 860.0,374.3 860.9,378.4 861.8,379.0 862.6,379.0 863.5,379.4 864.4,383.4 865.2,382.1 866.1,382.2 867.0,382.2 867.9,382.2 868.7,382.2 869.6,382.2 870.5,382.2 871.4,382.2 872.2,382.2 873.1,382.2 874.0,382.2 874.8,382.2 875.7,382.2 876.6,382.1 877.5,382.4 878.3,380.1 879.2,379.4 880.1,382.2 880.9,381.7 881.8,384.8 882.7,384.7 883.6,383.8 884.4,381.4 885.3,385.4 886.2,389.1 887.0,390.1 887.9,390.2 888.8,390.2 889.7,390.2 890.5,390.2 891.4,390.2 892.3,390.2 893.2,390.2 894.0,390.2 894.9,390.2 895.8,390.2 896.6,390.2 897.5,390.2 898.4,390.2 899.3,390.2 900.1,390.2 901.0,390.2 901.9,390.2 902.7,390.2 903.6,390.2 904.5,390.2 905.4,390.2 906.2,390.2 907.1,390.2 908.0,390.2 908.9,390.2 909.7,390.2 910.6,388.6 911.5,389.4 912.3,389.8 913.2,390.3 914.1,391.3 915.0,392.3 915.8,391.9 916.7,395.8 917.6,393.9 918.4,393.5 919.3,392.6 920.2,394.3 921.1,393.9 921.9,392.2 922.8,392.7 923.7,389.6 924.5,392.0 925.4,390.9 926.3,390.9 927.2,389.1 928.0,388.8 928.9,390.1 929.8,391.0 930.7,390.0 931.5,391.4 932.4,391.0 933.3,391.3 934.1,392.2 935.0,392.7 935.9,392.8 936.8,392.8 937.6,392.8 938.5,392.8 939.4,392.5 940.2,391.9 941.1,391.0 942.0,390.5 942.9,390.3 943.7,388.5 944.6,389.1 945.5,387.8 946.3,390.3 947.2,389.8 948.1,383.6 949.0,384.1 949.8,384.6 950.7,385.7 951.6,381.2 952.5,384.7 953.3,383.1 954.2,382.6 955.1,367.6 955.9,367.5 956.8,367.6 957.7,367.2 958.6,373.8 959.4,374.3 960.3,375.4 961.2,378.9 962.0,369.1 962.9,364.4 963.8,373.1 964.7,366.1 965.5,369.9 966.4,372.3 967.3,370.6 968.1,368.8 969.0,367.1 969.9,368.2 970.8,365.8 971.6,366.2 972.5,361.0 973.4,363.3 974.3,354.7 975.1,355.7 976.0,363.8 976.9,365.8 977.7,367.9 978.6,370.7 979.5,367.9 980.4,369.5 981.2,369.6 982.1,369.6 983.0,369.6 983.8,369.6 984.7,369.6 985.6,369.6 986.5,369.6 987.3,369.6 988.2,369.6 989.1,369.6 990.0,369.6 990.8,369.6 991.7,369.6 992.6,369.6 993.4,369.6 994.3,369.6 995.2,369.6 996.1,369.6 996.9,369.6 997.8,369.6 998.7,369.6 999.5,369.6 1000.4,369.6 1001.3,369.6 1002.2,369.6 1003.0,369.6 1003.9,369.6 1004.8,369.6 1005.6,369.6 1006.5,369.6 1007.4,369.6 1008.3,369.6 1009.1,369.6 1010.0,369.6 1010.9,369.6 1011.8,369.6 1012.6,369.6 1013.5,369.6 1014.4,369.6 1015.2,369.6 1016.1,369.6 1017.0,369.6 1017.9,369.6 1018.7,369.6 1019.6,369.6 1020.5,369.6 1021.3,369.6 1022.2,369.6 1023.1,369.6 1024.0,369.6 1024.8,369.6 1025.7,369.6 1026.6,369.2 1027.4,369.3 1028.3,366.6 1029.2,366.0 1030.1,366.3 1030.9,366.9 1031.8,366.9 1032.7,367.2 1033.6,368.7 1034.4,369.6 1035.3,368.3 1036.2,365.9 1037.0,361.8 1037.9,362.3 1038.8,361.8 1039.7,362.1 1040.5,362.0 1041.4,364.1 1042.3,364.1 1043.1,362.9 1044.0,365.9 1044.9,364.7 1045.8,367.4 1046.6,365.6 1047.5,366.6 1048.4,367.4 1049.3,367.4 1050.1,367.4 1051.0,369.0 1051.9,368.1 1052.7,370.3 1053.6,365.5 1054.5,366.0 1055.4,364.9 1056.2,377.1 1057.1,375.9 1058.0,376.5 1058.8,376.6 1059.7,376.6 1060.6,376.6 1061.5,376.6 1062.3,376.6 1063.2,376.6 1064.1,376.6 1064.9,376.6 1065.8,376.6 1066.7,376.6 1067.6,376.6 1068.4,376.6 1069.3,376.6 1070.2,376.6 1071.1,376.6 1071.9,376.6 1072.8,376.6 1073.7,376.6 1074.5,376.6 1075.4,376.6 1076.3,376.6 1077.2,376.6 1078.0,376.6 1078.9,375.2 1079.8,373.1 1080.6,370.1 1081.5,367.0 1082.4,369.8 1083.3,368.4 1084.1,345.1 1085.0,349.2 1085.9,349.5 1086.7,349.0 1087.6,355.2 1088.5,355.5 1089.4,357.9 1090.2,359.8 1091.1,369.6 1092.0,369.3 1092.9,366.3 1093.7,366.0 1094.6,371.0 1095.5,373.2 1096.3,373.3 1097.2,373.3 1098.1,373.3 1099.0,373.3 1099.8,373.3 1100.7,373.3 1101.6,373.3 1102.4,379.1 1103.3,379.9 1104.2,381.0 1105.1,382.8 1105.9,383.1 1106.8,386.0 1107.7,389.1 1108.5,393.5 1109.4,395.1 1110.3,398.4 1111.2,399.8 1112.0,399.9 1112.9,399.9 1113.8,399.9 1114.7,399.9 1115.5,399.9 1116.4,399.9 1117.3,399.9 1118.1,399.9 1119.0,405.8 1119.9,408.4 1120.8,411.4 1121.6,411.5 1122.5,411.5 1123.4,411.5 1124.2,411.5 1125.1,411.5 1126.0,411.5 1126.9,411.5 1127.7,411.5 1128.6,411.5 1129.5,411.5 1130.4,411.5 1131.2,411.5 1132.1,411.5 1133.0,411.5 1133.8,411.5 1134.7,411.5 1135.6,411.5 1136.5,411.5 1137.3,411.5 1138.2,411.5 1139.1,411.5 1139.9,411.5 1140.8,411.5 1141.7,411.5 1142.6,411.5 1143.4,412.8 1144.3,416.7 1145.2,416.0 1146.0,418.0 1146.9,404.9 1147.8,404.5 1148.7,402.3 1149.5,400.5 1150.4,397.5 1151.3,400.2 1152.2,392.4 1153.0,393.2 1153.9,387.4 1154.8,391.5 1155.6,391.4 1156.5,392.3 1157.4,384.9 1158.3,387.4 1159.1,377.2 1160.0,377.2" />
<text x="90" y="442" font-size="12" fill="#64748b">2025-01-02</text>
<text x="583.0" y="442" font-size="12" fill="#64748b">2025-08-20</text>
<text x="1088" y="442" font-size="12" fill="#64748b">2026-04-13</text>
<text x="8" y="112" font-size="12" fill="#64748b">18.53%</text>
<text x="8" y="418" font-size="12" fill="#64748b">-39.84%</text>
<g><circle cx="122.3" cy="-13625.5" r="6" fill="#16a34a" stroke="#ffffff" stroke-width="2" /><text x="130.3" y="-13635.5" font-size="11" font-weight="700" fill="#16a34a">BUY</text></g>
<g><circle cx="152.8" cy="-13845.8" r="6" fill="#dc2626" stroke="#ffffff" stroke-width="2" /><text x="160.8" y="-13827.8" font-size="11" font-weight="700" fill="#dc2626">SELL</text></g>
<g><circle cx="158.0" cy="-14634.8" r="6" fill="#16a34a" stroke="#ffffff" stroke-width="2" /><text x="166.0" y="-14644.8" font-size="11" font-weight="700" fill="#16a34a">BUY</text></g>
<g><circle cx="192.9" cy="-15649.3" r="6" fill="#dc2626" stroke="#ffffff" stroke-width="2" /><text x="200.9" y="-15631.3" font-size="11" font-weight="700" fill="#dc2626">SELL</text></g>
<g><circle cx="198.1" cy="-17852.2" r="6" fill="#16a34a" stroke="#ffffff" stroke-width="2" /><text x="206.1" y="-17862.2" font-size="11" font-weight="700" fill="#16a34a">BUY</text></g>
<g><circle cx="213.8" cy="-16436.4" r="6" fill="#dc2626" stroke="#ffffff" stroke-width="2" /><text x="221.8" y="-16418.4" font-size="11" font-weight="700" fill="#dc2626">SELL</text></g>
<g><circle cx="230.4" cy="-16333.0" r="6" fill="#16a34a" stroke="#ffffff" stroke-width="2" /><text x="238.4" y="-16343.0" font-size="11" font-weight="700" fill="#16a34a">BUY</text></g>
<g><circle cx="236.5" cy="-15539.4" r="6" fill="#dc2626" stroke="#ffffff" stroke-width="2" /><text x="244.5" y="-15521.4" font-size="11" font-weight="700" fill="#dc2626">SELL</text></g>
<g><circle cx="255.7" cy="-16037.4" r="6" fill="#16a34a" stroke="#ffffff" stroke-width="2" /><text x="263.7" y="-16047.4" font-size="11" font-weight="700" fill="#16a34a">BUY</text></g>
<g><circle cx="261.8" cy="-15686.2" r="6" fill="#dc2626" stroke="#ffffff" stroke-width="2" /><text x="269.8" y="-15668.2" font-size="11" font-weight="700" fill="#dc2626">SELL</text></g>
<g><circle cx="292.3" cy="-14837.8" r="6" fill="#16a34a" stroke="#ffffff" stroke-width="2" /><text x="300.3" y="-14847.8" font-size="11" font-weight="700" fill="#16a34a">BUY</text></g>
<g><circle cx="301.0" cy="-13203.5" r="6" fill="#dc2626" stroke="#ffffff" stroke-width="2" /><text x="309.0" y="-13185.5" font-size="11" font-weight="700" fill="#dc2626">SELL</text></g>
<g><circle cx="318.5" cy="-13965.2" r="6" fill="#16a34a" stroke="#ffffff" stroke-width="2" /><text x="326.5" y="-13975.2" font-size="11" font-weight="700" fill="#16a34a">BUY</text></g>
<g><circle cx="326.3" cy="-13390.3" r="6" fill="#dc2626" stroke="#ffffff" stroke-width="2" /><text x="334.3" y="-13372.3" font-size="11" font-weight="700" fill="#dc2626">SELL</text></g>
<g><circle cx="338.5" cy="-13576.1" r="6" fill="#16a34a" stroke="#ffffff" stroke-width="2" /><text x="346.5" y="-13586.1" font-size="11" font-weight="700" fill="#16a34a">BUY</text></g>
<g><circle cx="349.0" cy="-13603.6" r="6" fill="#dc2626" stroke="#ffffff" stroke-width="2" /><text x="357.0" y="-13585.6" font-size="11" font-weight="700" fill="#dc2626">SELL</text></g>
<g><circle cx="363.0" cy="-13828.7" r="6" fill="#16a34a" stroke="#ffffff" stroke-width="2" /><text x="371.0" y="-13838.7" font-size="11" font-weight="700" fill="#16a34a">BUY</text></g>
<g><circle cx="376.9" cy="-13768.4" r="6" fill="#dc2626" stroke="#ffffff" stroke-width="2" /><text x="384.9" y="-13750.4" font-size="11" font-weight="700" fill="#dc2626">SELL</text></g>
<g><circle cx="381.3" cy="-13718.8" r="6" fill="#16a34a" stroke="#ffffff" stroke-width="2" /><text x="389.3" y="-13728.8" font-size="11" font-weight="700" fill="#16a34a">BUY</text></g>
<g><circle cx="384.8" cy="-13637.0" r="6" fill="#dc2626" stroke="#ffffff" stroke-width="2" /><text x="392.8" y="-13619.0" font-size="11" font-weight="700" fill="#dc2626">SELL</text></g>
<g><circle cx="424.9" cy="-13077.0" r="6" fill="#16a34a" stroke="#ffffff" stroke-width="2" /><text x="432.9" y="-13087.0" font-size="11" font-weight="700" fill="#16a34a">BUY</text></g>
<g><circle cx="430.1" cy="-12880.0" r="6" fill="#dc2626" stroke="#ffffff" stroke-width="2" /><text x="438.1" y="-12862.0" font-size="11" font-weight="700" fill="#dc2626">SELL</text></g>
<g><circle cx="434.5" cy="-13017.2" r="6" fill="#16a34a" stroke="#ffffff" stroke-width="2" /><text x="442.5" y="-13027.2" font-size="11" font-weight="700" fill="#16a34a">BUY</text></g>
<g><circle cx="449.3" cy="-12956.9" r="6" fill="#dc2626" stroke="#ffffff" stroke-width="2" /><text x="457.3" y="-12938.9" font-size="11" font-weight="700" fill="#dc2626">SELL</text></g>
<g><circle cx="483.3" cy="-12578.6" r="6" fill="#16a34a" stroke="#ffffff" stroke-width="2" /><text x="491.3" y="-12588.6" font-size="11" font-weight="700" fill="#16a34a">BUY</text></g>
<g><circle cx="505.1" cy="-12682.8" r="6" fill="#dc2626" stroke="#ffffff" stroke-width="2" /><text x="513.1" y="-12664.8" font-size="11" font-weight="700" fill="#dc2626">SELL</text></g>
<g><circle cx="509.5" cy="-12797.9" r="6" fill="#16a34a" stroke="#ffffff" stroke-width="2" /><text x="517.5" y="-12807.9" font-size="11" font-weight="700" fill="#16a34a">BUY</text></g>
<g><circle cx="513.8" cy="-12622.5" r="6" fill="#dc2626" stroke="#ffffff" stroke-width="2" /><text x="521.8" y="-12604.5" font-size="11" font-weight="700" fill="#dc2626">SELL</text></g>
<g><circle cx="519.0" cy="-13055.6" r="6" fill="#16a34a" stroke="#ffffff" stroke-width="2" /><text x="527.0" y="-13065.6" font-size="11" font-weight="700" fill="#16a34a">BUY</text></g>
<g><circle cx="552.2" cy="-13296.8" r="6" fill="#dc2626" stroke="#ffffff" stroke-width="2" /><text x="560.2" y="-13278.8" font-size="11" font-weight="700" fill="#dc2626">SELL</text></g>
<g><circle cx="562.6" cy="-13395.4" r="6" fill="#16a34a" stroke="#ffffff" stroke-width="2" /><text x="570.6" y="-13405.4" font-size="11" font-weight="700" fill="#16a34a">BUY</text></g>
<g><circle cx="581.0" cy="-13143.3" r="6" fill="#dc2626" stroke="#ffffff" stroke-width="2" /><text x="589.0" y="-13125.3" font-size="11" font-weight="700" fill="#dc2626">SELL</text></g>
<g><circle cx="593.2" cy="-13296.8" r="6" fill="#16a34a" stroke="#ffffff" stroke-width="2" /><text x="601.2" y="-13306.8" font-size="11" font-weight="700" fill="#16a34a">BUY</text></g>
<g><circle cx="599.3" cy="-13121.3" r="6" fill="#dc2626" stroke="#ffffff" stroke-width="2" /><text x="607.3" y="-13103.3" font-size="11" font-weight="700" fill="#dc2626">SELL</text></g>
<g><circle cx="603.6" cy="-13439.3" r="6" fill="#16a34a" stroke="#ffffff" stroke-width="2" /><text x="611.6" y="-13449.3" font-size="11" font-weight="700" fill="#16a34a">BUY</text></g>
<g><circle cx="645.5" cy="-15105.8" r="6" fill="#dc2626" stroke="#ffffff" stroke-width="2" /><text x="653.5" y="-15087.8" font-size="11" font-weight="700" fill="#dc2626">SELL</text></g>
<g><circle cx="654.2" cy="-15780.1" r="6" fill="#16a34a" stroke="#ffffff" stroke-width="2" /><text x="662.2" y="-15790.1" font-size="11" font-weight="700" fill="#16a34a">BUY</text></g>
<g><circle cx="659.4" cy="-15829.4" r="6" fill="#dc2626" stroke="#ffffff" stroke-width="2" /><text x="667.4" y="-15811.4" font-size="11" font-weight="700" fill="#dc2626">SELL</text></g>
<g><circle cx="662.1" cy="-15648.5" r="6" fill="#16a34a" stroke="#ffffff" stroke-width="2" /><text x="670.1" y="-15658.5" font-size="11" font-weight="700" fill="#16a34a">BUY</text></g>
<g><circle cx="666.4" cy="-14859.1" r="6" fill="#dc2626" stroke="#ffffff" stroke-width="2" /><text x="674.4" y="-14841.1" font-size="11" font-weight="700" fill="#dc2626">SELL</text></g>
<g><circle cx="683.0" cy="-15341.5" r="6" fill="#16a34a" stroke="#ffffff" stroke-width="2" /><text x="691.0" y="-15351.5" font-size="11" font-weight="700" fill="#16a34a">BUY</text></g>
<g><circle cx="710.0" cy="-15670.4" r="6" fill="#dc2626" stroke="#ffffff" stroke-width="2" /><text x="718.0" y="-15652.4" font-size="11" font-weight="700" fill="#dc2626">SELL</text></g>
<g><circle cx="716.1" cy="-17254.7" r="6" fill="#16a34a" stroke="#ffffff" stroke-width="2" /><text x="724.1" y="-17264.7" font-size="11" font-weight="700" fill="#16a34a">BUY</text></g>
<g><circle cx="723.1" cy="-16295.3" r="6" fill="#dc2626" stroke="#ffffff" stroke-width="2" /><text x="731.1" y="-16277.3" font-size="11" font-weight="700" fill="#dc2626">SELL</text></g>
<g><circle cx="731.0" cy="-16942.2" r="6" fill="#16a34a" stroke="#ffffff" stroke-width="2" /><text x="739.0" y="-16952.2" font-size="11" font-weight="700" fill="#16a34a">BUY</text></g>
<g><circle cx="735.3" cy="-15423.7" r="6" fill="#dc2626" stroke="#ffffff" stroke-width="2" /><text x="743.3" y="-15405.7" font-size="11" font-weight="700" fill="#dc2626">SELL</text></g>
<g><circle cx="771.1" cy="-15188.0" r="6" fill="#16a34a" stroke="#ffffff" stroke-width="2" /><text x="779.1" y="-15198.0" font-size="11" font-weight="700" fill="#16a34a">BUY</text></g>
<g><circle cx="785.9" cy="-14694.6" r="6" fill="#dc2626" stroke="#ffffff" stroke-width="2" /><text x="793.9" y="-14676.6" font-size="11" font-weight="700" fill="#dc2626">SELL</text></g>
<g><circle cx="848.7" cy="-13559.9" r="6" fill="#16a34a" stroke="#ffffff" stroke-width="2" /><text x="856.7" y="-13569.9" font-size="11" font-weight="700" fill="#16a34a">BUY</text></g>
<g><circle cx="867.0" cy="-13400.9" r="6" fill="#dc2626" stroke="#ffffff" stroke-width="2" /><text x="875.0" y="-13382.9" font-size="11" font-weight="700" fill="#dc2626">SELL</text></g>
<g><circle cx="877.5" cy="-13751.8" r="6" fill="#16a34a" stroke="#ffffff" stroke-width="2" /><text x="885.5" y="-13761.8" font-size="11" font-weight="700" fill="#16a34a">BUY</text></g>
<g><circle cx="888.8" cy="-13302.2" r="6" fill="#dc2626" stroke="#ffffff" stroke-width="2" /><text x="896.8" y="-13284.2" font-size="11" font-weight="700" fill="#dc2626">SELL</text></g>
<g><circle cx="911.5" cy="-13461.2" r="6" fill="#16a34a" stroke="#ffffff" stroke-width="2" /><text x="919.5" y="-13471.2" font-size="11" font-weight="700" fill="#16a34a">BUY</text></g>
<g><circle cx="936.8" cy="-13313.2" r="6" fill="#dc2626" stroke="#ffffff" stroke-width="2" /><text x="944.8" y="-13295.2" font-size="11" font-weight="700" fill="#dc2626">SELL</text></g>
<g><circle cx="940.2" cy="-13625.7" r="6" fill="#16a34a" stroke="#ffffff" stroke-width="2" /><text x="948.2" y="-13635.7" font-size="11" font-weight="700" fill="#16a34a">BUY</text></g>
<g><circle cx="982.1" cy="-14508.3" r="6" fill="#dc2626" stroke="#ffffff" stroke-width="2" /><text x="990.1" y="-14490.3" font-size="11" font-weight="700" fill="#dc2626">SELL</text></g>
<g><circle cx="1027.4" cy="-13592.8" r="6" fill="#16a34a" stroke="#ffffff" stroke-width="2" /><text x="1035.4" y="-13602.8" font-size="11" font-weight="700" fill="#16a34a">BUY</text></g>
<g><circle cx="1050.1" cy="-13817.5" r="6" fill="#dc2626" stroke="#ffffff" stroke-width="2" /><text x="1058.1" y="-13799.5" font-size="11" font-weight="700" fill="#dc2626">SELL</text></g>
<g><circle cx="1051.9" cy="-13872.4" r="6" fill="#16a34a" stroke="#ffffff" stroke-width="2" /><text x="1059.9" y="-13882.4" font-size="11" font-weight="700" fill="#16a34a">BUY</text></g>
<g><circle cx="1059.7" cy="-13598.3" r="6" fill="#dc2626" stroke="#ffffff" stroke-width="2" /><text x="1067.7" y="-13580.3" font-size="11" font-weight="700" fill="#dc2626">SELL</text></g>
<g><circle cx="1079.8" cy="-13384.5" r="6" fill="#16a34a" stroke="#ffffff" stroke-width="2" /><text x="1087.8" y="-13394.5" font-size="11" font-weight="700" fill="#16a34a">BUY</text></g>
<g><circle cx="1097.2" cy="-13291.3" r="6" fill="#dc2626" stroke="#ffffff" stroke-width="2" /><text x="1105.2" y="-13273.3" font-size="11" font-weight="700" fill="#dc2626">SELL</text></g>
<g><circle cx="1103.3" cy="-14546.6" r="6" fill="#16a34a" stroke="#ffffff" stroke-width="2" /><text x="1111.3" y="-14556.6" font-size="11" font-weight="700" fill="#16a34a">BUY</text></g>
<g><circle cx="1112.9" cy="-13834.0" r="6" fill="#dc2626" stroke="#ffffff" stroke-width="2" /><text x="1120.9" y="-13816.0" font-size="11" font-weight="700" fill="#dc2626">SELL</text></g>
<g><circle cx="1119.9" cy="-13998.4" r="6" fill="#16a34a" stroke="#ffffff" stroke-width="2" /><text x="1127.9" y="-14008.4" font-size="11" font-weight="700" fill="#16a34a">BUY</text></g>
<g><circle cx="1122.5" cy="-13450.3" r="6" fill="#dc2626" stroke="#ffffff" stroke-width="2" /><text x="1130.5" y="-13432.3" font-size="11" font-weight="700" fill="#dc2626">SELL</text></g>
<g><circle cx="1144.3" cy="-13801.1" r="6" fill="#16a34a" stroke="#ffffff" stroke-width="2" /><text x="1152.3" y="-13811.1" font-size="11" font-weight="700" fill="#16a34a">BUY</text></g>
<text x="40" y="732" font-size="13" fill="#334155">初始资金 1,000,000.00 | 结束资金 676,034.17 | 总盈亏 -323,965.83</text>
</svg>