<?xml version="1.0" encoding="UTF-8"?>
<svg xmlns="http://www.w3.org/2000/svg" width="1200" height="760" viewBox="0 0 1200 760">
<rect width="100%" height="100%" fill="#f8fafc" />
<text x="40" y="36" font-size="24" font-weight="700" fill="#111827">股票价格曲线</text>
<text x="40" y="58" font-size="13" fill="#6b7280">区间 2025-01-02 -&gt; 2026-04-13 | 股票价格曲线与买卖点（下一根K线生效）</text>
<g transform="translate(930,18)">
<rect x="0" y="0" width="220" height="56" rx="10" fill="#ffffff" stroke="#e2e8f0" />
<circle cx="18" cy="20" r="5" fill="#16a34a" />
<text x="30" y="24" font-size="12" fill="#334155">BUY: 开仓</text>
<circle cx="18" cy="40" r="5" fill="#dc2626" />
<text x="30" y="44" font-size="12" fill="#334155">SELL: 平仓</text>
</g>
<text x="40" y="84" font-size="16" font-weight="700" fill="#111827">价格</text>
<line x1="90" y1="418" x2="1160" y2="418" stroke="#94a3b8" stroke-width="1.5" />
<line x1="90" y1="98" x2="90" y2="418" stroke="#cbd5e1" stroke-width="1" />
<line x1="90" y1="418" x2="1160" y2="418" stroke="#cbd5e1" stroke-width="1" />
<path d="M 90.0,418.0 L 90.0,273.9 L 90.9,285.5 L 91.7,290.7 L 92.6,290.7 L 93.5,300.0 L 94.4,311.1 L 95.2,316.8 L 96.1,324.6 L 97.0,326.6 L 97.8,330.4 L 98.7,332.2 L 99.6,335.3 L 100.5,330.8 L 101.3,335.3 L 102.2,329.6 L 103.1,319.8 L 104.0,316.4 L 104.8,319.3 L 105.7,314.2 L 106.6,307.0 L 107.4,315.7 L 108.3,317.7 L 109.2,313.5 L 110.1,314.4 L 110.9,312.4 L 111.8,314.9 L 112.7,318.7 L 113.5,326.7 L 114.4,325.4 L 115.3,327.7 L 116.2,321.4 L 117.0,324.7 L 117.9,315.0 L 118.8,310.4 L 119.6,308.6 L 120.5,308.0 L 121.4,304.8 L 122.3,308.6 L 123.1,311.3 L 124.0,313.6 L 124.9,304.8 L 125.8,310.7 L 126.6,310.3 L 127.5,308.3 L 128.4,314.4 L 129.2,308.4 L 130.1,308.0 L 131.0,309.6 L 131.9,270.3 L 132.7,273.1 L 133.6,275.7 L 134.5,274.4 L 135.3,278.8 L 136.2,272.3 L 137.1,274.9 L 138.0,273.2 L 138.8,281.8 L 139.7,278.2 L 140.6,279.3 L 141.5,281.6 L 142.3,280.4 L 143.2,291.6 L 144.1,328.5 L 144.9,322.7 L 145.8,322.7 L 146.7,314.2 L 147.6,316.1 L 148.4,316.5 L 149.3,314.8 L 150.2,317.4 L 151.0,319.0 L 151.9,322.1 L 152.8,312.4 L 153.7,314.6 L 154.5,317.0 L 155.4,317.6 L 156.3,292.0 L 157.1,286.2 L 158.0,290.7 L 158.9,287.9 L 159.8,280.8 L 160.6,276.3 L 161.5,290.3 L 162.4,288.4 L 163.3,288.2 L 164.1,291.7 L 165.0,292.1 L 165.9,291.7 L 166.7,305.1 L 167.6,300.3 L 168.5,304.2 L 169.4,303.8 L 170.2,304.1 L 171.1,303.8 L 172.0,302.2 L 172.8,299.0 L 173.7,308.2 L 174.6,314.0 L 175.5,313.1 L 176.3,318.9 L 177.2,324.0 L 178.1,321.1 L 178.9,321.5 L 179.8,316.5 L 180.7,318.7 L 181.6,302.3 L 182.4,311.7 L 183.3,305.8 L 184.2,314.1 L 185.1,314.9 L 185.9,321.3 L 186.8,325.4 L 187.7,317.8 L 188.5,318.3 L 189.4,317.4 L 190.3,316.6 L 191.2,319.4 L 192.0,317.3 L 192.9,316.5 L 193.8,317.4 L 194.6,287.5 L 195.5,283.3 L 196.4,292.5 L 197.3,288.3 L 198.1,275.5 L 199.0,277.7 L 199.9,283.8 L 200.7,280.1 L 201.6,280.5 L 202.5,273.1 L 203.4,274.4 L 204.2,278.8 L 205.1,283.4 L 206.0,283.1 L 206.9,285.8 L 207.7,285.7 L 208.6,298.4 L 209.5,301.1 L 210.3,304.1 L 211.2,300.5 L 212.1,306.3 L 213.0,309.5 L 213.8,312.8 L 214.7,318.5 L 215.6,312.7 L 216.4,318.6 L 217.3,322.4 L 218.2,323.4 L 219.1,321.3 L 219.9,315.0 L 220.8,314.8 L 221.7,315.0 L 222.6,318.5 L 223.4,319.5 L 224.3,316.6 L 225.2,313.8 L 226.0,311.3 L 226.9,307.8 L 227.8,310.3 L 228.7,310.7 L 229.5,300.7 L 230.4,305.8 L 231.3,309.3 L 232.1,311.7 L 233.0,304.6 L 233.9,306.3 L 234.8,308.0 L 235.6,304.8 L 236.5,312.5 L 237.4,317.4 L 238.2,317.0 L 239.1,311.7 L 240.0,317.4 L 240.9,310.1 L 241.7,306.3 L 242.6,309.1 L 243.5,317.7 L 244.4,320.9 L 245.2,321.7 L 246.1,318.2 L 247.0,314.9 L 247.8,314.4 L 248.7,312.1 L 249.6,312.3 L 250.5,315.2 L 251.3,316.9 L 252.2,317.3 L 253.1,318.1 L 253.9,294.0 L 254.8,298.4 L 255.7,298.4 L 256.6,293.7 L 257.4,308.6 L 258.3,307.1 L 259.2,310.1 L 260.0,311.5 L 260.9,314.0 L 261.8,310.9 L 262.7,314.2 L 263.5,316.9 L 264.4,318.9 L 265.3,320.5 L 266.2,321.1 L 267.0,320.7 L 267.9,322.4 L 268.8,327.6 L 269.6,328.1 L 270.5,321.7 L 271.4,330.4 L 272.3,331.4 L 273.1,331.1 L 274.0,345.1 L 274.9,344.9 L 275.7,341.1 L 276.6,344.9 L 277.5,345.6 L 278.4,342.8 L 279.2,342.2 L 280.1,344.3 L 281.0,343.0 L 281.9,342.7 L 282.7,345.3 L 283.6,344.3 L 284.5,347.1 L 285.3,365.3 L 286.2,370.1 L 287.1,369.8 L 288.0,359.6 L 288.8,360.4 L 289.7,361.1 L 290.6,393.4 L 291.4,394.4 L 292.3,385.0 L 293.2,387.0 L 294.1,388.9 L 294.9,387.3 L 295.8,378.7 L 296.7,382.4 L 297.5,376.7 L 298.4,375.8 L 299.3,387.8 L 300.2,397.1 L 301.0,418.0 L 301.9,412.0 L 302.8,407.3 L 303.7,410.1 L 304.5,410.7 L 305.4,406.4 L 306.3,390.9 L 307.1,396.7 L 308.0,394.7 L 308.9,394.6 L 309.8,362.2 L 310.6,351.4 L 311.5,348.0 L 312.4,348.0 L 313.2,341.2 L 314.1,334.6 L 315.0,339.0 L 315.9,340.1 L 316.7,318.9 L 317.6,323.4 L 318.5,323.1 L 319.3,323.9 L 320.2,327.6 L 321.1,330.7 L 322.0,330.0 L 322.8,329.2 L 323.7,326.8 L 324.6,331.3 L 325.5,332.0 L 326.3,328.5 L 327.2,317.4 L 328.1,318.5 L 328.9,323.6 L 329.8,325.9 L 330.7,330.8 L 331.6,331.4 L 332.4,327.6 L 333.3,328.1 L 334.2,322.3 L 335.0,324.0 L 335.9,317.3 L 336.8,309.5 L 337.7,308.3 L 338.5,314.5 L 339.4,313.8 L 340.3,317.2 L 341.1,315.4 L 342.0,313.7 L 342.9,313.7 L 343.8,314.4 L 344.6,314.5 L 345.5,316.4 L 346.4,308.4 L 347.3,309.0 L 348.1,320.7 L 349.0,316.6 L 349.9,309.0 L 350.7,311.6 L 351.6,314.1 L 352.5,313.1 L 353.4,316.0 L 354.2,315.4 L 355.1,308.3 L 356.0,310.0 L 356.8,315.0 L 357.7,314.1 L 358.6,305.4 L 359.5,302.1 L 360.3,299.3 L 361.2,301.5 L 362.1,292.9 L 363.0,292.8 L 363.8,295.2 L 364.7,294.3 L 365.6,289.4 L 366.4,285.5 L 367.3,289.4 L 368.2,286.7 L 369.1,284.5 L 369.9,291.5 L 370.8,288.2 L 371.7,288.3 L 372.5,292.3 L 373.4,290.8 L 374.3,291.1 L 375.2,294.3 L 376.0,280.8 L 376.9,286.7 L 377.8,291.6 L 378.6,292.9 L 379.5,303.9 L 380.4,305.4 L 381.3,299.0 L 382.1,302.9 L 383.0,310.1 L 383.9,311.5 L 384.8,305.9 L 385.6,304.8 L 386.5,309.1 L 387.4,308.8 L 388.2,307.1 L 389.1,306.8 L 390.0,304.2 L 390.9,305.0 L 391.7,309.6 L 392.6,313.1 L 393.5,316.4 L 394.3,315.4 L 395.2,315.4 L 396.1,313.3 L 397.0,309.3 L 397.8,309.9 L 398.7,312.0 L 399.6,312.7 L 400.4,313.2 L 401.3,310.9 L 402.2,311.3 L 403.1,311.2 L 403.9,307.9 L 404.8,310.1 L 405.7,310.4 L 406.6,308.4 L 407.4,300.5 L 408.3,296.8 L 409.2,300.3 L 410.0,304.1 L 410.9,295.6 L 411.8,297.7 L 412.7,298.2 L 413.5,298.8 L 414.4,303.4 L 415.3,305.9 L 416.1,304.1 L 417.0,305.0 L 417.9,304.8 L 418.8,304.7 L 419.6,303.7 L 420.5,305.1 L 421.4,264.0 L 422.2,264.9 L 423.1,267.0 L 424.0,265.3 L 424.9,282.5 L 425.7,274.0 L 426.6,274.1 L 427.5,273.0 L 428.4,329.5 L 429.2,331.2 L 430.1,331.7 L 431.0,331.7 L 431.8,337.3 L 432.7,333.0 L 433.6,333.3 L 434.5,330.8 L 435.3,336.3 L 436.2,337.4 L 437.1,334.5 L 437.9,334.1 L 438.8,332.1 L 439.7,331.8 L 440.6,332.5 L 441.4,333.6 L 442.3,325.1 L 443.2,327.5 L 444.1,330.1 L 444.9,329.7 L 445.8,330.5 L 446.7,332.0 L 447.5,339.1 L 448.4,336.2 L 449.3,335.7 L 450.2,336.3 L 451.0,337.1 L 451.9,338.9 L 452.8,346.1 L 453.6,345.1 L 454.5,349.1 L 455.4,349.1 L 456.3,348.3 L 457.1,345.9 L 458.0,343.8 L 458.9,347.1 L 459.7,356.3 L 460.6,353.9 L 461.5,356.3 L 462.4,356.7 L 463.2,357.0 L 464.1,356.1 L 465.0,357.1 L 465.9,357.3 L 466.7,349.4 L 467.6,351.6 L 468.5,352.2 L 469.3,351.8 L 470.2,349.3 L 471.1,353.8 L 472.0,354.3 L 472.8,358.0 L 473.7,364.8 L 474.6,362.3 L 475.4,361.8 L 476.3,362.7 L 477.2,360.0 L 478.1,362.7 L 478.9,358.7 L 479.8,356.1 L 480.7,347.5 L 481.5,347.2 L 482.4,347.9 L 483.3,347.9 L 484.2,352.4 L 485.0,347.7 L 485.9,347.9 L 486.8,346.9 L 487.7,345.5 L 488.5,345.7 L 489.4,351.6 L 490.3,352.1 L 491.1,348.1 L 492.0,347.7 L 492.9,351.0 L 493.8,351.2 L 494.6,333.6 L 495.5,331.2 L 496.4,335.2 L 497.2,330.9 L 498.1,337.4 L 499.0,338.9 L 499.9,337.5 L 500.7,338.5 L 501.6,345.3 L 502.5,346.0 L 503.3,346.0 L 504.2,346.8 L 505.1,344.6 L 506.0,343.6 L 506.8,341.1 L 507.7,331.1 L 508.6,339.8 L 509.5,338.3 L 510.3,338.3 L 511.2,340.4 L 512.1,340.1 L 512.9,337.1 L 513.8,338.7 L 514.7,340.2 L 515.6,330.3 L 516.4,333.4 L 517.3,330.5 L 518.2,330.7 L 519.0,332.0 L 519.9,335.4 L 520.8,336.5 L 521.7,337.8 L 522.5,341.1 L 523.4,339.3 L 524.3,338.9 L 525.2,339.1 L 526.0,330.7 L 526.9,331.8 L 527.8,332.8 L 528.6,335.0 L 529.5,321.9 L 530.4,323.4 L 531.3,324.8 L 532.1,322.2 L 533.0,325.8 L 533.9,328.4 L 534.7,328.4 L 535.6,328.3 L 536.5,332.0 L 537.4,334.0 L 538.2,336.1 L 539.1,336.9 L 540.0,336.1 L 540.8,335.8 L 541.7,334.8 L 542.6,333.2 L 543.5,340.7 L 544.3,338.9 L 545.2,340.8 L 546.1,339.1 L 547.0,340.1 L 547.8,341.5 L 548.7,339.0 L 549.6,334.5 L 550.4,341.0 L 551.3,340.6 L 552.2,344.3 L 553.1,344.8 L 553.9,343.4 L 554.8,344.0 L 555.7,344.2 L 556.5,345.5 L 557.4,344.2 L 558.3,342.2 L 559.2,339.3 L 560.0,339.7 L 560.9,333.6 L 561.8,335.7 L 562.6,335.8 L 563.5,333.4 L 564.4,315.0 L 565.3,306.7 L 566.1,308.8 L 567.0,310.1 L 567.9,312.1 L 568.8,309.6 L 569.6,311.9 L 570.5,311.9 L 571.4,309.5 L 572.2,312.4 L 573.1,320.2 L 574.0,315.7 L 574.9,316.5 L 575.7,315.3 L 576.6,316.4 L 577.5,319.3 L 578.3,322.1 L 579.2,327.3 L 580.1,330.5 L 581.0,326.7 L 581.8,304.1 L 582.7,307.8 L 583.6,311.6 L 584.4,309.2 L 585.3,312.7 L 586.2,314.5 L 587.1,312.3 L 587.9,312.7 L 588.8,308.3 L 589.7,304.2 L 590.6,300.7 L 591.4,299.4 L 592.3,296.6 L 593.2,291.0 L 594.0,290.7 L 594.9,290.6 L 595.8,279.0 L 596.7,284.1 L 597.5,284.1 L 598.4,285.9 L 599.3,267.9 L 600.1,269.0 L 601.0,265.8 L 601.9,269.1 L 602.8,282.1 L 603.6,281.0 L 604.5,282.4 L 605.4,282.9 L 606.3,282.1 L 607.1,283.0 L 608.0,282.9 L 608.9,287.0 L 609.7,288.0 L 610.6,291.2 L 611.5,292.9 L 612.4,294.1 L 613.2,258.9 L 614.1,267.4 L 615.0,264.7 L 615.8,265.3 L 616.7,232.1 L 617.6,226.4 L 618.5,223.7 L 619.3,222.9 L 620.2,268.6 L 621.1,259.5 L 621.9,262.4 L 622.8,264.1 L 623.7,257.7 L 624.6,261.0 L 625.4,211.3 L 626.3,204.5 L 627.2,213.5 L 628.1,214.6 L 628.9,218.2 L 629.8,222.1 L 630.7,221.7 L 631.5,221.9 L 632.4,213.5 L 633.3,209.6 L 634.2,180.4 L 635.0,189.1 L 635.9,182.7 L 636.8,176.1 L 637.6,153.1 L 638.5,155.8 L 639.4,156.5 L 640.3,158.7 L 641.1,110.0 L 642.0,104.2 L 642.9,113.2 L 643.7,131.6 L 644.6,129.9 L 645.5,136.1 L 646.4,141.7 L 647.2,129.9 L 648.1,132.9 L 649.0,136.4 L 649.9,142.9 L 650.7,140.9 L 651.6,166.7 L 652.5,162.8 L 653.3,158.9 L 654.2,158.6 L 655.1,168.8 L 656.0,179.9 L 656.8,176.3 L 657.7,174.0 L 658.6,196.3 L 659.4,200.6 L 660.3,213.8 L 661.2,215.3 L 662.1,236.2 L 662.9,245.6 L 663.8,253.4 L 664.7,255.2 L 665.6,253.1 L 666.4,253.6 L 667.3,249.3 L 668.2,242.4 L 669.0,221.7 L 669.9,220.9 L 670.8,220.2 L 671.7,225.3 L 672.5,247.4 L 673.4,251.0 L 674.3,257.7 L 675.1,259.5 L 676.0,258.1 L 676.9,255.9 L 677.8,254.6 L 678.6,254.3 L 679.5,233.0 L 680.4,233.3 L 681.2,237.5 L 682.1,234.8 L 683.0,233.5 L 683.9,234.8 L 684.7,234.3 L 685.6,240.4 L 686.5,243.4 L 687.4,244.0 L 688.2,241.2 L 689.1,243.6 L 690.0,242.3 L 690.8,245.0 L 691.7,236.0 L 692.6,239.5 L 693.5,224.1 L 694.3,215.9 L 695.2,214.3 L 696.1,214.7 L 696.9,202.0 L 697.8,206.0 L 698.7,218.8 L 699.6,224.0 L 700.4,234.6 L 701.3,236.2 L 702.2,241.7 L 703.0,244.2 L 703.9,243.6 L 704.8,241.6 L 705.7,238.8 L 706.5,236.6 L 707.4,236.2 L 708.3,239.3 L 709.2,234.7 L 710.0,226.2 L 710.9,206.4 L 711.8,207.0 L 712.6,211.9 L 713.5,211.4 L 714.4,203.3 L 715.3,194.3 L 716.1,198.4 L 717.0,201.6 L 717.9,218.6 L 718.7,213.1 L 719.6,216.7 L 720.5,221.6 L 721.4,210.1 L 722.2,203.3 L 723.1,202.8 L 724.0,202.7 L 724.8,195.9 L 725.7,195.8 L 726.6,197.3 L 727.5,195.7 L 728.3,177.4 L 729.2,182.2 L 730.1,192.4 L 731.0,195.7 L 731.8,200.6 L 732.7,202.4 L 733.6,206.3 L 734.4,211.5 L 735.3,213.9 L 736.2,216.7 L 737.1,213.7 L 737.9,206.3 L 738.8,217.4 L 739.7,218.0 L 740.5,211.0 L 741.4,214.9 L 742.3,218.7 L 743.2,223.5 L 744.0,215.9 L 744.9,205.1 L 745.8,209.3 L 746.7,211.3 L 747.5,216.8 L 748.4,220.8 L 749.3,234.2 L 750.1,238.7 L 751.0,237.8 L 751.9,247.3 L 752.8,245.6 L 753.6,249.1 L 754.5,253.2 L 755.4,252.6 L 756.2,249.0 L 757.1,243.7 L 758.0,246.2 L 758.9,240.9 L 759.7,237.4 L 760.6,244.2 L 761.5,240.9 L 762.3,239.3 L 763.2,268.1 L 764.1,267.5 L 765.0,267.1 L 765.8,265.7 L 766.7,253.4 L 767.6,249.9 L 768.5,244.2 L 769.3,243.4 L 770.2,243.3 L 771.1,245.3 L 771.9,246.0 L 772.8,244.9 L 773.7,249.9 L 774.6,248.7 L 775.4,254.2 L 776.3,253.9 L 777.2,254.8 L 778.0,255.8 L 778.9,256.7 L 779.8,252.3 L 780.7,255.6 L 781.5,254.8 L 782.4,255.8 L 783.3,262.2 L 784.1,252.8 L 785.0,259.9 L 785.9,259.7 L 786.8,257.1 L 787.6,251.3 L 788.5,249.8 L 789.4,247.1 L 790.3,243.4 L 791.1,255.5 L 792.0,259.5 L 792.9,261.0 L 793.7,259.6 L 794.6,268.1 L 795.5,265.5 L 796.4,263.8 L 797.2,265.1 L 798.1,262.1 L 799.0,262.2 L 799.8,268.5 L 800.7,267.4 L 801.6,272.7 L 802.5,273.0 L 803.3,273.6 L 804.2,277.1 L 805.1,288.7 L 805.9,291.6 L 806.8,292.7 L 807.7,292.1 L 808.6,305.6 L 809.4,313.5 L 810.3,316.1 L 811.2,317.4 L 812.1,317.4 L 812.9,323.0 L 813.8,321.1 L 814.7,311.3 L 815.5,307.0 L 816.4,309.6 L 817.3,310.0 L 818.2,309.5 L 819.0,300.0 L 819.9,302.3 L 820.8,302.2 L 821.6,305.9 L 822.5,298.4 L 823.4,305.9 L 824.3,306.6 L 825.1,306.2 L 826.0,298.9 L 826.9,293.1 L 827.8,295.7 L 828.6,295.2 L 829.5,301.1 L 830.4,298.9 L 831.2,296.8 L 832.1,297.2 L 833.0,303.4 L 833.9,302.2 L 834.7,301.8 L 835.6,304.2 L 836.5,304.1 L 837.3,303.9 L 838.2,302.3 L 839.1,305.8 L 840.0,283.3 L 840.8,281.3 L 841.7,280.6 L 842.6,279.7 L 843.4,277.9 L 844.3,274.5 L 845.2,277.9 L 846.1,277.6 L 846.9,265.0 L 847.8,268.5 L 848.7,269.9 L 849.6,269.6 L 850.4,261.0 L 851.3,260.8 L 852.2,262.9 L 853.0,265.3 L 853.9,266.9 L 854.8,265.9 L 855.7,265.4 L 856.5,262.4 L 857.4,204.9 L 858.3,202.5 L 859.1,202.5 L 860.0,202.5 L 860.9,200.3 L 861.8,208.0 L 862.6,202.2 L 863.5,197.7 L 864.4,199.4 L 865.2,195.9 L 866.1,207.0 L 867.0,209.3 L 867.9,218.0 L 868.7,216.8 L 869.6,220.7 L 870.5,222.0 L 871.4,214.7 L 872.2,213.4 L 873.1,215.9 L 874.0,215.5 L 874.8,191.0 L 875.7,185.1 L 876.6,193.4 L 877.5,196.1 L 878.3,202.0 L 879.2,202.9 L 880.1,202.8 L 880.9,203.6 L 881.8,197.5 L 882.7,189.1 L 883.6,190.6 L 884.4,188.1 L 885.3,162.6 L 886.2,164.4 L 887.0,160.7 L 887.9,163.8 L 888.8,164.0 L 889.7,163.2 L 890.5,163.2 L 891.4,169.2 L 892.3,148.0 L 893.2,157.0 L 894.0,156.9 L 894.9,159.4 L 895.8,171.7 L 896.6,183.5 L 897.5,178.6 L 898.4,178.7 L 899.3,181.8 L 900.1,179.0 L 901.0,171.2 L 901.9,164.3 L 902.7,159.3 L 903.6,161.7 L 904.5,167.5 L 905.4,173.4 L 906.2,168.8 L 907.1,168.4 L 908.0,171.6 L 908.9,171.2 L 909.7,177.3 L 910.6,173.8 L 911.5,175.3 L 912.3,176.2 L 913.2,178.9 L 914.1,181.6 L 915.0,183.0 L 915.8,184.3 L 916.7,189.6 L 917.6,187.2 L 918.4,188.8 L 919.3,188.5 L 920.2,184.9 L 921.1,181.1 L 921.9,173.0 L 922.8,175.7 L 923.7,172.1 L 924.5,180.6 L 925.4,178.1 L 926.3,180.4 L 927.2,190.5 L 928.0,191.8 L 928.9,194.3 L 929.8,196.7 L 930.7,201.6 L 931.5,202.8 L 932.4,204.9 L 933.3,205.3 L 934.1,209.3 L 935.0,215.0 L 935.9,211.5 L 936.8,214.7 L 937.6,198.6 L 938.5,203.7 L 939.4,205.9 L 940.2,208.2 L 941.1,211.3 L 942.0,207.3 L 942.9,210.5 L 943.7,204.4 L 944.6,202.3 L 945.5,200.2 L 946.3,206.1 L 947.2,203.3 L 948.1,194.3 L 949.0,191.3 L 949.8,190.6 L 950.7,193.4 L 951.6,126.7 L 952.5,126.7 L 953.3,126.7 L 954.2,126.7 L 955.1,106.3 L 955.9,102.5 L 956.8,98.0 L 957.7,98.1 L 958.6,136.5 L 959.4,130.8 L 960.3,133.9 L 961.2,142.7 L 962.0,141.4 L 962.9,141.4 L 963.8,169.5 L 964.7,164.4 L 965.5,170.9 L 966.4,170.4 L 967.3,171.3 L 968.1,170.9 L 969.0,180.8 L 969.9,174.5 L 970.8,172.8 L 971.6,172.1 L 972.5,175.4 L 973.4,177.3 L 974.3,172.1 L 975.1,171.2 L 976.0,195.5 L 976.9,199.9 L 977.7,206.9 L 978.6,203.3 L 979.5,195.9 L 980.4,201.0 L 981.2,198.6 L 982.1,203.6 L 983.0,202.8 L 983.8,201.8 L 984.7,199.5 L 985.6,200.2 L 986.5,200.7 L 987.3,198.4 L 988.2,193.7 L 989.1,195.4 L 990.0,199.0 L 990.8,200.3 L 991.7,206.9 L 992.6,206.8 L 993.4,217.8 L 994.3,205.1 L 995.2,200.3 L 996.1,206.3 L 996.9,217.4 L 997.8,220.5 L 998.7,220.3 L 999.5,221.6 L 1000.4,228.0 L 1001.3,232.1 L 1002.2,236.4 L 1003.0,236.8 L 1003.9,238.0 L 1004.8,227.0 L 1005.6,231.0 L 1006.5,231.8 L 1007.4,231.4 L 1008.3,234.0 L 1009.1,235.4 L 1010.0,241.2 L 1010.9,233.0 L 1011.8,233.0 L 1012.6,232.7 L 1013.5,227.4 L 1014.4,246.5 L 1015.2,251.6 L 1016.1,252.4 L 1017.0,246.5 L 1017.9,246.0 L 1018.7,248.3 L 1019.6,249.8 L 1020.5,250.1 L 1021.3,253.5 L 1022.2,252.4 L 1023.1,249.4 L 1024.0,254.0 L 1024.8,240.5 L 1025.7,242.5 L 1026.6,240.8 L 1027.4,241.1 L 1028.3,237.8 L 1029.2,236.8 L 1030.1,237.0 L 1030.9,237.9 L 1031.8,235.9 L 1032.7,235.6 L 1033.6,238.9 L 1034.4,239.6 L 1035.3,242.5 L 1036.2,239.9 L 1037.0,236.4 L 1037.9,236.2 L 1038.8,235.0 L 1039.7,237.4 L 1040.5,236.6 L 1041.4,240.5 L 1042.3,223.6 L 1043.1,224.9 L 1044.0,225.2 L 1044.9,222.0 L 1045.8,218.3 L 1046.6,212.5 L 1047.5,213.8 L 1048.4,214.6 L 1049.3,220.0 L 1050.1,216.4 L 1051.0,220.4 L 1051.9,221.1 L 1052.7,225.2 L 1053.6,228.0 L 1054.5,227.6 L 1055.4,226.0 L 1056.2,215.3 L 1057.1,218.0 L 1058.0,216.4 L 1058.8,216.6 L 1059.7,241.9 L 1060.6,242.6 L 1061.5,252.4 L 1062.3,257.2 L 1063.2,254.7 L 1064.1,258.7 L 1064.9,259.5 L 1065.8,260.8 L 1066.7,253.9 L 1067.6,250.2 L 1068.4,252.4 L 1069.3,252.0 L 1070.2,250.7 L 1071.1,250.2 L 1071.9,250.9 L 1072.8,251.8 L 1073.7,278.5 L 1074.5,276.0 L 1075.4,266.6 L 1076.3,265.5 L 1077.2,260.1 L 1078.0,262.2 L 1078.9,261.3 L 1079.8,259.3 L 1080.6,263.8 L 1081.5,263.4 L 1082.4,268.2 L 1083.3,268.5 L 1084.1,279.4 L 1085.0,288.2 L 1085.9,283.9 L 1086.7,283.9 L 1087.6,280.1 L 1088.5,283.1 L 1089.4,283.3 L 1090.2,286.2 L 1091.1,305.6 L 1092.0,301.8 L 1092.9,298.5 L 1093.7,296.2 L 1094.6,291.6 L 1095.5,293.5 L 1096.3,299.4 L 1097.2,303.3 L 1098.1,297.6 L 1099.0,298.6 L 1099.8,296.0 L 1100.7,292.5 L 1101.6,296.4 L 1102.4,298.6 L 1103.3,301.0 L 1104.2,303.3 L 1105.1,313.8 L 1105.9,313.5 L 1106.8,317.6 L 1107.7,320.7 L 1108.5,341.0 L 1109.4,347.5 L 1110.3,352.1 L 1111.2,356.2 L 1112.0,350.1 L 1112.9,346.7 L 1113.8,348.8 L 1114.7,341.6 L 1115.5,329.7 L 1116.4,333.7 L 1117.3,332.2 L 1118.1,329.6 L 1119.0,339.5 L 1119.9,342.4 L 1120.8,348.7 L 1121.6,347.2 L 1122.5,346.5 L 1123.4,344.0 L 1124.2,343.8 L 1125.1,343.0 L 1126.0,342.7 L 1126.9,343.1 L 1127.7,343.4 L 1128.6,342.3 L 1129.5,340.4 L 1130.4,346.3 L 1131.2,347.1 L 1132.1,352.1 L 1133.0,348.0 L 1133.8,346.4 L 1134.7,345.5 L 1135.6,343.6 L 1136.5,351.3 L 1137.3,352.1 L 1138.2,356.6 L 1139.1,359.9 L 1139.9,359.0 L 1140.8,358.3 L 1141.7,357.4 L 1142.6,361.6 L 1143.4,362.7 L 1144.3,366.9 L 1145.2,364.7 L 1146.0,365.7 L 1146.9,345.2 L 1147.8,342.8 L 1148.7,342.0 L 1149.5,341.6 L 1150.4,354.3 L 1151.3,354.7 L 1152.2,355.4 L 1153.0,355.3 L 1153.9,338.5 L 1154.8,343.2 L 1155.6,342.4 L 1156.5,344.6 L 1157.4,349.3 L 1158.3,351.6 L 1159.1,346.3 L 1160.0,346.5 L 1160.0,418.0 Z" fill="#14b8a6" opacity="0.22" />
<polyline fill="none" stroke="#0f766e" stroke-width="3" stroke-linecap="round" stroke-linejoin="round" points="90.0,273.9 90.9,285.5 91.7,290.7 92.6,290.7 93.5,300.0 94.4,311.1 95.2,316.8 96.1,324.6 97.0,326.6 97.8,330.4 98.7,332.2 99.6,335.3 100.5,330.8 101.3,335.3 102.2,329.6 103.1,319.8 104.0,316.4 104.8,319.3 105.7,314.2 106.6,307.0 107.4,315.7 108.3,317.7 109.2,313.5 110.1,314.4 110.9,312.4 111.8,314.9 112.7,318.7 113.5,326.7 114.4,325.4 115.3,327.7 116.2,321.4 117.0,324.7 117.9,315.0 118.8,310.4 119.6,308.6 120.5,308.0 121.4,304.8 122.3,308.6 123.1,311.3 124.0,313.6 124.9,304.8 125.8,310.7 126.6,310.3 127.5,308.3 128.4,314.4 129.2,308.4 130.1,308.0 131.0,309.6 131.9,270.3 132.7,273.1 133.6,275.7 134.5,274.4 135.3,278.8 136.2,272.3 137.1,274.9 138.0,273.2 138.8,281.8 139.7,278.2 140.6,279.3 141.5,281.6 142.3,280.4 143.2,291.6 144.1,328.5 144.9,322.7 145.8,322.7 146.7,314.2 147.6,316.1 148.4,316.5 149.3,314.8 150.2,317.4 151.0,319.0 151.9,322.1 152.8,312.4 153.7,314.6 154.5,317.0 155.4,317.6 156.3,292.0 157.1,286.2 158.0,290.7 158.9,287.9 159.8,280.8 160.6,276.3 161.5,290.3 162.4,288.4 163.3,288.2 164.1,291.7 165.0,292.1 165.9,291.7 166.7,305.1 167.6,300.3 168.5,304.2 169.4,303.8 170.2,304.1 171.1,303.8 172.0,302.2 172.8,299.0 173.7,308.2 174.6,314.0 175.5,313.1 176.3,318.9 177.2,324.0 178.1,321.1 178.9,321.5 179.8,316.5 180.7,318.7 181.6,302.3 182.4,311.7 183.3,305.8 184.2,314.1 185.1,314.9 185.9,321.3 186.8,325.4 187.7,317.8 188.5,318.3 189.4,317.4 190.3,316.6 191.2,319.4 192.0,317.3 192.9,316.5 193.8,317.4 194.6,287.5 195.5,283.3 196.4,292.5 197.3,288.3 198.1,275.5 199.0,277.7 199.9,283.8 200.7,280.1 201.6,280.5 202.5,273.1 203.4,274.4 204.2,278.8 205.1,283.4 206.0,283.1 206.9,285.8 207.7,285.7 208.6,298.4 209.5,301.1 210.3,304.1 211.2,300.5 212.1,306.3 213.0,309.5 213.8,312.8 214.7,318.5 215.6,312.7 216.4,318.6 217.3,322.4 218.2,323.4 219.1,321.3 219.9,315.0 220.8,314.8 221.7,315.0 222.6,318.5 223.4,319.5 224.3,316.6 225.2,313.8 226.0,311.3 226.9,307.8 227.8,310.3 228.7,310.7 229.5,300.7 230.4,305.8 231.3,309.3 232.1,311.7 233.0,304.6 233.9,306.3 234.8,308.0 235.6,304.8 236.5,312.5 237.4,317.4 238.2,317.0 239.1,311.7 240.0,317.4 240.9,310.1 241.7,306.3 242.6,309.1 243.5,317.7 244.4,320.9 245.2,321.7 246.1,318.2 247.0,314.9 247.8,314.4 248.7,312.1 249.6,312.3 250.5,315.2 251.3,316.9 252.2,317.3 253.1,318.1 253.9,294.0 254.8,298.4 255.7,298.4 256.6,293.7 257.4,308.6 258.3,307.1 259.2,310.1 260.0,311.5 260.9,314.0 261.8,310.9 262.7,314.2 263.5,316.9 264.4,318.9 265.3,320.5 266.2,321.1 267.0,320.7 267.9,322.4 268.8,327.6 269.6,328.1 270.5,321.7 271.4,330.4 272.3,331.4 273.1,331.1 274.0,345.1 274.9,344.9 275.7,341.1 276.6,344.9 277.5,345.6 278.4,342.8 279.2,342.2 280.1,344.3 281.0,343.0 281.9,342.7 282.7,345.3 283.6,344.3 284.5,347.1 285.3,365.3 286.2,370.1 287.1,369.8 288.0,359.6 288.8,360.4 289.7,361.1 290.6,393.4 291.4,394.4 292.3,385.0 293.2,387.0 294.1,388.9 294.9,387.3 295.8,378.7 296.7,382.4 297.5,376.7 298.4,375.8 299.3,387.8 300.2,397.1 301.0,418.0 301.9,412.0 302.8,407.3 303.7,410.1 304.5,410.7 305.4,406.4 306.3,390.9 307.1,396.7 308.0,394.7 308.9,394.6 309.8,362.2 310.6,351.4 311.5,348.0 312.4,348.0 313.2,341.2 314.1,334.6 315.0,339.0 315.9,340.1 316.7,318.9 317.6,323.4 318.5,323.1 319.3,323.9 320.2,327.6 321.1,330.7 322.0,330.0 322.8,329.2 323.7,326.8 324.6,331.3 325.5,332.0 326.3,328.5 327.2,317.4 328.1,318.5 328.9,323.6 329.8,325.9 330.7,330.8 331.6,331.4 332.4,327.6 333.3,328.1 334.2,322.3 335.0,324.0 335.9,317.3 336.8,309.5 337.7,308.3 338.5,314.5 339.4,313.8 340.3,317.2 341.1,315.4 342.0,313.7 342.9,313.7 343.8,314.4 344.6,314.5 345.5,316.4 346.4,308.4 347.3,309.0 348.1,320.7 349.0,316.6 349.9,309.0 350.7,311.6 351.6,314.1 352.5,313.1 353.4,316.0 354.2,315.4 355.1,308.3 356.0,310.0 356.8,315.0 357.7,314.1 358.6,305.4 359.5,302.1 360.3,299.3 361.2,301.5 362.1,292.9 363.0,292.8 363.8,295.2 364.7,294.3 365.6,289.4 366.4,285.5 367.3,289.4 368.2,286.7 369.1,284.5 369.9,291.5 370.8,288.2 371.7,288.3 372.5,292.3 373.4,290.8 374.3,291.1 375.2,294.3 376.0,280.8 376.9,286.7 377.8,291.6 378.6,292.9 379.5,303.9 380.4,305.4 381.3,299.0 382.1,302.9 383.0,310.1 383.9,311.5 384.8,305.9 385.6,304.8 386.5,309.1 387.4,308.8 388.2,307.1 389.1,306.8 390.0,304.2 390.9,305.0 391.7,309.6 392.6,313.1 393.5,316.4 394.3,315.4 395.2,315.4 396.1,313.3 397.0,309.3 397.8,309.9 398.7,312.0 399.6,312.7 400.4,313.2 401.3,310.9 402.2,311.3 403.1,311.2 403.9,307.9 404.8,310.1 405.7,310.4 406.6,308.4 407.4,300.5 408.3,296.8 409.2,300.3 410.0,304.1 410.9,295.6 411.8,297.7 412.7,298.2 413.5,298.8 414.4,303.4 415.3,305.9 416.1,304.1 417.0,305.0 417.9,304.8 418.8,304.7 419.6,303.7 420.5,305.1 421.4,264.0 422.2,264.9 423.1,267.0 424.0,265.3 424.9,282.5 425.7,274.0 426.6,274.1 427.5,273.0 428.4,329.5 429.2,331.2 430.1,331.7 431.0,331.7 431.8,337.3 432.7,333.0 433.6,333.3 434.5,330.8 435.3,336.3 436.2,337.4 437.1,334.5 437.9,334.1 438.8,332.1 439.7,331.8 440.6,332.5 441.4,333.6 442.3,325.1 443.2,327.5 444.1,330.1 444.9,329.7 445.8,330.5 446.7,332.0 447.5,339.1 448.4,336.2 449.3,335.7 450.2,336.3 451.0,337.1 451.9,338.9 452.8,346.1 453.6,345.1 454.5,349.1 455.4,349.1 456.3,348.3 457.1,345.9 458.0,343.8 458.9,347.1 459.7,356.3 460.6,353.9 461.5,356.3 462.4,356.7 463.2,357.0 464.1,356.1 465.0,357.1 465.9,357.3 466.7,349.4 467.6,351.6 468.5,352.2 469.3,351.8 470.2,349.3 471.1,353.8 472.0,354.3 472.8,358.0 473.7,364.8 474.6,362.3 475.4,361.8 476.3,362.7 477.2,360.0 478.1,362.7 478.9,358.7 479.8,356.1 480.7,347.5 481.5,347.2 482.4,347.9 483.3,347.9 484.2,352.4 485.0,347.7 485.9,347.9 486.8,346.9 487.7,345.5 488.5,345.7 489.4,351.6 490.3,352.1 491.1,348.1 492.0,347.7 492.9,351.0 493.8,351.2 494.6,333.6 495.5,331.2 496.4,335.2 497.2,330.9 498.1,337.4 499.0,338.9 499.9,337.5 500.7,338.5 501.6,345.3 502.5,346.0 503.3,346.0 504.2,346.8 505.1,344.6 506.0,343.6 506.8,341.1 507.7,331.1 508.6,339.8 509.5,338.3 510.3,338.3 511.2,340.4 512.1,340.1 512.9,337.1 513.8,338.7 514.7,340.2 515.6,330.3 516.4,333.4 517.3,330.5 518.2,330.7 519.0,332.0 519.9,335.4 520.8,336.5 521.7,337.8 522.5,341.1 523.4,339.3 524.3,338.9 525.2,339.1 526.0,330.7 526.9,331.8 527.8,332.8 528.6,335.0 529.5,321.9 530.4,323.4 531.3,324.8 532.1,322.2 533.0,325.8 533.9,328.4 534.7,328.4 535.6,328.3 536.5,332.0 537.4,334.0 538.2,336.1 539.1,336.9 540.0,336.1 540.8,335.8 541.7,334.8 542.6,333.2 543.5,340.7 544.3,338.9 545.2,340.8 546.1,339.1 547.0,340.1 547.8,341.5 548.7,339.0 549.6,334.5 550.4,341.0 551.3,340.6 552.2,344.3 553.1,344.8 553.9,343.4 554.8,344.0 555.7,344.2 556.5,345.5 557.4,344.2 558.3,342.2 559.2,339.3 560.0,339.7 560.9,333.6 561.8,335.7 562.6,335.8 563.5,333.4 564.4,315.0 565.3,306.7 566.1,308.8 567.0,310.1 567.9,312.1 568.8,309.6 569.6,311.9 570.5,311.9 571.4,309.5 572.2,312.4 573.1,320.2 574.0,315.7 574.9,316.5 575.7,315.3 576.6,316.4 577.5,319.3 578.3,322.1 579.2,327.3 580.1,330.5 581.0,326.7 581.8,304.1 582.7,307.8 583.6,311.6 584.4,309.2 585.3,312.7 586.2,314.5 587.1,312.3 587.9,312.7 588.8,308.3 589.7,304.2 590.6,300.7 591.4,299.4 592.3,296.6 593.2,291.0 594.0,290.7 594.9,290.6 595.8,279.0 596.7,284.1 597.5,284.1 598.4,285.9 599.3,267.9 600.1,269.0 601.0,265.8 601.9,269.1 602.8,282.1 603.6,281.0 604.5,282.4 605.4,282.9 606.3,282.1 607.1,283.0 608.0,282.9 608.9,287.0 609.7,288.0 610.6,291.2 611.5,292.9 612.4,294.1 613.2,258.9 614.1,267.4 615.0,264.7 615.8,265.3 616.7,232.1 617.6,226.4 618.5,223.7 619.3,222.9 620.2,268.6 621.1,259.5 621.9,262.4 622.8,264.1 623.7,257.7 624.6,261.0 625.4,211.3 626.3,204.5 627.2,213.5 628.1,214.6 628.9,218.2 629.8,222.1 630.7,221.7 631.5,221.9 632.4,213.5 633.3,209.6 634.2,180.4 635.0,189.1 635.9,182.7 636.8,176.1 637.6,153.1 638.5,155.8 639.4,156.5 640.3,158.7 641.1,110.0 642.0,104.2 642.9,113.2 643.7,131.6 644.6,129.9 645.5,136.1 646.4,141.7 647.2,129.9 648.1,132.9 649.0,136.4 649.9,142.9 650.7,140.9 651.6,166.7 652.5,162.8 653.3,158.9 654.2,158.6 655.1,168.8 656.0,179.9 656.8,176.3 657.7,174.0 658.6,196.3 659.4,200.6 660.3,213.8 661.2,215.3 662.1,236.2 662.9,245.6 663.8,253.4 664.7,255.2 665.6,253.1 666.4,253.6 667.3,249.3 668.2,242.4 669.0,221.7 669.9,220.9 670.8,220.2 671.7,225.3 672.5,247.4 673.4,251.0 674.3,257.7 675.1,259.5 676.0,258.1 676.9,255.9 677.8,254.6 678.6,254.3 679.5,233.0 680.4,233.3 681.2,237.5 682.1,234.8 683.0,233.5 683.9,234.8 684.7,234.3 685.6,240.4 686.5,243.4 687.4,244.0 688.2,241.2 689.1,243.6 690.0,242.3 690.8,245.0 691.7,236.0 692.6,239.5 693.5,224.1 694.3,215.9 695.2,214.3 696.1,214.7 696.9,202.0 697.8,206.0 698.7,218.8 699.6,224.0 700.4,234.6 701.3,236.2 702.2,241.7 703.0,244.2 703.9,243.6 704.8,241.6 705.7,238.8 706.5,236.6 707.4,236.2 708.3,239.3 709.2,234.7 710.0,226.2 710.9,206.4 711.8,207.0 712.6,211.9 713.5,211.4 714.4,203.3 715.3,194.3 716.1,198.4 717.0,201.6 717.9,218.6 718.7,213.1 719.6,216.7 720.5,221.6 721.4,210.1 722.2,203.3 723.1,202.8 724.0,202.7 724.8,195.9 725.7,195.8 726.6,197.3 727.5,195.7 728.3,177.4 729.2,182.2 730.1,192.4 731.0,195.7 731.8,200.6 732.7,202.4 733.6,206.3 734.4,211.5 735.3,213.9 736.2,216.7 737.1,213.7 737.9,206.3 738.8,217.4 739.7,218.0 740.5,211.0 741.4,214.9 742.3,218.7 743.2,223.5 744.0,215.9 744.9,205.1 745.8,209.3 746.7,211.3 747.5,216.8 748.4,220.8 749.3,234.2 750.1,238.7 751.0,237.8 751.9,247.3 752.8,245.6 753.6,249.1 754.5,253.2 755.4,252.6 756.2,249.0 757.1,243.7 758.0,246.2 758.9,240.9 759.7,237.4 760.6,244.2 761.5,240.9 762.3,239.3 763.2,268.1 764.1,267.5 765.0,267.1 765.8,265.7 766.7,253.4 767.6,249.9 768.5,244.2 769.3,243.4 770.2,243.3 771.1,245.3 771.9,246.0 772.8,244.9 773.7,249.9 774.6,248.7 775.4,254.2 776.3,253.9 777.2,254.8 778.0,255.8 778.9,256.7 779.8,252.3 780.7,255.6 781.5,254.8 782.4,255.8 783.3,262.2 784.1,252.8 785.0,259.9 785.9,259.7 786.8,257.1 787.6,251.3 788.5,249.8 789.4,247.1 790.3,243.4 791.1,255.5 792.0,259.5 792.9,261.0 793.7,259.6 794.6,268.1 795.5,265.5 796.4,263.8 797.2,265.1 798.1,262.1 799.0,262.2 799.8,268.5 800.7,267.4 801.6,272.7 802.5,273.0 803.3,273.6 804.2,277.1 805.1,288.7 805.9,291.6 806.8,292.7 807.7,292.1 808.6,305.6 809.4,313.5 810.3,316.1 811.2,317.4 812.1,317.4 812.9,323.0 813.8,321.1 814.7,311.3 815.5,307.0 816.4,309.6 817.3,310.0 818.2,309.5 819.0,300.0 819.9,302.3 820.8,302.2 821.6,305.9 822.5,298.4 823.4,305.9 824.3,306.6 825.1,306.2 826.0,298.9 826.9,293.1 827.8,295.7 828.6,295.2 829.5,301.1 830.4,298.9 831.2,296.8 832.1,297.2 833.0,303.4 833.9,302.2 834.7,301.8 835.6,304.2 836.5,304.1 837.3,303.9 838.2,302.3 839.1,305.8 840.0,283.3 840.8,281.3 841.7,280.6 842.6,279.7 843.4,277.9 844.3,274.5 845.2,277.9 846.1,277.6 846.9,265.0 847.8,268.5 848.7,269.9 849.6,269.6 850.4,261.0 851.3,260.8 852.2,262.9 853.0,265.3 853.9,266.9 854.8,265.9 855.7,265.4 856.5,262.4 857.4,204.9 858.3,202.5 859.1,202.5 860.0,202.5 860.9,200.3 861.8,208.0 862.6,202.2 863.5,197.7 864.4,199.4 865.2,195.9 866.1,207.0 867.0,209.3 867.9,218.0 868.7,216.8 869.6,220.7 870.5,222.0 871.4,214.7 872.2,213.4 873.1,215.9 874.0,215.5 874.8,191.0 875.7,185.1 876.6,193.4 877.5,196.1 878.3,202.0 879.2,202.9 880.1,202.8 880.9,203.6 881.8,197.5 882.7,189.1 883.6,190.6 884.4,188.1 885.3,162.6 886.2,164.4 887.0,160.7 887.9,163.8 888.8,164.0 889.7,163.2 890.5,163.2 891.4,169.2 892.3,148.0 893.2,157.0 894.0,156.9 894.9,159.4 895.8,171.7 896.6,183.5 897.5,178.6 898.4,178.7 899.3,181.8 900.1,179.0 901.0,171.2 901.9,164.3 902.7,159.3 903.6,161.7 904.5,167.5 905.4,173.4 906.2,168.8 907.1,168.4 908.0,171.6 908.9,171.2 909.7,177.3 910.6,173.8 911.5,175.3 912.3,176.2 913.2,178.9 914.1,181.6 915.0,183.0 915.8,184.3 916.7,189.6 917.6,187.2 918.4,188.8 919.3,188.5 920.2,184.9 921.1,181.1 921.9,173.0 922.8,175.7 923.7,172.1 924.5,180.6 925.4,178.1 926.3,180.4 927.2,190.5 928.0,191.8 928.9,194.3 929.8,196.7 930.7,201.6 931.5,202.8 932.4,204.9 933.3,205.3 934.1,209.3 935.0,215.0 935.9,211.5 936.8,214.7 937.6,198.6 938.5,203.7 939.4,205.9 940.2,208.2 941.1,211.3 942.0,207.3 942.9,210.5 943.7,204.4 944.6,202.3 945.5,200.2 946.3,206.1 947.2,203.3 948.1,194.3 949.0,191.3 949.8,190.6 950.7,193.4 951.6,126.7 952.5,126.7 953.3,126.7 954.2,126.7 955.1,106.3 955.9,102.5 956.8,98.0 957.7,98.1 958.6,136.5 959.4,130.8 960.3,133.9 961.2,142.7 962.0,141.4 962.9,141.4 963.8,169.5 964.7,164.4 965.5,170.9 966.4,170.4 967.3,171.3 968.1,170.9 969.0,180.8 969.9,174.5 970.8,172.8 971.6,172.1 972.5,175.4 973.4,177.3 974.3,172.1 975.1,171.2 976.0,195.5 976.9,199.9 977.7,206.9 978.6,203.3 979.5,195.9 980.4,201.0 981.2,198.6 982.1,203.6 983.0,202.8 983.8,201.8 984.7,199.5 985.6,200.2 986.5,200.7 987.3,198.4 988.2,193.7 989.1,195.4 990.0,199.0 990.8,200.3 991.7,206.9 992.6,206.8 993.4,217.8 994.3,205.1 995.2,200.3 996.1,206.3 996.9,217.4 997.8,220.5 998.7,220.3 999.5,221.6 1000.4,228.0 1001.3,232.1 1002.2,236.4 1003.0,236.8 1003.9,238.0 1004.8,227.0 1005.6,231.0 1006.5,231.8 1007.4,231.4 1008.3,234.0 1009.1,235.4 1010.0,241.2 1010.9,233.0 1011.8,233.0 1012.6,232.7 1013.5,227.4 1014.4,246.5 1015.2,251.6 1016.1,252.4 1017.0,246.5 1017.9,246.0 1018.7,248.3 1019.6,249.8 1020.5,250.1 1021.3,253.5 1022.2,252.4 1023.1,249.4 1024.0,254.0 1024.8,240.5 1025.7,242.5 1026.6,240.8 1027.4,241.1 1028.3,237.8 1029.2,236.8 1030.1,237.0 1030.9,237.9 1031.8,235.9 1032.7,235.6 1033.6,238.9 1034.4,239.6 1035.3,242.5 1036.2,239.9 1037.0,236.4 1037.9,236.2 1038.8,235.0 1039.7,237.4 1040.5,236.6 1041.4,240.5 1042.3,223.6 1043.1,224.9 1044.0,225.2 1044.9,222.0 1045.8,218.3 1046.6,212.5 1047.5,213.8 1048.4,214.6 1049.3,220.0 1050.1,216.4 1051.0,220.4 1051.9,221.1 1052.7,225.2 1053.6,228.0 1054.5,227.6 1055.4,226.0 1056.2,215.3 1057.1,218.0 1058.0,216.4 1058.8,216.6 1059.7,241.9 1060.6,242.6 1061.5,252.4 1062.3,257.2 1063.2,254.7 1064.1,258.7 1064.9,259.5 1065.8,260.8 1066.7,253.9 1067.6,250.2 1068.4,252.4 1069.3,252.0 1070.2,250.7 1071.1,250.2 1071.9,250.9 1072.8,251.8 1073.7,278.5 1074.5,276.0 1075.4,266.6 1076.3,265.5 1077.2,260.1 1078.0,262.2 1078.9,261.3 1079.8,259.3 1080.6,263.8 1081.5,263.4 1082.4,268.2 1083.3,268.5 1084.1,279.4 1085.0,288.2 1085.9,283.9 1086.7,283.9 1087.6,280.1 1088.5,283.1 1089.4,283.3 1090.2,286.2 1091.1,305.6 1092.0,301.8 1092.9,298.5 1093.7,296.2 1094.6,291.6 1095.5,293.5 1096.3,299.4 1097.2,303.3 1098.1,297.6 1099.0,298.6 1099.8,296.0 1100.7,292.5 1101.6,296.4 1102.4,298.6 1103.3,301.0 1104.2,303.3 1105.1,313.8 1105.9,313.5 1106.8,317.6 1107.7,320.7 1108.5,341.0 1109.4,347.5 1110.3,352.1 1111.2,356.2 1112.0,350.1 1112.9,346.7 1113.8,348.8 1114.7,341.6 1115.5,329.7 1116.4,333.7 1117.3,332.2 1118.1,329.6 1119.0,339.5 1119.9,342.4 1120.8,348.7 1121.6,347.2 1122.5,346.5 1123.4,344.0 1124.2,343.8 1125.1,343.0 1126.0,342.7 1126.9,343.1 1127.7,343.4 1128.6,342.3 1129.5,340.4 1130.4,346.3 1131.2,347.1 1132.1,352.1 1133.0,348.0 1133.8,346.4 1134.7,345.5 1135.6,343.6 1136.5,351.3 1137.3,352.1 1138.2,356.6 1139.1,359.9 1139.9,359.0 1140.8,358.3 1141.7,357.4 1142.6,361.6 1143.4,362.7 1144.3,366.9 1145.2,364.7 1146.0,365.7 1146.9,345.2 1147.8,342.8 1148.7,342.0 1149.5,341.6 1150.4,354.3 1151.3,354.7 1152.2,355.4 1153.0,355.3 1153.9,338.5 1154.8,343.2 1155.6,342.4 1156.5,344.6 1157.4,349.3 1158.3,351.6 1159.1,346.3 1160.0,346.5" />
<text x="90" y="442" font-size="12" fill="#64748b">2025-01-02</text>
<text x="583.0" y="442" font-size="12" fill="#64748b">2025-08-20</text>
<text x="1088" y="442" font-size="12" fill="#64748b">2026-04-13</text>
<text x="8" y="112" font-size="12" fill="#64748b">57.58</text>
<text x="8" y="418" font-size="12" fill="#64748b">33.40</text>
<g><circle cx="121.4" cy="309.6" r="6" fill="#16a34a" stroke="#ffffff" stroke-width="2" /><text x="129.4" y="299.6" font-size="11" font-weight="700" fill="#16a34a">BUY</text></g>
<g><circle cx="145.8" cy="324.8" r="6" fill="#dc2626" stroke="#ffffff" stroke-width="2" /><text x="153.8" y="342.8" font-size="11" font-weight="700" fill="#dc2626">SELL</text></g>
<g><circle cx="158.9" cy="290.8" r="6" fill="#16a34a" stroke="#ffffff" stroke-width="2" /><text x="166.9" y="280.8" font-size="11" font-weight="700" fill="#16a34a">BUY</text></g>
<g><circle cx="170.2" cy="305.6" r="6" fill="#dc2626" stroke="#ffffff" stroke-width="2" /><text x="178.2" y="323.6" font-size="11" font-weight="700" fill="#dc2626">SELL</text></g>
<g><circle cx="196.4" cy="283.4" r="6" fill="#16a34a" stroke="#ffffff" stroke-width="2" /><text x="204.4" y="273.4" font-size="11" font-weight="700" fill="#16a34a">BUY</text></g>
<g><circle cx="211.2" cy="304.2" r="6" fill="#dc2626" stroke="#ffffff" stroke-width="2" /><text x="219.2" y="322.2" font-size="11" font-weight="700" fill="#dc2626">SELL</text></g>
<g><circle cx="231.3" cy="305.8" r="6" fill="#16a34a" stroke="#ffffff" stroke-width="2" /><text x="239.3" y="295.8" font-size="11" font-weight="700" fill="#16a34a">BUY</text></g>
<g><circle cx="240.0" cy="312.3" r="6" fill="#dc2626" stroke="#ffffff" stroke-width="2" /><text x="248.0" y="330.3" font-size="11" font-weight="700" fill="#dc2626">SELL</text></g>
<g><circle cx="255.7" cy="298.5" r="6" fill="#16a34a" stroke="#ffffff" stroke-width="2" /><text x="263.7" y="288.5" font-size="11" font-weight="700" fill="#16a34a">BUY</text></g>
<g><circle cx="264.4" cy="318.3" r="6" fill="#dc2626" stroke="#ffffff" stroke-width="2" /><text x="272.4" y="336.3" font-size="11" font-weight="700" fill="#dc2626">SELL</text></g>
<g><circle cx="311.5" cy="351.4" r="6" fill="#16a34a" stroke="#ffffff" stroke-width="2" /><text x="319.5" y="341.4" font-size="11" font-weight="700" fill="#16a34a">BUY</text></g>
<g><circle cx="381.3" cy="305.2" r="6" fill="#dc2626" stroke="#ffffff" stroke-width="2" /><text x="389.3" y="323.2" font-size="11" font-weight="700" fill="#dc2626">SELL</text></g>
<g><circle cx="408.3" cy="300.5" r="6" fill="#16a34a" stroke="#ffffff" stroke-width="2" /><text x="416.3" y="290.5" font-size="11" font-weight="700" fill="#16a34a">BUY</text></g>
<g><circle cx="431.0" cy="331.7" r="6" fill="#dc2626" stroke="#ffffff" stroke-width="2" /><text x="439.0" y="349.7" font-size="11" font-weight="700" fill="#dc2626">SELL</text></g>
<g><circle cx="483.3" cy="347.9" r="6" fill="#16a34a" stroke="#ffffff" stroke-width="2" /><text x="491.3" y="337.9" font-size="11" font-weight="700" fill="#16a34a">BUY</text></g>
<g><circle cx="506.0" cy="344.6" r="6" fill="#dc2626" stroke="#ffffff" stroke-width="2" /><text x="514.0" y="362.6" font-size="11" font-weight="700" fill="#dc2626">SELL</text></g>
<g><circle cx="510.3" cy="338.3" r="6" fill="#16a34a" stroke="#ffffff" stroke-width="2" /><text x="518.3" y="328.3" font-size="11" font-weight="700" fill="#16a34a">BUY</text></g>
<g><circle cx="525.2" cy="338.9" r="6" fill="#dc2626" stroke="#ffffff" stroke-width="2" /><text x="533.2" y="356.9" font-size="11" font-weight="700" fill="#dc2626">SELL</text></g>
<g><circle cx="528.6" cy="332.9" r="6" fill="#16a34a" stroke="#ffffff" stroke-width="2" /><text x="536.6" y="322.9" font-size="11" font-weight="700" fill="#16a34a">BUY</text></g>
<g><circle cx="540.0" cy="336.7" r="6" fill="#dc2626" stroke="#ffffff" stroke-width="2" /><text x="548.0" y="354.7" font-size="11" font-weight="700" fill="#dc2626">SELL</text></g>
<g><circle cx="562.6" cy="335.9" r="6" fill="#16a34a" stroke="#ffffff" stroke-width="2" /><text x="570.6" y="325.9" font-size="11" font-weight="700" fill="#16a34a">BUY</text></g>
<g><circle cx="581.0" cy="330.7" r="6" fill="#dc2626" stroke="#ffffff" stroke-width="2" /><text x="589.0" y="348.7" font-size="11" font-weight="700" fill="#dc2626">SELL</text></g>
<g><circle cx="586.2" cy="312.8" r="6" fill="#16a34a" stroke="#ffffff" stroke-width="2" /><text x="594.2" y="302.8" font-size="11" font-weight="700" fill="#16a34a">BUY</text></g>
<g><circle cx="612.4" cy="293.1" r="6" fill="#dc2626" stroke="#ffffff" stroke-width="2" /><text x="620.4" y="311.1" font-size="11" font-weight="700" fill="#dc2626">SELL</text></g>
<g><circle cx="616.7" cy="251.3" r="6" fill="#16a34a" stroke="#ffffff" stroke-width="2" /><text x="624.7" y="241.3" font-size="11" font-weight="700" fill="#16a34a">BUY</text></g>
<g><circle cx="656.8" cy="179.8" r="6" fill="#dc2626" stroke="#ffffff" stroke-width="2" /><text x="664.8" y="197.8" font-size="11" font-weight="700" fill="#dc2626">SELL</text></g>
<g><circle cx="684.7" cy="234.7" r="6" fill="#16a34a" stroke="#ffffff" stroke-width="2" /><text x="692.7" y="224.7" font-size="11" font-weight="700" fill="#16a34a">BUY</text></g>
<g><circle cx="703.9" cy="242.0" r="6" fill="#dc2626" stroke="#ffffff" stroke-width="2" /><text x="711.9" y="260.0" font-size="11" font-weight="700" fill="#dc2626">SELL</text></g>
<g><circle cx="713.5" cy="211.7" r="6" fill="#16a34a" stroke="#ffffff" stroke-width="2" /><text x="721.5" y="201.7" font-size="11" font-weight="700" fill="#16a34a">BUY</text></g>
<g><circle cx="736.2" cy="213.4" r="6" fill="#dc2626" stroke="#ffffff" stroke-width="2" /><text x="744.2" y="231.4" font-size="11" font-weight="700" fill="#dc2626">SELL</text></g>
<g><circle cx="774.6" cy="249.9" r="6" fill="#16a34a" stroke="#ffffff" stroke-width="2" /><text x="782.6" y="239.9" font-size="11" font-weight="700" fill="#16a34a">BUY</text></g>
<g><circle cx="778.9" cy="255.8" r="6" fill="#dc2626" stroke="#ffffff" stroke-width="2" /><text x="786.9" y="273.8" font-size="11" font-weight="700" fill="#dc2626">SELL</text></g>
<g><circle cx="791.1" cy="227.4" r="6" fill="#16a34a" stroke="#ffffff" stroke-width="2" /><text x="799.1" y="217.4" font-size="11" font-weight="700" fill="#16a34a">BUY</text></g>
<g><circle cx="795.5" cy="268.2" r="6" fill="#dc2626" stroke="#ffffff" stroke-width="2" /><text x="803.5" y="286.2" font-size="11" font-weight="700" fill="#dc2626">SELL</text></g>
<g><circle cx="827.8" cy="293.1" r="6" fill="#16a34a" stroke="#ffffff" stroke-width="2" /><text x="835.8" y="283.1" font-size="11" font-weight="700" fill="#16a34a">BUY</text></g>
<g><circle cx="840.8" cy="283.3" r="6" fill="#dc2626" stroke="#ffffff" stroke-width="2" /><text x="848.8" y="301.3" font-size="11" font-weight="700" fill="#dc2626">SELL</text></g>
<g><circle cx="841.7" cy="281.0" r="6" fill="#16a34a" stroke="#ffffff" stroke-width="2" /><text x="849.7" y="271.0" font-size="11" font-weight="700" fill="#16a34a">BUY</text></g>
<g><circle cx="901.0" cy="178.9" r="6" fill="#dc2626" stroke="#ffffff" stroke-width="2" /><text x="909.0" y="196.9" font-size="11" font-weight="700" fill="#dc2626">SELL</text></g>
<g><circle cx="925.4" cy="180.4" r="6" fill="#16a34a" stroke="#ffffff" stroke-width="2" /><text x="933.4" y="170.4" font-size="11" font-weight="700" fill="#16a34a">BUY</text></g>
<g><circle cx="929.8" cy="194.5" r="6" fill="#dc2626" stroke="#ffffff" stroke-width="2" /><text x="937.8" y="212.5" font-size="11" font-weight="700" fill="#dc2626">SELL</text></g>
<g><circle cx="949.8" cy="191.3" r="6" fill="#16a34a" stroke="#ffffff" stroke-width="2" /><text x="957.8" y="181.3" font-size="11" font-weight="700" fill="#16a34a">BUY</text></g>
<g><circle cx="965.5" cy="169.3" r="6" fill="#dc2626" stroke="#ffffff" stroke-width="2" /><text x="973.5" y="187.3" font-size="11" font-weight="700" fill="#dc2626">SELL</text></g>
<g><circle cx="1029.2" cy="237.8" r="6" fill="#16a34a" stroke="#ffffff" stroke-width="2" /><text x="1037.2" y="227.8" font-size="11" font-weight="700" fill="#16a34a">BUY</text></g>
<g><circle cx="1061.5" cy="242.5" r="6" fill="#dc2626" stroke="#ffffff" stroke-width="2" /><text x="1069.5" y="260.5" font-size="11" font-weight="700" fill="#dc2626">SELL</text></g>
<g><circle cx="1150.4" cy="347.9" r="6" fill="#16a34a" stroke="#ffffff" stroke-width="2" /><text x="1158.4" y="337.9" font-size="11" font-weight="700" fill="#16a34a">BUY</text></g>
<text x="40" y="732" font-size="13" fill="#334155">初始资金 1,000,000.00 | 结束资金 1,195,080.23 | 总盈亏 +195,080.23</text>
</svg>