<?xml version="1.0" encoding="UTF-8"?>
<svg xmlns="http://www.w3.org/2000/svg" width="1200" height="760" viewBox="0 0 1200 760">
<rect width="100%" height="100%" fill="#f8fafc" />
<text x="40" y="36" font-size="24" font-weight="700" fill="#111827">收益曲线</text>
<text x="40" y="58" font-size="13" fill="#6b7280">区间 2025-01-02 -&gt; 2026-04-13 | 累计收益曲线（下一根K线生效）</text>
<g transform="translate(930,18)">
<rect x="0" y="0" width="220" height="56" rx="10" fill="#ffffff" stroke="#e2e8f0" />
<circle cx="18" cy="20" r="5" fill="#16a34a" />
<text x="30" y="24" font-size="12" fill="#334155">BUY: 开仓</text>
<circle cx="18" cy="40" r="5" fill="#dc2626" />
<text x="30" y="44" font-size="12" fill="#334155">SELL: 平仓</text>
</g>
<text x="40" y="84" font-size="16" font-weight="700" fill="#111827">累计收益</text>
<line x1="90" y1="418" x2="1160" y2="418" stroke="#94a3b8" stroke-width="1.5" />
<line x1="90" y1="98" x2="90" y2="418" stroke="#cbd5e1" stroke-width="1" />
<line x1="90" y1="418" x2="1160" y2="418" stroke="#cbd5e1" stroke-width="1" />
<path d="M 90.0,418.0 L 90.0,319.3 L 90.9,319.3 L 91.7,319.3 L 92.6,319.3 L 93.5,319.3 L 94.4,319.3 L 95.2,319.3 L 96.1,319.3 L 97.0,319.3 L 97.8,319.3 L 98.7,319.3 L 99.6,319.3 L 100.5,319.3 L 101.3,319.3 L 102.2,319.3 L 103.1,319.3 L 104.0,319.3 L 104.8,319.3 L 105.7,319.3 L 106.6,319.3 L 107.4,319.3 L 108.3,319.3 L 109.2,319.3 L 110.1,319.3 L 110.9,319.3 L 111.8,319.3 L 112.7,319.3 L 113.5,319.3 L 114.4,319.3 L 115.3,319.3 L 116.2,319.3 L 117.0,319.3 L 117.9,319.3 L 118.8,319.3 L 119.6,319.3 L 120.5,318.8 L 121.4,315.0 L 122.3,319.4 L 123.1,322.8 L 124.0,325.5 L 124.9,315.0 L 125.8,322.0 L 126.6,321.5 L 127.5,319.1 L 128.4,326.4 L 129.2,319.3 L 130.1,318.8 L 131.0,320.7 L 131.9,273.4 L 132.7,276.7 L 133.6,279.9 L 134.5,278.3 L 135.3,283.6 L 136.2,275.7 L 137.1,278.9 L 138.0,276.9 L 138.8,287.2 L 139.7,282.9 L 140.6,284.2 L 141.5,286.9 L 142.3,285.5 L 143.2,299.0 L 144.1,343.5 L 144.9,343.6 L 145.8,343.6 L 146.7,343.6 L 147.6,343.6 L 148.4,343.6 L 149.3,343.6 L 150.2,343.6 L 151.0,343.6 L 151.9,343.6 L 152.8,343.6 L 153.7,343.6 L 154.5,343.6 L 155.4,343.6 L 156.3,343.6 L 157.1,343.6 L 158.0,348.8 L 158.9,345.7 L 159.8,337.7 L 160.6,332.7 L 161.5,348.3 L 162.4,346.3 L 163.3,346.0 L 164.1,349.9 L 165.0,350.4 L 165.9,349.9 L 166.7,364.9 L 167.6,359.5 L 168.5,363.8 L 169.4,363.9 L 170.2,363.9 L 171.1,363.9 L 172.0,363.9 L 172.8,363.9 L 173.7,363.9 L 174.6,363.9 L 175.5,363.9 L 176.3,363.9 L 177.2,363.9 L 178.1,363.9 L 178.9,363.9 L 179.8,363.9 L 180.7,363.9 L 181.6,363.9 L 182.4,363.9 L 183.3,363.9 L 184.2,363.9 L 185.1,363.9 L 185.9,363.9 L 186.8,363.9 L 187.7,363.9 L 188.5,363.9 L 189.4,363.9 L 190.3,363.9 L 191.2,363.9 L 192.0,363.9 L 192.9,363.9 L 193.8,363.9 L 194.6,363.9 L 195.5,359.5 L 196.4,369.5 L 197.3,364.9 L 198.1,351.0 L 199.0,353.5 L 199.9,360.1 L 200.7,356.0 L 201.6,356.5 L 202.5,348.5 L 203.4,349.9 L 204.2,354.6 L 205.1,359.6 L 206.0,359.3 L 206.9,362.2 L 207.7,362.1 L 208.6,375.8 L 209.5,378.8 L 210.3,378.9 L 211.2,378.9 L 212.1,378.9 L 213.0,378.9 L 213.8,378.9 L 214.7,378.9 L 215.6,378.9 L 216.4,378.9 L 217.3,378.9 L 218.2,378.9 L 219.1,378.9 L 219.9,378.9 L 220.8,378.9 L 221.7,378.9 L 222.6,378.9 L 223.4,378.9 L 224.3,378.9 L 225.2,378.9 L 226.0,378.9 L 226.9,378.9 L 227.8,378.9 L 228.7,378.9 L 229.5,378.9 L 230.4,384.5 L 231.3,388.4 L 232.1,390.9 L 233.0,383.2 L 233.9,385.1 L 234.8,386.9 L 235.6,383.5 L 236.5,391.8 L 237.4,397.1 L 238.2,396.7 L 239.1,396.8 L 240.0,396.8 L 240.9,396.8 L 241.7,396.8 L 242.6,396.8 L 243.5,396.8 L 244.4,396.8 L 245.2,396.8 L 246.1,396.8 L 247.0,396.8 L 247.8,396.8 L 248.7,396.8 L 249.6,396.8 L 250.5,396.8 L 251.3,396.8 L 252.2,396.8 L 253.1,396.8 L 253.9,396.8 L 254.8,401.4 L 255.7,401.4 L 256.6,396.6 L 257.4,412.0 L 258.3,410.5 L 259.2,413.6 L 260.0,415.0 L 260.9,417.6 L 261.8,414.5 L 262.7,417.9 L 263.5,418.0 L 264.4,418.0 L 265.3,418.0 L 266.2,418.0 L 267.0,418.0 L 267.9,418.0 L 268.8,418.0 L 269.6,418.0 L 270.5,418.0 L 271.4,418.0 L 272.3,418.0 L 273.1,418.0 L 274.0,418.0 L 274.9,418.0 L 275.7,418.0 L 276.6,418.0 L 277.5,418.0 L 278.4,418.0 L 279.2,418.0 L 280.1,418.0 L 281.0,418.0 L 281.9,418.0 L 282.7,418.0 L 283.6,418.0 L 284.5,418.0 L 285.3,418.0 L 286.2,418.0 L 287.1,418.0 L 288.0,418.0 L 288.8,418.0 L 289.7,418.0 L 290.6,418.0 L 291.4,418.0 L 292.3,418.0 L 293.2,418.0 L 294.1,418.0 L 294.9,418.0 L 295.8,418.0 L 296.7,418.0 L 297.5,418.0 L 298.4,418.0 L 299.3,418.0 L 300.2,418.0 L 301.0,418.0 L 301.9,418.0 L 302.8,418.0 L 303.7,418.0 L 304.5,418.0 L 305.4,418.0 L 306.3,418.0 L 307.1,418.0 L 308.0,418.0 L 308.9,418.0 L 309.8,418.0 L 310.6,405.9 L 311.5,402.0 L 312.4,402.0 L 313.2,394.4 L 314.1,386.8 L 315.0,391.8 L 315.9,393.0 L 316.7,369.0 L 317.6,374.1 L 318.5,373.8 L 319.3,374.7 L 320.2,378.9 L 321.1,382.3 L 322.0,381.6 L 322.8,380.7 L 323.7,378.0 L 324.6,383.1 L 325.5,383.8 L 326.3,379.9 L 327.2,367.3 L 328.1,368.5 L 328.9,374.4 L 329.8,376.9 L 330.7,382.5 L 331.6,383.2 L 332.4,378.9 L 333.3,379.5 L 334.2,372.9 L 335.0,374.8 L 335.9,367.1 L 336.8,358.3 L 337.7,356.9 L 338.5,364.0 L 339.4,363.2 L 340.3,367.0 L 341.1,365.0 L 342.0,363.1 L 342.9,363.1 L 343.8,363.8 L 344.6,364.0 L 345.5,366.1 L 346.4,357.1 L 347.3,357.7 L 348.1,371.1 L 349.0,366.4 L 349.9,357.7 L 350.7,360.7 L 351.6,363.5 L 352.5,362.3 L 353.4,365.6 L 354.2,365.0 L 355.1,356.9 L 356.0,358.9 L 356.8,364.6 L 357.7,363.5 L 358.6,353.6 L 359.5,349.9 L 360.3,346.7 L 361.2,349.3 L 362.1,339.5 L 363.0,339.3 L 363.8,342.0 L 364.7,341.0 L 365.6,335.4 L 366.4,331.1 L 367.3,335.4 L 368.2,332.4 L 369.1,329.9 L 369.9,337.8 L 370.8,334.1 L 371.7,334.2 L 372.5,338.7 L 373.4,337.1 L 374.3,337.4 L 375.2,341.0 L 376.0,325.7 L 376.9,332.4 L 377.8,338.0 L 378.6,339.5 L 379.5,352.0 L 380.4,352.1 L 381.3,352.1 L 382.1,352.1 L 383.0,352.1 L 383.9,352.1 L 384.8,352.1 L 385.6,352.1 L 386.5,352.1 L 387.4,352.1 L 388.2,352.1 L 389.1,352.1 L 390.0,352.1 L 390.9,352.1 L 391.7,352.1 L 392.6,352.1 L 393.5,352.1 L 394.3,352.1 L 395.2,352.1 L 396.1,352.1 L 397.0,352.1 L 397.8,352.1 L 398.7,352.1 L 399.6,352.1 L 400.4,352.1 L 401.3,352.1 L 402.2,352.1 L 403.1,352.1 L 403.9,352.1 L 404.8,352.1 L 405.7,352.1 L 406.6,352.1 L 407.4,343.1 L 408.3,338.9 L 409.2,343.0 L 410.0,347.2 L 410.9,337.5 L 411.8,339.9 L 412.7,340.6 L 413.5,341.2 L 414.4,346.5 L 415.3,349.3 L 416.1,347.2 L 417.0,348.3 L 417.9,348.1 L 418.8,348.0 L 419.6,346.8 L 420.5,348.4 L 421.4,301.3 L 422.2,302.4 L 423.1,304.8 L 424.0,302.8 L 424.9,322.5 L 425.7,312.8 L 426.6,313.0 L 427.5,311.6 L 428.4,376.3 L 429.2,378.3 L 430.1,378.4 L 431.0,378.4 L 431.8,378.4 L 432.7,378.4 L 433.6,378.4 L 434.5,378.4 L 435.3,378.4 L 436.2,378.4 L 437.1,378.4 L 437.9,378.4 L 438.8,378.4 L 439.7,378.4 L 440.6,378.4 L 441.4,378.4 L 442.3,378.4 L 443.2,378.4 L 444.1,378.4 L 444.9,378.4 L 445.8,378.4 L 446.7,378.4 L 447.5,378.4 L 448.4,378.4 L 449.3,378.4 L 450.2,378.4 L 451.0,378.4 L 451.9,378.4 L 452.8,378.4 L 453.6,378.4 L 454.5,378.4 L 455.4,378.4 L 456.3,378.4 L 457.1,378.4 L 458.0,378.4 L 458.9,378.4 L 459.7,378.4 L 460.6,378.4 L 461.5,378.4 L 462.4,378.4 L 463.2,378.4 L 464.1,378.4 L 465.0,378.4 L 465.9,378.4 L 466.7,378.4 L 467.6,378.4 L 468.5,378.4 L 469.3,378.4 L 470.2,378.4 L 471.1,378.4 L 472.0,378.4 L 472.8,378.4 L 473.7,378.4 L 474.6,378.4 L 475.4,378.4 L 476.3,378.4 L 477.2,378.4 L 478.1,378.4 L 478.9,378.4 L 479.8,378.4 L 480.7,378.4 L 481.5,378.4 L 482.4,379.3 L 483.3,379.3 L 484.2,384.6 L 485.0,379.1 L 485.9,379.3 L 486.8,378.2 L 487.7,376.5 L 488.5,376.8 L 489.4,383.7 L 490.3,384.3 L 491.1,379.6 L 492.0,379.1 L 492.9,383.0 L 493.8,383.2 L 494.6,362.4 L 495.5,359.6 L 496.4,364.3 L 497.2,359.3 L 498.1,367.0 L 499.0,368.7 L 499.9,367.1 L 500.7,368.2 L 501.6,376.3 L 502.5,377.1 L 503.3,377.1 L 504.2,378.0 L 505.1,378.2 L 506.0,378.2 L 506.8,378.2 L 507.7,378.2 L 508.6,378.2 L 509.5,376.6 L 510.3,376.6 L 511.2,379.1 L 512.1,378.6 L 512.9,375.2 L 513.8,377.1 L 514.7,378.8 L 515.6,367.2 L 516.4,370.9 L 517.3,367.5 L 518.2,367.7 L 519.0,369.2 L 519.9,373.2 L 520.8,374.4 L 521.7,376.0 L 522.5,379.8 L 523.4,377.7 L 524.3,377.8 L 525.2,377.8 L 526.0,377.8 L 526.9,377.8 L 527.8,379.0 L 528.6,381.6 L 529.5,366.5 L 530.4,368.2 L 531.3,369.9 L 532.1,366.8 L 533.0,370.9 L 533.9,374.0 L 534.7,374.0 L 535.6,373.8 L 536.5,378.1 L 537.4,380.3 L 538.2,382.8 L 539.1,382.9 L 540.0,382.9 L 540.8,382.9 L 541.7,382.9 L 542.6,382.9 L 543.5,382.9 L 544.3,382.9 L 545.2,382.9 L 546.1,382.9 L 547.0,382.9 L 547.8,382.9 L 548.7,382.9 L 549.6,382.9 L 550.4,382.9 L 551.3,382.9 L 552.2,382.9 L 553.1,382.9 L 553.9,382.9 L 554.8,382.9 L 555.7,382.9 L 556.5,382.9 L 557.4,382.9 L 558.3,382.9 L 559.2,382.9 L 560.0,382.9 L 560.9,382.9 L 561.8,385.4 L 562.6,385.6 L 563.5,382.9 L 564.4,361.9 L 565.3,352.4 L 566.1,354.8 L 567.0,356.3 L 567.9,358.6 L 568.8,355.7 L 569.6,358.3 L 570.5,358.3 L 571.4,355.5 L 572.2,358.9 L 573.1,367.8 L 574.0,362.6 L 574.9,363.5 L 575.7,362.2 L 576.6,363.4 L 577.5,366.7 L 578.3,369.9 L 579.2,375.9 L 580.1,376.0 L 581.0,376.0 L 581.8,376.0 L 582.7,376.0 L 583.6,376.0 L 584.4,376.0 L 585.3,380.0 L 586.2,382.0 L 587.1,379.5 L 587.9,380.0 L 588.8,375.1 L 589.7,370.6 L 590.6,366.8 L 591.4,365.4 L 592.3,362.3 L 593.2,356.0 L 594.0,355.7 L 594.9,355.6 L 595.8,342.9 L 596.7,348.4 L 597.5,348.4 L 598.4,350.5 L 599.3,330.6 L 600.1,331.8 L 601.0,328.3 L 601.9,331.9 L 602.8,346.2 L 603.6,345.1 L 604.5,346.5 L 605.4,347.1 L 606.3,346.2 L 607.1,347.3 L 608.0,347.1 L 608.9,351.6 L 609.7,352.8 L 610.6,356.3 L 611.5,356.4 L 612.4,356.4 L 613.2,356.4 L 614.1,356.4 L 615.0,356.4 L 615.8,357.1 L 616.7,322.1 L 617.6,316.1 L 618.5,313.3 L 619.3,312.5 L 620.2,360.6 L 621.1,351.0 L 621.9,354.1 L 622.8,355.9 L 623.7,349.2 L 624.6,352.7 L 625.4,300.2 L 626.3,293.1 L 627.2,302.6 L 628.1,303.7 L 628.9,307.5 L 629.8,311.7 L 630.7,311.3 L 631.5,311.4 L 632.4,302.6 L 633.3,298.4 L 634.2,267.8 L 635.0,276.8 L 635.9,270.1 L 636.8,263.2 L 637.6,238.9 L 638.5,241.8 L 639.4,242.5 L 640.3,244.9 L 641.1,193.6 L 642.0,187.4 L 642.9,196.9 L 643.7,216.3 L 644.6,214.5 L 645.5,221.0 L 646.4,226.9 L 647.2,214.5 L 648.1,217.7 L 649.0,221.3 L 649.9,228.2 L 650.7,226.1 L 651.6,253.3 L 652.5,249.2 L 653.3,245.0 L 654.2,244.7 L 655.1,255.5 L 656.0,255.6 L 656.8,255.6 L 657.7,255.6 L 658.6,255.6 L 659.4,255.6 L 660.3,255.6 L 661.2,255.6 L 662.1,255.6 L 662.9,255.6 L 663.8,255.6 L 664.7,255.6 L 665.6,255.6 L 666.4,255.6 L 667.3,255.6 L 668.2,255.6 L 669.0,255.6 L 669.9,255.6 L 670.8,255.6 L 671.7,255.6 L 672.5,255.6 L 673.4,255.6 L 674.3,255.6 L 675.1,255.6 L 676.0,255.6 L 676.9,255.6 L 677.8,255.6 L 678.6,255.6 L 679.5,255.6 L 680.4,255.6 L 681.2,255.6 L 682.1,255.6 L 683.0,255.6 L 683.9,257.3 L 684.7,256.7 L 685.6,263.8 L 686.5,267.3 L 687.4,267.9 L 688.2,264.7 L 689.1,267.5 L 690.0,265.9 L 690.8,269.2 L 691.7,258.7 L 692.6,262.7 L 693.5,244.9 L 694.3,235.3 L 695.2,233.5 L 696.1,233.9 L 696.9,219.2 L 697.8,223.8 L 698.7,238.7 L 699.6,244.7 L 700.4,257.0 L 701.3,258.8 L 702.2,265.3 L 703.0,265.5 L 703.9,265.5 L 704.8,265.5 L 705.7,265.5 L 706.5,265.5 L 707.4,265.5 L 708.3,265.5 L 709.2,265.5 L 710.0,265.5 L 710.9,265.5 L 711.8,265.5 L 712.6,271.0 L 713.5,270.4 L 714.4,261.5 L 715.3,251.6 L 716.1,256.1 L 717.0,259.6 L 717.9,278.3 L 718.7,272.3 L 719.6,276.2 L 720.5,281.6 L 721.4,268.9 L 722.2,261.5 L 723.1,260.9 L 724.0,260.8 L 724.8,253.4 L 725.7,253.2 L 726.6,254.8 L 727.5,253.1 L 728.3,233.0 L 729.2,238.2 L 730.1,249.4 L 731.0,253.1 L 731.8,258.5 L 732.7,260.5 L 733.6,264.7 L 734.4,270.5 L 735.3,270.7 L 736.2,270.7 L 737.1,270.7 L 737.9,270.7 L 738.8,270.7 L 739.7,270.7 L 740.5,270.7 L 741.4,270.7 L 742.3,270.7 L 743.2,270.7 L 744.0,270.7 L 744.9,270.7 L 745.8,270.7 L 746.7,270.7 L 747.5,270.7 L 748.4,270.7 L 749.3,270.7 L 750.1,270.7 L 751.0,270.7 L 751.9,270.7 L 752.8,270.7 L 753.6,270.7 L 754.5,270.7 L 755.4,270.7 L 756.2,270.7 L 757.1,270.7 L 758.0,270.7 L 758.9,270.7 L 759.7,270.7 L 760.6,270.7 L 761.5,270.7 L 762.3,270.7 L 763.2,270.7 L 764.1,270.7 L 765.0,270.7 L 765.8,270.7 L 766.7,270.7 L 767.6,270.7 L 768.5,270.7 L 769.3,270.7 L 770.2,270.7 L 771.1,270.7 L 771.9,270.7 L 772.8,270.7 L 773.7,276.7 L 774.6,275.3 L 775.4,281.6 L 776.3,281.3 L 777.2,282.3 L 778.0,282.5 L 778.9,282.5 L 779.8,282.5 L 780.7,282.5 L 781.5,282.5 L 782.4,282.5 L 783.3,282.5 L 784.1,282.5 L 785.0,282.5 L 785.9,282.5 L 786.8,282.5 L 787.6,282.5 L 788.5,282.5 L 789.4,282.5 L 790.3,278.4 L 791.1,292.1 L 792.0,296.7 L 792.9,298.5 L 793.7,296.8 L 794.6,297.0 L 795.5,297.0 L 796.4,297.0 L 797.2,297.0 L 798.1,297.0 L 799.0,297.0 L 799.8,297.0 L 800.7,297.0 L 801.6,297.0 L 802.5,297.0 L 803.3,297.0 L 804.2,297.0 L 805.1,297.0 L 805.9,297.0 L 806.8,297.0 L 807.7,297.0 L 808.6,297.0 L 809.4,297.0 L 810.3,297.0 L 811.2,297.0 L 812.1,297.0 L 812.9,297.0 L 813.8,297.0 L 814.7,297.0 L 815.5,297.0 L 816.4,297.0 L 817.3,297.0 L 818.2,297.0 L 819.0,297.0 L 819.9,297.0 L 820.8,297.0 L 821.6,297.0 L 822.5,297.0 L 823.4,297.0 L 824.3,297.0 L 825.1,297.0 L 826.0,297.0 L 826.9,290.0 L 827.8,293.2 L 828.6,292.6 L 829.5,299.9 L 830.4,297.1 L 831.2,294.5 L 832.1,295.0 L 833.0,302.6 L 833.9,301.2 L 834.7,300.7 L 835.6,303.6 L 836.5,303.4 L 837.3,303.3 L 838.2,301.3 L 839.1,305.5 L 840.0,305.7 L 840.8,303.5 L 841.7,302.7 L 842.6,301.6 L 843.4,299.4 L 844.3,295.5 L 845.2,299.4 L 846.1,299.1 L 846.9,284.3 L 847.8,288.4 L 848.7,290.1 L 849.6,289.8 L 850.4,279.7 L 851.3,279.4 L 852.2,281.9 L 853.0,284.7 L 853.9,286.5 L 854.8,285.4 L 855.7,284.8 L 856.5,281.2 L 857.4,213.7 L 858.3,210.9 L 859.1,210.9 L 860.0,210.9 L 860.9,208.3 L 861.8,217.3 L 862.6,210.5 L 863.5,205.2 L 864.4,207.2 L 865.2,203.1 L 866.1,216.2 L 867.0,218.9 L 867.9,229.1 L 868.7,227.7 L 869.6,232.2 L 870.5,233.8 L 871.4,225.2 L 872.2,223.7 L 873.1,226.6 L 874.0,226.2 L 874.8,197.4 L 875.7,190.4 L 876.6,200.2 L 877.5,203.3 L 878.3,210.3 L 879.2,211.4 L 880.1,211.2 L 880.9,212.2 L 881.8,205.0 L 882.7,195.1 L 883.6,196.9 L 884.4,194.0 L 885.3,164.0 L 886.2,166.1 L 887.0,161.8 L 887.9,165.4 L 888.8,165.7 L 889.7,164.7 L 890.5,164.7 L 891.4,171.7 L 892.3,146.8 L 893.2,157.4 L 894.0,157.3 L 894.9,160.2 L 895.8,174.7 L 896.6,188.5 L 897.5,182.8 L 898.4,182.9 L 899.3,186.5 L 900.1,186.7 L 901.0,186.7 L 901.9,186.7 L 902.7,186.7 L 903.6,186.7 L 904.5,186.7 L 905.4,186.7 L 906.2,186.7 L 907.1,186.7 L 908.0,186.7 L 908.9,186.7 L 909.7,186.7 L 910.6,186.7 L 911.5,186.7 L 912.3,186.7 L 913.2,186.7 L 914.1,186.7 L 915.0,186.7 L 915.8,186.7 L 916.7,186.7 L 917.6,186.7 L 918.4,186.7 L 919.3,186.7 L 920.2,186.7 L 921.1,186.7 L 921.9,186.7 L 922.8,186.7 L 923.7,186.7 L 924.5,196.6 L 925.4,193.7 L 926.3,196.5 L 927.2,208.1 L 928.0,209.7 L 928.9,209.8 L 929.8,209.8 L 930.7,209.8 L 931.5,209.8 L 932.4,209.8 L 933.3,209.8 L 934.1,209.8 L 935.0,209.8 L 935.9,209.8 L 936.8,209.8 L 937.6,209.8 L 938.5,209.8 L 939.4,209.8 L 940.2,209.8 L 941.1,209.8 L 942.0,209.8 L 942.9,209.8 L 943.7,209.8 L 944.6,209.8 L 945.5,209.8 L 946.3,209.8 L 947.2,209.8 L 948.1,209.8 L 949.0,206.4 L 949.8,205.7 L 950.7,208.9 L 951.6,131.4 L 952.5,131.4 L 953.3,131.4 L 954.2,131.4 L 955.1,107.7 L 955.9,103.2 L 956.8,98.0 L 957.7,98.2 L 958.6,142.8 L 959.4,136.1 L 960.3,139.7 L 961.2,150.0 L 962.0,148.5 L 962.9,148.5 L 963.8,181.1 L 964.7,181.2 L 965.5,181.2 L 966.4,181.2 L 967.3,181.2 L 968.1,181.2 L 969.0,181.2 L 969.9,181.2 L 970.8,181.2 L 971.6,181.2 L 972.5,181.2 L 973.4,181.2 L 974.3,181.2 L 975.1,181.2 L 976.0,181.2 L 976.9,181.2 L 977.7,181.2 L 978.6,181.2 L 979.5,181.2 L 980.4,181.2 L 981.2,181.2 L 982.1,181.2 L 983.0,181.2 L 983.8,181.2 L 984.7,181.2 L 985.6,181.2 L 986.5,181.2 L 987.3,181.2 L 988.2,181.2 L 989.1,181.2 L 990.0,181.2 L 990.8,181.2 L 991.7,181.2 L 992.6,181.2 L 993.4,181.2 L 994.3,181.2 L 995.2,181.2 L 996.1,181.2 L 996.9,181.2 L 997.8,181.2 L 998.7,181.2 L 999.5,181.2 L 1000.4,181.2 L 1001.3,181.2 L 1002.2,181.2 L 1003.0,181.2 L 1003.9,181.2 L 1004.8,181.2 L 1005.6,181.2 L 1006.5,181.2 L 1007.4,181.2 L 1008.3,181.2 L 1009.1,181.2 L 1010.0,181.2 L 1010.9,181.2 L 1011.8,181.2 L 1012.6,181.2 L 1013.5,181.2 L 1014.4,181.2 L 1015.2,181.2 L 1016.1,181.2 L 1017.0,181.2 L 1017.9,181.2 L 1018.7,181.2 L 1019.6,181.2 L 1020.5,181.2 L 1021.3,181.2 L 1022.2,181.2 L 1023.1,181.2 L 1024.0,181.2 L 1024.8,181.2 L 1025.7,181.2 L 1026.6,181.2 L 1027.4,181.2 L 1028.3,177.1 L 1029.2,175.9 L 1030.1,176.1 L 1030.9,177.3 L 1031.8,174.7 L 1032.7,174.3 L 1033.6,178.6 L 1034.4,179.5 L 1035.3,183.3 L 1036.2,179.8 L 1037.0,175.4 L 1037.9,175.0 L 1038.8,173.5 L 1039.7,176.6 L 1040.5,175.5 L 1041.4,180.7 L 1042.3,158.7 L 1043.1,160.5 L 1044.0,160.8 L 1044.9,156.7 L 1045.8,151.9 L 1046.6,144.3 L 1047.5,146.0 L 1048.4,147.1 L 1049.3,154.1 L 1050.1,149.5 L 1051.0,154.6 L 1051.9,155.5 L 1052.7,160.8 L 1053.6,164.4 L 1054.5,163.9 L 1055.4,161.8 L 1056.2,147.9 L 1057.1,151.5 L 1058.0,149.5 L 1058.8,149.6 L 1059.7,182.4 L 1060.6,182.6 L 1061.5,182.6 L 1062.3,182.6 L 1063.2,182.6 L 1064.1,182.6 L 1064.9,182.6 L 1065.8,182.6 L 1066.7,182.6 L 1067.6,182.6 L 1068.4,182.6 L 1069.3,182.6 L 1070.2,182.6 L 1071.1,182.6 L 1071.9,182.6 L 1072.8,182.6 L 1073.7,182.6 L 1074.5,182.6 L 1075.4,182.6 L 1076.3,182.6 L 1077.2,182.6 L 1078.0,182.6 L 1078.9,182.6 L 1079.8,182.6 L 1080.6,182.6 L 1081.5,182.6 L 1082.4,182.6 L 1083.3,182.6 L 1084.1,182.6 L 1085.0,182.6 L 1085.9,182.6 L 1086.7,182.6 L 1087.6,182.6 L 1088.5,182.6 L 1089.4,182.6 L 1090.2,182.6 L 1091.1,182.6 L 1092.0,182.6 L 1092.9,182.6 L 1093.7,182.6 L 1094.6,182.6 L 1095.5,182.6 L 1096.3,182.6 L 1097.2,182.6 L 1098.1,182.6 L 1099.0,182.6 L 1099.8,182.6 L 1100.7,182.6 L 1101.6,182.6 L 1102.4,182.6 L 1103.3,182.6 L 1104.2,182.6 L 1105.1,182.6 L 1105.9,182.6 L 1106.8,182.6 L 1107.7,182.6 L 1108.5,182.6 L 1109.4,182.6 L 1110.3,182.6 L 1111.2,182.6 L 1112.0,182.6 L 1112.9,182.6 L 1113.8,182.6 L 1114.7,182.6 L 1115.5,182.6 L 1116.4,182.6 L 1117.3,182.6 L 1118.1,182.6 L 1119.0,182.6 L 1119.9,182.6 L 1120.8,182.6 L 1121.6,182.6 L 1122.5,182.6 L 1123.4,182.6 L 1124.2,182.6 L 1125.1,182.6 L 1126.0,182.6 L 1126.9,182.6 L 1127.7,182.6 L 1128.6,182.6 L 1129.5,182.6 L 1130.4,182.6 L 1131.2,182.6 L 1132.1,182.6 L 1133.0,182.6 L 1133.8,182.6 L 1134.7,182.6 L 1135.6,182.6 L 1136.5,182.6 L 1137.3,182.6 L 1138.2,182.6 L 1139.1,182.6 L 1139.9,182.6 L 1140.8,182.6 L 1141.7,182.6 L 1142.6,182.6 L 1143.4,182.6 L 1144.3,182.6 L 1145.2,182.6 L 1146.0,182.6 L 1146.9,182.6 L 1147.8,182.6 L 1148.7,182.6 L 1149.5,182.1 L 1150.4,201.8 L 1151.3,202.4 L 1152.2,203.4 L 1153.0,203.2 L 1153.9,177.2 L 1154.8,184.6 L 1155.6,183.3 L 1156.5,186.6 L 1157.4,194.0 L 1158.3,197.5 L 1159.1,189.3 L 1160.0,189.7 L 1160.0,418.0 Z" fill="#60a5fa" opacity="0.22" />
<polyline fill="none" stroke="#2563eb" stroke-width="3" stroke-linecap="round" stroke-linejoin="round" points="90.0,319.3 90.9,319.3 91.7,319.3 92.6,319.3 93.5,319.3 94.4,319.3 95.2,319.3 96.1,319.3 97.0,319.3 97.8,319.3 98.7,319.3 99.6,319.3 100.5,319.3 101.3,319.3 102.2,319.3 103.1,319.3 104.0,319.3 104.8,319.3 105.7,319.3 106.6,319.3 107.4,319.3 108.3,319.3 109.2,319.3 110.1,319.3 110.9,319.3 111.8,319.3 112.7,319.3 113.5,319.3 114.4,319.3 115.3,319.3 116.2,319.3 117.0,319.3 117.9,319.3 118.8,319.3 119.6,319.3 120.5,318.8 121.4,315.0 122.3,319.4 123.1,322.8 124.0,325.5 124.9,315.0 125.8,322.0 126.6,321.5 127.5,319.1 128.4,326.4 129.2,319.3 130.1,318.8 131.0,320.7 131.9,273.4 132.7,276.7 133.6,279.9 134.5,278.3 135.3,283.6 136.2,275.7 137.1,278.9 138.0,276.9 138.8,287.2 139.7,282.9 140.6,284.2 141.5,286.9 142.3,285.5 143.2,299.0 144.1,343.5 144.9,343.6 145.8,343.6 146.7,343.6 147.6,343.6 148.4,343.6 149.3,343.6 150.2,343.6 151.0,343.6 151.9,343.6 152.8,343.6 153.7,343.6 154.5,343.6 155.4,343.6 156.3,343.6 157.1,343.6 158.0,348.8 158.9,345.7 159.8,337.7 160.6,332.7 161.5,348.3 162.4,346.3 163.3,346.0 164.1,349.9 165.0,350.4 165.9,349.9 166.7,364.9 167.6,359.5 168.5,363.8 169.4,363.9 170.2,363.9 171.1,363.9 172.0,363.9 172.8,363.9 173.7,363.9 174.6,363.9 175.5,363.9 176.3,363.9 177.2,363.9 178.1,363.9 178.9,363.9 179.8,363.9 180.7,363.9 181.6,363.9 182.4,363.9 183.3,363.9 184.2,363.9 185.1,363.9 185.9,363.9 186.8,363.9 187.7,363.9 188.5,363.9 189.4,363.9 190.3,363.9 191.2,363.9 192.0,363.9 192.9,363.9 193.8,363.9 194.6,363.9 195.5,359.5 196.4,369.5 197.3,364.9 198.1,351.0 199.0,353.5 199.9,360.1 200.7,356.0 201.6,356.5 202.5,348.5 203.4,349.9 204.2,354.6 205.1,359.6 206.0,359.3 206.9,362.2 207.7,362.1 208.6,375.8 209.5,378.8 210.3,378.9 211.2,378.9 212.1,378.9 213.0,378.9 213.8,378.9 214.7,378.9 215.6,378.9 216.4,378.9 217.3,378.9 218.2,378.9 219.1,378.9 219.9,378.9 220.8,378.9 221.7,378.9 222.6,378.9 223.4,378.9 224.3,378.9 225.2,378.9 226.0,378.9 226.9,378.9 227.8,378.9 228.7,378.9 229.5,378.9 230.4,384.5 231.3,388.4 232.1,390.9 233.0,383.2 233.9,385.1 234.8,386.9 235.6,383.5 236.5,391.8 237.4,397.1 238.2,396.7 239.1,396.8 240.0,396.8 240.9,396.8 241.7,396.8 242.6,396.8 243.5,396.8 244.4,396.8 245.2,396.8 246.1,396.8 247.0,396.8 247.8,396.8 248.7,396.8 249.6,396.8 250.5,396.8 251.3,396.8 252.2,396.8 253.1,396.8 253.9,396.8 254.8,401.4 255.7,401.4 256.6,396.6 257.4,412.0 258.3,410.5 259.2,413.6 260.0,415.0 260.9,417.6 261.8,414.5 262.7,417.9 263.5,418.0 264.4,418.0 265.3,418.0 266.2,418.0 267.0,418.0 267.9,418.0 268.8,418.0 269.6,418.0 270.5,418.0 271.4,418.0 272.3,418.0 273.1,418.0 274.0,418.0 274.9,418.0 275.7,418.0 276.6,418.0 277.5,418.0 278.4,418.0 279.2,418.0 280.1,418.0 281.0,418.0 281.9,418.0 282.7,418.0 283.6,418.0 284.5,418.0 285.3,418.0 286.2,418.0 287.1,418.0 288.0,418.0 288.8,418.0 289.7,418.0 290.6,418.0 291.4,418.0 292.3,418.0 293.2,418.0 294.1,418.0 294.9,418.0 295.8,418.0 296.7,418.0 297.5,418.0 298.4,418.0 299.3,418.0 300.2,418.0 301.0,418.0 301.9,418.0 302.8,418.0 303.7,418.0 304.5,418.0 305.4,418.0 306.3,418.0 307.1,418.0 308.0,418.0 308.9,418.0 309.8,418.0 310.6,405.9 311.5,402.0 312.4,402.0 313.2,394.4 314.1,386.8 315.0,391.8 315.9,393.0 316.7,369.0 317.6,374.1 318.5,373.8 319.3,374.7 320.2,378.9 321.1,382.3 322.0,381.6 322.8,380.7 323.7,378.0 324.6,383.1 325.5,383.8 326.3,379.9 327.2,367.3 328.1,368.5 328.9,374.4 329.8,376.9 330.7,382.5 331.6,383.2 332.4,378.9 333.3,379.5 334.2,372.9 335.0,374.8 335.9,367.1 336.8,358.3 337.7,356.9 338.5,364.0 339.4,363.2 340.3,367.0 341.1,365.0 342.0,363.1 342.9,363.1 343.8,363.8 344.6,364.0 345.5,366.1 346.4,357.1 347.3,357.7 348.1,371.1 349.0,366.4 349.9,357.7 350.7,360.7 351.6,363.5 352.5,362.3 353.4,365.6 354.2,365.0 355.1,356.9 356.0,358.9 356.8,364.6 357.7,363.5 358.6,353.6 359.5,349.9 360.3,346.7 361.2,349.3 362.1,339.5 363.0,339.3 363.8,342.0 364.7,341.0 365.6,335.4 366.4,331.1 367.3,335.4 368.2,332.4 369.1,329.9 369.9,337.8 370.8,334.1 371.7,334.2 372.5,338.7 373.4,337.1 374.3,337.4 375.2,341.0 376.0,325.7 376.9,332.4 377.8,338.0 378.6,339.5 379.5,352.0 380.4,352.1 381.3,352.1 382.1,352.1 383.0,352.1 383.9,352.1 384.8,352.1 385.6,352.1 386.5,352.1 387.4,352.1 388.2,352.1 389.1,352.1 390.0,352.1 390.9,352.1 391.7,352.1 392.6,352.1 393.5,352.1 394.3,352.1 395.2,352.1 396.1,352.1 397.0,352.1 397.8,352.1 398.7,352.1 399.6,352.1 400.4,352.1 401.3,352.1 402.2,352.1 403.1,352.1 403.9,352.1 404.8,352.1 405.7,352.1 406.6,352.1 407.4,343.1 408.3,338.9 409.2,343.0 410.0,347.2 410.9,337.5 411.8,339.9 412.7,340.6 413.5,341.2 414.4,346.5 415.3,349.3 416.1,347.2 417.0,348.3 417.9,348.1 418.8,348.0 419.6,346.8 420.5,348.4 421.4,301.3 422.2,302.4 423.1,304.8 424.0,302.8 424.9,322.5 425.7,312.8 426.6,313.0 427.5,311.6 428.4,376.3 429.2,378.3 430.1,378.4 431.0,378.4 431.8,378.4 432.7,378.4 433.6,378.4 434.5,378.4 435.3,378.4 436.2,378.4 437.1,378.4 437.9,378.4 438.8,378.4 439.7,378.4 440.6,378.4 441.4,378.4 442.3,378.4 443.2,378.4 444.1,378.4 444.9,378.4 445.8,378.4 446.7,378.4 447.5,378.4 448.4,378.4 449.3,378.4 450.2,378.4 451.0,378.4 451.9,378.4 452.8,378.4 453.6,378.4 454.5,378.4 455.4,378.4 456.3,378.4 457.1,378.4 458.0,378.4 458.9,378.4 459.7,378.4 460.6,378.4 461.5,378.4 462.4,378.4 463.2,378.4 464.1,378.4 465.0,378.4 465.9,378.4 466.7,378.4 467.6,378.4 468.5,378.4 469.3,378.4 470.2,378.4 471.1,378.4 472.0,378.4 472.8,378.4 473.7,378.4 474.6,378.4 475.4,378.4 476.3,378.4 477.2,378.4 478.1,378.4 478.9,378.4 479.8,378.4 480.7,378.4 481.5,378.4 482.4,379.3 483.3,379.3 484.2,384.6 485.0,379.1 485.9,379.3 486.8,378.2 487.7,376.5 488.5,376.8 489.4,383.7 490.3,384.3 491.1,379.6 492.0,379.1 492.9,383.0 493.8,383.2 494.6,362.4 495.5,359.6 496.4,364.3 497.2,359.3 498.1,367.0 499.0,368.7 499.9,367.1 500.7,368.2 501.6,376.3 502.5,377.1 503.3,377.1 504.2,378.0 505.1,378.2 506.0,378.2 506.8,378.2 507.7,378.2 508.6,378.2 509.5,376.6 510.3,376.6 511.2,379.1 512.1,378.6 512.9,375.2 513.8,377.1 514.7,378.8 515.6,367.2 516.4,370.9 517.3,367.5 518.2,367.7 519.0,369.2 519.9,373.2 520.8,374.4 521.7,376.0 522.5,379.8 523.4,377.7 524.3,377.8 525.2,377.8 526.0,377.8 526.9,377.8 527.8,379.0 528.6,381.6 529.5,366.5 530.4,368.2 531.3,369.9 532.1,366.8 533.0,370.9 533.9,374.0 534.7,374.0 535.6,373.8 536.5,378.1 537.4,380.3 538.2,382.8 539.1,382.9 540.0,382.9 540.8,382.9 541.7,382.9 542.6,382.9 543.5,382.9 544.3,382.9 545.2,382.9 546.1,382.9 547.0,382.9 547.8,382.9 548.7,382.9 549.6,382.9 550.4,382.9 551.3,382.9 552.2,382.9 553.1,382.9 553.9,382.9 554.8,382.9 555.7,382.9 556.5,382.9 557.4,382.9 558.3,382.9 559.2,382.9 560.0,382.9 560.9,382.9 561.8,385.4 562.6,385.6 563.5,382.9 564.4,361.9 565.3,352.4 566.1,354.8 567.0,356.3 567.9,358.6 568.8,355.7 569.6,358.3 570.5,358.3 571.4,355.5 572.2,358.9 573.1,367.8 574.0,362.6 574.9,363.5 575.7,362.2 576.6,363.4 577.5,366.7 578.3,369.9 579.2,375.9 580.1,376.0 581.0,376.0 581.8,376.0 582.7,376.0 583.6,376.0 584.4,376.0 585.3,380.0 586.2,382.0 587.1,379.5 587.9,380.0 588.8,375.1 589.7,370.6 590.6,366.8 591.4,365.4 592.3,362.3 593.2,356.0 594.0,355.7 594.9,355.6 595.8,342.9 596.7,348.4 597.5,348.4 598.4,350.5 599.3,330.6 600.1,331.8 601.0,328.3 601.9,331.9 602.8,346.2 603.6,345.1 604.5,346.5 605.4,347.1 606.3,346.2 607.1,347.3 608.0,347.1 608.9,351.6 609.7,352.8 610.6,356.3 611.5,356.4 612.4,356.4 613.2,356.4 614.1,356.4 615.0,356.4 615.8,357.1 616.7,322.1 617.6,316.1 618.5,313.3 619.3,312.5 620.2,360.6 621.1,351.0 621.9,354.1 622.8,355.9 623.7,349.2 624.6,352.7 625.4,300.2 626.3,293.1 627.2,302.6 628.1,303.7 628.9,307.5 629.8,311.7 630.7,311.3 631.5,311.4 632.4,302.6 633.3,298.4 634.2,267.8 635.0,276.8 635.9,270.1 636.8,263.2 637.6,238.9 638.5,241.8 639.4,242.5 640.3,244.9 641.1,193.6 642.0,187.4 642.9,196.9 643.7,216.3 644.6,214.5 645.5,221.0 646.4,226.9 647.2,214.5 648.1,217.7 649.0,221.3 649.9,228.2 650.7,226.1 651.6,253.3 652.5,249.2 653.3,245.0 654.2,244.7 655.1,255.5 656.0,255.6 656.8,255.6 657.7,255.6 658.6,255.6 659.4,255.6 660.3,255.6 661.2,255.6 662.1,255.6 662.9,255.6 663.8,255.6 664.7,255.6 665.6,255.6 666.4,255.6 667.3,255.6 668.2,255.6 669.0,255.6 669.9,255.6 670.8,255.6 671.7,255.6 672.5,255.6 673.4,255.6 674.3,255.6 675.1,255.6 676.0,255.6 676.9,255.6 677.8,255.6 678.6,255.6 679.5,255.6 680.4,255.6 681.2,255.6 682.1,255.6 683.0,255.6 683.9,257.3 684.7,256.7 685.6,263.8 686.5,267.3 687.4,267.9 688.2,264.7 689.1,267.5 690.0,265.9 690.8,269.2 691.7,258.7 692.6,262.7 693.5,244.9 694.3,235.3 695.2,233.5 696.1,233.9 696.9,219.2 697.8,223.8 698.7,238.7 699.6,244.7 700.4,257.0 701.3,258.8 702.2,265.3 703.0,265.5 703.9,265.5 704.8,265.5 705.7,265.5 706.5,265.5 707.4,265.5 708.3,265.5 709.2,265.5 710.0,265.5 710.9,265.5 711.8,265.5 712.6,271.0 713.5,270.4 714.4,261.5 715.3,251.6 716.1,256.1 717.0,259.6 717.9,278.3 718.7,272.3 719.6,276.2 720.5,281.6 721.4,268.9 722.2,261.5 723.1,260.9 724.0,260.8 724.8,253.4 725.7,253.2 726.6,254.8 727.5,253.1 728.3,233.0 729.2,238.2 730.1,249.4 731.0,253.1 731.8,258.5 732.7,260.5 733.6,264.7 734.4,270.5 735.3,270.7 736.2,270.7 737.1,270.7 737.9,270.7 738.8,270.7 739.7,270.7 740.5,270.7 741.4,270.7 742.3,270.7 743.2,270.7 744.0,270.7 744.9,270.7 745.8,270.7 746.7,270.7 747.5,270.7 748.4,270.7 749.3,270.7 750.1,270.7 751.0,270.7 751.9,270.7 752.8,270.7 753.6,270.7 754.5,270.7 755.4,270.7 756.2,270.7 757.1,270.7 758.0,270.7 758.9,270.7 759.7,270.7 760.6,270.7 761.5,270.7 762.3,270.7 763.2,270.7 764.1,270.7 765.0,270.7 765.8,270.7 766.7,270.7 767.6,270.7 768.5,270.7 769.3,270.7 770.2,270.7 771.1,270.7 771.9,270.7 772.8,270.7 773.7,276.7 774.6,275.3 775.4,281.6 776.3,281.3 777.2,282.3 778.0,282.5 778.9,282.5 779.8,282.5 780.7,282.5 781.5,282.5 782.4,282.5 783.3,282.5 784.1,282.5 785.0,282.5 785.9,282.5 786.8,282.5 787.6,282.5 788.5,282.5 789.4,282.5 790.3,278.4 791.1,292.1 792.0,296.7 792.9,298.5 793.7,296.8 794.6,297.0 795.5,297.0 796.4,297.0 797.2,297.0 798.1,297.0 799.0,297.0 799.8,297.0 800.7,297.0 801.6,297.0 802.5,297.0 803.3,297.0 804.2,297.0 805.1,297.0 805.9,297.0 806.8,297.0 807.7,297.0 808.6,297.0 809.4,297.0 810.3,297.0 811.2,297.0 812.1,297.0 812.9,297.0 813.8,297.0 814.7,297.0 815.5,297.0 816.4,297.0 817.3,297.0 818.2,297.0 819.0,297.0 819.9,297.0 820.8,297.0 821.6,297.0 822.5,297.0 823.4,297.0 824.3,297.0 825.1,297.0 826.0,297.0 826.9,290.0 827.8,293.2 828.6,292.6 829.5,299.9 830.4,297.1 831.2,294.5 832.1,295.0 833.0,302.6 833.9,301.2 834.7,300.7 835.6,303.6 836.5,303.4 837.3,303.3 838.2,301.3 839.1,305.5 840.0,305.7 840.8,303.5 841.7,302.7 842.6,301.6 843.4,299.4 844.3,295.5 845.2,299.4 846.1,299.1 846.9,284.3 847.8,288.4 848.7,290.1 849.6,289.8 850.4,279.7 851.3,279.4 852.2,281.9 853.0,284.7 853.9,286.5 854.8,285.4 855.7,284.8 856.5,281.2 857.4,213.7 858.3,210.9 859.1,210.9 860.0,210.9 860.9,208.3 861.8,217.3 862.6,210.5 863.5,205.2 864.4,207.2 865.2,203.1 866.1,216.2 867.0,218.9 867.9,229.1 868.7,227.7 869.6,232.2 870.5,233.8 871.4,225.2 872.2,223.7 873.1,226.6 874.0,226.2 874.8,197.4 875.7,190.4 876.6,200.2 877.5,203.3 878.3,210.3 879.2,211.4 880.1,211.2 880.9,212.2 881.8,205.0 882.7,195.1 883.6,196.9 884.4,194.0 885.3,164.0 886.2,166.1 887.0,161.8 887.9,165.4 888.8,165.7 889.7,164.7 890.5,164.7 891.4,171.7 892.3,146.8 893.2,157.4 894.0,157.3 894.9,160.2 895.8,174.7 896.6,188.5 897.5,182.8 898.4,182.9 899.3,186.5 900.1,186.7 901.0,186.7 901.9,186.7 902.7,186.7 903.6,186.7 904.5,186.7 905.4,186.7 906.2,186.7 907.1,186.7 908.0,186.7 908.9,186.7 909.7,186.7 910.6,186.7 911.5,186.7 912.3,186.7 913.2,186.7 914.1,186.7 915.0,186.7 915.8,186.7 916.7,186.7 917.6,186.7 918.4,186.7 919.3,186.7 920.2,186.7 921.1,186.7 921.9,186.7 922.8,186.7 923.7,186.7 924.5,196.6 925.4,193.7 926.3,196.5 927.2,208.1 928.0,209.7 928.9,209.8 929.8,209.8 930.7,209.8 931.5,209.8 932.4,209.8 933.3,209.8 934.1,209.8 935.0,209.8 935.9,209.8 936.8,209.8 937.6,209.8 938.5,209.8 939.4,209.8 940.2,209.8 941.1,209.8 942.0,209.8 942.9,209.8 943.7,209.8 944.6,209.8 945.5,209.8 946.3,209.8 947.2,209.8 948.1,209.8 949.0,206.4 949.8,205.7 950.7,208.9 951.6,131.4 952.5,131.4 953.3,131.4 954.2,131.4 955.1,107.7 955.9,103.2 956.8,98.0 957.7,98.2 958.6,142.8 959.4,136.1 960.3,139.7 961.2,150.0 962.0,148.5 962.9,148.5 963.8,181.1 964.7,181.2 965.5,181.2 966.4,181.2 967.3,181.2 968.1,181.2 969.0,181.2 969.9,181.2 970.8,181.2 971.6,181.2 972.5,181.2 973.4,181.2 974.3,181.2 975.1,181.2 976.0,181.2 976.9,181.2 977.7,181.2 978.6,181.2 979.5,181.2 980.4,181.2 981.2,181.2 982.1,181.2 983.0,181.2 983.8,181.2 984.7,181.2 985.6,181.2 986.5,181.2 987.3,181.2 988.2,181.2 989.1,181.2 990.0,181.2 990.8,181.2 991.7,181.2 992.6,181.2 993.4,181.2 994.3,181.2 995.2,181.2 996.1,181.2 996.9,181.2 997.8,181.2 998.7,181.2 999.5,181.2 1000.4,181.2 1001.3,181.2 1002.2,181.2 1003.0,181.2 1003.9,181.2 1004.8,181.2 1005.6,181.2 1006.5,181.2 1007.4,181.2 1008.3,181.2 1009.1,181.2 1010.0,181.2 1010.9,181.2 1011.8,181.2 1012.6,181.2 1013.5,181.2 1014.4,181.2 1015.2,181.2 1016.1,181.2 1017.0,181.2 1017.9,181.2 1018.7,181.2 1019.6,181.2 1020.5,181.2 1021.3,181.2 1022.2,181.2 1023.1,181.2 1024.0,181.2 1024.8,181.2 1025.7,181.2 1026.6,181.2 1027.4,181.2 1028.3,177.1 1029.2,175.9 1030.1,176.1 1030.9,177.3 1031.8,174.7 1032.7,174.3 1033.6,178.6 1034.4,179.5 1035.3,183.3 1036.2,179.8 1037.0,175.4 1037.9,175.0 1038.8,173.5 1039.7,176.6 1040.5,175.5 1041.4,180.7 1042.3,158.7 1043.1,160.5 1044.0,160.8 1044.9,156.7 1045.8,151.9 1046.6,144.3 1047.5,146.0 1048.4,147.1 1049.3,154.1 1050.1,149.5 1051.0,154.6 1051.9,155.5 1052.7,160.8 1053.6,164.4 1054.5,163.9 1055.4,161.8 1056.2,147.9 1057.1,151.5 1058.0,149.5 1058.8,149.6 1059.7,182.4 1060.6,182.6 1061.5,182.6 1062.3,182.6 1063.2,182.6 1064.1,182.6 1064.9,182.6 1065.8,182.6 1066.7,182.6 1067.6,182.6 1068.4,182.6 1069.3,182.6 1070.2,182.6 1071.1,182.6 1071.9,182.6 1072.8,182.6 1073.7,182.6 1074.5,182.6 1075.4,182.6 1076.3,182.6 1077.2,182.6 1078.0,182.6 1078.9,182.6 1079.8,182.6 1080.6,182.6 1081.5,182.6 1082.4,182.6 1083.3,182.6 1084.1,182.6 1085.0,182.6 1085.9,182.6 1086.7,182.6 1087.6,182.6 1088.5,182.6 1089.4,182.6 1090.2,182.6 1091.1,182.6 1092.0,182.6 1092.9,182.6 1093.7,182.6 1094.6,182.6 1095.5,182.6 1096.3,182.6 1097.2,182.6 1098.1,182.6 1099.0,182.6 1099.8,182.6 1100.7,182.6 1101.6,182.6 1102.4,182.6 1103.3,182.6 1104.2,182.6 1105.1,182.6 1105.9,182.6 1106.8,182.6 1107.7,182.6 1108.5,182.6 1109.4,182.6 1110.3,182.6 1111.2,182.6 1112.0,182.6 1112.9,182.6 1113.8,182.6 1114.7,182.6 1115.5,182.6 1116.4,182.6 1117.3,182.6 1118.1,182.6 1119.0,182.6 1119.9,182.6 1120.8,182.6 1121.6,182.6 1122.5,182.6 1123.4,182.6 1124.2,182.6 1125.1,182.6 1126.0,182.6 1126.9,182.6 1127.7,182.6 1128.6,182.6 1129.5,182.6 1130.4,182.6 1131.2,182.6 1132.1,182.6 1133.0,182.6 1133.8,182.6 1134.7,182.6 1135.6,182.6 1136.5,182.6 1137.3,182.6 1138.2,182.6 1139.1,182.6 1139.9,182.6 1140.8,182.6 1141.7,182.6 1142.6,182.6 1143.4,182.6 1144.3,182.6 1145.2,182.6 1146.0,182.6 1146.9,182.6 1147.8,182.6 1148.7,182.6 1149.5,182.1 1150.4,201.8 1151.3,202.4 1152.2,203.4 1153.0,203.2 1153.9,177.2 1154.8,184.6 1155.6,183.3 1156.5,186.6 1157.4,194.0 1158.3,197.5 1159.1,189.3 1160.0,189.7" />
<text x="90" y="442" font-size="12" fill="#64748b">2025-01-02</text>
<text x="583.0" y="442" font-size="12" fill="#64748b">2025-08-20</text>
<text x="1088" y="442" font-size="12" fill="#64748b">2026-04-13</text>
<text x="8" y="112" font-size="12" fill="#64748b">33.31%</text>
<text x="8" y="418" font-size="12" fill="#64748b">-14.86%</text>
<g><circle cx="121.4" cy="-27311.7" r="6" fill="#16a34a" stroke="#ffffff" stroke-width="2" /><text x="129.4" y="-27321.7" font-size="11" font-weight="700" fill="#16a34a">BUY</text></g>
<g><circle cx="145.8" cy="-26547.7" r="6" fill="#dc2626" stroke="#ffffff" stroke-width="2" /><text x="153.8" y="-26529.7" font-size="11" font-weight="700" fill="#dc2626">SELL</text></g>
<g><circle cx="158.9" cy="-28255.1" r="6" fill="#16a34a" stroke="#ffffff" stroke-width="2" /><text x="166.9" y="-28265.1" font-size="11" font-weight="700" fill="#16a34a">BUY</text></g>
<g><circle cx="170.2" cy="-27511.0" r="6" fill="#dc2626" stroke="#ffffff" stroke-width="2" /><text x="178.2" y="-27493.0" font-size="11" font-weight="700" fill="#dc2626">SELL</text></g>
<g><circle cx="196.4" cy="-28627.2" r="6" fill="#16a34a" stroke="#ffffff" stroke-width="2" /><text x="204.4" y="-28637.2" font-size="11" font-weight="700" fill="#16a34a">BUY</text></g>
<g><circle cx="211.2" cy="-27584.1" r="6" fill="#dc2626" stroke="#ffffff" stroke-width="2" /><text x="219.2" y="-27566.1" font-size="11" font-weight="700" fill="#dc2626">SELL</text></g>
<g><circle cx="231.3" cy="-27504.4" r="6" fill="#16a34a" stroke="#ffffff" stroke-width="2" /><text x="239.3" y="-27514.4" font-size="11" font-weight="700" fill="#16a34a">BUY</text></g>
<g><circle cx="240.0" cy="-27178.9" r="6" fill="#dc2626" stroke="#ffffff" stroke-width="2" /><text x="248.0" y="-27160.9" font-size="11" font-weight="700" fill="#dc2626">SELL</text></g>
<g><circle cx="255.7" cy="-27869.8" r="6" fill="#16a34a" stroke="#ffffff" stroke-width="2" /><text x="263.7" y="-27879.8" font-size="11" font-weight="700" fill="#16a34a">BUY</text></g>
<g><circle cx="264.4" cy="-26873.2" r="6" fill="#dc2626" stroke="#ffffff" stroke-width="2" /><text x="272.4" y="-26855.2" font-size="11" font-weight="700" fill="#dc2626">SELL</text></g>
<g><circle cx="311.5" cy="-25212.3" r="6" fill="#16a34a" stroke="#ffffff" stroke-width="2" /><text x="319.5" y="-25222.3" font-size="11" font-weight="700" fill="#16a34a">BUY</text></g>
<g><circle cx="381.3" cy="-27531.0" r="6" fill="#dc2626" stroke="#ffffff" stroke-width="2" /><text x="389.3" y="-27513.0" font-size="11" font-weight="700" fill="#dc2626">SELL</text></g>
<g><circle cx="408.3" cy="-27770.1" r="6" fill="#16a34a" stroke="#ffffff" stroke-width="2" /><text x="416.3" y="-27780.1" font-size="11" font-weight="700" fill="#16a34a">BUY</text></g>
<g><circle cx="431.0" cy="-26202.2" r="6" fill="#dc2626" stroke="#ffffff" stroke-width="2" /><text x="439.0" y="-26184.2" font-size="11" font-weight="700" fill="#dc2626">SELL</text></g>
<g><circle cx="483.3" cy="-25391.7" r="6" fill="#16a34a" stroke="#ffffff" stroke-width="2" /><text x="491.3" y="-25401.7" font-size="11" font-weight="700" fill="#16a34a">BUY</text></g>
<g><circle cx="506.0" cy="-25557.8" r="6" fill="#dc2626" stroke="#ffffff" stroke-width="2" /><text x="514.0" y="-25539.8" font-size="11" font-weight="700" fill="#dc2626">SELL</text></g>
<g><circle cx="510.3" cy="-25870.0" r="6" fill="#16a34a" stroke="#ffffff" stroke-width="2" /><text x="518.3" y="-25880.0" font-size="11" font-weight="700" fill="#16a34a">BUY</text></g>
<g><circle cx="525.2" cy="-25843.5" r="6" fill="#dc2626" stroke="#ffffff" stroke-width="2" /><text x="533.2" y="-25825.5" font-size="11" font-weight="700" fill="#dc2626">SELL</text></g>
<g><circle cx="528.6" cy="-26142.4" r="6" fill="#16a34a" stroke="#ffffff" stroke-width="2" /><text x="536.6" y="-26152.4" font-size="11" font-weight="700" fill="#16a34a">BUY</text></g>
<g><circle cx="540.0" cy="-25949.8" r="6" fill="#dc2626" stroke="#ffffff" stroke-width="2" /><text x="548.0" y="-25931.8" font-size="11" font-weight="700" fill="#dc2626">SELL</text></g>
<g><circle cx="562.6" cy="-25989.6" r="6" fill="#16a34a" stroke="#ffffff" stroke-width="2" /><text x="570.6" y="-25999.6" font-size="11" font-weight="700" fill="#16a34a">BUY</text></g>
<g><circle cx="581.0" cy="-26255.4" r="6" fill="#dc2626" stroke="#ffffff" stroke-width="2" /><text x="589.0" y="-26237.4" font-size="11" font-weight="700" fill="#dc2626">SELL</text></g>
<g><circle cx="586.2" cy="-27152.3" r="6" fill="#16a34a" stroke="#ffffff" stroke-width="2" /><text x="594.2" y="-27162.3" font-size="11" font-weight="700" fill="#16a34a">BUY</text></g>
<g><circle cx="612.4" cy="-28142.2" r="6" fill="#dc2626" stroke="#ffffff" stroke-width="2" /><text x="620.4" y="-28124.2" font-size="11" font-weight="700" fill="#dc2626">SELL</text></g>
<g><circle cx="616.7" cy="-30241.6" r="6" fill="#16a34a" stroke="#ffffff" stroke-width="2" /><text x="624.7" y="-30251.6" font-size="11" font-weight="700" fill="#16a34a">BUY</text></g>
<g><circle cx="656.8" cy="-33829.2" r="6" fill="#dc2626" stroke="#ffffff" stroke-width="2" /><text x="664.8" y="-33811.2" font-size="11" font-weight="700" fill="#dc2626">SELL</text></g>
<g><circle cx="684.7" cy="-31072.0" r="6" fill="#16a34a" stroke="#ffffff" stroke-width="2" /><text x="692.7" y="-31082.0" font-size="11" font-weight="700" fill="#16a34a">BUY</text></g>
<g><circle cx="703.9" cy="-30706.6" r="6" fill="#dc2626" stroke="#ffffff" stroke-width="2" /><text x="711.9" y="-30688.6" font-size="11" font-weight="700" fill="#dc2626">SELL</text></g>
<g><circle cx="713.5" cy="-32228.0" r="6" fill="#16a34a" stroke="#ffffff" stroke-width="2" /><text x="721.5" y="-32238.0" font-size="11" font-weight="700" fill="#16a34a">BUY</text></g>
<g><circle cx="736.2" cy="-32141.7" r="6" fill="#dc2626" stroke="#ffffff" stroke-width="2" /><text x="744.2" y="-32123.7" font-size="11" font-weight="700" fill="#dc2626">SELL</text></g>
<g><circle cx="774.6" cy="-30308.0" r="6" fill="#16a34a" stroke="#ffffff" stroke-width="2" /><text x="782.6" y="-30318.0" font-size="11" font-weight="700" fill="#16a34a">BUY</text></g>
<g><circle cx="778.9" cy="-30015.7" r="6" fill="#dc2626" stroke="#ffffff" stroke-width="2" /><text x="786.9" y="-29997.7" font-size="11" font-weight="700" fill="#dc2626">SELL</text></g>
<g><circle cx="791.1" cy="-31437.4" r="6" fill="#16a34a" stroke="#ffffff" stroke-width="2" /><text x="799.1" y="-31447.4" font-size="11" font-weight="700" fill="#16a34a">BUY</text></g>
<g><circle cx="795.5" cy="-29391.2" r="6" fill="#dc2626" stroke="#ffffff" stroke-width="2" /><text x="803.5" y="-29373.2" font-size="11" font-weight="700" fill="#dc2626">SELL</text></g>
<g><circle cx="827.8" cy="-28142.2" r="6" fill="#16a34a" stroke="#ffffff" stroke-width="2" /><text x="835.8" y="-28152.2" font-size="11" font-weight="700" fill="#16a34a">BUY</text></g>
<g><circle cx="840.8" cy="-28633.8" r="6" fill="#dc2626" stroke="#ffffff" stroke-width="2" /><text x="848.8" y="-28615.8" font-size="11" font-weight="700" fill="#dc2626">SELL</text></g>
<g><circle cx="841.7" cy="-28746.8" r="6" fill="#16a34a" stroke="#ffffff" stroke-width="2" /><text x="849.7" y="-28756.8" font-size="11" font-weight="700" fill="#16a34a">BUY</text></g>
<g><circle cx="901.0" cy="-33875.7" r="6" fill="#dc2626" stroke="#ffffff" stroke-width="2" /><text x="909.0" y="-33857.7" font-size="11" font-weight="700" fill="#dc2626">SELL</text></g>
<g><circle cx="925.4" cy="-33795.9" r="6" fill="#16a34a" stroke="#ffffff" stroke-width="2" /><text x="933.4" y="-33805.9" font-size="11" font-weight="700" fill="#16a34a">BUY</text></g>
<g><circle cx="929.8" cy="-33091.7" r="6" fill="#dc2626" stroke="#ffffff" stroke-width="2" /><text x="937.8" y="-33073.7" font-size="11" font-weight="700" fill="#dc2626">SELL</text></g>
<g><circle cx="949.8" cy="-33251.2" r="6" fill="#16a34a" stroke="#ffffff" stroke-width="2" /><text x="957.8" y="-33261.2" font-size="11" font-weight="700" fill="#16a34a">BUY</text></g>
<g><circle cx="965.5" cy="-34354.0" r="6" fill="#dc2626" stroke="#ffffff" stroke-width="2" /><text x="973.5" y="-34336.0" font-size="11" font-weight="700" fill="#dc2626">SELL</text></g>
<g><circle cx="1029.2" cy="-30919.2" r="6" fill="#16a34a" stroke="#ffffff" stroke-width="2" /><text x="1037.2" y="-30929.2" font-size="11" font-weight="700" fill="#16a34a">BUY</text></g>
<g><circle cx="1061.5" cy="-30680.1" r="6" fill="#dc2626" stroke="#ffffff" stroke-width="2" /><text x="1069.5" y="-30662.1" font-size="11" font-weight="700" fill="#dc2626">SELL</text></g>
<g><circle cx="1150.4" cy="-25391.7" r="6" fill="#16a34a" stroke="#ffffff" stroke-width="2" /><text x="1158.4" y="-25401.7" font-size="11" font-weight="700" fill="#16a34a">BUY</text></g>
<text x="40" y="732" font-size="13" fill="#334155">初始资金 1,000,000.00 | 结束资金 1,195,080.23 | 总盈亏 +195,080.23</text>
</svg>