<?xml version="1.0" encoding="UTF-8"?>
<svg xmlns="http://www.w3.org/2000/svg" width="1200" height="760" viewBox="0 0 1200 760">
<rect width="100%" height="100%" fill="#f8fafc" />
<text x="40" y="36" font-size="24" font-weight="700" fill="#111827">收益曲线</text>
<text x="40" y="58" font-size="13" fill="#6b7280">区间 2025-01-02 -&gt; 2026-04-13 | 累计收益曲线（下一根K线生效）</text>
<g transform="translate(930,18)">
<rect x="0" y="0" width="220" height="56" rx="10" fill="#ffffff" stroke="#e2e8f0" />
<circle cx="18" cy="20" r="5" fill="#16a34a" />
<text x="30" y="24" font-size="12" fill="#334155">BUY: 开仓</text>
<circle cx="18" cy="40" r="5" fill="#dc2626" />
<text x="30" y="44" font-size="12" fill="#334155">SELL: 平仓</text>
</g>
<text x="40" y="84" font-size="16" font-weight="700" fill="#111827">累计收益</text>
<line x1="90" y1="418" x2="1160" y2="418" stroke="#94a3b8" stroke-width="1.5" />
<line x1="90" y1="98" x2="90" y2="418" stroke="#cbd5e1" stroke-width="1" />
<line x1="90" y1="418" x2="1160" y2="418" stroke="#cbd5e1" stroke-width="1" />
<path d="M 90.0,418.0 L 90.0,311.7 L 90.9,311.7 L 91.7,311.7 L 92.6,311.7 L 93.5,311.7 L 94.4,311.7 L 95.2,311.7 L 96.1,311.7 L 97.0,311.7 L 97.8,311.7 L 98.7,311.7 L 99.6,311.7 L 100.5,311.7 L 101.3,311.7 L 102.2,311.7 L 103.1,311.7 L 104.0,311.7 L 104.8,311.7 L 105.7,311.7 L 106.6,311.7 L 107.4,311.7 L 108.3,311.7 L 109.2,311.7 L 110.1,311.7 L 110.9,311.7 L 111.8,311.7 L 112.7,311.7 L 113.5,311.7 L 114.4,311.7 L 115.3,311.7 L 116.2,311.7 L 117.0,311.7 L 117.9,311.7 L 118.8,311.7 L 119.6,311.7 L 120.5,311.7 L 121.4,307.8 L 122.3,312.6 L 123.1,316.2 L 124.0,319.0 L 124.9,307.8 L 125.8,315.3 L 126.6,314.8 L 127.5,312.2 L 128.4,320.1 L 129.2,312.4 L 130.1,311.9 L 131.0,313.9 L 131.9,263.3 L 132.7,266.9 L 133.6,270.3 L 134.5,268.6 L 135.3,274.2 L 136.2,265.9 L 137.1,269.3 L 138.0,267.0 L 138.8,278.1 L 139.7,273.5 L 140.6,274.9 L 141.5,277.8 L 142.3,276.3 L 143.2,290.7 L 144.1,338.3 L 144.9,338.5 L 145.8,338.5 L 146.7,338.5 L 147.6,338.5 L 148.4,338.5 L 149.3,338.5 L 150.2,338.5 L 151.0,338.5 L 151.9,338.5 L 152.8,338.5 L 153.7,338.5 L 154.5,338.5 L 155.4,338.5 L 156.3,338.5 L 157.1,338.5 L 158.0,344.0 L 158.9,340.6 L 159.8,332.1 L 160.6,326.8 L 161.5,343.5 L 162.4,341.3 L 163.3,341.0 L 164.1,345.2 L 165.0,345.7 L 165.9,345.2 L 166.7,361.2 L 167.6,355.5 L 168.5,360.1 L 169.4,360.2 L 170.2,360.2 L 171.1,360.2 L 172.0,360.2 L 172.8,360.2 L 173.7,360.2 L 174.6,360.2 L 175.5,360.2 L 176.3,360.2 L 177.2,360.2 L 178.1,360.2 L 178.9,360.2 L 179.8,360.2 L 180.7,360.2 L 181.6,360.2 L 182.4,360.2 L 183.3,360.2 L 184.2,360.2 L 185.1,360.2 L 185.9,360.2 L 186.8,360.2 L 187.7,360.2 L 188.5,360.2 L 189.4,360.2 L 190.3,360.2 L 191.2,360.2 L 192.0,360.2 L 192.9,360.2 L 193.8,360.2 L 194.6,360.2 L 195.5,355.4 L 196.4,366.1 L 197.3,361.2 L 198.1,346.4 L 199.0,349.0 L 199.9,356.0 L 200.7,351.7 L 201.6,352.2 L 202.5,343.6 L 203.4,345.2 L 204.2,350.2 L 205.1,355.6 L 206.0,355.3 L 206.9,358.3 L 207.7,358.2 L 208.6,372.9 L 209.5,376.1 L 210.3,376.2 L 211.2,376.2 L 212.1,376.2 L 213.0,376.2 L 213.8,376.2 L 214.7,376.2 L 215.6,376.2 L 216.4,376.2 L 217.3,376.2 L 218.2,376.2 L 219.1,376.2 L 219.9,376.2 L 220.8,376.2 L 221.7,376.2 L 222.6,376.2 L 223.4,376.2 L 224.3,376.2 L 225.2,376.2 L 226.0,376.2 L 226.9,376.2 L 227.8,376.2 L 228.7,376.2 L 229.5,376.2 L 230.4,382.2 L 231.3,386.3 L 232.1,389.1 L 233.0,380.8 L 233.9,382.8 L 234.8,384.8 L 235.6,381.1 L 236.5,390.0 L 237.4,395.6 L 238.2,395.2 L 239.1,395.3 L 240.0,395.3 L 240.9,395.3 L 241.7,395.3 L 242.6,395.3 L 243.5,395.3 L 244.4,395.3 L 245.2,395.3 L 246.1,395.3 L 247.0,395.3 L 247.8,395.3 L 248.7,395.3 L 249.6,395.3 L 250.5,395.3 L 251.3,395.3 L 252.2,395.3 L 253.1,395.3 L 253.9,395.3 L 254.8,400.3 L 255.7,400.3 L 256.6,395.1 L 257.4,411.6 L 258.3,410.0 L 259.2,413.3 L 260.0,414.8 L 260.9,417.6 L 261.8,414.2 L 262.7,417.9 L 263.5,418.0 L 264.4,418.0 L 265.3,418.0 L 266.2,418.0 L 267.0,418.0 L 267.9,418.0 L 268.8,418.0 L 269.6,418.0 L 270.5,418.0 L 271.4,418.0 L 272.3,418.0 L 273.1,418.0 L 274.0,418.0 L 274.9,418.0 L 275.7,418.0 L 276.6,418.0 L 277.5,418.0 L 278.4,418.0 L 279.2,418.0 L 280.1,418.0 L 281.0,418.0 L 281.9,418.0 L 282.7,418.0 L 283.6,418.0 L 284.5,418.0 L 285.3,418.0 L 286.2,418.0 L 287.1,418.0 L 288.0,418.0 L 288.8,418.0 L 289.7,418.0 L 290.6,418.0 L 291.4,418.0 L 292.3,418.0 L 293.2,418.0 L 294.1,418.0 L 294.9,418.0 L 295.8,418.0 L 296.7,418.0 L 297.5,418.0 L 298.4,418.0 L 299.3,418.0 L 300.2,418.0 L 301.0,418.0 L 301.9,418.0 L 302.8,418.0 L 303.7,418.0 L 304.5,418.0 L 305.4,418.0 L 306.3,418.0 L 307.1,418.0 L 308.0,418.0 L 308.9,418.0 L 309.8,418.0 L 310.6,405.1 L 311.5,400.9 L 312.4,400.9 L 313.2,392.7 L 314.1,384.7 L 315.0,390.0 L 315.9,391.3 L 316.7,365.5 L 317.6,371.0 L 318.5,370.7 L 319.3,371.7 L 320.2,376.2 L 321.1,379.9 L 322.0,379.0 L 322.8,378.1 L 323.7,375.2 L 324.6,380.7 L 325.5,381.5 L 326.3,377.3 L 327.2,363.8 L 328.1,365.1 L 328.9,371.3 L 329.8,374.1 L 330.7,380.0 L 331.6,380.8 L 332.4,376.2 L 333.3,376.8 L 334.2,369.7 L 335.0,371.8 L 335.9,363.6 L 336.8,354.1 L 337.7,352.7 L 338.5,360.2 L 339.4,359.4 L 340.3,363.5 L 341.1,361.4 L 342.0,359.3 L 342.9,359.3 L 343.8,360.1 L 344.6,360.2 L 345.5,362.5 L 346.4,352.8 L 347.3,353.5 L 348.1,367.8 L 349.0,362.8 L 349.9,353.5 L 350.7,356.7 L 351.6,359.8 L 352.5,358.5 L 353.4,362.0 L 354.2,361.4 L 355.1,352.7 L 356.0,354.8 L 356.8,360.9 L 357.7,359.8 L 358.6,349.1 L 359.5,345.1 L 360.3,341.7 L 361.2,344.5 L 362.1,334.0 L 363.0,333.9 L 363.8,336.8 L 364.7,335.6 L 365.6,329.7 L 366.4,325.0 L 367.3,329.7 L 368.2,326.5 L 369.1,323.7 L 369.9,332.3 L 370.8,328.2 L 371.7,328.4 L 372.5,333.2 L 373.4,331.5 L 374.3,331.8 L 375.2,335.6 L 376.0,319.2 L 376.9,326.5 L 377.8,332.4 L 378.6,334.0 L 379.5,347.4 L 380.4,347.5 L 381.3,347.5 L 382.1,347.5 L 383.0,347.5 L 383.9,347.5 L 384.8,347.5 L 385.6,347.5 L 386.5,347.5 L 387.4,347.5 L 388.2,347.5 L 389.1,347.5 L 390.0,347.5 L 390.9,347.5 L 391.7,347.5 L 392.6,347.5 L 393.5,347.5 L 394.3,347.5 L 395.2,347.5 L 396.1,347.5 L 397.0,347.5 L 397.8,347.5 L 398.7,347.5 L 399.6,347.5 L 400.4,347.5 L 401.3,347.5 L 402.2,347.5 L 403.1,347.5 L 403.9,347.5 L 404.8,347.5 L 405.7,347.5 L 406.6,347.5 L 407.4,337.9 L 408.3,333.4 L 409.2,337.8 L 410.0,342.3 L 410.9,331.9 L 411.8,334.5 L 412.7,335.2 L 413.5,335.8 L 414.4,341.5 L 415.3,344.6 L 416.1,342.3 L 417.0,343.4 L 417.9,343.3 L 418.8,343.1 L 419.6,341.8 L 420.5,343.6 L 421.4,293.2 L 422.2,294.3 L 423.1,296.9 L 424.0,294.8 L 424.9,315.9 L 425.7,305.5 L 426.6,305.7 L 427.5,304.2 L 428.4,373.4 L 429.2,375.5 L 430.1,375.6 L 431.0,375.6 L 431.8,375.6 L 432.7,375.6 L 433.6,375.6 L 434.5,375.6 L 435.3,375.6 L 436.2,375.6 L 437.1,375.6 L 437.9,375.6 L 438.8,375.6 L 439.7,375.6 L 440.6,375.6 L 441.4,375.6 L 442.3,375.6 L 443.2,375.6 L 444.1,375.6 L 444.9,375.6 L 445.8,375.6 L 446.7,375.6 L 447.5,375.6 L 448.4,375.6 L 449.3,375.6 L 450.2,375.6 L 451.0,375.6 L 451.9,375.6 L 452.8,375.6 L 453.6,375.6 L 454.5,375.6 L 455.4,375.6 L 456.3,375.6 L 457.1,375.6 L 458.0,375.6 L 458.9,375.6 L 459.7,375.6 L 460.6,375.6 L 461.5,375.6 L 462.4,375.6 L 463.2,375.6 L 464.1,375.6 L 465.0,375.6 L 465.9,375.6 L 466.7,375.6 L 467.6,375.6 L 468.5,375.6 L 469.3,375.6 L 470.2,375.6 L 471.1,375.6 L 472.0,375.6 L 472.8,375.6 L 473.7,375.6 L 474.6,375.6 L 475.4,375.6 L 476.3,375.6 L 477.2,375.6 L 478.1,375.6 L 478.9,375.6 L 479.8,375.6 L 480.7,375.6 L 481.5,375.6 L 482.4,375.6 L 483.3,375.6 L 484.2,375.6 L 485.0,369.9 L 485.9,370.0 L 486.8,368.9 L 487.7,367.0 L 488.5,367.3 L 489.4,374.8 L 490.3,375.4 L 491.1,370.4 L 492.0,369.9 L 492.9,374.1 L 493.8,374.3 L 494.6,351.8 L 495.5,348.8 L 496.4,353.8 L 497.2,348.4 L 498.1,356.7 L 499.0,358.6 L 499.9,356.9 L 500.7,358.1 L 501.6,366.8 L 502.5,367.7 L 503.3,367.7 L 504.2,368.7 L 505.1,368.8 L 506.0,368.8 L 506.8,368.8 L 507.7,368.8 L 508.6,368.8 L 509.5,367.1 L 510.3,367.1 L 511.2,369.8 L 512.1,369.3 L 512.9,365.6 L 513.8,367.6 L 514.7,369.4 L 515.6,357.0 L 516.4,361.0 L 517.3,357.3 L 518.2,357.5 L 519.0,359.1 L 519.9,363.5 L 520.8,364.8 L 521.7,366.4 L 522.5,370.6 L 523.4,368.3 L 524.3,368.4 L 525.2,368.4 L 526.0,368.4 L 526.9,368.4 L 527.8,368.4 L 528.6,368.4 L 529.5,368.4 L 530.4,370.3 L 531.3,372.1 L 532.1,368.9 L 533.0,373.2 L 533.9,376.4 L 534.7,376.4 L 535.6,376.3 L 536.5,380.8 L 537.4,383.2 L 538.2,385.8 L 539.1,385.9 L 540.0,385.9 L 540.8,385.9 L 541.7,385.9 L 542.6,385.9 L 543.5,385.9 L 544.3,385.9 L 545.2,385.9 L 546.1,385.9 L 547.0,385.9 L 547.8,385.9 L 548.7,385.9 L 549.6,385.9 L 550.4,385.9 L 551.3,385.9 L 552.2,385.9 L 553.1,385.9 L 553.9,385.9 L 554.8,385.9 L 555.7,385.9 L 556.5,385.9 L 557.4,385.9 L 558.3,385.9 L 559.2,385.9 L 560.0,385.9 L 560.9,385.9 L 561.8,388.6 L 562.6,388.7 L 563.5,385.9 L 564.4,363.6 L 565.3,353.5 L 566.1,356.1 L 567.0,357.7 L 567.9,360.1 L 568.8,357.0 L 569.6,359.8 L 570.5,359.8 L 571.4,356.9 L 572.2,360.4 L 573.1,369.8 L 574.0,364.4 L 574.9,365.4 L 575.7,363.9 L 576.6,365.2 L 577.5,368.7 L 578.3,372.1 L 579.2,378.5 L 580.1,378.6 L 581.0,378.6 L 581.8,378.6 L 582.7,378.6 L 583.6,378.6 L 584.4,378.6 L 585.3,378.6 L 586.2,380.9 L 587.1,378.3 L 587.9,378.8 L 588.8,373.6 L 589.7,368.8 L 590.6,364.7 L 591.4,363.2 L 592.3,359.9 L 593.2,353.2 L 594.0,352.9 L 594.9,352.7 L 595.8,339.2 L 596.7,345.1 L 597.5,345.1 L 598.4,347.3 L 599.3,326.1 L 600.1,327.3 L 601.0,323.6 L 601.9,327.5 L 602.8,342.8 L 603.6,341.5 L 604.5,343.1 L 605.4,343.7 L 606.3,342.8 L 607.1,343.9 L 608.0,343.7 L 608.9,348.5 L 609.7,349.8 L 610.6,353.5 L 611.5,353.7 L 612.4,353.7 L 613.2,353.7 L 614.1,353.7 L 615.0,353.7 L 615.8,353.7 L 616.7,353.7 L 617.6,347.7 L 618.5,344.9 L 619.3,344.1 L 620.2,392.7 L 621.1,383.0 L 621.9,386.1 L 622.8,387.9 L 623.7,381.1 L 624.6,384.7 L 625.4,331.6 L 626.3,324.4 L 627.2,334.0 L 628.1,335.2 L 628.9,339.0 L 629.8,343.2 L 630.7,342.8 L 631.5,342.9 L 632.4,334.0 L 633.3,329.8 L 634.2,298.8 L 635.0,307.9 L 635.9,301.2 L 636.8,294.1 L 637.6,269.6 L 638.5,272.5 L 639.4,273.3 L 640.3,275.7 L 641.1,223.8 L 642.0,217.5 L 642.9,227.1 L 643.7,246.7 L 644.6,244.9 L 645.5,251.5 L 646.4,257.5 L 647.2,244.9 L 648.1,248.1 L 649.0,251.8 L 649.9,258.7 L 650.7,256.6 L 651.6,284.1 L 652.5,280.0 L 653.3,275.8 L 654.2,275.5 L 655.1,286.4 L 656.0,286.5 L 656.8,286.5 L 657.7,286.5 L 658.6,286.5 L 659.4,286.5 L 660.3,286.5 L 661.2,286.5 L 662.1,286.5 L 662.9,286.5 L 663.8,286.5 L 664.7,286.5 L 665.6,286.5 L 666.4,286.5 L 667.3,286.5 L 668.2,286.5 L 669.0,286.5 L 669.9,286.5 L 670.8,286.5 L 671.7,286.5 L 672.5,286.5 L 673.4,286.5 L 674.3,286.5 L 675.1,286.5 L 676.0,286.5 L 676.9,286.5 L 677.8,286.5 L 678.6,286.5 L 679.5,286.5 L 680.4,286.5 L 681.2,286.5 L 682.1,286.5 L 683.0,286.5 L 683.9,288.2 L 684.7,287.6 L 685.6,294.8 L 686.5,298.3 L 687.4,299.0 L 688.2,295.7 L 689.1,298.5 L 690.0,296.9 L 690.8,300.2 L 691.7,289.6 L 692.6,293.7 L 693.5,275.6 L 694.3,266.0 L 695.2,264.1 L 696.1,264.6 L 696.9,249.6 L 697.8,254.3 L 698.7,269.4 L 699.6,275.5 L 700.4,287.9 L 701.3,289.8 L 702.2,296.3 L 703.0,296.5 L 703.9,296.5 L 704.8,296.5 L 705.7,296.5 L 706.5,296.5 L 707.4,296.5 L 708.3,296.5 L 709.2,296.5 L 710.0,296.5 L 710.9,296.5 L 711.8,296.5 L 712.6,296.5 L 713.5,296.5 L 714.4,296.5 L 715.3,286.6 L 716.1,291.2 L 717.0,294.7 L 717.9,313.4 L 718.7,307.4 L 719.6,311.4 L 720.5,316.8 L 721.4,304.1 L 722.2,296.6 L 723.1,296.0 L 724.0,295.9 L 724.8,288.4 L 725.7,288.3 L 726.6,289.9 L 727.5,288.1 L 728.3,267.9 L 729.2,273.2 L 730.1,284.4 L 731.0,288.1 L 731.8,293.5 L 732.7,295.6 L 733.6,299.8 L 734.4,305.7 L 735.3,305.8 L 736.2,305.8 L 737.1,305.8 L 737.9,305.8 L 738.8,305.8 L 739.7,305.8 L 740.5,305.8 L 741.4,305.8 L 742.3,305.8 L 743.2,305.8 L 744.0,305.8 L 744.9,305.8 L 745.8,305.8 L 746.7,305.8 L 747.5,305.8 L 748.4,305.8 L 749.3,305.8 L 750.1,305.8 L 751.0,305.8 L 751.9,305.8 L 752.8,305.8 L 753.6,305.8 L 754.5,305.8 L 755.4,305.8 L 756.2,305.8 L 757.1,305.8 L 758.0,305.8 L 758.9,305.8 L 759.7,305.8 L 760.6,305.8 L 761.5,305.8 L 762.3,305.8 L 763.2,305.8 L 764.1,305.8 L 765.0,305.8 L 765.8,305.8 L 766.7,305.8 L 767.6,305.8 L 768.5,305.8 L 769.3,305.8 L 770.2,305.8 L 771.1,305.8 L 771.9,305.8 L 772.8,305.8 L 773.7,305.8 L 774.6,305.8 L 775.4,305.8 L 776.3,305.8 L 777.2,305.8 L 778.0,305.8 L 778.9,305.8 L 779.8,305.8 L 780.7,305.8 L 781.5,305.8 L 782.4,305.8 L 783.3,305.8 L 784.1,305.8 L 785.0,305.8 L 785.9,305.8 L 786.8,305.8 L 787.6,305.8 L 788.5,305.8 L 789.4,305.8 L 790.3,305.8 L 791.1,305.8 L 792.0,305.8 L 792.9,305.8 L 793.7,305.8 L 794.6,305.8 L 795.5,305.8 L 796.4,305.8 L 797.2,305.8 L 798.1,305.8 L 799.0,305.8 L 799.8,305.8 L 800.7,305.8 L 801.6,305.8 L 802.5,305.8 L 803.3,305.8 L 804.2,305.8 L 805.1,305.8 L 805.9,305.8 L 806.8,305.8 L 807.7,305.8 L 808.6,305.8 L 809.4,305.8 L 810.3,305.8 L 811.2,305.8 L 812.1,305.8 L 812.9,305.8 L 813.8,305.8 L 814.7,305.8 L 815.5,305.8 L 816.4,305.8 L 817.3,305.8 L 818.2,305.8 L 819.0,305.8 L 819.9,305.8 L 820.8,305.8 L 821.6,305.8 L 822.5,305.8 L 823.4,305.8 L 824.3,305.8 L 825.1,305.8 L 826.0,305.8 L 826.9,298.5 L 827.8,301.9 L 828.6,301.2 L 829.5,308.8 L 830.4,306.0 L 831.2,303.3 L 832.1,303.8 L 833.0,311.7 L 833.9,310.2 L 834.7,309.7 L 835.6,312.7 L 836.5,312.6 L 837.3,312.4 L 838.2,310.4 L 839.1,314.8 L 840.0,314.9 L 840.8,312.6 L 841.7,311.8 L 842.6,310.6 L 843.4,308.4 L 844.3,304.3 L 845.2,308.4 L 846.1,308.0 L 846.9,292.6 L 847.8,296.8 L 848.7,298.6 L 849.6,298.3 L 850.4,287.7 L 851.3,287.4 L 852.2,290.0 L 853.0,292.9 L 853.9,294.9 L 854.8,293.8 L 855.7,293.1 L 856.5,289.4 L 857.4,218.9 L 858.3,215.9 L 859.1,215.9 L 860.0,215.9 L 860.9,213.2 L 861.8,222.6 L 862.6,215.5 L 863.5,209.9 L 864.4,212.0 L 865.2,207.8 L 866.1,221.5 L 867.0,224.2 L 867.9,234.9 L 868.7,233.5 L 869.6,238.2 L 870.5,239.8 L 871.4,230.9 L 872.2,229.3 L 873.1,232.3 L 874.0,231.9 L 874.8,201.8 L 875.7,194.5 L 876.6,204.7 L 877.5,208.0 L 878.3,215.3 L 879.2,216.4 L 880.1,216.3 L 880.9,217.2 L 881.8,209.8 L 882.7,199.4 L 883.6,201.3 L 884.4,198.2 L 885.3,166.9 L 886.2,169.2 L 887.0,164.6 L 887.9,168.3 L 888.8,168.7 L 889.7,167.7 L 890.5,167.7 L 891.4,175.0 L 892.3,149.0 L 893.2,160.1 L 894.0,159.9 L 894.9,163.0 L 895.8,178.1 L 896.6,192.5 L 897.5,186.5 L 898.4,186.7 L 899.3,190.4 L 900.1,190.6 L 901.0,190.6 L 901.9,190.6 L 902.7,190.6 L 903.6,190.6 L 904.5,190.6 L 905.4,190.6 L 906.2,190.6 L 907.1,190.6 L 908.0,190.6 L 908.9,190.6 L 909.7,190.6 L 910.6,190.6 L 911.5,190.6 L 912.3,190.6 L 913.2,190.6 L 914.1,190.6 L 915.0,190.6 L 915.8,190.6 L 916.7,190.6 L 917.6,190.6 L 918.4,190.6 L 919.3,190.6 L 920.2,190.6 L 921.1,190.6 L 921.9,190.6 L 922.8,190.6 L 923.7,190.6 L 924.5,201.0 L 925.4,198.0 L 926.3,200.9 L 927.2,213.0 L 928.0,214.6 L 928.9,214.8 L 929.8,214.8 L 930.7,214.8 L 931.5,214.8 L 932.4,214.8 L 933.3,214.8 L 934.1,214.8 L 935.0,214.8 L 935.9,214.8 L 936.8,214.8 L 937.6,214.8 L 938.5,214.8 L 939.4,214.8 L 940.2,214.8 L 941.1,214.8 L 942.0,214.8 L 942.9,214.8 L 943.7,214.8 L 944.6,214.8 L 945.5,214.8 L 946.3,214.8 L 947.2,214.8 L 948.1,214.8 L 949.0,211.3 L 949.8,210.5 L 950.7,213.8 L 951.6,132.9 L 952.5,132.9 L 953.3,132.9 L 954.2,132.9 L 955.1,108.1 L 955.9,103.5 L 956.8,98.0 L 957.7,98.2 L 958.6,144.7 L 959.4,137.8 L 960.3,141.5 L 961.2,152.3 L 962.0,150.7 L 962.9,150.7 L 963.8,184.7 L 964.7,184.9 L 965.5,184.9 L 966.4,184.9 L 967.3,184.9 L 968.1,184.9 L 969.0,184.9 L 969.9,184.9 L 970.8,184.9 L 971.6,184.9 L 972.5,184.9 L 973.4,184.9 L 974.3,184.9 L 975.1,184.9 L 976.0,184.9 L 976.9,184.9 L 977.7,184.9 L 978.6,184.9 L 979.5,184.9 L 980.4,184.9 L 981.2,184.9 L 982.1,184.9 L 983.0,184.9 L 983.8,184.9 L 984.7,184.9 L 985.6,184.9 L 986.5,184.9 L 987.3,184.9 L 988.2,184.9 L 989.1,184.9 L 990.0,184.9 L 990.8,184.9 L 991.7,184.9 L 992.6,184.9 L 993.4,184.9 L 994.3,184.9 L 995.2,184.9 L 996.1,184.9 L 996.9,184.9 L 997.8,184.9 L 998.7,184.9 L 999.5,184.9 L 1000.4,184.9 L 1001.3,184.9 L 1002.2,184.9 L 1003.0,184.9 L 1003.9,184.9 L 1004.8,184.9 L 1005.6,184.9 L 1006.5,184.9 L 1007.4,184.9 L 1008.3,184.9 L 1009.1,184.9 L 1010.0,184.9 L 1010.9,184.9 L 1011.8,184.9 L 1012.6,184.9 L 1013.5,184.9 L 1014.4,184.9 L 1015.2,184.9 L 1016.1,184.9 L 1017.0,184.9 L 1017.9,184.9 L 1018.7,184.9 L 1019.6,184.9 L 1020.5,184.9 L 1021.3,184.9 L 1022.2,184.9 L 1023.1,184.9 L 1024.0,184.9 L 1024.8,184.9 L 1025.7,184.9 L 1026.6,184.9 L 1027.4,184.9 L 1028.3,184.9 L 1029.2,183.8 L 1030.1,184.0 L 1030.9,185.3 L 1031.8,182.6 L 1032.7,182.2 L 1033.6,186.7 L 1034.4,187.6 L 1035.3,191.5 L 1036.2,187.9 L 1037.0,183.3 L 1037.9,182.9 L 1038.8,181.3 L 1039.7,184.5 L 1040.5,183.5 L 1041.4,188.8 L 1042.3,166.0 L 1043.1,167.8 L 1044.0,168.2 L 1044.9,163.9 L 1045.8,158.9 L 1046.6,151.0 L 1047.5,152.8 L 1048.4,153.9 L 1049.3,161.2 L 1050.1,156.4 L 1051.0,161.7 L 1051.9,162.6 L 1052.7,168.2 L 1053.6,171.9 L 1054.5,171.4 L 1055.4,169.2 L 1056.2,154.8 L 1057.1,158.5 L 1058.0,156.4 L 1058.8,156.6 L 1059.7,190.6 L 1060.6,190.8 L 1061.5,190.8 L 1062.3,190.8 L 1063.2,190.8 L 1064.1,190.8 L 1064.9,190.8 L 1065.8,190.8 L 1066.7,190.8 L 1067.6,190.8 L 1068.4,190.8 L 1069.3,190.8 L 1070.2,190.8 L 1071.1,190.8 L 1071.9,190.8 L 1072.8,190.8 L 1073.7,190.8 L 1074.5,190.8 L 1075.4,190.8 L 1076.3,190.8 L 1077.2,190.8 L 1078.0,190.8 L 1078.9,190.8 L 1079.8,190.8 L 1080.6,190.8 L 1081.5,190.8 L 1082.4,190.8 L 1083.3,190.8 L 1084.1,190.8 L 1085.0,190.8 L 1085.9,190.8 L 1086.7,190.8 L 1087.6,190.8 L 1088.5,190.8 L 1089.4,190.8 L 1090.2,190.8 L 1091.1,190.8 L 1092.0,190.8 L 1092.9,190.8 L 1093.7,190.8 L 1094.6,190.8 L 1095.5,190.8 L 1096.3,190.8 L 1097.2,190.8 L 1098.1,190.8 L 1099.0,190.8 L 1099.8,190.8 L 1100.7,190.8 L 1101.6,190.8 L 1102.4,190.8 L 1103.3,190.8 L 1104.2,190.8 L 1105.1,190.8 L 1105.9,190.8 L 1106.8,190.8 L 1107.7,190.8 L 1108.5,190.8 L 1109.4,190.8 L 1110.3,190.8 L 1111.2,190.8 L 1112.0,190.8 L 1112.9,190.8 L 1113.8,190.8 L 1114.7,190.8 L 1115.5,190.8 L 1116.4,190.8 L 1117.3,190.8 L 1118.1,190.8 L 1119.0,190.8 L 1119.9,190.8 L 1120.8,190.8 L 1121.6,190.8 L 1122.5,190.8 L 1123.4,190.8 L 1124.2,190.8 L 1125.1,190.8 L 1126.0,190.8 L 1126.9,190.8 L 1127.7,190.8 L 1128.6,190.8 L 1129.5,190.8 L 1130.4,190.8 L 1131.2,190.8 L 1132.1,190.8 L 1133.0,190.8 L 1133.8,190.8 L 1134.7,190.8 L 1135.6,190.8 L 1136.5,190.8 L 1137.3,190.8 L 1138.2,190.8 L 1139.1,190.8 L 1139.9,190.8 L 1140.8,190.8 L 1141.7,190.8 L 1142.6,190.8 L 1143.4,190.8 L 1144.3,190.8 L 1145.2,190.8 L 1146.0,190.8 L 1146.9,190.8 L 1147.8,190.8 L 1148.7,190.8 L 1149.5,190.8 L 1150.4,211.3 L 1151.3,212.0 L 1152.2,213.0 L 1153.0,212.8 L 1153.9,185.8 L 1154.8,193.5 L 1155.6,192.2 L 1156.5,195.6 L 1157.4,203.3 L 1158.3,206.9 L 1159.1,198.4 L 1160.0,198.8 L 1160.0,418.0 Z" fill="#60a5fa" opacity="0.22" />
<polyline fill="none" stroke="#2563eb" stroke-width="3" stroke-linecap="round" stroke-linejoin="round" points="90.0,311.7 90.9,311.7 91.7,311.7 92.6,311.7 93.5,311.7 94.4,311.7 95.2,311.7 96.1,311.7 97.0,311.7 97.8,311.7 98.7,311.7 99.6,311.7 100.5,311.7 101.3,311.7 102.2,311.7 103.1,311.7 104.0,311.7 104.8,311.7 105.7,311.7 106.6,311.7 107.4,311.7 108.3,311.7 109.2,311.7 110.1,311.7 110.9,311.7 111.8,311.7 112.7,311.7 113.5,311.7 114.4,311.7 115.3,311.7 116.2,311.7 117.0,311.7 117.9,311.7 118.8,311.7 119.6,311.7 120.5,311.7 121.4,307.8 122.3,312.6 123.1,316.2 124.0,319.0 124.9,307.8 125.8,315.3 126.6,314.8 127.5,312.2 128.4,320.1 129.2,312.4 130.1,311.9 131.0,313.9 131.9,263.3 132.7,266.9 133.6,270.3 134.5,268.6 135.3,274.2 136.2,265.9 137.1,269.3 138.0,267.0 138.8,278.1 139.7,273.5 140.6,274.9 141.5,277.8 142.3,276.3 143.2,290.7 144.1,338.3 144.9,338.5 145.8,338.5 146.7,338.5 147.6,338.5 148.4,338.5 149.3,338.5 150.2,338.5 151.0,338.5 151.9,338.5 152.8,338.5 153.7,338.5 154.5,338.5 155.4,338.5 156.3,338.5 157.1,338.5 158.0,344.0 158.9,340.6 159.8,332.1 160.6,326.8 161.5,343.5 162.4,341.3 163.3,341.0 164.1,345.2 165.0,345.7 165.9,345.2 166.7,361.2 167.6,355.5 168.5,360.1 169.4,360.2 170.2,360.2 171.1,360.2 172.0,360.2 172.8,360.2 173.7,360.2 174.6,360.2 175.5,360.2 176.3,360.2 177.2,360.2 178.1,360.2 178.9,360.2 179.8,360.2 180.7,360.2 181.6,360.2 182.4,360.2 183.3,360.2 184.2,360.2 185.1,360.2 185.9,360.2 186.8,360.2 187.7,360.2 188.5,360.2 189.4,360.2 190.3,360.2 191.2,360.2 192.0,360.2 192.9,360.2 193.8,360.2 194.6,360.2 195.5,355.4 196.4,366.1 197.3,361.2 198.1,346.4 199.0,349.0 199.9,356.0 200.7,351.7 201.6,352.2 202.5,343.6 203.4,345.2 204.2,350.2 205.1,355.6 206.0,355.3 206.9,358.3 207.7,358.2 208.6,372.9 209.5,376.1 210.3,376.2 211.2,376.2 212.1,376.2 213.0,376.2 213.8,376.2 214.7,376.2 215.6,376.2 216.4,376.2 217.3,376.2 218.2,376.2 219.1,376.2 219.9,376.2 220.8,376.2 221.7,376.2 222.6,376.2 223.4,376.2 224.3,376.2 225.2,376.2 226.0,376.2 226.9,376.2 227.8,376.2 228.7,376.2 229.5,376.2 230.4,382.2 231.3,386.3 232.1,389.1 233.0,380.8 233.9,382.8 234.8,384.8 235.6,381.1 236.5,390.0 237.4,395.6 238.2,395.2 239.1,395.3 240.0,395.3 240.9,395.3 241.7,395.3 242.6,395.3 243.5,395.3 244.4,395.3 245.2,395.3 246.1,395.3 247.0,395.3 247.8,395.3 248.7,395.3 249.6,395.3 250.5,395.3 251.3,395.3 252.2,395.3 253.1,395.3 253.9,395.3 254.8,400.3 255.7,400.3 256.6,395.1 257.4,411.6 258.3,410.0 259.2,413.3 260.0,414.8 260.9,417.6 261.8,414.2 262.7,417.9 263.5,418.0 264.4,418.0 265.3,418.0 266.2,418.0 267.0,418.0 267.9,418.0 268.8,418.0 269.6,418.0 270.5,418.0 271.4,418.0 272.3,418.0 273.1,418.0 274.0,418.0 274.9,418.0 275.7,418.0 276.6,418.0 277.5,418.0 278.4,418.0 279.2,418.0 280.1,418.0 281.0,418.0 281.9,418.0 282.7,418.0 283.6,418.0 284.5,418.0 285.3,418.0 286.2,418.0 287.1,418.0 288.0,418.0 288.8,418.0 289.7,418.0 290.6,418.0 291.4,418.0 292.3,418.0 293.2,418.0 294.1,418.0 294.9,418.0 295.8,418.0 296.7,418.0 297.5,418.0 298.4,418.0 299.3,418.0 300.2,418.0 301.0,418.0 301.9,418.0 302.8,418.0 303.7,418.0 304.5,418.0 305.4,418.0 306.3,418.0 307.1,418.0 308.0,418.0 308.9,418.0 309.8,418.0 310.6,405.1 311.5,400.9 312.4,400.9 313.2,392.7 314.1,384.7 315.0,390.0 315.9,391.3 316.7,365.5 317.6,371.0 318.5,370.7 319.3,371.7 320.2,376.2 321.1,379.9 322.0,379.0 322.8,378.1 323.7,375.2 324.6,380.7 325.5,381.5 326.3,377.3 327.2,363.8 328.1,365.1 328.9,371.3 329.8,374.1 330.7,380.0 331.6,380.8 332.4,376.2 333.3,376.8 334.2,369.7 335.0,371.8 335.9,363.6 336.8,354.1 337.7,352.7 338.5,360.2 339.4,359.4 340.3,363.5 341.1,361.4 342.0,359.3 342.9,359.3 343.8,360.1 344.6,360.2 345.5,362.5 346.4,352.8 347.3,353.5 348.1,367.8 349.0,362.8 349.9,353.5 350.7,356.7 351.6,359.8 352.5,358.5 353.4,362.0 354.2,361.4 355.1,352.7 356.0,354.8 356.8,360.9 357.7,359.8 358.6,349.1 359.5,345.1 360.3,341.7 361.2,344.5 362.1,334.0 363.0,333.9 363.8,336.8 364.7,335.6 365.6,329.7 366.4,325.0 367.3,329.7 368.2,326.5 369.1,323.7 369.9,332.3 370.8,328.2 371.7,328.4 372.5,333.2 373.4,331.5 374.3,331.8 375.2,335.6 376.0,319.2 376.9,326.5 377.8,332.4 378.6,334.0 379.5,347.4 380.4,347.5 381.3,347.5 382.1,347.5 383.0,347.5 383.9,347.5 384.8,347.5 385.6,347.5 386.5,347.5 387.4,347.5 388.2,347.5 389.1,347.5 390.0,347.5 390.9,347.5 391.7,347.5 392.6,347.5 393.5,347.5 394.3,347.5 395.2,347.5 396.1,347.5 397.0,347.5 397.8,347.5 398.7,347.5 399.6,347.5 400.4,347.5 401.3,347.5 402.2,347.5 403.1,347.5 403.9,347.5 404.8,347.5 405.7,347.5 406.6,347.5 407.4,337.9 408.3,333.4 409.2,337.8 410.0,342.3 410.9,331.9 411.8,334.5 412.7,335.2 413.5,335.8 414.4,341.5 415.3,344.6 416.1,342.3 417.0,343.4 417.9,343.3 418.8,343.1 419.6,341.8 420.5,343.6 421.4,293.2 422.2,294.3 423.1,296.9 424.0,294.8 424.9,315.9 425.7,305.5 426.6,305.7 427.5,304.2 428.4,373.4 429.2,375.5 430.1,375.6 431.0,375.6 431.8,375.6 432.7,375.6 433.6,375.6 434.5,375.6 435.3,375.6 436.2,375.6 437.1,375.6 437.9,375.6 438.8,375.6 439.7,375.6 440.6,375.6 441.4,375.6 442.3,375.6 443.2,375.6 444.1,375.6 444.9,375.6 445.8,375.6 446.7,375.6 447.5,375.6 448.4,375.6 449.3,375.6 450.2,375.6 451.0,375.6 451.9,375.6 452.8,375.6 453.6,375.6 454.5,375.6 455.4,375.6 456.3,375.6 457.1,375.6 458.0,375.6 458.9,375.6 459.7,375.6 460.6,375.6 461.5,375.6 462.4,375.6 463.2,375.6 464.1,375.6 465.0,375.6 465.9,375.6 466.7,375.6 467.6,375.6 468.5,375.6 469.3,375.6 470.2,375.6 471.1,375.6 472.0,375.6 472.8,375.6 473.7,375.6 474.6,375.6 475.4,375.6 476.3,375.6 477.2,375.6 478.1,375.6 478.9,375.6 479.8,375.6 480.7,375.6 481.5,375.6 482.4,375.6 483.3,375.6 484.2,375.6 485.0,369.9 485.9,370.0 486.8,368.9 487.7,367.0 488.5,367.3 489.4,374.8 490.3,375.4 491.1,370.4 492.0,369.9 492.9,374.1 493.8,374.3 494.6,351.8 495.5,348.8 496.4,353.8 497.2,348.4 498.1,356.7 499.0,358.6 499.9,356.9 500.7,358.1 501.6,366.8 502.5,367.7 503.3,367.7 504.2,368.7 505.1,368.8 506.0,368.8 506.8,368.8 507.7,368.8 508.6,368.8 509.5,367.1 510.3,367.1 511.2,369.8 512.1,369.3 512.9,365.6 513.8,367.6 514.7,369.4 515.6,357.0 516.4,361.0 517.3,357.3 518.2,357.5 519.0,359.1 519.9,363.5 520.8,364.8 521.7,366.4 522.5,370.6 523.4,368.3 524.3,368.4 525.2,368.4 526.0,368.4 526.9,368.4 527.8,368.4 528.6,368.4 529.5,368.4 530.4,370.3 531.3,372.1 532.1,368.9 533.0,373.2 533.9,376.4 534.7,376.4 535.6,376.3 536.5,380.8 537.4,383.2 538.2,385.8 539.1,385.9 540.0,385.9 540.8,385.9 541.7,385.9 542.6,385.9 543.5,385.9 544.3,385.9 545.2,385.9 546.1,385.9 547.0,385.9 547.8,385.9 548.7,385.9 549.6,385.9 550.4,385.9 551.3,385.9 552.2,385.9 553.1,385.9 553.9,385.9 554.8,385.9 555.7,385.9 556.5,385.9 557.4,385.9 558.3,385.9 559.2,385.9 560.0,385.9 560.9,385.9 561.8,388.6 562.6,388.7 563.5,385.9 564.4,363.6 565.3,353.5 566.1,356.1 567.0,357.7 567.9,360.1 568.8,357.0 569.6,359.8 570.5,359.8 571.4,356.9 572.2,360.4 573.1,369.8 574.0,364.4 574.9,365.4 575.7,363.9 576.6,365.2 577.5,368.7 578.3,372.1 579.2,378.5 580.1,378.6 581.0,378.6 581.8,378.6 582.7,378.6 583.6,378.6 584.4,378.6 585.3,378.6 586.2,380.9 587.1,378.3 587.9,378.8 588.8,373.6 589.7,368.8 590.6,364.7 591.4,363.2 592.3,359.9 593.2,353.2 594.0,352.9 594.9,352.7 595.8,339.2 596.7,345.1 597.5,345.1 598.4,347.3 599.3,326.1 600.1,327.3 601.0,323.6 601.9,327.5 602.8,342.8 603.6,341.5 604.5,343.1 605.4,343.7 606.3,342.8 607.1,343.9 608.0,343.7 608.9,348.5 609.7,349.8 610.6,353.5 611.5,353.7 612.4,353.7 613.2,353.7 614.1,353.7 615.0,353.7 615.8,353.7 616.7,353.7 617.6,347.7 618.5,344.9 619.3,344.1 620.2,392.7 621.1,383.0 621.9,386.1 622.8,387.9 623.7,381.1 624.6,384.7 625.4,331.6 626.3,324.4 627.2,334.0 628.1,335.2 628.9,339.0 629.8,343.2 630.7,342.8 631.5,342.9 632.4,334.0 633.3,329.8 634.2,298.8 635.0,307.9 635.9,301.2 636.8,294.1 637.6,269.6 638.5,272.5 639.4,273.3 640.3,275.7 641.1,223.8 642.0,217.5 642.9,227.1 643.7,246.7 644.6,244.9 645.5,251.5 646.4,257.5 647.2,244.9 648.1,248.1 649.0,251.8 649.9,258.7 650.7,256.6 651.6,284.1 652.5,280.0 653.3,275.8 654.2,275.5 655.1,286.4 656.0,286.5 656.8,286.5 657.7,286.5 658.6,286.5 659.4,286.5 660.3,286.5 661.2,286.5 662.1,286.5 662.9,286.5 663.8,286.5 664.7,286.5 665.6,286.5 666.4,286.5 667.3,286.5 668.2,286.5 669.0,286.5 669.9,286.5 670.8,286.5 671.7,286.5 672.5,286.5 673.4,286.5 674.3,286.5 675.1,286.5 676.0,286.5 676.9,286.5 677.8,286.5 678.6,286.5 679.5,286.5 680.4,286.5 681.2,286.5 682.1,286.5 683.0,286.5 683.9,288.2 684.7,287.6 685.6,294.8 686.5,298.3 687.4,299.0 688.2,295.7 689.1,298.5 690.0,296.9 690.8,300.2 691.7,289.6 692.6,293.7 693.5,275.6 694.3,266.0 695.2,264.1 696.1,264.6 696.9,249.6 697.8,254.3 698.7,269.4 699.6,275.5 700.4,287.9 701.3,289.8 702.2,296.3 703.0,296.5 703.9,296.5 704.8,296.5 705.7,296.5 706.5,296.5 707.4,296.5 708.3,296.5 709.2,296.5 710.0,296.5 710.9,296.5 711.8,296.5 712.6,296.5 713.5,296.5 714.4,296.5 715.3,286.6 716.1,291.2 717.0,294.7 717.9,313.4 718.7,307.4 719.6,311.4 720.5,316.8 721.4,304.1 722.2,296.6 723.1,296.0 724.0,295.9 724.8,288.4 725.7,288.3 726.6,289.9 727.5,288.1 728.3,267.9 729.2,273.2 730.1,284.4 731.0,288.1 731.8,293.5 732.7,295.6 733.6,299.8 734.4,305.7 735.3,305.8 736.2,305.8 737.1,305.8 737.9,305.8 738.8,305.8 739.7,305.8 740.5,305.8 741.4,305.8 742.3,305.8 743.2,305.8 744.0,305.8 744.9,305.8 745.8,305.8 746.7,305.8 747.5,305.8 748.4,305.8 749.3,305.8 750.1,305.8 751.0,305.8 751.9,305.8 752.8,305.8 753.6,305.8 754.5,305.8 755.4,305.8 756.2,305.8 757.1,305.8 758.0,305.8 758.9,305.8 759.7,305.8 760.6,305.8 761.5,305.8 762.3,305.8 763.2,305.8 764.1,305.8 765.0,305.8 765.8,305.8 766.7,305.8 767.6,305.8 768.5,305.8 769.3,305.8 770.2,305.8 771.1,305.8 771.9,305.8 772.8,305.8 773.7,305.8 774.6,305.8 775.4,305.8 776.3,305.8 777.2,305.8 778.0,305.8 778.9,305.8 779.8,305.8 780.7,305.8 781.5,305.8 782.4,305.8 783.3,305.8 784.1,305.8 785.0,305.8 785.9,305.8 786.8,305.8 787.6,305.8 788.5,305.8 789.4,305.8 790.3,305.8 791.1,305.8 792.0,305.8 792.9,305.8 793.7,305.8 794.6,305.8 795.5,305.8 796.4,305.8 797.2,305.8 798.1,305.8 799.0,305.8 799.8,305.8 800.7,305.8 801.6,305.8 802.5,305.8 803.3,305.8 804.2,305.8 805.1,305.8 805.9,305.8 806.8,305.8 807.7,305.8 808.6,305.8 809.4,305.8 810.3,305.8 811.2,305.8 812.1,305.8 812.9,305.8 813.8,305.8 814.7,305.8 815.5,305.8 816.4,305.8 817.3,305.8 818.2,305.8 819.0,305.8 819.9,305.8 820.8,305.8 821.6,305.8 822.5,305.8 823.4,305.8 824.3,305.8 825.1,305.8 826.0,305.8 826.9,298.5 827.8,301.9 828.6,301.2 829.5,308.8 830.4,306.0 831.2,303.3 832.1,303.8 833.0,311.7 833.9,310.2 834.7,309.7 835.6,312.7 836.5,312.6 837.3,312.4 838.2,310.4 839.1,314.8 840.0,314.9 840.8,312.6 841.7,311.8 842.6,310.6 843.4,308.4 844.3,304.3 845.2,308.4 846.1,308.0 846.9,292.6 847.8,296.8 848.7,298.6 849.6,298.3 850.4,287.7 851.3,287.4 852.2,290.0 853.0,292.9 853.9,294.9 854.8,293.8 855.7,293.1 856.5,289.4 857.4,218.9 858.3,215.9 859.1,215.9 860.0,215.9 860.9,213.2 861.8,222.6 862.6,215.5 863.5,209.9 864.4,212.0 865.2,207.8 866.1,221.5 867.0,224.2 867.9,234.9 868.7,233.5 869.6,238.2 870.5,239.8 871.4,230.9 872.2,229.3 873.1,232.3 874.0,231.9 874.8,201.8 875.7,194.5 876.6,204.7 877.5,208.0 878.3,215.3 879.2,216.4 880.1,216.3 880.9,217.2 881.8,209.8 882.7,199.4 883.6,201.3 884.4,198.2 885.3,166.9 886.2,169.2 887.0,164.6 887.9,168.3 888.8,168.7 889.7,167.7 890.5,167.7 891.4,175.0 892.3,149.0 893.2,160.1 894.0,159.9 894.9,163.0 895.8,178.1 896.6,192.5 897.5,186.5 898.4,186.7 899.3,190.4 900.1,190.6 901.0,190.6 901.9,190.6 902.7,190.6 903.6,190.6 904.5,190.6 905.4,190.6 906.2,190.6 907.1,190.6 908.0,190.6 908.9,190.6 909.7,190.6 910.6,190.6 911.5,190.6 912.3,190.6 913.2,190.6 914.1,190.6 915.0,190.6 915.8,190.6 916.7,190.6 917.6,190.6 918.4,190.6 919.3,190.6 920.2,190.6 921.1,190.6 921.9,190.6 922.8,190.6 923.7,190.6 924.5,201.0 925.4,198.0 926.3,200.9 927.2,213.0 928.0,214.6 928.9,214.8 929.8,214.8 930.7,214.8 931.5,214.8 932.4,214.8 933.3,214.8 934.1,214.8 935.0,214.8 935.9,214.8 936.8,214.8 937.6,214.8 938.5,214.8 939.4,214.8 940.2,214.8 941.1,214.8 942.0,214.8 942.9,214.8 943.7,214.8 944.6,214.8 945.5,214.8 946.3,214.8 947.2,214.8 948.1,214.8 949.0,211.3 949.8,210.5 950.7,213.8 951.6,132.9 952.5,132.9 953.3,132.9 954.2,132.9 955.1,108.1 955.9,103.5 956.8,98.0 957.7,98.2 958.6,144.7 959.4,137.8 960.3,141.5 961.2,152.3 962.0,150.7 962.9,150.7 963.8,184.7 964.7,184.9 965.5,184.9 966.4,184.9 967.3,184.9 968.1,184.9 969.0,184.9 969.9,184.9 970.8,184.9 971.6,184.9 972.5,184.9 973.4,184.9 974.3,184.9 975.1,184.9 976.0,184.9 976.9,184.9 977.7,184.9 978.6,184.9 979.5,184.9 980.4,184.9 981.2,184.9 982.1,184.9 983.0,184.9 983.8,184.9 984.7,184.9 985.6,184.9 986.5,184.9 987.3,184.9 988.2,184.9 989.1,184.9 990.0,184.9 990.8,184.9 991.7,184.9 992.6,184.9 993.4,184.9 994.3,184.9 995.2,184.9 996.1,184.9 996.9,184.9 997.8,184.9 998.7,184.9 999.5,184.9 1000.4,184.9 1001.3,184.9 1002.2,184.9 1003.0,184.9 1003.9,184.9 1004.8,184.9 1005.6,184.9 1006.5,184.9 1007.4,184.9 1008.3,184.9 1009.1,184.9 1010.0,184.9 1010.9,184.9 1011.8,184.9 1012.6,184.9 1013.5,184.9 1014.4,184.9 1015.2,184.9 1016.1,184.9 1017.0,184.9 1017.9,184.9 1018.7,184.9 1019.6,184.9 1020.5,184.9 1021.3,184.9 1022.2,184.9 1023.1,184.9 1024.0,184.9 1024.8,184.9 1025.7,184.9 1026.6,184.9 1027.4,184.9 1028.3,184.9 1029.2,183.8 1030.1,184.0 1030.9,185.3 1031.8,182.6 1032.7,182.2 1033.6,186.7 1034.4,187.6 1035.3,191.5 1036.2,187.9 1037.0,183.3 1037.9,182.9 1038.8,181.3 1039.7,184.5 1040.5,183.5 1041.4,188.8 1042.3,166.0 1043.1,167.8 1044.0,168.2 1044.9,163.9 1045.8,158.9 1046.6,151.0 1047.5,152.8 1048.4,153.9 1049.3,161.2 1050.1,156.4 1051.0,161.7 1051.9,162.6 1052.7,168.2 1053.6,171.9 1054.5,171.4 1055.4,169.2 1056.2,154.8 1057.1,158.5 1058.0,156.4 1058.8,156.6 1059.7,190.6 1060.6,190.8 1061.5,190.8 1062.3,190.8 1063.2,190.8 1064.1,190.8 1064.9,190.8 1065.8,190.8 1066.7,190.8 1067.6,190.8 1068.4,190.8 1069.3,190.8 1070.2,190.8 1071.1,190.8 1071.9,190.8 1072.8,190.8 1073.7,190.8 1074.5,190.8 1075.4,190.8 1076.3,190.8 1077.2,190.8 1078.0,190.8 1078.9,190.8 1079.8,190.8 1080.6,190.8 1081.5,190.8 1082.4,190.8 1083.3,190.8 1084.1,190.8 1085.0,190.8 1085.9,190.8 1086.7,190.8 1087.6,190.8 1088.5,190.8 1089.4,190.8 1090.2,190.8 1091.1,190.8 1092.0,190.8 1092.9,190.8 1093.7,190.8 1094.6,190.8 1095.5,190.8 1096.3,190.8 1097.2,190.8 1098.1,190.8 1099.0,190.8 1099.8,190.8 1100.7,190.8 1101.6,190.8 1102.4,190.8 1103.3,190.8 1104.2,190.8 1105.1,190.8 1105.9,190.8 1106.8,190.8 1107.7,190.8 1108.5,190.8 1109.4,190.8 1110.3,190.8 1111.2,190.8 1112.0,190.8 1112.9,190.8 1113.8,190.8 1114.7,190.8 1115.5,190.8 1116.4,190.8 1117.3,190.8 1118.1,190.8 1119.0,190.8 1119.9,190.8 1120.8,190.8 1121.6,190.8 1122.5,190.8 1123.4,190.8 1124.2,190.8 1125.1,190.8 1126.0,190.8 1126.9,190.8 1127.7,190.8 1128.6,190.8 1129.5,190.8 1130.4,190.8 1131.2,190.8 1132.1,190.8 1133.0,190.8 1133.8,190.8 1134.7,190.8 1135.6,190.8 1136.5,190.8 1137.3,190.8 1138.2,190.8 1139.1,190.8 1139.9,190.8 1140.8,190.8 1141.7,190.8 1142.6,190.8 1143.4,190.8 1144.3,190.8 1145.2,190.8 1146.0,190.8 1146.9,190.8 1147.8,190.8 1148.7,190.8 1149.5,190.8 1150.4,211.3 1151.3,212.0 1152.2,213.0 1153.0,212.8 1153.9,185.8 1154.8,193.5 1155.6,192.2 1156.5,195.6 1157.4,203.3 1158.3,206.9 1159.1,198.4 1160.0,198.8" />
<text x="90" y="442" font-size="12" fill="#64748b">2025-01-02</text>
<text x="583.0" y="442" font-size="12" fill="#64748b">2025-08-20</text>
<text x="1088" y="442" font-size="12" fill="#64748b">2026-04-13</text>
<text x="8" y="112" font-size="12" fill="#64748b">30.05%</text>
<text x="8" y="418" font-size="12" fill="#64748b">-14.94%</text>
<g><circle cx="122.3" cy="-29510.7" r="6" fill="#16a34a" stroke="#ffffff" stroke-width="2" /><text x="130.3" y="-29520.7" font-size="11" font-weight="700" fill="#16a34a">BUY</text></g>
<g><circle cx="145.8" cy="-28450.9" r="6" fill="#dc2626" stroke="#ffffff" stroke-width="2" /><text x="153.8" y="-28432.9" font-size="11" font-weight="700" fill="#dc2626">SELL</text></g>
<g><circle cx="158.9" cy="-30278.8" r="6" fill="#16a34a" stroke="#ffffff" stroke-width="2" /><text x="166.9" y="-30288.8" font-size="11" font-weight="700" fill="#16a34a">BUY</text></g>
<g><circle cx="170.2" cy="-29482.2" r="6" fill="#dc2626" stroke="#ffffff" stroke-width="2" /><text x="178.2" y="-29464.2" font-size="11" font-weight="700" fill="#dc2626">SELL</text></g>
<g><circle cx="196.4" cy="-30677.1" r="6" fill="#16a34a" stroke="#ffffff" stroke-width="2" /><text x="204.4" y="-30687.1" font-size="11" font-weight="700" fill="#16a34a">BUY</text></g>
<g><circle cx="211.2" cy="-29560.4" r="6" fill="#dc2626" stroke="#ffffff" stroke-width="2" /><text x="219.2" y="-29542.4" font-size="11" font-weight="700" fill="#dc2626">SELL</text></g>
<g><circle cx="231.3" cy="-29475.1" r="6" fill="#16a34a" stroke="#ffffff" stroke-width="2" /><text x="239.3" y="-29485.1" font-size="11" font-weight="700" fill="#16a34a">BUY</text></g>
<g><circle cx="240.0" cy="-29126.6" r="6" fill="#dc2626" stroke="#ffffff" stroke-width="2" /><text x="248.0" y="-29108.6" font-size="11" font-weight="700" fill="#dc2626">SELL</text></g>
<g><circle cx="255.7" cy="-29866.3" r="6" fill="#16a34a" stroke="#ffffff" stroke-width="2" /><text x="263.7" y="-29876.3" font-size="11" font-weight="700" fill="#16a34a">BUY</text></g>
<g><circle cx="264.4" cy="-28799.4" r="6" fill="#dc2626" stroke="#ffffff" stroke-width="2" /><text x="272.4" y="-28781.4" font-size="11" font-weight="700" fill="#dc2626">SELL</text></g>
<g><circle cx="311.5" cy="-27021.3" r="6" fill="#16a34a" stroke="#ffffff" stroke-width="2" /><text x="319.5" y="-27031.3" font-size="11" font-weight="700" fill="#16a34a">BUY</text></g>
<g><circle cx="381.3" cy="-29503.5" r="6" fill="#dc2626" stroke="#ffffff" stroke-width="2" /><text x="389.3" y="-29485.5" font-size="11" font-weight="700" fill="#dc2626">SELL</text></g>
<g><circle cx="408.3" cy="-29759.6" r="6" fill="#16a34a" stroke="#ffffff" stroke-width="2" /><text x="416.3" y="-29769.6" font-size="11" font-weight="700" fill="#16a34a">BUY</text></g>
<g><circle cx="431.0" cy="-28081.1" r="6" fill="#dc2626" stroke="#ffffff" stroke-width="2" /><text x="439.0" y="-28063.1" font-size="11" font-weight="700" fill="#dc2626">SELL</text></g>
<g><circle cx="485.9" cy="-27220.5" r="6" fill="#16a34a" stroke="#ffffff" stroke-width="2" /><text x="493.9" y="-27230.5" font-size="11" font-weight="700" fill="#16a34a">BUY</text></g>
<g><circle cx="506.0" cy="-27391.2" r="6" fill="#dc2626" stroke="#ffffff" stroke-width="2" /><text x="514.0" y="-27373.2" font-size="11" font-weight="700" fill="#dc2626">SELL</text></g>
<g><circle cx="510.3" cy="-27725.4" r="6" fill="#16a34a" stroke="#ffffff" stroke-width="2" /><text x="518.3" y="-27735.4" font-size="11" font-weight="700" fill="#16a34a">BUY</text></g>
<g><circle cx="525.2" cy="-27697.0" r="6" fill="#dc2626" stroke="#ffffff" stroke-width="2" /><text x="533.2" y="-27679.0" font-size="11" font-weight="700" fill="#dc2626">SELL</text></g>
<g><circle cx="531.3" cy="-28536.3" r="6" fill="#16a34a" stroke="#ffffff" stroke-width="2" /><text x="539.3" y="-28546.3" font-size="11" font-weight="700" fill="#16a34a">BUY</text></g>
<g><circle cx="540.0" cy="-27810.8" r="6" fill="#dc2626" stroke="#ffffff" stroke-width="2" /><text x="548.0" y="-27792.8" font-size="11" font-weight="700" fill="#dc2626">SELL</text></g>
<g><circle cx="562.6" cy="-27853.5" r="6" fill="#16a34a" stroke="#ffffff" stroke-width="2" /><text x="570.6" y="-27863.5" font-size="11" font-weight="700" fill="#16a34a">BUY</text></g>
<g><circle cx="581.0" cy="-28138.0" r="6" fill="#dc2626" stroke="#ffffff" stroke-width="2" /><text x="589.0" y="-28120.0" font-size="11" font-weight="700" fill="#dc2626">SELL</text></g>
<g><circle cx="587.1" cy="-29005.7" r="6" fill="#16a34a" stroke="#ffffff" stroke-width="2" /><text x="595.1" y="-29015.7" font-size="11" font-weight="700" fill="#16a34a">BUY</text></g>
<g><circle cx="612.4" cy="-30157.9" r="6" fill="#dc2626" stroke="#ffffff" stroke-width="2" /><text x="620.4" y="-30139.9" font-size="11" font-weight="700" fill="#dc2626">SELL</text></g>
<g><circle cx="618.5" cy="-33742.6" r="6" fill="#16a34a" stroke="#ffffff" stroke-width="2" /><text x="626.5" y="-33752.6" font-size="11" font-weight="700" fill="#16a34a">BUY</text></g>
<g><circle cx="656.8" cy="-36246.1" r="6" fill="#dc2626" stroke="#ffffff" stroke-width="2" /><text x="664.8" y="-36228.1" font-size="11" font-weight="700" fill="#dc2626">SELL</text></g>
<g><circle cx="684.7" cy="-33294.5" r="6" fill="#16a34a" stroke="#ffffff" stroke-width="2" /><text x="692.7" y="-33304.5" font-size="11" font-weight="700" fill="#16a34a">BUY</text></g>
<g><circle cx="703.9" cy="-32903.3" r="6" fill="#dc2626" stroke="#ffffff" stroke-width="2" /><text x="711.9" y="-32885.3" font-size="11" font-weight="700" fill="#dc2626">SELL</text></g>
<g><circle cx="716.1" cy="-35463.8" r="6" fill="#16a34a" stroke="#ffffff" stroke-width="2" /><text x="724.1" y="-35473.8" font-size="11" font-weight="700" fill="#16a34a">BUY</text></g>
<g><circle cx="736.2" cy="-34439.6" r="6" fill="#dc2626" stroke="#ffffff" stroke-width="2" /><text x="744.2" y="-34421.6" font-size="11" font-weight="700" fill="#dc2626">SELL</text></g>
<g><circle cx="827.8" cy="-30157.9" r="6" fill="#16a34a" stroke="#ffffff" stroke-width="2" /><text x="835.8" y="-30167.9" font-size="11" font-weight="700" fill="#16a34a">BUY</text></g>
<g><circle cx="840.8" cy="-30684.2" r="6" fill="#dc2626" stroke="#ffffff" stroke-width="2" /><text x="848.8" y="-30666.2" font-size="11" font-weight="700" fill="#dc2626">SELL</text></g>
<g><circle cx="841.7" cy="-30805.1" r="6" fill="#16a34a" stroke="#ffffff" stroke-width="2" /><text x="849.7" y="-30815.1" font-size="11" font-weight="700" fill="#16a34a">BUY</text></g>
<g><circle cx="901.0" cy="-36295.9" r="6" fill="#dc2626" stroke="#ffffff" stroke-width="2" /><text x="909.0" y="-36277.9" font-size="11" font-weight="700" fill="#dc2626">SELL</text></g>
<g><circle cx="925.4" cy="-36210.6" r="6" fill="#16a34a" stroke="#ffffff" stroke-width="2" /><text x="933.4" y="-36220.6" font-size="11" font-weight="700" fill="#16a34a">BUY</text></g>
<g><circle cx="929.8" cy="-35456.6" r="6" fill="#dc2626" stroke="#ffffff" stroke-width="2" /><text x="937.8" y="-35438.6" font-size="11" font-weight="700" fill="#dc2626">SELL</text></g>
<g><circle cx="949.8" cy="-35627.3" r="6" fill="#16a34a" stroke="#ffffff" stroke-width="2" /><text x="957.8" y="-35637.3" font-size="11" font-weight="700" fill="#16a34a">BUY</text></g>
<g><circle cx="965.5" cy="-36808.0" r="6" fill="#dc2626" stroke="#ffffff" stroke-width="2" /><text x="973.5" y="-36790.0" font-size="11" font-weight="700" fill="#dc2626">SELL</text></g>
<g><circle cx="1030.1" cy="-33194.9" r="6" fill="#16a34a" stroke="#ffffff" stroke-width="2" /><text x="1038.1" y="-33204.9" font-size="11" font-weight="700" fill="#16a34a">BUY</text></g>
<g><circle cx="1061.5" cy="-32874.8" r="6" fill="#dc2626" stroke="#ffffff" stroke-width="2" /><text x="1069.5" y="-32856.8" font-size="11" font-weight="700" fill="#dc2626">SELL</text></g>
<g><circle cx="1151.3" cy="-26864.8" r="6" fill="#16a34a" stroke="#ffffff" stroke-width="2" /><text x="1159.3" y="-26874.8" font-size="11" font-weight="700" fill="#16a34a">BUY</text></g>
<text x="40" y="732" font-size="13" fill="#334155">初始资金 1,000,000.00 | 结束资金 1,158,796.47 | 总盈亏 +158,796.47</text>
</svg>